<?xml version="1.0" encoding="utf-8"?>
<!-- Generator: Adobe Illustrator 16.0.0, SVG Export Plug-In . SVG Version: 6.00 Build 0)  -->
<!DOCTYPE svg PUBLIC "-//W3C//DTD SVG 1.1//EN" "http://www.w3.org/Graphics/SVG/1.1/DTD/svg11.dtd">
<svg version="1.1" id="Layer_1" xmlns="http://www.w3.org/2000/svg" xmlns:xlink="http://www.w3.org/1999/xlink" x="0px" y="0px"
	 width="2390.764px" height="957.464px" viewBox="0 0 2390.764 957.464" enable-background="new 0 0 2390.764 957.464"
	 xml:space="preserve">
<g>
	<rect width="2390.764" height="957.464"/>
</g>
<g>
	<g>
		<g>
			<g>
				<path fill="#ED1F24" d="M1004.641,809.096c-0.986,0.801-0.112,0.768-0.163,0.936
					C1006.058,808.656,1004.421,809.042,1004.641,809.096z"/>
				<path fill="#ED1F24" d="M1015.619,793.285l0.458,0.601c0,0,0.05-0.757,0.059-1.534c0.014-0.775-0.015-1.57-0.015-1.57
					s-0.115,0.631-0.231,1.262C1015.754,792.664,1015.619,793.285,1015.619,793.285z"/>
				<path fill="#ED1F24" d="M1026.757,778.947c-2.688-0.393-3.395,1.056-3.983,2.77c-0.567,1.725-1.064,3.69-2.665,4.667
					l-1.112,0.034c0,0,0.482,0.637,0.965,1.273c0.459,0.625,0.918,1.249,0.918,1.249c1.045-1.631,1.87-3.691,2.709-5.587
					C1024.436,781.463,1025.313,779.746,1026.757,778.947z"/>
				<path fill="#ED1F24" d="M1043.461,776.666c-2.416-0.55-0.137-2.354-2.294,1.324c0.37-0.055,0.539-0.04,0.789-0.055
					C1042.223,777.641,1042.629,777.254,1043.461,776.666z"/>
				<path fill="#ED1F24" d="M1041.956,777.936C1040.647,779.372,1044.512,777.84,1041.956,777.936L1041.956,777.936z"/>
				<path fill="#ED1F24" d="M1047.341,770.977c0,0,0.014,0.694,0.027,1.389c-0.003,0.686-0.005,1.372-0.005,1.372
					c1.63,0.237,3.68-1.188,3.949-0.144C1052.309,771.271,1050.521,770.959,1047.341,770.977z"/>
				<path fill="#ED1F24" d="M1044.899,767.15l-0.057,1.397C1045.542,768.647,1045.988,768.493,1044.899,767.15z"/>
				<path fill="#ED1F24" d="M1044.621,771.461c0,0,0.063-0.724,0.127-1.448c0.047-0.732,0.095-1.465,0.095-1.465
					c-1.172-0.187-2.987-1.049-0.255,1.262C1043.094,768.816,1044.318,770.025,1044.621,771.461z"/>
				<path fill="#ED1F24" d="M1042.689,772.21c-2.17,0.462-4.045,1.524-4.196-1.313c-1.198,2.036-0.834,3.34,0.167,3.644
					C1039.656,774.842,1041.358,774.178,1042.689,772.21z"/>
				<path fill="#ED1F24" d="M1022.764,775.955c0,0-0.564,0.237-1.129,0.474c-0.553,0.243-1.106,0.485-1.106,0.485
					s0.146,0.52,0.293,1.039c0.136,0.514,0.271,1.027,0.271,1.027C1020.806,777.945,1024.188,776.533,1022.764,775.955z"/>
				<path fill="#ED1F24" d="M1061.937,761.146c-1.303-0.826-4.37-1.268-6.277-2.018l0.3,2.182
					C1057.563,761.07,1059.742,760.184,1061.937,761.146z"/>
				<path fill="#ED1F24" d="M1055.659,759.129c0,0-0.132-0.827-0.263-1.653c-0.148-0.835-0.297-1.671-0.297-1.671
					C1053.177,757.559,1054.016,758.477,1055.659,759.129z"/>
				<path fill="#ED1F24" d="M1038.789,763.609c0,0,0.429,1.465,0.785,2.893c0.364,1.432,0.656,2.826,0.656,2.826
					s-0.161-1.57-0.408-3.185c-0.232-1.606-0.578-3.271-0.578-3.271L1038.789,763.609z"/>
				<path fill="#ED1F24" d="M1069.939,753.561l2.427,2.945c0,0-0.835-1.188-1.67-2.375c-0.867-1.204-1.734-2.408-1.734-2.408
					L1069.939,753.561z"/>
				<path fill="#ED1F24" d="M1074.34,748.08c2.295,2.432,6.557,1.563,7.589,3.432c0.931-1.62-0.665-4.211-2.159-6.575
					C1080.074,746.799,1078.492,747.819,1074.34,748.08z"/>
				<path fill="#ED1F24" d="M1077.751,741.213c0.271,0.991,1.142,2.317,2.019,3.724
					C1079.597,743.941,1079.072,742.782,1077.751,741.213z"/>
				<path fill="#ED1F24" d="M1058.975,752.568c1.045,0.29,3.728,1.186,5.824,0.535l-5.029-1.334
					C1059.527,752.013,1059.253,752.288,1058.975,752.568z"/>
				<path fill="#ED1F24" d="M1059.607,751.729l0.162,0.04c0.873-0.86,1.504-1.443,1.786-1.688
					C1061.316,750.293,1060.739,750.794,1059.607,751.729z"/>
				<path fill="#ED1F24" d="M1058.771,752.768c0.077-0.072,0.137-0.124,0.203-0.199
					C1058.488,752.439,1058.308,752.417,1058.771,752.768z"/>
				<path fill="#ED1F24" d="M1046.443,759.454c-0.538-1.164-0.881-2.716-1.768-3.864c-0.878-1.146-2.309-1.894-4.833-1.351
					c0.988,1.137,2.192,1.544,3.393,2.125C1044.429,756.942,1045.625,757.698,1046.443,759.454z"/>
				<path fill="#ED1F24" d="M1052.657,751.182l-2.75,1.854c1.099,0.488,3.007,0.862,3.609,2.051c0,0-0.204-0.97-0.407-1.94
					C1052.883,752.163,1052.657,751.182,1052.657,751.182z"/>
				<polygon fill="#ED1F24" points="1052.209,749.372 1052.657,751.182 1053.689,750.501 				"/>
				<path fill="#ED1F24" d="M1069.848,742.751c-1.239-2.022-0.543-3.2,0.117-4.593c-2.031,0.823-3.62,1.934-4.642,3.234
					C1066.665,742.327,1068.832,744.22,1069.848,742.751z"/>
				<path fill="#ED1F24" d="M1064.438,746.894c-0.045-0.12-0.022-0.232-0.073-0.348
					C1063.869,746.486,1063.655,746.532,1064.438,746.894z"/>
				<path fill="#ED1F24" d="M1079.717,726.104c-0.389-0.104-0.737-0.198-1.137-0.306c0.302,0.174,0.56,0.324,0.897,0.52
					L1079.717,726.104z"/>
				<path fill="#ED1F24" d="M1064.27,741.172c-1.697,0.533-1.021,1.707-0.064,2.981c0.143-0.968,0.48-1.9,1.118-2.761
					C1064.721,740.973,1064.289,740.733,1064.27,741.172z"/>
				<path fill="#ED1F24" d="M1078.341,736.773c-1.502-0.038-2.887,0.081-4.214,0.271
					C1076.119,737.347,1079.503,737.619,1078.341,736.773z"/>
				<path fill="#ED1F24" d="M1065.901,746.853c0.03,0.085,0.075,0.17,0.076,0.246
					C1067.23,747.275,1066.719,747.073,1065.901,746.853z"/>
				<path fill="#ED1F24" d="M1065.901,746.853c-0.222-0.827-1.015-1.791-1.696-2.699c-0.131,0.78-0.102,1.58,0.16,2.393
					C1064.789,746.587,1065.38,746.713,1065.901,746.853z"/>
				<path fill="#ED1F24" d="M1050.97,706.284c0.167,0.147,0.246,0.464,0.236,0.888c-0.003,0.106-0.011,0.219-0.023,0.338
					c-0.008,0.059-0.017,0.12-0.024,0.183c0.079,0.107,0.16,0.218,0.243,0.331c0.317,0.445,0.557,0.881,0.702,1.292
					c0.292,0.822,0.209,1.546-0.361,2.05c-0.285,0.253-0.691,0.451-1.232,0.58c-0.271,0.064-0.575,0.112-0.915,0.141
					c-0.169,0.015-0.349,0.023-0.536,0.028c-0.119-0.011-0.146,0.026-0.172,0.063l-0.096,0.101c-0.02,0.088-0.044,0.168-0.048,0.254
					c0.105,0.141,0.224,0.284,0.355,0.429c0.263,0.29,0.576,0.586,0.937,0.888c0.719,0.604,1.622,1.229,2.668,1.864
					c2.094,1.27,4.761,2.578,7.692,3.839c5.855,2.519,12.806,4.866,18.185,6.248c-2.145-1.189-4.118-2.193-5.447-6.074
					c-1.688-0.3-4.219,0.189-6.68,0.236c-2.469,0.043-4.859-0.351-6.484-2.531c-0.643-4.58,3.368-1.77,7.085-1.939
					c-3.617-0.967-5.283-3.168-7.384-5.697c-1.046-1.263-2.191-2.604-3.707-3.893c-0.758-0.645-1.608-1.275-2.581-1.877
					c-0.063-0.038-0.124-0.076-0.185-0.112c-0.065-0.04-0.133-0.079-0.119-0.077l-0.048-0.05c-0.033-0.03-0.069-0.058-0.11-0.078
					c-0.08-0.043-0.176-0.065-0.287-0.063c0,0-0.248,0.808-0.496,1.615c-0.124,0.404-0.248,0.808-0.342,1.11
					c-0.097,0.126,0.042,0.343,0.08,0.464c0.049,0.128,0.078,0.201,0.078,0.201c-0.531-0.254-0.365-0.24-0.436-0.378
					c-0.023-0.113-0.053-0.257-0.075-0.37C1051.382,706.055,1051.276,705.922,1050.97,706.284z"/>
				<path fill="#ED1F24" d="M1074.663,729.902l-0.136,1.247c1.684-0.646,4.208-0.438,9.247,0.149
					c-1.102-2.748-2.72-4.026-4.297-4.98l-4.345,4.272L1074.663,729.902z"/>
				<path fill="#ED1F24" d="M1071.182,735.361c-4.428-3.271-5.008-6.731-11.541-8.107c-1.551,3.085,2.883,4.174,3.821,6.959
					c1.037-2.595,1.501-1.911,2.356-0.813c0.859,1.101,2.056,2.585,4.758,1.703c0.16,1.306-0.219,2.215-0.611,3.056
					c1.246-0.49,2.628-0.872,4.162-1.113c-0.158-0.023-0.27-0.04-0.398-0.059l-0.001,0.029l-0.075-0.045
					c-0.786-0.13-1.219-0.261-0.677-0.289c-0.051-0.046-0.029-0.111-0.026-0.144c-0.678-0.385-1.222-0.776-1.739-1.163
					c2.08-0.75,1.479,0.467,1.739,1.163c0.232,0.14,0.443,0.295,0.703,0.433c0.031,0.01,0.054,0.012,0.076,0.016
					c0,0,0.218-1.45,0.436-2.899c0.213-1.452,0.363-2.938,0.363-2.938C1073.061,731.727,1072.284,732.986,1071.182,735.361z"/>
				<path fill="#ED1F24" d="M1032.938,747.443c0.432,0.022,0.713,0.172,1.007,0.305
					C1033.628,747.186,1033.354,746.894,1032.938,747.443z"/>
				<path fill="#ED1F24" d="M1036.457,746.636c0.372,0.642,1.816,1.745,0.732,2.679c-1.767,0.396-1.9-0.959-3.245-1.566
					c0.704,1.244,1.437,3.837,4.641,2.651l-0.336-0.61c1.261-0.627,3.55-0.915,5.617-0.944c2.063-0.032,3.886,0.186,4.056,0.491
					C1043.786,747.992,1040.79,747.135,1036.457,746.636z"/>
				<path fill="#ED1F24" d="M1051.725,739.733c0,0,0.076-1.263,0.152-2.526c0.055-1.275,0.108-2.55,0.108-2.55l-5.317-0.032
					l2.49,1.123C1046.828,737.535,1050.074,738.532,1051.725,739.733z"/>
				<polygon fill="#ED1F24" points="1082.779,727.068 1088.143,730.488 1081.711,724.211 				"/>
				<polygon fill="#ED1F24" points="1085.958,721.934 1091.025,724.77 1088.914,721.908 				"/>
				<path fill="#ED1F24" d="M1199.604,396.371l0.359-1.361C1199.748,395.63,1199.646,396.049,1199.604,396.371z"/>
				<path fill="#ED1F24" d="M1194.949,405.162l0.366,0.462C1195.264,405.079,1195.156,404.813,1194.949,405.162z"/>
				<path fill="#ED1F24" d="M1172.669,598.707c8.771,2.107,22.08,6.164,12.572,1.709l-9.451-4.005
					C1176.684,598.451,1175.098,598.883,1172.669,598.707z"/>
				<path fill="#ED1F24" d="M1164.703,480.906c-0.19,0.119-0.389,0.243-0.586,0.366c0.082,0.308,0.162,0.606,0.238,0.894
					c-0.139-0.005,0.451,0.341,0.766,0.553c0.366,0.236,0.729,0.471,1.086,0.702c0.724,0.467,1.43,0.922,2.116,1.364
					c-0.864-0.737-1.787-1.523-2.751-2.345c-0.234-0.202-0.471-0.407-0.711-0.613l-0.179-0.155c-0.054-0.049-0.013-0.052-0.023-0.08
					l0.009-0.135C1164.68,481.275,1164.691,481.092,1164.703,480.906z"/>
				<path fill="#ED1F24" d="M1160.777,477.459l1.842-2.033C1162.117,475.841,1161.517,476.49,1160.777,477.459z"/>
				<path fill="#ED1F24" d="M1224.669,348.071l-0.22-1.979C1223.192,348.274,1224.266,347.611,1224.669,348.071z"/>
				<path fill="#ED1F24" d="M1121.712,670.722c3.916,0.082,5.979-0.394,7.063-1.186
					C1123.193,668.991,1115.842,667.089,1121.712,670.722z"/>
				<path fill="#ED1F24" d="M1253.141,428.454c-1.399-1.638-3.211-2.967-5.367-4.057
					C1249.059,426.008,1250.7,427.388,1253.141,428.454z"/>
				<path fill="#ED1F24" d="M1131.73,665.48c-0.949-0.148-1.514-0.105-2.342-0.185c0.534,1.687,0.793,3.24-0.613,4.24
					C1132.911,669.945,1136.028,669.583,1131.73,665.48z"/>
				<path fill="#ED1F24" d="M1336.824,185.983c0.123-0.085,0.25-0.204,0.369-0.275
					C1337.133,185.603,1336.999,185.75,1336.824,185.983z"/>
				<path fill="#ED1F24" d="M1383.871,151.419c-0.201,0.578-0.649,1.405-1.057,2.199
					C1383.116,153.329,1383.443,152.677,1383.871,151.419z"/>
				<path fill="#ED1F24" d="M1104.273,704.008C1103.865,705.238,1104.854,704.533,1104.273,704.008L1104.273,704.008z"/>
				<path fill="#ED1F24" d="M1075.426,696.24c-0.563-0.594-1.354-1.231-2.789-2.002
					C1074.098,695.104,1074.967,695.75,1075.426,696.24z"/>
				<path fill="#ED1F24" d="M1090.948,630.107c0.019-0.033,0.033-0.06,0.054-0.098
					C1090.637,630.252,1090.703,630.212,1090.948,630.107z"/>
				<path fill="#ED1F24" d="M1100.115,704.045c1.09,0.018,2.103-0.087,2.955-0.328
					C1102.398,703.67,1101.455,703.747,1100.115,704.045z"/>
				<path fill="#ED1F24" d="M1103.311,705.39c-0.575,0.202-0.957,0.396-1.343,0.571
					C1102.924,706.632,1103.688,706.863,1103.311,705.39z"/>
				<path fill="#ED1F24" d="M1105.066,702.408c-0.356,0.641-1.11,1.023-1.996,1.309c0.597,0.022,1.029,0.126,1.203,0.291
					C1104.413,703.657,1104.632,703.174,1105.066,702.408z"/>
				<path fill="#ED1F24" d="M1276.402,272.556c0.074-0.053,0.146-0.123,0.235-0.176
					C1276.984,271.056,1276.729,271.57,1276.402,272.556z"/>
				<path fill="#ED1F24" d="M1130.412,540.301c-0.016,0.059-0.002,0.101-0.013,0.156c0.038-0.049,0.086-0.109,0.12-0.152
					L1130.412,540.301z"/>
				<path fill="#ED1F24" d="M1131.62,535.768c0.473,2.409-0.172,3.337-1.101,4.537l3.719,0.111L1131.62,535.768z"/>
				<path fill="#ED1F24" d="M1210.503,375.176l-2.472,2.366c0.32-4.29,2.207-6.512-0.559-4.524
					c3.033,2.156-5.67,11.338-2.608,13.473l-1.704,1.525c0.322-0.524,0.175-0.714,0.495-1.231c-3.536,2.854,0.884,3.969-2.049,8.486
					c-1.114,1.527-2.198,2.437-2.003,1.101l-1.102,4.123c-0.623,1.043-1.064,0.482-0.444-0.557l-2.666,5.779l-0.076-0.093
					c0.105,1.073-0.03,3.312-0.146,4.377c-1.224,1.188,0.018-0.899-0.591-0.746l-0.788,3.544c-1.51,0.84-1.061-2.199,0.196-4.289
					c-4.866,1.213-0.483,3.028-5.657,8.357l1.076-3.18c-2.879,0.946-3.362,3.609-6.265,6.362c1.034-0.483,6.418-5.197,5.53-1.367
					c-0.741,0.832-1.505,2.036-1.754,4.216c-1.212-0.586-1.826,1.355-2.896,3.636l-1.521-0.95c-0.774,2.657,0.149,2.874,0.156,4.665
					c-1.506,2.636-3.03,2.583-4.397,2.702c-2.42,4.223,3.489-2.014,1.235,3.281c-2.411,3.312-3.02,6.175-4.19,10.975
					c-1.799,2.264-0.775-0.928-1.685-0.245l0.195,2.88c-0.3,0.535-0.611,0.163-0.768-0.024c-0.424,2.139,1.547,0.948,0.537,4.142
					c1.396,1.67-5.59,4.849-5.336,9.531c-0.9,0.688-0.783-0.922-1.548-0.947c-1.109,5.715-1.113,4.819-1.32,9.846l-2.761,3.037
					c2.463-2.022,2.308,2.001,2.084,5.48c0.129-0.08,0.256-0.159,0.379-0.236c-0.063-0.098,0.43,0.07,0.741,0.153
					c0.339,0.096,0.673,0.19,1.004,0.284c1.306,0.366,2.548,0.715,3.712,1.041c2.288,0.634,4.167,1.132,5.402,1.4l5.611,8.406
					c-2.678-0.595-7.479-3.473-13.229-7.17c1.055,0.896,2.106,1.771,3.1,2.535c-1.554-0.234-3.221-0.717-4.966-1.389
					c-0.873-0.336-1.766-0.72-2.673-1.144c-0.184-0.087-0.357-0.169-0.538-0.255l-0.072-0.043c-0.048-0.033-0.093-0.072-0.136-0.116
					c-0.345-0.358-0.556-1.091-0.721-1.903c0.59-0.415,1.2-0.813,1.8-1.198c-0.428-1.62-1-3.218-2.061-3.433
					c0.041,0.392-0.077,1.052-0.294,1.735c-0.122-0.429-0.269-0.735-0.497-0.673c-0.245,0.076-0.12,0.734-0.073,1.692l-2.305,0.196
					l0.591,0.6l-4.029,5.557c-0.268,5.229,0.57,10.288-2.007,17.554c-0.483-2.341-1.955-1.39-3.456-2.223
					c2.537-1.104,1.857-5.694,3.896-9.123c-1.063,1.789-1.607,1.023-1.639,0.424l-1.553,7.114c-1.197-0.752-1.596,0.905-2.913,2.325
					c3.1-0.066-0.609,5.562-1.088,8.529c-0.912-0.239-1.468-1.272,0.246-4.35c-3.541,2.604,0.765,5.926-2.468,8.6
					c0.35-0.784,0.678-1.141,0.4-1.65c-0.124,2.165-2.823,6.309-3.05,4.92l0.352-0.781c-2.745,5.004-7.517,15.63-5.803,17.405
					c-0.293-0.079-2.187-1.888-2.459-2.402c0,0,0.648,3.139,1.298,6.277c0.159,0.784,0.318,1.568,0.468,2.303l0.014,0.069
					l0.306,0.21l0.633,0.43c0.419,0.285,0.834,0.566,1.245,0.846c0.82,0.559,1.624,1.105,2.405,1.637
					c1.562,1.063,3.037,2.068,4.4,2.996c5.433,3.707,9.055,6.179,9.055,6.179c-3.887-2.142-9.281-4.713-15.285-7.498
					c-0.744-0.344-1.505-0.696-2.279-1.054c-0.383-0.177-0.769-0.354-1.157-0.534l-0.583-0.269l-0.143-0.065l-0.018-0.005
					l-0.036-0.01c-0.188-0.05-0.381-0.102-0.573-0.153c-0.386-0.104-0.773-0.216-1.143-0.353c-1.475-0.543-2.644-1.47-2.116-3.838
					c-0.846,1.097-1.872,2.461-2.493,5.338c0.656-0.709,3.576-0.822,3.185,0.394c-3.495,2.157-2.113,1.651-5.661,4.676
					c0.984-1.062,3.086,1.683,2.035,3.61c-0.265-0.512-2.813-1.178-2.751-2.039l0.327,6.238c0.11-1.464-2.189-1.345-3.496-0.631
					c0.78-0.245-2.135,4.199-2.511,5.634l1.649-1.761c-3.132,5.313,1.091,7.332-1.773,12.738c-0.224-0.94-2.597-3.342-4.31-0.728
					c0.374,0.983,1.319,3.22,1.978,5.876c0.039,0.166,0.08,0.334,0.12,0.504l0.008,0.031c0.002,0.006,0.001,0.01,0.005,0.018
					l0.075,0.052l0.302,0.208l0.601,0.417c0.396,0.276,0.794,0.554,1.195,0.833c1.52,1.078,3.074,2.18,4.658,3.303
					c3.026,2.178,5.874,4.299,8.41,6.288c5.073,3.979,8.899,7.431,10.462,9.775l-7.205-2.492l5.483,7.552
					c-4.029-2.811-9.13-6.499-14.748-10.627c-2.738-2.024-5.678-4.198-8.742-6.464c-0.744-0.555-1.497-1.115-2.256-1.681
					l-1.134-0.846c-0.071-0.059-0.24-0.167-0.232-0.186l-0.009-0.072l-0.018-0.145c-0.045-0.383-0.091-0.772-0.136-1.165
					c-0.349-3.13-0.585-6.384-0.537-8.571c-1.656,1.741-1.209,0.107-2.691,3.217c-1.277,0.715-0.263-2.236,0.149-3.161l-4.075,6.912
					c1.748,0.491-1.173,6.283,0.278,6.687l2.287-8.612c1.749,0.489,2.227,6.79-0.636,11.726c-1.28,0.969-2.313-2.412-2.893-2.576
					c0.219,0.938-1.414,5.348-2.042,5.615l0.265-2.586c-2.038,2.52-0.286,5.683-3.523,8.303c-0.703,1.119-3.808,2.457-2.986,3.138
					c1.381-0.495,3.5-0.122,5.358,0.619c0.232,0.093,0.461,0.191,0.684,0.294l0.328,0.159c0.782,0.403,1.555,0.804,2.321,1.199
					c3.51,1.822,6.848,3.587,9.885,5.228c6.072,3.282,10.934,6.066,13.547,7.818c-0.623-0.063-5.058-0.411-10.307-1.032
					c-5.25-0.622-11.271-1.495-15.231-2.693c-0.78-0.251-1.563-0.536-2.349-0.851c-0.448-0.189-0.837-0.353-1.179-0.496
					c-0.429-0.193-0.792-0.357-1.117-0.504c-0.216-0.041-0.396-0.164-0.553-0.343c-0.312-0.358-0.527-0.938-0.733-1.524
					c-0.411-1.174-0.785-2.373-1.799-1.857c0.388,0.289,0.366,1.626,0.307,2.156c-0.988,1.046-1.049-1.186-2.219,1.592
					c1.334,1.252-2.903,5.376,0.675,1.945c-0.893,2.846-1.74,2.616-3.239,5.725c0.748-0.232,1.245,0.896,1.437,2.434
					c0.048,0.385,0.076,0.795,0.085,1.217l0.003,0.317c-0.07,0.017,0.187,0.202,0.313,0.322l0.449,0.394
					c0.591,0.521,1.15,1.03,1.674,1.521c2.09,1.967,3.584,3.652,4.12,4.756c-1.546-0.894-3.431-1.729-5.181-2.423
					c-0.875-0.348-1.716-0.661-2.465-0.93c-0.184-0.065-0.365-0.13-0.544-0.193c-0.115-0.045-0.12-0.033-0.131-0.024l-0.045,0.018
					c-0.059,0.025-0.112,0.048-0.16,0.068c-2.901,5.279-5.065,7.801-7.646,12.789c-0.599,0.274-2.27,2.462-2.383,1.105
					c-0.104,0.855,0.06,1.773-0.695,3.334c-2.805,2.327,1.56-3.541-1.143-2.058c0.764,0.638-0.85,4.601-1.443,7.069
					c1.662,0.002,2.861-4.938,3.445-7.416c0.461,0.233,0.805,0.71,1.029,1.381c0.057,0.168,0.105,0.348,0.147,0.539
					c0.019,0.095,0.038,0.193,0.058,0.295c0.002,0.008-0.001,0.012,0.006,0.021l0.074,0.056l0.149,0.112l0.297,0.225
					c0.193,0.147,0.39,0.297,0.59,0.45c1.563,1.202,3.052,2.425,4.452,3.652c5.604,4.914,9.745,9.899,11.482,14.088
					c1.017,5.762-10.177-2.956-8.598-1.235c-3.424,3.163,1.683,7.883,5.793,11.879c4.137,4.011,7.293,7.308,0.39,7.849
					c-5.061-0.976-9.251-3.088-13.039-5.31c-3.779-2.218-7.15-4.542-10.359-5.828c-0.709-2.499,1.315-3.1,3.677-3.354
					c2.354-0.258,5.039-0.175,5.5-1.386l-5.646,0.665c-2.287-2.532-3.347-5.928-0.156-5.843c-0.564-0.12-1.092-0.177-1.584-0.177
					c-0.246,0-0.484,0.015-0.715,0.042c-0.109,0.017-0.223,0.034-0.339,0.052c-0.101,0.025-0.254,0.026-0.267,0.102
					c-0.345,0.479-0.725,1.081-1.134,1.774c-0.817,1.386-1.749,3.14-2.741,5.016c-1.982,3.752-4.207,7.989-6.209,10.762
					c-0.091,0.628-0.279,1.452-0.334,2.037c-0.014,0.146-0.019,0.277-0.012,0.388c0.027,0.12-0.099,0.135,0.4,0.433
					c0.721,0.453,1.521,0.802,2.442,0.999l-0.123-2.467c3.724,0.804,5.514,2.852,6.866,4.57c1.358,1.723,2.291,3.123,4.505,2.736
					c1.536,2.398,3.618,5.173,4.554,7.523c0.942,2.354,0.732,4.283-2.146,5.076l-9.135-3.823c2.572,1.219,6.619,0.424,4.533-1.919
					c1.514,1.721-2.313,1.5-5.112,1.828c-2.815,0.32-4.612,1.186,0.479,4.825l7.488,0.653c1.382,2.323,3.793,5.364,5.199,7.987
					c1.422,2.63,1.81,4.837-0.567,5.62c4.552,1.416,4.46,1.141,4.602,0.854c0.152-0.282,0.515-0.585,6.178,0.885
					c-6.711-2.195-5.119-3.949-3.729-5.618c1.419-1.653,2.553-3.267-5.021-5.155c6.548,1.886,8.515,1.626,10.313,1.167
					c1.812-0.452,3.444-1.107,9.677,0.171c-3.019-1.428-6.414-1.929-3.03-3.566c-0.781-0.553-1.685-1.374-2.204-1.868
					c0.137-0.033,0.208-0.033,0.352-0.048c-0.166-0.018-0.292-0.031-0.457-0.049c-0.365-0.332-0.452-0.39-0.162-0.013
					c-1.754-0.097-3.674-0.429-5.467-1.083c-5.887-4.688-2.947-8.545-5.697-11.768c2.459-0.742,3.098,2.424,6.923,3.291
					l-4.104-4.813c3.506,1.663,7.057,2.154,9.959,2.936c2.896,0.779,5.135,1.844,5.85,4.566l2.67-2.872
					c5.314,0.229,8.947-1.341,7.072-4.422c2.701-0.613-5.281-7.765-0.527-3.58c0,0-0.231-1.783-0.464-3.565
					c-0.257-1.795-0.513-3.59-0.513-3.59l1.894,0.911c1.117-1.067,1.36-2.608,1.346-4.308c-0.029-1.707-0.316-3.574-0.2-5.263
					c0.246-3.37,2.047-6.062,11.152-5.129c-0.804-2.624-2.137-5.597,2.038-7.146l7.362,3.07c-0.473-1.662,2.402-2.313,4.594-3.111
					c2.186-0.803,3.674-1.761,0.269-4.126c10.444,3.853,13.423,1.946,14.438-1.214c1.042-3.146,0.113-7.552,3.21-8.449l-9.619-5.154
					c2.331-2.233,1.219-6.104-0.679-11.354l-8.889-4.331c-2.728-3.251-0.075-4.247,3.55-5.007c1.812-0.383,3.86-0.698,5.585-1.236
					c1.728-0.566,3.143-1.334,3.61-2.593c3.258,2.083,1.616,2.765-0.966,2.508c11.853,2.527,10.02-2.243,7.303-7.314
					c-2.691-5.071-6.299-10.46,2.852-9.091c-2.642-2.928-0.958-3.233,1.899-2.923c-0.047,0.124,0.065,0.314,0.309,0.55
					c0.187-0.07,0.317-0.247,0.41-0.45c1.93,0.261,4.14,0.64,6.004,0.782c-2.587-0.622-4.755-1.066-5.874-1.07
					c0.366-1.048,0.055-3.072-1.48-5.665l10.476,4.439c-0.064-0.181,0.012-0.264-0.091-0.47c4.581,0.478-4.146-3.506-12.206-6.562
					c-1.254-1.543-2.889-3.196-5.057-4.924c8.532,3.512,7.696,1.897,7.008,0.295c-0.683-1.601-1.224-3.19,8.066,0.403
					c-4.03-2.605-4.614-5.189-6.464-8.337c-1.857-3.156-4.96-6.886-13.943-11.768c2.418,1.124,3.779,1.261,3.519,2.105
					c2.938-0.568,5.897-1.134,1.449-5.107l13.667,5.82l-16.078-12.224c9.25,1.846,14.52,3.287,23.668,10.392
					c-6.523-6.382-7.492-8.139-8.476-9.787c-0.987-1.649-2.011-3.202-8.836-9.204l8.641,4.443c0.481-1.703-10.01-9.855-2.275-7.285
					c9.235,2.305,12.09-1.696,15.091-6.418c2.973-4.74,6.102-10.246,16.32-10.879c-27.336-10.953,13.979,1.579-6.371-8.598
					c6.529,2.486,10.707,2.955,15.43,6.996c-3.894-7.475,13.406-2.004-2.416-13.459c6.586,2.515,8.749,5.395,12.717,6.725
					c-1.176-1.014-4.752-4.061-0.754-2.727c3.984,1.338,4.956,3.196,7.336,5.225c1.295-5.112-17.924-14.889-36.01-23.984
					c9.797,1.803,9.17,0.063-1.988-7.395c6.374,2.053,13.308,3.707,14.041,7.609c1.677-1.195,13.587-5.652-0.993-12.89
					c3.966,1.288,2.187-1.741,0.703-2.979c2.647-3.195,4.126-2.871,4.478-7.095l-2.881-0.179c-17.002-9.989-2.492-4.874-3.238-8.785
					l1.773,0.966c15.917-0.37-4.736-5.853,12.944-5.203l-11.137-5.028c-23.286-12.193,16.718,1.097,9.521-7.086l-6.906-1.731
					c-7.017-6.042,34.711,10.075,38.578,9.522c2.25,0.573,2.938,2.329,4.155,3.697c16.327,1.573-13.949-7.798-15.347-13.432
					c8.026,3.113,19.084,10.715,21.768,8.767c3.418,0.895-1.9-4.156-5.985-8.979c-4.081-4.816-6.955-9.423,1.18-7.55
					c-6.231-2.175-12.48-4.349-16.002-8.448c-0.356-1.946,6.103-1.034,10.468-1.123c4.372-0.09,6.658-1.182-1.87-7.188
					c1.757,0.461,3.339,1.111,4.788,1.843c-1.842-2.299-2.955-5.068-4.752-8.07c-1.812-3.011-4.302-6.248-8.877-9.467
					c18.721,8.564,15.854,2.913,12.641-2.696c-3.229-5.606-6.832-11.165,9.642-2.265c0,0,0.352-1.89,0.702-3.78
					c0.363-1.878,0.727-3.756,0.727-3.756l3.245,1.986c4.167-3.013-2.899-8.768-9.884-14.53c2.684,0.243,5.332,2.618,6.984,3.634
					c9.539-2.539,8.258-3.904-4.793-17.934l10.484,5.279c-2.617-2.381,2.51-2.306,7.091-3.225c4.61-0.912,8.594-2.856,4.33-9.202
					c1.089,0.719,2.94,1.972,4.101,3.264c-4.122-6.751,4.717-6.7,10.043-7.921c2.701-0.61,4.496-1.537,3.631-3.826
					c-0.862-2.283-4.455-5.881-12.685-11.783c0,0-1.504-2.412-3.008-4.824c-1.479-2.405-2.957-4.811-2.957-4.811
					c-2.911,2.048-6.509-0.46-10.204-3.608c-3.701-3.151-7.479-6.938-11.019-7.527c-0.303-1.726,3.148-1.57,6.645-0.52
					c3.499,1.053,7.061,3.007,7.124,4.922l-1.939-0.621c17.001,11.958,10.262-3.22,21.923,4.313
					c2.561-6.035,7.731-10.391,12.772-14.659c2.529-2.134,5.061-4.232,7.32-6.47c2.281-2.154,4.25-4.438,5.695-7.042l-12.694-6.56
					l2.663-3.264c3.296,0.83,9.956,4.727,8.169,7.094c3.737,1.494,2.837-0.562,0.742-3.189c-2.101-2.631-5.396-5.834-6.653-6.707
					c3.748-1.041,6.844,1.683,9.234,4.524c2.381,2.838,4.043,5.787,4.558,5.066l0.141-2.781l-1.597-0.397
					c-3.939-4.916-8.844-8.356-6.652-11.203c3.307-0.527,7.539,3.603,8.363,3.084c0.801,0.538,1.303,0.513,0.901-1.033
					c0,0,0.786-1.051,1.604-2.061c0.809-1.021,1.617-2.043,1.617-2.043l-9.696-3.988c-3.218-4.952,2.842-4.048-8.197-8.538
					c8.527,3.567,12.099,0.096,14.355-4.09c2.257-4.181,3.257-9.053,5.865-8.558c-4.14-6.886-2.272-9.552,0.354-12.587
					c-2.014-0.225-10.691-5.7-7.755-7.895c8.108,6.635,10.745,6.584,12.947,5.617c2.203-0.967,4.087-2.797,10.409,0.151
					c-4.356-1.677-3.714-4.221-3.521-6.899c0.154-2.704,0.072-5.385-6.101-7.56c1.386-0.768,2.813,0.249,4.496,1.565
					c1.678,1.313,3.627,2.932,5.904,3.291c-0.652-2.611-0.251-4.554,0.696-6.167c0.942-1.616,2.417-2.915,3.992-4.191
					c1.577-1.276,3.249-2.538,4.642-4.055c1.382-1.525,2.475-3.315,3.006-5.58c-1.527-1.392-4.719-2.118-6.203-5.627
					c0,0,2.553,0.616,5.105,1.232c2.466,0.563,4.932,1.128,4.932,1.128c-0.015-1.073-2.031-3.2-3.186-4.854
					c-1.167-1.662-1.426-2.823,1.848-2.112c-1.426-0.613-3.631-1.58-3.516-2.938c7.769-4.351,10.13-13.392,14.291-21.132
					c0.995-1.97,2.043-3.902,3.184-5.758c1.115-1.877,2.316-3.683,3.62-5.393c1.313-1.701,2.679-3.355,4.211-4.844
					c1.548-1.473,3.112-2.924,4.734-4.306c-2.188,1.092-1.61-0.467-0.757-2.084c-0.832,0.786-1.355-1.324-2.21-1.827
					c0,0,1.538-1.005,2.938-2.136c1.427-1.106,2.662-2.396,2.662-2.396c-0.471-1.364,0.538-3.062,1.491-4.721
					c0.966-1.647,1.839-3.294,1.612-4.05c0,0-0.27,0.533-0.54,1.066c-0.263,0.541-0.524,1.081-0.524,1.081
					c0.207-1.923-0.942-1.576-2.693-1.357c-0.204,0.042-0.467,0.033-0.641,0.113c-0.184,0.069-0.369,0.14-0.551,0.208
					c-0.365,0.135-0.723,0.257-1.046,0.341c-0.648,0.168-1.165,0.186-1.343-0.146c-0.742,1.659-2.649,2.935-4.729,4.436
					c-2.073,1.504-4.325,3.232-5.575,5.897c-1.103,0.66,0.376-1.093-0.354-0.87c-0.506,1.473-1.649,2.746-3.985,4.912l0.117-0.38
					c-5.885,6.712-8.969,9.079-16.136,16.161l1.151,0.013c-1.534,1.523-2.068,1.663-2.878,2.3c-0.287,1.383,0.664,0.205,1.744-0.899
					c1.066-1.115,2.16-2.242,1.943-0.939c-0.802,0.25-1.873,1.052-3,2.18c-1.114,1.137-2.332,2.558-3.536,3.952
					c-2.41,2.787-4.766,5.469-6.206,5.534c-2.162,2.521,1.443-0.07-0.712,2.452l-1.015,0.306l0.033,1.11
					c-1.499,1.583-2.776,1.961-3.214,1.711c0.389-0.365,0.868-1.229,1.204-1.688c-2.357,1.727-5.029,6.181-5.767,6.829
					c-0.001,0,0.56-0.573,1.147-1.125c0.589-0.551,1.178-1.102,1.178-1.102c-1.393,1.789-2.781,3.736-4.301,5.656
					c-1.515,1.923-3.065,3.891-4.61,5.852c-3.093,3.92-6.063,7.889-8.239,11.723l0.796-0.233c-3.27,5.883-3.603,3.981-7.615,10.129
					l0.063-0.284c-0.472,1.472-1.425,3.197-2.655,4.781c0.624-1.833-2.983,2.145-2.07-0.189c-3.485,6.412-1.496,3.34-2.784,8.277
					l-1.334,0.408c-0.302,1.776-0.049,2.119-1.939,5.252c1.105-2.883-2.391,1.18-1.27-2.133c-5.93,5.242-4.926,10.441-9.225,11.776
					c-0.014,4.247,4.889-4.71,4.188-2.799c1.581-0.919-0.173,3.399-1.731,5.245c-0.716,0.993-1.946,1.418-3.438,2.231
					c-1.487,0.814-3.263,2.003-4.93,4.599c0.349-0.506,0.217-0.643,0.564-1.147c-1.801,1.579-1.788,4.24-4.207,6.039
					c0.379,2.146-2.104,3.019-0.746,4.451l2.741-4.964c-1.356,2.949-1.11,6.691-4.92,10.505c-0.104-0.557,0.326-2.147,0.681-3.205
					c-1.329,0.979-1.316,2.688-2.691,3.706c-1.384-1.438,3.43-5.967,4.101-9.635c-1.6,0.938-2.425,6.184-3.222,3.604
					c0.865,3.521-3.656,4.883-4.235,9.479l-0.839-0.864c-0.206,0.653-0.508,2.089-1.186,3.096l-0.08-2.663
					c-0.769,3.523-4.486,4.859-5.644,7.963c3.621-5.729,2.032-0.511,4.304-2.461c-3.124,7.913-5.217,2.38-9.783,10.567
					c0.541-1.157,3.179-3.618,2.585-1.648c-1.168,1.368-2.828,3.103-3.96,3.681c-3.128,5.359,1.575-0.131,0.789,2.494
					c-2.396,0.984-1.123,2.891-2.169,5.443l-1.071-0.652c-4.506,5.53,1.212,2.977-3.028,7.834l-0.045-3.202l-1.395,3.047
					l-0.853-1.34c-1.032,3.619-1.867,4.423-4.109,7.203c1.201-0.227,1.712,1.601,0.072,4.269c-1.754,1.436-0.412-1.66-2.559,2.247
					c-0.154-1.27-0.457-2.755,1.575-3.777c-0.247-0.384-0.149-1.254-0.388-1.641c-1.998,1.471-3.201,4.85-4.037,6.229
					c0.363-0.508,0.807-1.108,1.158-1.34l-1.826,6.446c-0.937,0.624-0.852-0.265-0.762-1.144c-0.559,1.192-0.521,2.269-1.421,3.973
					c-0.636-0.959-1.622-1.405-0.628-3.993l-2.199,5.868c-0.602,0.121-2.71,2.077-2.627,1.196c-2.288,2.631-2.457,8.27-5.435,11.777
					c0.06,0.305-0.008,0.811-0.358,1.718c-1.168,1.782-2.504,3.331-3.709,5.069c-1.189,1.745-2.215,3.695-2.809,6.248l-3.051,1.581
					c-1.539,3.659,3.973-2.226,1.412,3.861c-1.722,4.355-2.265,0.737-3.522,1.91c-0.295,2.481-0.511,6.927-3.878,9.961
					C1209.231,377.25,1210.004,376.406,1210.503,375.176z M1188.735,418.611c0.173-0.965,0.247-3.029,1.264-3.286
					C1190.885,416.973,1189.855,417.381,1188.735,418.611z M1159.285,486.211c-0.103-0.822,0.561-1.701,1.548-2.577
					C1160.551,484.479,1160.072,485.358,1159.285,486.211z M1106.981,689.608c-0.1-0.095-0.175-0.165-0.31-0.271
					C1110.923,689.172,1109.294,689.168,1106.981,689.608z M1101.095,691.464c0.786,0.894,1.837,1.398,2.994,1.784
					c-1.707-1.215-1.258-2.079-0.057-2.71C1101.864,689.773,1100.187,689.542,1101.095,691.464z M1316.479,282.669l-2.314-0.547
					C1312.838,279.007,1314.545,280.767,1316.479,282.669z"/>
				<path fill="#ED1F24" d="M1161.221,477.883c0.32-0.141,0.579-0.098,0.836-0.043
					C1162.011,477.408,1161.777,477.287,1161.221,477.883z"/>
				<path fill="#ED1F24" d="M1224.709,348.438c0.034-0.037,0.056-0.082,0.087-0.121c-0.026-0.108-0.072-0.186-0.127-0.245
					L1224.709,348.438z"/>
				<path fill="#ED1F24" d="M1094.516,612.455c0.563-0.716,0.993-1.056,1.354-1.242
					C1095.619,611.028,1095.205,611.272,1094.516,612.455z"/>
				<path fill="#ED1F24" d="M1098.739,716.078l0.061-3.09c-0.541,1.232-2.341,0.85-3.849,0.841
					C1096.567,714.586,1099.207,715.342,1098.739,716.078z"/>
				<path fill="#ED1F24" d="M1046.624,716.543c-0.035,0.21-0.129,0.404-0.222,0.599c-0.065,0.208-0.293,0.332,0.02,0.716
					l2.758,1.275c0.316-0.811,0.064-1.763-0.521-2.392c-0.292-0.313-0.667-0.547-1.091-0.638c-0.195-0.036-0.475-0.074-0.63-0.002
					C1046.852,716.209,1046.746,716.354,1046.624,716.543z"/>
				<path fill="#ED1F24" d="M1074.891,706.768c-5.723-2.68-4.735-0.216-4.785,1.946c0.043-0.108,0.058-0.227,0.187-0.291
					C1077.638,712.822,1076.319,709.818,1074.891,706.768z"/>
				<path fill="#ED1F24" d="M1070.044,709.189c-0.065,0.64-0.249,1.233-0.823,1.598
					C1072.132,712.529,1070.251,710.496,1070.044,709.189z"/>
				<path fill="#ED1F24" d="M1101.904,698.061c-2.144-0.062,7.488,4.488,4.662,3.627c3.564,2.405,2.211-0.016,0.014-2.306
					C1104.382,697.092,1101.373,694.95,1101.904,698.061z"/>
				<polygon fill="#ED1F24" points="1055.728,698.738 1062.926,701.635 1057.892,697.834 				"/>
				<path fill="#ED1F24" d="M1068.216,687.844l-3.524,1.693c1.244,0.584,1.771,1.299,2.079,2.002
					C1067.938,689.981,1070.442,688.901,1068.216,687.844z"/>
				<path fill="#ED1F24" d="M1066.771,691.539c-0.628,0.801-0.932,1.714-0.031,2.799
					C1066.928,693.827,1067.264,692.692,1066.771,691.539z"/>
				<polygon fill="#ED1F24" points="1057.354,694.788 1057.984,694.076 1059.066,692.159 				"/>
				<path fill="#ED1F24" d="M1085.969,659.334l-0.795-4.229c-2.762-1.81-4.975-1.904-4.402-0.188
					C1082.418,656.678,1082.928,658.357,1085.969,659.334z"/>
				<path fill="#ED1F24" d="M1071.496,663.455c0.639-0.705,0.902-0.64,1.487-0.922l-1.264-0.765L1071.496,663.455z"/>
				<path fill="#ED1F24" d="M1075.703,654.472c-0.213-0.49,1.18-4.941-0.691-1.058
					C1075.223,653.91,1073.979,657.099,1075.703,654.472z"/>
				<path fill="#ED1F24" d="M1100.839,609.805l-0.378,0.778c0,0,0.151,0.069,0.378,0.173c0.057,0.025,0.118,0.054,0.183,0.084
					c0.417,0.211,0.857,0.435,1.312,0.665c1.152,0.587,2.381,1.213,3.609,1.838c4.915,2.504,9.831,5.007,9.831,5.007
					s-4.852-2.713-9.703-5.427c-2.243-1.263-5.623-3.112-4.912-2.823C1100.967,609.923,1100.839,609.805,1100.839,609.805z"/>
				<path fill="#ED1F24" d="M1115.482,566.681c-2.358,3.312,1.078,1.604-1.255,4.497c0.156,1.133,1.906-2.365,1.975-1.249
					C1116.671,567.451,1117.576,566.48,1115.482,566.681z"/>
				<path fill="#ED1F24" d="M1116.202,569.929c-0.077,0.396-0.143,0.823-0.18,1.295
					C1116.183,570.518,1116.213,570.162,1116.202,569.929z"/>
				<path fill="#ED1F24" d="M1389.491,143.787c0,0,0.382-0.524,0.722-1.09c0.339-0.568,0.678-1.137,0.678-1.137
					s-0.291,0.295-0.602,0.571c-0.308,0.278-0.633,0.538-0.633,0.538L1389.491,143.787z"/>
				<path fill="#ED1F24" d="M1390.594,137.923c0,0,0.274,0.061,0.549,0.121c0.264,0.049,0.526,0.097,0.526,0.097
					s-0.017-0.563-0.002-1.098c0.011-0.537,0.054-1.044,0.054-1.044C1391.461,136.566,1391.003,137.707,1390.594,137.923z"/>
				<path fill="#ED1F24" d="M1182.211,423.417l0.3,0.372c0.604-0.148,0.911-0.676,1.53-1.729L1182.211,423.417z"/>
				<polygon fill="#ED1F24" points="1199.568,392.658 1199.256,393.18 1201.207,392.919 				"/>
				<path fill="#ED1F24" d="M1211.896,365.604c-0.648,1.027-1.031,2.442-1.684,3.475
					C1211.248,366.631,1213.792,366.269,1211.896,365.604z"/>
			</g>
		</g>
	</g>
</g>
<g>
	<g>
		<g>
			<g>
				<path fill="#ED1F24" d="M1382.465,820.521c0.124,1.279,0.582,0.532,0.694,0.671
					C1382.883,819.091,1382.298,820.674,1382.465,820.521z"/>
				<path fill="#ED1F24" d="M1375.297,802.346l0.758-0.038c0,0-0.607-0.474-1.254-0.926c-0.644-0.454-1.326-0.886-1.326-0.886
					s0.465,0.457,0.93,0.914C1374.851,801.878,1375.297,802.346,1375.297,802.346z"/>
				<path fill="#ED1F24" d="M1369.455,784.882c-1.824,2.011-1.002,3.427,0.109,4.896c1.132,1.458,2.505,2.996,2.436,4.886
					l-0.59,0.945c0,0,0.803-0.037,1.604-0.074c0.78-0.025,1.56-0.05,1.56-0.05c-0.787-1.803-2.059-3.667-3.184-5.448
					C1370.275,788.251,1369.322,786.539,1369.455,784.882z"/>
				<path fill="#ED1F24" d="M1376.83,769.687c-1.805,1.694-2.053-1.231-0.165,2.664c0.16-0.339,0.267-0.472,0.394-0.687
					C1376.96,771.273,1376.861,770.714,1376.83,769.687z"/>
				<path fill="#ED1F24" d="M1377.059,771.664C1377.536,773.572,1378.4,769.483,1377.059,771.664L1377.059,771.664z"/>
				<path fill="#ED1F24" d="M1374.248,763.184c0,0,0.586,0.389,1.172,0.777c0.57,0.396,1.141,0.794,1.141,0.794
					c1.109-1.222,1.068-3.751,2.09-3.374C1377.272,759.213,1376.012,760.522,1374.248,763.184z"/>
				<path fill="#ED1F24" d="M1369.695,763.015l1.133,0.853C1371.302,763.342,1371.423,762.881,1369.695,763.015z"/>
				<path fill="#ED1F24" d="M1373.131,765.73c0,0-0.568-0.471-1.136-0.94c-0.584-0.461-1.167-0.923-1.167-0.923
					c-0.811,0.87-2.545,1.887,0.908,0.939C1370.074,765.48,1371.765,765.155,1373.131,765.73z"/>
				<path fill="#ED1F24" d="M1372.675,767.771c-0.828,2.074-0.992,4.249-3.441,2.74
					C1371.295,774.85,1374.411,772.286,1372.675,767.771z"/>
				<path fill="#ED1F24" d="M1364.723,786.492c0,0-0.115,0.605-0.23,1.21c-0.104,0.599-0.208,1.198-0.208,1.198
					s0.518,0.175,1.035,0.35c0.507,0.182,1.013,0.362,1.013,0.362C1365.305,789.259,1366,785.638,1364.723,786.492z"/>
				<path fill="#ED1F24" d="M1374.221,745.354c-1.417,0.611-3.5,2.914-5.191,4.071l1.985,1.008
					C1371.711,748.957,1372.191,746.63,1374.221,745.354z"/>
				<path fill="#ED1F24" d="M1369.029,749.426c0,0-0.763-0.366-1.524-0.732c-0.779-0.357-1.558-0.715-1.558-0.715
					C1366.332,750.592,1367.566,750.42,1369.029,749.426z"/>
				<path fill="#ED1F24" d="M1363.328,766.069c0,0,1.459,0.485,2.849,1.011c1.396,0.521,2.721,1.081,2.721,1.081
					s-1.397-0.771-2.881-1.493c-1.469-0.732-3.049-1.402-3.049-1.402L1363.328,766.069z"/>
				<path fill="#ED1F24" d="M1372.376,734.314l3.81-0.328c0,0-1.456,0.012-2.912,0.024c-1.488,0.03-2.976,0.06-2.976,0.06
					L1372.376,734.314z"/>
				<path fill="#ED1F24" d="M1370.27,727.488c3.31-0.513,4.969-4.567,7.102-4.352c-0.828-1.709-3.88-1.871-6.685-1.986
					C1372.409,721.969,1372.373,723.876,1370.27,727.488z"/>
				<path fill="#ED1F24" d="M1366.455,720.689c0.978,0.345,2.569,0.383,4.231,0.461
					C1369.76,720.721,1368.502,720.491,1366.455,720.689z"/>
				<path fill="#ED1F24" d="M1365.417,742.884c0.826-0.704,3.072-2.425,3.704-4.548l-3.925,3.426
					C1365.264,742.104,1365.34,742.49,1365.417,742.884z"/>
				<path fill="#ED1F24" d="M1365.072,741.874l0.124-0.112c-0.229-1.224-0.361-2.086-0.407-2.461
					C1364.832,739.621,1364.926,740.392,1365.072,741.874z"/>
				<path fill="#ED1F24" d="M1365.47,743.169c-0.017-0.106-0.026-0.187-0.053-0.285
					C1365.037,743.215,1364.918,743.354,1365.47,743.169z"/>
				<path fill="#ED1F24" d="M1364.146,757.296c-1.271-0.222-2.756-0.829-4.208-0.752c-1.445,0.073-2.869,0.835-3.828,3.251
					c1.5-0.168,2.512-0.938,3.668-1.604C1360.928,757.529,1362.226,756.968,1364.146,757.296z"/>
				<path fill="#ED1F24" d="M1360.729,747.353l0.007,3.36c1.021-0.635,2.4-2.01,3.728-1.828c0,0-0.922-0.39-1.845-0.778
					C1361.674,747.729,1360.729,747.353,1360.729,747.353z"/>
				<polygon fill="#ED1F24" points="1358.971,746.684 1360.729,747.353 1360.739,746.1 				"/>
				<path fill="#ED1F24" d="M1363.318,728.165c-2.378-0.132-2.971-1.39-3.761-2.742c-0.45,2.167-0.414,4.132,0.099,5.732
					C1361.186,730.575,1363.975,729.857,1363.318,728.165z"/>
				<path fill="#ED1F24" d="M1363.745,735.061c-0.125-0.031-0.207-0.114-0.331-0.139
					C1363.087,735.301,1363.006,735.506,1363.745,735.061z"/>
				<path fill="#ED1F24" d="M1355.023,710.303c-0.306,0.265-0.579,0.502-0.893,0.773c0.314-0.151,0.583-0.28,0.935-0.449
					L1355.023,710.303z"/>
				<path fill="#ED1F24" d="M1358.883,731.906c-0.505,1.723,0.852,1.834,2.448,1.771c-0.727-0.676-1.314-1.495-1.675-2.522
					C1358.969,731.416,1358.529,731.639,1358.883,731.906z"/>
				<path fill="#ED1F24" d="M1363.092,717.637c-0.876,1.234-1.553,2.459-2.136,3.675
					C1362.319,719.826,1364.442,717.156,1363.092,717.637z"/>
				<path fill="#ED1F24" d="M1364.528,733.817c0.088,0.023,0.185,0.035,0.248,0.078
					C1365.624,732.953,1365.17,733.264,1364.528,733.817z"/>
				<path fill="#ED1F24" d="M1364.528,733.817c-0.813-0.292-2.06-0.185-3.197-0.14c0.577,0.559,1.26,0.994,2.083,1.244
					C1363.686,734.592,1364.12,734.172,1364.528,733.817z"/>
				<path fill="#ED1F24" d="M1322.473,722.864c0.216-0.055,0.521,0.063,0.867,0.315c0.087,0.064,0.176,0.136,0.267,0.216
					l0.138,0.125c0.133-0.004,0.27-0.008,0.41-0.012c0.547-0.008,1.042,0.044,1.465,0.16c0.845,0.231,1.396,0.719,1.494,1.487
					c0.049,0.384-0.016,0.838-0.213,1.365c-0.098,0.264-0.229,0.545-0.396,0.846c-0.084,0.15-0.176,0.305-0.277,0.465
					c-0.076,0.093-0.061,0.137-0.045,0.18l0.028,0.139c0.063,0.066,0.115,0.133,0.185,0.186c0.176-0.006,0.36-0.022,0.555-0.049
					c0.387-0.052,0.809-0.143,1.261-0.269c0.903-0.252,1.929-0.645,3.042-1.152c2.227-1.015,4.808-2.485,7.498-4.206
					c5.373-3.437,11.219-7.887,15.381-11.584c-2.188,1.104-4.127,2.173-8.088,1.037c-1.195,1.237-2.211,3.636-3.554,5.721
					c-1.351,2.089-3.018,3.859-5.736,3.955c-4.153-2.112,0.425-3.839,2.37-7.045c-2.83,2.465-5.588,2.584-8.861,2.877
					c-1.633,0.144-3.386,0.327-5.304,0.849c-0.959,0.261-1.959,0.606-3.003,1.072c-0.067,0.03-0.133,0.06-0.196,0.089
					c-0.07,0.032-0.141,0.065-0.131,0.055l-0.068,0.012c-0.044,0.01-0.087,0.025-0.127,0.047c-0.08,0.043-0.152,0.109-0.214,0.203
					c0,0,0.529,0.674,1.06,1.349c0.265,0.337,0.528,0.675,0.728,0.928c0.049,0.153,0.307,0.162,0.428,0.201
					c0.135,0.032,0.211,0.051,0.211,0.051c-0.508,0.297-0.404,0.166-0.558,0.146c-0.106-0.046-0.241-0.104-0.348-0.15
					C1322.514,722.387,1322.344,722.398,1322.473,722.864z"/>
				<path fill="#ED1F24" d="M1355.334,716.729l0.956,0.836c0.411-1.781,2-3.771,5.314-7.645c-2.896-0.672-4.863-0.059-6.539,0.707
					l1.103,6.107L1355.334,716.729z"/>
				<path fill="#ED1F24" d="M1357.906,722.798c-5.205,1.813-8.391,0.288-13.201,4.952c1.692,3.076,5.087,0,7.929,0.823
					c-1.581-2.358-0.753-2.352,0.64-2.433c1.397-0.084,3.304-0.226,4.08-2.987c1.177,0.619,1.723,1.458,2.204,2.27
					c0.288-1.321,0.742-2.693,1.398-4.111c-0.107,0.118-0.184,0.201-0.271,0.298l0.024,0.018l-0.08,0.037
					c-0.547,0.581-0.898,0.866-0.619,0.398c-0.066,0.016-0.108-0.04-0.134-0.061c-0.7,0.343-1.329,0.571-1.941,0.78
					c0.538-2.167,1.216-0.965,1.941-0.78c0.246-0.114,0.493-0.201,0.753-0.338c0.026-0.021,0.041-0.037,0.056-0.055
					c0,0-1.082-1.02-2.164-2.039c-1.084-1.02-2.23-2.006-2.23-2.006C1355.947,719.123,1356.549,720.508,1357.906,722.798z"/>
				<path fill="#ED1F24" d="M1346.586,761.639c0.261-0.346,0.543-0.494,0.818-0.664
					C1346.758,760.915,1346.361,760.977,1346.586,761.639z"/>
				<path fill="#ED1F24" d="M1347.883,758.24c0.742,0.059,2.469-0.51,2.641,0.932c-0.658,1.7-1.861,1.031-3.119,1.803
					c1.431,0.13,4,1.012,4.804-2.342l-0.696-0.071c0.183-1.411,1.223-3.485,2.354-5.226c1.127-1.738,2.327-3.133,2.677-3.099
					C1353.11,752.912,1350.721,754.916,1347.883,758.24z"/>
				<path fill="#ED1F24" d="M1350.67,741.538c0,0-1.01-0.791-2.019-1.582c-1.032-0.778-2.064-1.558-2.064-1.558l-3,4.415
					l2.328-1.431C1346.101,744.354,1348.746,742.223,1350.67,741.538z"/>
				<polygon fill="#ED1F24" points="1357.541,708.301 1363.383,705.797 1354.572,707.537 				"/>
				<polygon fill="#ED1F24" points="1355.068,702.666 1360.262,700.07 1356.706,700.179 				"/>
				<path fill="#ED1F24" d="M1150.642,418.86l-0.943-1.065C1150.101,418.324,1150.396,418.643,1150.642,418.86z"/>
				<path fill="#ED1F24" d="M1155.459,427.695l0.59-0.046C1155.563,427.386,1155.279,427.324,1155.459,427.695z"/>
				<path fill="#ED1F24" d="M1301.468,560.254c6.779-5.953,17.788-14.455,8.662-9.262l-8.726,5.406
					C1303.58,556.836,1303.014,558.373,1301.468,560.254z"/>
				<path fill="#ED1F24" d="M1200.734,496.957c-0.014,0.227-0.027,0.463-0.041,0.697c0.3,0.117,0.59,0.23,0.869,0.34
					c-0.084,0.11,0.542-0.165,0.898-0.295c0.406-0.158,0.809-0.313,1.205-0.467c0.803-0.313,1.586-0.617,2.348-0.914
					c-1.105,0.266-2.285,0.549-3.519,0.846c-0.302,0.07-0.607,0.142-0.915,0.214l-0.231,0.054c-0.071,0.015-0.05-0.021-0.079-0.029
					l-0.105-0.088C1201.022,497.197,1200.879,497.078,1200.734,496.957z"/>
				<path fill="#ED1F24" d="M1195.631,498.105l-0.592-2.719C1195.086,496.045,1195.269,496.924,1195.631,498.105z"/>
				<path fill="#ED1F24" d="M1122.735,371.518l-1.824-0.825C1122.163,372.897,1122.133,371.631,1122.735,371.518z"/>
				<path fill="#ED1F24" d="M1332.299,643.564c2.261-3.209,3.019-5.196,2.966-6.554
					C1331.685,641.338,1325.984,646.357,1332.299,643.564z"/>
				<path fill="#ED1F24" d="M1206.992,392.01c-2.162,0.221-4.279,0.98-6.378,2.179
					C1202.688,394.044,1204.76,393.463,1206.992,392.01z"/>
				<path fill="#ED1F24" d="M1333.536,632.225c-0.654,0.703-0.935,1.197-1.464,1.84c1.705,0.525,3.146,1.202,3.192,2.946
					C1337.921,633.809,1339.364,631.01,1333.536,632.225z"/>
				<path fill="#ED1F24" d="M1022.33,199.494c-0.045-0.145-0.121-0.302-0.153-0.438
					C1022.058,199.08,1022.158,199.254,1022.33,199.494z"/>
				<path fill="#ED1F24" d="M1000.781,144.072c0.532,0.334,1.262,0.973,1.967,1.563
					C1002.523,145.269,1001.94,144.79,1000.781,144.072z"/>
				<path fill="#ED1F24" d="M1350.318,677.165C1351.119,678.207,1351.082,676.982,1350.318,677.165L1350.318,677.165z"/>
				<path fill="#ED1F24" d="M1327.74,696.713c-0.811,0.128-1.785,0.422-3.229,1.175
					C1326.05,697.168,1327.074,696.814,1327.74,696.713z"/>
				<path fill="#ED1F24" d="M1281.207,645.773c-0.018-0.035-0.031-0.063-0.051-0.102
					C1281.152,646.115,1281.156,646.037,1281.207,645.773z"/>
				<path fill="#ED1F24" d="M1348.03,680.643c0.622-0.896,1.1-1.797,1.373-2.644C1348.99,678.53,1348.528,679.358,1348.03,680.643z"
					/>
				<path fill="#ED1F24" d="M1350.937,678.755c-0.151,0.593-0.202,1.021-0.271,1.441
					C1351.761,679.784,1352.379,679.281,1350.937,678.755z"/>
				<path fill="#ED1F24" d="M1349.422,675.594c0.338,0.662,0.236,1.506-0.019,2.405c0.353-0.483,0.679-0.783,0.915-0.834
					C1350.103,676.85,1349.82,676.392,1349.422,675.594z"/>
				<path fill="#ED1F24" d="M1079.918,289.408c-0.016-0.091-0.048-0.188-0.057-0.291
					C1078.813,288.211,1079.168,288.672,1079.918,289.408z"/>
				<path fill="#ED1F24" d="M1229.268,560.563c0.04,0.049,0.082,0.063,0.122,0.104c-0.019-0.06-0.04-0.135-0.057-0.189
					L1229.268,560.563z"/>
				<path fill="#ED1F24" d="M1226.258,556.862c2.245,1.057,2.626,2.141,3.075,3.615l2.248-2.972L1226.258,556.862z"/>
				<path fill="#ED1F24" d="M1138.656,397.958l0.671,3.396c-3.444-2.617-4.306-5.424-4.112-1.992
					c3.443-1.404,6.51,10.995,9.965,9.583l0.37,2.277c-0.27-0.561-0.509-0.541-0.774-1.096c0.489,4.556,3.865,1.427,6.042,6.434
					c0.671,1.794,0.838,3.214-0.176,2.301l2.854,3.238c0.533,1.108-0.181,1.162-0.711,0.059l3.384,5.48l-0.12,0.012
					c0.961,0.517,2.767,1.894,3.6,2.593c0.323,1.69-0.747-0.523-0.953,0.07l2.527,2.672c-0.148,1.741-2.409-0.381-3.481-2.6
					c-1.673,4.731,2.278,2.115,3.794,9.486l-2.029-2.722c-0.834,2.94,1.1,4.87,1.746,8.856c0.185-1.131-0.695-8.314,1.98-5.376
					c0.273,1.095,0.842,2.421,2.51,3.884c-1.17,0.668,0.096,2.295,1.385,4.496l-1.648,0.71c1.77,2.17,2.463,1.539,3.946,2.573
					c1.318,2.781,0.407,4.01-0.273,5.209c2.104,4.455,0.325-4.056,3.41,0.891c1.359,3.922,3.376,6.09,6.673,9.864
					c0.828,2.812-1.209,0.091-1.17,1.241l2.48,1.534c0.269,0.562-0.217,0.599-0.461,0.617c1.516,1.607,1.669-0.714,3.716,2
					c2.186-0.162,0.766,7.449,4.744,10.019c0.042,1.146-1.209,0.096-1.673,0.706c4.042,4.3,3.296,3.778,7.289,6.942l0.879,4.07
					c-0.223-3.221,2.978-0.693,5.695,1.57c0.009-0.153,0.018-0.304,0.027-0.451c-0.117-0.008,0.307-0.309,0.556-0.514
					c0.275-0.22,0.547-0.437,0.815-0.651c1.06-0.849,2.066-1.655,3.011-2.412c1.849-1.492,3.347-2.731,4.285-3.582l10.149,0.456
					c-2.043,1.833-7.193,4.03-13.564,6.516c1.348-0.325,2.675-0.66,3.879-1.015c-1.096,1.13-2.46,2.203-4.025,3.227
					c-0.783,0.512-1.616,1.011-2.49,1.499c-0.179,0.098-0.347,0.19-0.521,0.286l-0.078,0.033c-0.055,0.02-0.112,0.033-0.174,0.042
					c-0.494,0.066-1.217-0.199-1.978-0.55c0.004-0.729,0.032-1.466,0.067-2.187c-1.575-0.618-3.215-1.105-4.008-0.367
					c0.345,0.201,0.815,0.691,1.249,1.277c-0.422-0.156-0.757-0.22-0.839,0.004c-0.081,0.246,0.529,0.536,1.342,1.07l-1.182,1.999
					l0.835-0.125l2.196,6.612c4.113,3.35,8.744,5.695,13.173,12.158c-2.191-1.012-2.276,0.76-3.833,1.482
					c0.584-2.734-3.569-4.928-5.181-8.646c0.842,1.939-0.101,1.925-0.61,1.591l4.91,5.527c-1.312,0.525-0.194,1.844,0.193,3.772
					c1.758-2.567,4.182,3.841,6.322,6.014c-0.729,0.601-1.895,0.433-3.404-2.814c0.056,4.453,5.28,2.938,5.573,7.18
					c-0.437-0.756-0.535-1.237-1.112-1.317c1.693,1.401,3.496,6.094,2.23,5.444l-0.432-0.757
					c2.477,5.248,8.397,15.512,10.843,15.176c-0.235,0.191-2.816,0.656-3.396,0.57c0,0,2.943,1.35,5.887,2.699
					c0.734,0.338,1.469,0.677,2.156,0.994l0.064,0.029l0.35-0.125l0.72-0.26c0.478-0.173,0.949-0.344,1.417-0.513
					c0.935-0.338,1.849-0.669,2.738-0.99c1.777-0.643,3.458-1.25,5.01-1.811c6.19-2.234,10.317-3.724,10.317-3.724
					c-4.011,1.901-9.247,4.778-15.015,8.027c-0.713,0.402-1.442,0.814-2.186,1.234c-0.367,0.208-0.736,0.418-1.109,0.629
					l-0.558,0.316l-0.138,0.077l-0.014,0.012l-0.028,0.023c-0.15,0.124-0.305,0.251-0.458,0.378
					c-0.31,0.252-0.626,0.503-0.951,0.724c-1.302,0.882-2.739,1.285-4.378-0.561c0.409,1.347,0.938,3.001,2.937,5.228
					c-0.201-0.961,1.398-3.418,2.169-2.373c-0.257,4.15,0.129,2.716,0.554,7.43c-0.299-1.44,3.166-1.527,4.137,0.482
					c-0.571-0.087-2.592,1.607-3.263,1.043l5.303,3.447c-1.138-0.961-2.372,1-2.53,2.496c0.246-0.787,2.237,4.244,3.204,5.404
					l-0.505-2.4c2.584,5.726,6.668,3.438,9.477,8.987c-0.901-0.369-4.238,0.172-3.064,3.131c1.02,0.273,3.405,0.81,5.987,1.816
					c0.16,0.063,0.322,0.128,0.486,0.194l0.03,0.012c0.006,0.002,0.009,0.006,0.017,0.006l0.086-0.031l0.345-0.128l0.686-0.253
					c0.454-0.166,0.91-0.333,1.369-0.501c1.756-0.628,3.551-1.27,5.381-1.923c3.521-1.232,6.893-2.354,9.977-3.298
					c6.167-1.889,11.185-3.065,13.998-3.02l-6.148,4.509l9.318-0.225c-4.595,1.729-10.523,3.838-17.112,6.109
					c-3.224,1.097-6.685,2.273-10.293,3.501c-0.881,0.295-1.771,0.593-2.668,0.894c-0.445,0.148-0.893,0.298-1.342,0.447
					c-0.09,0.025-0.274,0.103-0.286,0.085l-0.064-0.034l-0.13-0.069c-0.343-0.187-0.691-0.376-1.042-0.566
					c-2.792-1.536-5.628-3.245-7.417-4.568c0.507,2.39-0.597,1.063,1.146,4.112c-0.129,1.479-2.007-1.093-2.542-1.979l3.438,7.435
					c1.394-1.164,4.552,4.65,5.705,3.676l-5.854-6.934c1.397-1.161,6.889,2.122,9.366,7.368c0.08,1.631-3.302,0.526-3.766,0.913
					c0.896,0.371,3.646,4.282,3.521,4.954l-2.005-1.712c0.955,3.149,4.571,3.517,4.938,7.723c0.537,1.23-0.089,4.587,0.938,4.296
					c0.361-1.435,1.859-2.983,3.519-4.103c0.208-0.141,0.418-0.273,0.629-0.399l0.315-0.182c0.774-0.418,1.54-0.83,2.3-1.24
					c3.484-1.869,6.825-3.63,9.894-5.211c6.136-3.16,11.179-5.601,14.104-6.765c-0.401,0.482-3.178,3.973-6.638,7.983
					c-3.461,4.011-7.563,8.52-10.781,11.123c-0.646,0.506-1.321,0.992-2.024,1.464c-0.408,0.265-0.763,0.494-1.073,0.695
					c-0.402,0.246-0.742,0.454-1.046,0.639c-0.155,0.156-0.358,0.235-0.595,0.263c-0.474,0.053-1.077-0.102-1.682-0.27
					c-1.207-0.334-2.415-0.715-2.555,0.426c0.459-0.156,1.56,0.633,1.968,0.989c0.317,1.426-1.575,0.188,0.081,2.765
					c1.791-0.389,2.848,5.519,1.998,0.562c1.869,2.384,1.203,2.957,2.95,5.999c0.227-0.757,1.444-0.52,2.832,0.209
					c0.347,0.182,0.704,0.395,1.06,0.63l0.267,0.181c-0.025,0.068,0.273-0.037,0.444-0.074l0.579-0.146
					c0.766-0.191,1.503-0.363,2.206-0.515c2.809-0.605,5.049-0.876,6.27-0.685c-1.611,0.77-3.363,1.857-4.923,2.912
					c-0.779,0.527-1.512,1.047-2.155,1.516c-0.157,0.115-0.313,0.229-0.466,0.341c-0.103,0.07-0.095,0.081-0.095,0.095l-0.01,0.048
					c-0.012,0.063-0.023,0.121-0.033,0.173c2.764,5.463,3.671,8.709,6.387,13.729c-0.106,0.656,0.785,3.307-0.411,2.619
					c0.655,0.58,1.515,0.972,2.394,2.498c0.373,3.674-2.083-3.336-2.355-0.234c0.959-0.267,3.364,3.356,5.092,5.271
					c0.931-1.382-2.521-5.223-4.262-7.137c0.453-0.248,1.043-0.26,1.729-0.061c0.172,0.049,0.35,0.112,0.532,0.188
					c0.089,0.039,0.182,0.08,0.278,0.123c0.007,0.002,0.009,0.006,0.021,0.006l0.088-0.029l0.177-0.06l0.354-0.118
					c0.231-0.076,0.467-0.153,0.705-0.231c1.878-0.608,3.731-1.144,5.539-1.602c7.236-1.834,13.712-2.41,18.178-1.446
					c5.375,2.467-8.159,6.766-5.841,6.441c0.724,4.669,7.518,3.134,13.15,2.011c5.658-1.136,10.172-1.868,6.764,4.188
					c-3.644,3.651-7.75,5.925-11.721,7.8c-3.963,1.871-7.786,3.341-10.653,5.272c-2.481-0.847-1.852-2.878-0.744-4.99
					c1.102-2.109,2.673-4.296,1.92-5.376l-2.604,5.083c-3.391,0.447-6.816-0.625-4.962-3.232c-0.416,0.401-0.757,0.807-1.032,1.217
					c-0.138,0.205-0.259,0.411-0.365,0.619c-0.047,0.101-0.096,0.205-0.146,0.313c-0.035,0.099-0.119,0.227-0.063,0.28
					c0.206,0.563,0.496,1.225,0.846,1.965c0.7,1.478,1.643,3.264,2.653,5.168c2.021,3.811,4.31,8.103,5.525,11.354
					c0.476,0.436,1.061,1.064,1.52,1.445c0.115,0.096,0.223,0.175,0.318,0.232c0.116,0.046,0.058,0.159,0.586-0.086
					c0.781-0.339,1.52-0.806,2.196-1.459l-2.134-1.312c2.748-2.638,5.461-2.952,7.653-3.093c2.199-0.144,3.891-0.119,4.801-2.181
					c2.864,0.095,6.347-0.049,8.836,0.517c2.496,0.563,3.992,1.84,3.053,4.688l-8.288,5.415c2.453-1.443,4.042-5.266,0.919-4.87
					c2.282-0.275-0.033,2.781-1.317,5.301c-1.3,2.526-1.575,4.518,4.307,2.361l4.717-5.859c2.714,0.179,6.602-0.091,9.579,0.237
					c2.987,0.323,5.063,1.245,4.375,3.691c3.726-2.987,3.448-3.072,3.286-3.354c-0.15-0.287-0.202-0.763,4.182-4.636
					c-5.574,4.332-6.154,2.007-6.776-0.103c-0.593-2.125-1.311-3.989-7.11,1.233c5.227-4.37,6.105-6.154,6.723-7.91
					c0.632-1.765,0.993-3.497,5.537-7.947c-2.877,1.694-5.188,4.23-4.672,0.483c-0.897,0.334-2.088,0.615-2.792,0.766
					c0.049-0.134,0.089-0.192,0.156-0.319c-0.107,0.127-0.188,0.225-0.296,0.352c-0.481,0.113-0.577,0.153-0.101,0.127
					c-1.059,1.403-2.406,2.81-3.954,3.927c-7.201,2.216-8.793-2.433-13.023-1.99c0.751-2.468,3.757-1.188,6.615-3.871l-6.316,0.658
					c3.348-1.963,5.742-4.636,8.018-6.603c2.269-1.963,4.409-3.215,7.078-2.246l-0.9-3.871c3.163-4.291,3.887-8.214,0.27-8.424
					c0.999-2.599-9.43-0.065-3.28-1.617c0,0-1.616-0.831-3.232-1.662c-1.641-0.817-3.281-1.635-3.281-1.635l1.819-1.052
					c-0.264-1.543-1.413-2.63-2.838-3.595c-1.44-0.956-3.157-1.79-4.501-2.857c-2.673-2.141-3.909-5.186,1.966-12.219
					c-2.639-0.84-5.864-1.439-4.818-5.8l6.684-4.354c-1.652-0.561-0.582-3.33-0.02-5.615c0.559-2.282,0.594-4.075-3.284-2.605
					c9.063-6.47,9.144-10.05,7.083-12.72c-2.037-2.685-6.227-4.455-5.237-7.551l-9.685,5.032c-0.553-3.23-4.399-4.539-9.835-5.989
					l-8.588,4.9c-4.235,0.394-3.578-2.389-2.179-5.846c1.388-3.449,3.544-7.588,2.046-9.767c3.558-1.511,3.175,0.21,1.495,2.188
					c8.818-8.314,3.901-9.435-1.795-10.057c-5.676-0.632-12.162-0.742-5.787-7.417c-3.905,0.487-3.186-1.07-1.284-3.227
					c0.074,0.109,0.294,0.127,0.626,0.063c0.051-0.191-0.019-0.4-0.13-0.593c1.325-1.427,2.909-3.015,4.104-4.454
					c-2.001,1.754-3.614,3.271-4.263,4.184c-0.643-0.9-2.471-1.805-5.471-2.042l9.67-5.997c-0.185-0.051-0.208-0.16-0.436-0.193
					c3.041-3.456-5.253,1.367-12.398,6.187c-1.983,0.135-4.276,0.516-6.939,1.287c7.794-4.937,5.996-5.183,4.29-5.546
					c-1.701-0.366-3.313-0.848,4.998-6.332c-8.904,3.548-9.81-4.029-28.228,4.906c2.32-1.313,3.224-2.346,3.761-1.635
					c1.242-2.734,2.503-5.478-3.324-4.191l12.694-7.715l-19.326,5.9c6.883-6.45,11.131-9.879,22.253-13.147
					c-9.004,1.562-11.004,1.307-12.919,1.128c-1.92-0.176-3.78-0.262-12.656,1.729l8.662-4.4c-1.105-1.402-13.876,2.292-7.268-2.48
					c7.271-6.16,5.677-10.836,3.583-16.119c-2.126-5.266-4.784-11.119,0.677-19.824c-24.906,15.716,9.451-10.465-10.751,0.016
					c5.84-3.834,8.655-6.968,14.721-8.386c-8.396-1.331,6.151-12.185-12.444-6.155c5.893-3.873,9.512-3.903,12.91-6.348
					c-1.516,0.35-6.094,1.438-2.676-1.031c3.414-2.454,5.504-2.127,8.552-2.849c-3.441-4.154-22.64,5.673-40.606,15.002
					c7.167-6.938,5.369-7.482-7.225-2.825c5.384-3.988,10.76-8.684,14.392-6.927c-0.008-2.094,3.217-14.591-11.163-6.964
					c3.352-2.485-0.163-2.848-2.043-2.375c-1.11-4.106,0.006-5.133-3.275-7.969l-1.805,2.27c-18.013,8.016-5.457-0.865-9.123-2.597
					l1.814-0.886c8.789-13.386-7.526,0.429,3.057-13.834l-10.512,6.229c-23.366,12.043,10.405-13.204-0.501-12.128l-5.349,4.716
					c-8.987,2.273,28.02-22.93,29.674-26.557c1.737-1.549,3.608-1.06,5.447-1.249c10.398-12.825-14.369,7.005-19.902,4.787
					c7.09-4.888,19.669-9.604,19.5-13.068c2.65-2.351-4.583-0.935-10.922-0.39c-6.332,0.54-11.796,0.227-5.748-5.561
					c-5.267,3.993-10.549,7.98-15.962,8.529c-3.682-1.704,17.097-19.685-2.438-12.214c1.344-1.228,2.756-2.194,4.165-3
					c-5.919,0.417-11.886-2.731-22.335,1.382c17.37-11.04,10.935-11.928,4.402-12.399c-6.541-0.468-13.201-0.513,3.133-9.667
					l-5.811-5.605l3.409-1.689c-0.518-5.395-9.21-2.501-17.81,0.371c1.582-2.207,5.012-3.19,6.744-4.062
					c1.306-4.894,1.494-7.29-1.013-7.985c-2.516-0.689-7.739,0.326-17.181,2.222l9.873-6.348c-3.409,0.997-0.805-3.491,0.616-8.1
					c1.44-4.617,1.657-9.337-6.13-8.959c1.164-0.588,3.174-1.572,4.893-1.908c-8.063,0.022-3.813-7.923-2.486-13.493
					c1.369-5.593-0.146-8.808-18.357,0.063l-11.459,0.569c0.529,3.626-3.389,5.604-7.922,7.369
					c-4.541,1.767-9.678,3.311-11.838,6.175c-1.687-0.558,0.043-3.551,2.59-6.167c2.549-2.617,5.933-4.865,7.688-3.989l-1.445,1.435
					c18.55-9.399,1.764-10.796,13.842-17.64c-4.273-5.266-5.813-12.033-7.367-18.685c-0.758-3.336-1.52-6.646-2.554-9.767
					c-1.01-3.133-2.31-6.063-4.11-8.655l-11.461,8.527l-1.868-3.984c2.167-2.635,8.576-6.934,10.013-4.142
					c2.965-2.731,0.677-2.896-2.636-2.217c-3.318,0.684-7.659,2.211-8.995,2.96c0.632-3.944,4.437-5.535,8.066-6.395
					c3.62-0.854,7.054-0.97,6.601-1.797l-2.518-1.473l-1.036,1.294c-6.197,1.303-11.424,4.231-13.115,0.865
					c0.904-3.32,6.468-5.322,6.335-6.336c0.829-0.493,1.013-0.975-0.577-1.333l-2.531-4.935l-7.636,7.202
					c-5.925,0.726-2.619-4.475-11.272,3.737c6.783-6.285,4.977-11.213,1.99-15.205c-3.043-3.965-7.203-7.024-5.736-9.273
					c-8.078,0.943-9.916-1.881-11.818-5.623c-0.951,1.813-9.334,7.724-10.3,4.095c9.237-4.949,10.158-7.461,10.041-9.958
					c-0.116-2.498-1.161-5.041,3.882-9.909c-6.276,6.988-8.764-6.641-17.059,3.383c-0.26-1.61,1.2-2.579,3.034-3.677
					c1.829-1.094,4.047-2.322,5.157-4.369c-5.462-0.81-6.92-4.549-8.436-8.522c-0.729-2.004-1.417-4.098-2.44-6.019
					c-1.035-1.914-2.419-3.647-4.429-4.995c-1.813,0.994-3.507,3.833-7.345,4.031c0,0,1.405-2.283,2.713-4.509
					c1.317-2.231,2.539-4.406,2.539-4.406c-1.059-0.362-3.726,0.869-5.678,1.429c-1.964,0.566-3.167,0.434-1.527-2.521
					c-1.009,1.186-2.593,3.004-3.88,2.438c-0.964-4.531-3.529-8.094-6.568-11.375c-1.511-1.647-3.199-3.185-4.906-4.715
					c-1.715-1.523-3.434-3.05-5.154-4.578c-1.708-1.534-3.362-3.105-4.916-4.741c-1.581-1.617-3.068-3.295-4.438-5.048
					c-2.746-3.499-4.975-7.328-7.11-11.187c0.646,2.433-0.792,1.484-2.224,0.258c0.612,1.012-1.589,1.033-2.261,1.764
					c0,0-0.681-1.754-1.517-3.405c-0.807-1.671-1.833-3.194-1.833-3.194c-1.438,0.162-2.907-1.221-4.347-2.535
					c-1.426-1.325-2.866-2.552-3.647-2.484c0,0,0.468,0.384,0.937,0.769c0.478,0.378,0.954,0.757,0.954,0.757
					c-1.84-0.619-1.724,0.609-1.858,2.402c0.001,0.213-0.061,0.473-0.017,0.663c0.031,0.198,0.063,0.397,0.094,0.593
					c0.059,0.393,0.106,0.773,0.123,1.113c0.034,0.68-0.054,1.195-0.413,1.303c1.473,1.089,2.334,3.256,3.377,5.631
					c1.048,2.372,2.27,4.958,4.635,6.784c0.416,1.226-0.998-0.616-0.935,0.146c1.331,0.837,2.408,2.204,3.91,5.065l-0.34-0.21
					c5.056,7.48,6.671,11.055,11.67,19.898l0.321-1.106c1.062,1.91,1.077,2.447,1.436,3.432c2.431,1.401-3.186-5.23-0.772-4.084
					c0.063,3.41,8.179,13.019,7.458,15.81c1.762,2.853,0.366-1.405,2.132,1.443l-0.013,1.065l1.074,0.316
					c1.065,1.928,1.039,3.263,0.665,3.6c-0.231-0.484-0.915-1.213-1.251-1.676c0.92,2.793,4.43,6.701,4.757,7.653l-1.39-2.933
					c2.648,3.734,5.288,8.074,7.974,12.339c2.71,4.249,5.344,8.501,8.216,11.916l0.06-0.829c4.284,5.283,2.367,4.896,6.586,11
					l-0.241-0.168c1.191,1.007,2.438,2.564,3.45,4.324c-1.47-1.29,0.87,3.603-0.958,1.848c4.654,5.728,2.543,2.684,6.668,5.822
					l-0.133,1.391c1.511,1.006,1.926,0.913,4.056,3.951c-2.211-2.207,0.131,2.691-2.468,0.293c2.467,7.593,7.575,8.892,7.031,13.393
					c3.879,1.819-2.285-6.478-0.828-5.024c-0.19-1.844,3.035,1.602,4.082,3.819c1.23,2.158-0.486,5.23,2.719,10.584
					c-0.306-0.541-0.485-0.481-0.791-1.02c0.648,2.336,3.055,3.502,3.634,6.497c2.104,0.61,1.815,3.248,3.7,2.658l-3.301-4.698
					c2.076,2.539,5.573,3.995,7.375,9.152c-0.551-0.157-1.806-1.261-2.609-2.055c0.308,1.639,1.863,2.395,2.186,4.091
					c-1.907,0.6-3.912-5.77-6.936-8.011c0.153,1.864,4.537,4.948,1.856,4.518c3.565,0.795,2.823,5.473,6.735,8.061l-1.152,0.361
					c0.498,0.482,1.681,1.392,2.28,2.467l-2.445-1.139c2.853,2.284,2.37,6.259,4.591,8.756c-3.443-5.943,0.475-2.072-0.239-5.025
					c5.635,6.517-0.256,5.814,4.935,13.763c-0.78-1.03-1.76-4.558-0.282-3.098c0.683,1.694,1.464,4.002,1.46,5.29
					c3.33,5.332,0.605-1.475,2.578,0.469c-0.223,2.613,2.057,2.373,3.85,4.519l-1.073,0.649c2.864,6.624,3.213,0.324,5.604,6.399
					l-2.883-1.476l2.079,2.68l-1.591,0.123c2.757,2.628,3.092,3.752,4.539,7.055c0.354-1.169,2.227-0.75,3.857,1.975
					c0.434,2.249-1.655-0.443,0.762,3.355c-1.2-0.479-2.622-0.941-2.591-3.221c-0.459,0.033-1.192-0.467-1.649-0.44
					c0.417,2.45,2.763,5.165,3.59,6.567c-0.272-0.566-0.589-1.248-0.624-1.672l4.768,4.777c0.09,1.133-0.646,0.617-1.37,0.104
					c0.771,1.08,1.73,1.582,2.783,3.218c-1.149,0.081-2.021,0.721-3.797-1.428l4.058,4.831c-0.188,0.587,0.488,3.395-0.242,2.885
					c1.158,3.303,5.916,6.346,7.459,10.723c0.294,0.105,0.697,0.424,1.307,1.194c1.908,3.853,2.65,7.8,6.414,11.513l-0.231,3.447
					c2.335,3.254,0.157-4.578,4.049,0.842c2.842,3.789-0.547,2.32-0.203,4.019c1.966,1.572,5.646,4.162,6.384,8.698
					C1139.725,400.174,1139.428,399.055,1138.656,397.958z M1163.209,440.536c-0.703-0.7-2.373-1.946-2.015-2.94
					C1163.057,437.805,1162.817,438.896,1163.209,440.536z M1201.92,504.554c-0.73-0.409-1.063-1.477-1.205-2.806
					C1201.241,502.483,1201.684,503.4,1201.92,504.554z M1339.807,666.668c-0.136,0.027-0.236,0.05-0.399,0.102
					C1341.646,663.137,1340.732,664.49,1339.807,666.668z M1338.061,672.632c1.185-0.142,2.194-0.726,3.163-1.467
					c-1.968,0.723-2.438-0.147-2.292-1.51C1337.082,671.02,1335.95,672.284,1338.061,672.632z M1106.232,257.274l-1.471,1.899
					C1101.348,258.947,1103.676,258.182,1106.232,257.274z"/>
				<path fill="#ED1F24" d="M1196.236,497.996c0.07-0.346,0.256-0.531,0.449-0.709
					C1196.307,497.067,1196.072,497.186,1196.236,497.996z"/>
				<path fill="#ED1F24" d="M1123.072,371.671c-0.015-0.049-0.043-0.09-0.061-0.138c-0.107-0.033-0.197-0.032-0.276-0.016
					L1123.072,371.671z"/>
				<path fill="#ED1F24" d="M1268.51,632.619c-0.279-0.883-0.321-1.436-0.275-1.844
					C1267.941,630.877,1267.912,631.362,1268.51,632.619z"/>
				<path fill="#ED1F24" d="M1357.326,688.652l-2.549-1.813c0.729,1.152-0.594,2.432-1.441,3.68
					C1354.869,689.607,1356.972,687.844,1357.326,688.652z"/>
				<path fill="#ED1F24" d="M1328.525,732.427c0.154,0.15,0.263,0.341,0.371,0.531c0.136,0.175,0.11,0.437,0.604,0.397l2.604-1.565
					c-0.493-0.733-1.423-1.074-2.272-0.948c-0.425,0.063-0.827,0.24-1.141,0.542c-0.14,0.142-0.328,0.354-0.355,0.525
					C1328.377,732.044,1328.438,732.215,1328.525,732.427z"/>
				<path fill="#ED1F24" d="M1336.254,703.179c-5.43,3.232-2.817,3.819-1.035,5.098c-0.067-0.099-0.158-0.178-0.14-0.322
					C1342.85,704.353,1339.603,703.733,1336.254,703.179z"/>
				<path fill="#ED1F24" d="M1335.582,708.6c0.496,0.423,0.883,0.921,0.862,1.611C1339.521,708.785,1336.783,709.18,1335.582,708.6z
					"/>
				<path fill="#ED1F24" d="M1344.021,675.738c-1.246,1.746,7.931-3.658,5.635-1.803c4-1.588,1.22-1.845-1.921-1.327
					C1344.594,673.127,1341.124,674.402,1344.021,675.738z"/>
				<polygon fill="#ED1F24" points="1318.865,714.543 1325.297,710.206 1319.312,712.223 				"/>
				<path fill="#ED1F24" d="M1316.693,697.905l-0.544,3.903c1.182-0.701,2.073-0.73,2.834-0.584
					C1318.33,699.36,1318.819,696.658,1316.693,697.905z"/>
				<path fill="#ED1F24" d="M1318.983,701.225c0.321,0.981,0.916,1.757,2.326,1.629
					C1320.987,702.403,1320.225,701.475,1318.983,701.225z"/>
				<polygon fill="#ED1F24" points="1316.462,710.926 1316.217,709.993 1315.213,707.994 				"/>
				<path fill="#ED1F24" d="M1302.802,666.746l-3.974-1.771c-3.055,1.256-4.371,3.042-2.619,3.555
					C1298.599,668.173,1300.286,668.715,1302.802,666.746z"/>
				<path fill="#ED1F24" d="M1298.146,681.163c-0.232-0.937-0.029-1.119,0.063-1.769l-1.346,0.611L1298.146,681.163z"/>
				<path fill="#ED1F24" d="M1293.003,672.49c-0.528-0.105-3.464-3.826-1.27-0.033
					C1292.265,672.566,1294.23,675.438,1293.003,672.49z"/>
				<path fill="#ED1F24" d="M1269.85,625.826l0.436,0.764c0,0,0.142-0.086,0.355-0.215c0.053-0.031,0.111-0.066,0.172-0.104
					c0.41-0.225,0.843-0.462,1.289-0.707c1.135-0.621,2.344-1.282,3.554-1.943c4.84-2.647,9.68-5.294,9.68-5.294
					s-4.979,2.473-9.958,4.944c-2.309,1.139-5.743,2.885-5.104,2.46C1270.019,625.789,1269.85,625.826,1269.85,625.826z"/>
				<path fill="#ED1F24" d="M1242.34,588.529c1.38,3.907,1.94,0.06,2.988,3.697c1.023,0.54-0.857-2.973,0.101-2.369
					C1243.656,588.006,1243.374,586.684,1242.34,588.529z"/>
				<path fill="#ED1F24" d="M1245.429,589.857c0.283,0.297,0.597,0.604,0.964,0.913
					C1245.903,590.221,1245.628,589.986,1245.429,589.857z"/>
				<path fill="#ED1F24" d="M994.367,136.737c0,0-0.441-0.499-0.931-0.964c-0.491-0.464-0.982-0.928-0.982-0.928
					s0.232,0.356,0.443,0.728c0.213,0.37,0.405,0.754,0.405,0.754L994.367,136.737z"/>
				<path fill="#ED1F24" d="M988.84,134.369c0,0,0.111-0.264,0.224-0.527c0.099-0.255,0.196-0.51,0.196-0.51
					s-0.554-0.102-1.071-0.228c-0.521-0.124-1.007-0.271-1.007-0.271C987.684,133.211,988.708,133.911,988.84,134.369z"/>
				<path fill="#ED1F24" d="M1163.518,448.712l0.478-0.034c0.218-0.586-0.045-1.144-0.571-2.262L1163.518,448.712z"/>
				<polygon fill="#ED1F24" points="1147.513,416.813 1147.778,417.367 1148.628,415.579 				"/>
				<path fill="#ED1F24" d="M1131.237,391.635c0.545,1.094,1.553,2.173,2.084,3.282
					C1131.791,392.724,1132.795,390.377,1131.237,391.635z"/>
			</g>
		</g>
	</g>
</g>
<path fill="#F78E32" d="M1422.397,338.688v73.062h32.131v75.549h-32.131c0,15.175,2.391,25.629,7.172,31.366
	c4.781,5.738,13.547,8.607,26.299,8.607v75.166c-3.701,0.125-6.441,0.191-8.225,0.191c-16.195,0-31.463-3.76-45.807-11.285
	c-14.346-7.521-25.854-17.721-34.523-30.602c-10.969-16.448-16.449-38.252-16.449-65.411V338.688H1422.397z"/>
<path fill="#FCEE25" d="M1594.341,407.159v76.505c-4.973-2.803-9.5-4.208-13.58-4.208c-13.006,0-19.508,9.946-19.508,29.837v90.467
	h-71.533V495.521c0-27.541,7.521-49.504,22.568-65.89c15.045-16.383,35.127-24.576,60.248-24.576
	C1578.146,405.056,1585.413,405.757,1594.341,407.159z"/>
<path fill="#41B649" d="M1705.847,405.056c27.029,0,50.205,9.725,69.523,29.167c19.316,19.445,28.977,42.747,28.977,69.906
	c0,27.541-9.787,51.004-29.359,70.385c-19.574,19.383-43.195,29.071-70.863,29.071c-27.67,0-51.322-9.722-70.957-29.167
	c-19.637-19.443-29.455-42.873-29.455-70.289c0-27.924,9.818-51.416,29.455-70.479
	C1652.802,414.589,1677.028,405.056,1705.847,405.056z M1703.933,475.631c-7.65,0-14.152,2.773-19.508,8.32
	s-8.033,12.336-8.033,20.369c0,7.907,2.707,14.664,8.129,20.273c5.418,5.612,11.889,8.416,19.412,8.416
	c7.65,0,14.184-2.804,19.605-8.416c5.418-5.609,8.129-12.366,8.129-20.273c0-8.033-2.678-14.822-8.033-20.369
	S1711.71,475.631,1703.933,475.631z"/>
<path fill="#2A368E" d="M1901.507,338.688v156.261c0,25.375,9.115,38.062,27.352,38.062c7.775,0,14.373-2.645,19.795-7.938
	c5.418-5.29,8.129-11.697,8.129-19.223c0-7.775-2.553-14.311-7.65-19.604c-5.102-5.289-11.352-7.938-18.744-7.938
	c-5.23,0-11.223,2.295-17.979,6.885v-78.8c8.416-0.765,14.789-1.146,19.127-1.146c26.9,0,49.949,9.691,69.141,29.071
	c19.189,19.383,28.785,42.717,28.785,70.002c0,27.924-9.756,51.449-29.264,70.575s-43.482,28.689-71.914,28.689
	c-14.283,0-28.211-3.126-41.791-9.372s-24.768-14.661-33.566-25.246c-15.301-18.361-22.951-42.141-22.951-71.341V338.688H1901.507z"
	/>
<path fill="#1C1E53" d="M2248.265,515.987h-108.445c-1.658-5.481-2.486-10.52-2.486-15.11c0-6.374,1.148-12.623,3.443-18.743h36.34
	c-2.553-14.153-10.52-21.229-23.908-21.229c-8.926,0-16.195,3.795-21.805,11.379c-5.611,7.588-8.414,17.31-8.414,29.168
	c0,12.369,2.707,22.377,8.129,30.028c5.418,7.65,12.527,11.476,21.324,11.476c7.141,0,14.025-3.568,20.656-10.711l40.74,48.963
	c-19.002,14.919-40.104,22.378-63.309,22.378c-28.307,0-52.09-9.497-71.34-28.498c-19.256-18.997-28.881-42.522-28.881-70.575
	c0-27.924,9.721-51.513,29.166-70.767c19.443-19.252,43.322-28.881,71.629-28.881c27.666,0,50.904,9.404,69.715,28.211
	c18.807,18.81,28.211,41.981,28.211,69.523C2249.03,505.404,2248.772,509.867,2248.265,515.987z"/>
<path fill="#41B649" d="M489.968,408.88v190.88h-77.652V338.688h99.648c30.345,0,53.869,7.524,70.575,22.569
	c18.615,16.83,27.925,38.189,27.925,64.072c0,26.394-11.542,48.646-34.619,66.751l44.756,107.68h-81.479l-37.678-84.155v-67.133
	h6.12c16.32,0,24.481-7.011,24.481-21.039c0-12.366-9.438-18.553-28.307-18.553H489.968z"/>
<path fill="#FCEE25" d="M828.693,515.987H720.248c-1.659-5.481-2.487-10.52-2.487-15.11c0-6.374,1.148-12.623,3.443-18.743h36.34
	c-2.553-14.153-10.52-21.229-23.908-21.229c-8.926,0-16.193,3.795-21.803,11.379c-5.613,7.588-8.416,17.31-8.416,29.168
	c0,12.369,2.707,22.377,8.129,30.028c5.418,7.65,12.527,11.476,21.325,11.476c7.14,0,14.024-3.568,20.656-10.711l40.739,48.963
	c-19.001,14.919-40.103,22.378-63.309,22.378c-28.307,0-52.088-9.497-71.34-28.498c-19.255-18.997-28.881-42.522-28.881-70.575
	c0-27.924,9.722-51.513,29.168-70.767c19.442-19.252,43.32-28.881,71.627-28.881c27.668,0,50.906,9.404,69.715,28.211
	c18.807,18.81,28.211,41.981,28.211,69.523C829.458,505.404,829.201,509.867,828.693,515.987z"/>
<path fill="#F78E32" d="M964.298,528.229v74.018c-5.866,1.02-11.222,1.53-16.066,1.53c-28.689,0-52.597-9.435-71.723-28.307
	c-19.127-18.869-28.689-42.522-28.689-70.958c0-27.668,9.658-51.13,28.977-70.385c19.316-19.251,42.81-28.88,70.479-28.88
	c30.856,0,55.179,9.021,72.966,27.063c17.788,18.045,26.682,42.685,26.682,73.923v93.527h-71.531v-88.363
	c0-10.07-2.457-18.104-7.364-24.099c-4.91-5.991-11.509-8.989-19.796-8.989c-7.524,0-14.027,2.743-19.508,8.225
	c-5.484,5.483-8.225,11.986-8.225,19.508c0,7.908,2.486,14.41,7.459,19.51c4.973,5.101,11.285,7.65,18.936,7.65
	C953.139,533.201,958.942,531.545,964.298,528.229z"/>
<path fill="#201F51" d="M141.733,232.422h71.096v473.604h-71.096V232.422z"/>
<path fill="#29398C" d="M277.024,232.421h71.096v473.604h-71.096V232.421z"/>
</svg>
