  0
SECTION
  2
HEADER
  9
$ACADVER
  1
AC1018
  9
$ACADMAINTVER
 70
     0
  9
$DWGCODEPAGE
  3
ANSI_1252
  9
$INSBASE
 10
0.0
 20
0.0
 30
0.0
  9
$EXTMIN
 10
1.000000000000000E+20
 20
1.000000000000000E+20
 30
1.000000000000000E+20
  9
$EXTMAX
 10
-1.000000000000000E+20
 20
-1.000000000000000E+20
 30
-1.000000000000000E+20
  9
$LIMMIN
 10
0.0
 20
0.0
  9
$LIMMAX
 10
12.0
 20
9.0
  9
$ORTHOMODE
 70
     0
  9
$REGENMODE
 70
     1
  9
$FILLMODE
 70
     1
  9
$QTEXTMODE
 70
     0
  9
$MIRRTEXT
 70
     1
  9
$LTSCALE
 40
1.0
  9
$ATTMODE
 70
     1
  9
$TEXTSIZE
 40
0.2
  9
$TRACEWID
 40
0.05
  9
$TEXTSTYLE
  7
Standard
  9
$CLAYER
  8
0
  9
$CELTYPE
  6
ByLayer
  9
$CECOLOR
 62
   256
  9
$CELTSCALE
 40
1.0
  9
$DISPSILH
 70
     0
  9
$DIMSCALE
 40
1.0
  9
$DIMASZ
 40
0.18
  9
$DIMEXO
 40
0.0625
  9
$DIMDLI
 40
0.38
  9
$DIMRND
 40
0.0
  9
$DIMDLE
 40
0.0
  9
$DIMEXE
 40
0.18
  9
$DIMTP
 40
0.0
  9
$DIMTM
 40
0.0
  9
$DIMTXT
 40
0.18
  9
$DIMCEN
 40
0.09
  9
$DIMTSZ
 40
0.0
  9
$DIMTOL
 70
     0
  9
$DIMLIM
 70
     0
  9
$DIMTIH
 70
     1
  9
$DIMTOH
 70
     1
  9
$DIMSE1
 70
     0
  9
$DIMSE2
 70
     0
  9
$DIMTAD
 70
     0
  9
$DIMZIN
 70
     0
  9
$DIMBLK
  1

  9
$DIMASO
 70
     1
  9
$DIMSHO
 70
     1
  9
$DIMPOST
  1

  9
$DIMAPOST
  1

  9
$DIMALT
 70
     0
  9
$DIMALTD
 70
     2
  9
$DIMALTF
 40
25.4
  9
$DIMLFAC
 40
1.0
  9
$DIMTOFL
 70
     0
  9
$DIMTVP
 40
0.0
  9
$DIMTIX
 70
     0
  9
$DIMSOXD
 70
     0
  9
$DIMSAH
 70
     0
  9
$DIMBLK1
  1

  9
$DIMBLK2
  1

  9
$DIMSTYLE
  2
Standard
  9
$DIMCLRD
 70
     0
  9
$DIMCLRE
 70
     0
  9
$DIMCLRT
 70
     0
  9
$DIMTFAC
 40
1.0
  9
$DIMGAP
 40
0.09
  9
$DIMJUST
 70
     0
  9
$DIMSD1
 70
     0
  9
$DIMSD2
 70
     0
  9
$DIMTOLJ
 70
     1
  9
$DIMTZIN
 70
     0
  9
$DIMALTZ
 70
     0
  9
$DIMALTTZ
 70
     0
  9
$DIMUPT
 70
     0
  9
$DIMDEC
 70
     4
  9
$DIMTDEC
 70
     4
  9
$DIMALTU
 70
     2
  9
$DIMALTTD
 70
     2
  9
$DIMTXSTY
  7
Standard
  9
$DIMAUNIT
 70
     0
  9
$DIMADEC
 70
     0
  9
$DIMALTRND
 40
0.0
  9
$DIMAZIN
 70
     0
  9
$DIMDSEP
 70
    46
  9
$DIMATFIT
 70
     3
  9
$DIMFRAC
 70
     0
  9
$DIMLDRBLK
  1

  9
$DIMLUNIT
 70
     2
  9
$DIMLWD
 70
    -2
  9
$DIMLWE
 70
    -2
  9
$DIMTMOVE
 70
     0
  9
$LUNITS
 70
     2
  9
$LUPREC
 70
     4
  9
$SKETCHINC
 40
0.1
  9
$FILLETRAD
 40
0.5
  9
$AUNITS
 70
     0
  9
$AUPREC
 70
     0
  9
$MENU
  1
.
  9
$ELEVATION
 40
0.0
  9
$PELEVATION
 40
0.0
  9
$THICKNESS
 40
0.0
  9
$LIMCHECK
 70
     0
  9
$CHAMFERA
 40
0.5
  9
$CHAMFERB
 40
0.5
  9
$CHAMFERC
 40
1.0
  9
$CHAMFERD
 40
0.0
  9
$SKPOLY
 70
     0
  9
$TDCREATE
 40
2458714.445575092
  9
$TDUCREATE
 40
2458714.737241759
  9
$TDUPDATE
 40
2458714.445575104
  9
$TDUUPDATE
 40
2458714.737241771
  9
$TDINDWG
 40
0.0000000116
  9
$TDUSRTIMER
 40
0.0000000116
  9
$USRTIMER
 70
     1
  9
$ANGBASE
 50
0.0
  9
$ANGDIR
 70
     0
  9
$PDMODE
 70
     0
  9
$PDSIZE
 40
0.0
  9
$PLINEWID
 40
0.0
  9
$SPLFRAME
 70
     0
  9
$SPLINETYPE
 70
     6
  9
$SPLINESEGS
 70
     8
  9
$HANDSEED
  5
2DF
  9
$SURFTAB1
 70
     6
  9
$SURFTAB2
 70
     6
  9
$SURFTYPE
 70
     6
  9
$SURFU
 70
     6
  9
$SURFV
 70
     6
  9
$UCSBASE
  2

  9
$UCSNAME
  2

  9
$UCSORG
 10
0.0
 20
0.0
 30
0.0
  9
$UCSXDIR
 10
1.0
 20
0.0
 30
0.0
  9
$UCSYDIR
 10
0.0
 20
1.0
 30
0.0
  9
$UCSORTHOREF
  2

  9
$UCSORTHOVIEW
 70
     0
  9
$UCSORGTOP
 10
0.0
 20
0.0
 30
0.0
  9
$UCSORGBOTTOM
 10
0.0
 20
0.0
 30
0.0
  9
$UCSORGLEFT
 10
0.0
 20
0.0
 30
0.0
  9
$UCSORGRIGHT
 10
0.0
 20
0.0
 30
0.0
  9
$UCSORGFRONT
 10
0.0
 20
0.0
 30
0.0
  9
$UCSORGBACK
 10
0.0
 20
0.0
 30
0.0
  9
$PUCSBASE
  2

  9
$PUCSNAME
  2

  9
$PUCSORG
 10
0.0
 20
0.0
 30
0.0
  9
$PUCSXDIR
 10
1.0
 20
0.0
 30
0.0
  9
$PUCSYDIR
 10
0.0
 20
1.0
 30
0.0
  9
$PUCSORTHOREF
  2

  9
$PUCSORTHOVIEW
 70
     0
  9
$PUCSORGTOP
 10
0.0
 20
0.0
 30
0.0
  9
$PUCSORGBOTTOM
 10
0.0
 20
0.0
 30
0.0
  9
$PUCSORGLEFT
 10
0.0
 20
0.0
 30
0.0
  9
$PUCSORGRIGHT
 10
0.0
 20
0.0
 30
0.0
  9
$PUCSORGFRONT
 10
0.0
 20
0.0
 30
0.0
  9
$PUCSORGBACK
 10
0.0
 20
0.0
 30
0.0
  9
$USERI1
 70
     0
  9
$USERI2
 70
     0
  9
$USERI3
 70
     0
  9
$USERI4
 70
     0
  9
$USERI5
 70
     0
  9
$USERR1
 40
0.0
  9
$USERR2
 40
0.0
  9
$USERR3
 40
0.0
  9
$USERR4
 40
0.0
  9
$USERR5
 40
0.0
  9
$WORLDVIEW
 70
     1
  9
$SHADEDGE
 70
     3
  9
$SHADEDIF
 70
    70
  9
$TILEMODE
 70
     1
  9
$MAXACTVP
 70
    64
  9
$PINSBASE
 10
0.0
 20
0.0
 30
0.0
  9
$PLIMCHECK
 70
     0
  9
$PEXTMIN
 10
1.000000000000000E+20
 20
1.000000000000000E+20
 30
1.000000000000000E+20
  9
$PEXTMAX
 10
-1.000000000000000E+20
 20
-1.000000000000000E+20
 30
-1.000000000000000E+20
  9
$PLIMMIN
 10
0.0
 20
0.0
  9
$PLIMMAX
 10
12.0
 20
9.0
  9
$UNITMODE
 70
     0
  9
$VISRETAIN
 70
     1
  9
$PLINEGEN
 70
     0
  9
$PSLTSCALE
 70
     1
  9
$TREEDEPTH
 70
  3020
  9
$CMLSTYLE
  2
Standard
  9
$CMLJUST
 70
     0
  9
$CMLSCALE
 40
1.0
  9
$PROXYGRAPHICS
 70
     1
  9
$MEASUREMENT
 70
     0
  9
$CELWEIGHT
370
    -1
  9
$ENDCAPS
280
     0
  9
$JOINSTYLE
280
     0
  9
$LWDISPLAY
290
     1
  9
$INSUNITS
 70
     1
  9
$HYPERLINKBASE
  1

  9
$STYLESHEET
  1

  9
$XEDIT
290
     1
  9
$CEPSNTYPE
380
     0
  9
$PSTYLEMODE
290
     1
  9
$FINGERPRINTGUID
  2
{4C88ED3E-941C-4017-BAF4-691A33E2822E}
  9
$VERSIONGUID
  2
{FAEB1C32-E019-11D5-929B-00C0DF256EC4}
  9
$EXTNAMES
290
     1
  9
$PSVPSCALE
 40
0.0
  9
$OLESTARTUP
290
     0
  9
$SORTENTS
280
   127
  9
$INDEXCTL
280
     0
  9
$HIDETEXT
280
     1
  9
$XCLIPFRAME
290
     0
  9
$HALOGAP
280
     0
  9
$OBSCOLOR
 70
   257
  9
$OBSLTYPE
280
     0
  9
$INTERSECTIONDISPLAY
280
     0
  9
$INTERSECTIONCOLOR
 70
   257
  9
$DIMASSOC
280
     2
  9
$PROJECTNAME
  1

  0
ENDSEC
  0
SECTION
  2
CLASSES
  0
CLASS
  1
ACDBDICTIONARYWDFLT
  2
AcDbDictionaryWithDefault
  3
ObjectDBX Classes
 90
        0
 91
        3
280
     0
281
     0
  0
CLASS
  1
VISUALSTYLE
  2
AcDbVisualStyle
  3
ObjectDBX Classes
 90
     4095
 91
        3
280
     0
281
     0
  0
ENDSEC
  0
SECTION
  2
TABLES
  0
TABLE
  2
VPORT
  5
8
330
0
100
AcDbSymbolTable
 70
     1
  0
VPORT
  5
29
330
8
100
AcDbSymbolTableRecord
100
AcDbViewportTableRecord
  2
*Active
 70
     0
 10
0.0
 20
0.0
 11
1.0
 21
1.0
 12
0.0
 22
0.0
 13
0.0
 23
0.0
 14
0.5
 24
0.5
 15
0.5
 25
0.5
 16
0.0
 26
0.0
 36
1.0
 17
1330.781474819215
 27
-773.8702485587025
 37
0.0
 40
337.7719752844806
 41
2.496975346858512
 42
50.0
 43
0.0
 44
0.0
 50
0.0
 51
0.0
 71
     0
 72
   100
 73
     1
 74
     3
 75
     0
 76
     0
 77
     0
 78
     0
281
     0
 65
     1
110
0.0
120
0.0
130
0.0
111
1.0
121
0.0
131
0.0
112
0.0
122
1.0
132
0.0
 79
     0
146
0.0
  0
ENDTAB
  0
TABLE
  2
LTYPE
  5
5
330
0
100
AcDbSymbolTable
 70
     1
  0
LTYPE
  5
14
330
5
100
AcDbSymbolTableRecord
100
AcDbLinetypeTableRecord
  2
ByBlock
 70
     0
  3

 72
    65
 73
     0
 40
0.0
  0
LTYPE
  5
15
330
5
100
AcDbSymbolTableRecord
100
AcDbLinetypeTableRecord
  2
ByLayer
 70
     0
  3

 72
    65
 73
     0
 40
0.0
  0
LTYPE
  5
16
330
5
100
AcDbSymbolTableRecord
100
AcDbLinetypeTableRecord
  2
Continuous
 70
     0
  3
Solid line
 72
    65
 73
     0
 40
0.0
  0
ENDTAB
  0
TABLE
  2
LAYER
  5
2
330
0
100
AcDbSymbolTable
 70
     2
  0
LAYER
  5
10
330
2
100
AcDbSymbolTableRecord
100
AcDbLayerTableRecord
  2
0
 70
     0
 62
     7
  6
Continuous
370
    -3
390
F
  0
LAYER
  5
3B
330
2
100
AcDbSymbolTableRecord
100
AcDbLayerTableRecord
  2
Layer 1
 70
     0
 62
     7
  6
Continuous
370
    -3
390
F
  0
ENDTAB
  0
TABLE
  2
STYLE
  5
3
330
0
100
AcDbSymbolTable
 70
     1
  0
STYLE
  5
11
330
3
100
AcDbSymbolTableRecord
100
AcDbTextStyleTableRecord
  2
Standard
 70
     0
 40
0.0
 41
1.0
 50
0.0
 71
     0
 42
0.2
  3
txt
  4

  0
ENDTAB
  0
TABLE
  2
VIEW
  5
6
330
0
100
AcDbSymbolTable
 70
     0
  0
ENDTAB
  0
TABLE
  2
UCS
  5
7
330
0
100
AcDbSymbolTable
 70
     0
  0
ENDTAB
  0
TABLE
  2
APPID
  5
9
330
0
100
AcDbSymbolTable
 70
     1
  0
APPID
  5
12
330
9
100
AcDbSymbolTableRecord
100
AcDbRegAppTableRecord
  2
ACAD
 70
     0
  0
ENDTAB
  0
TABLE
  2
DIMSTYLE
  5
A
330
0
100
AcDbSymbolTable
 70
     1
100
AcDbDimStyleTable
  0
DIMSTYLE
105
27
330
A
100
AcDbSymbolTableRecord
100
AcDbDimStyleTableRecord
  2
Standard
 70
     0
340
11
  0
ENDTAB
  0
TABLE
  2
BLOCK_RECORD
  5
1
330
0
100
AcDbSymbolTable
 70
     1
  0
BLOCK_RECORD
  5
1F
330
1
100
AcDbSymbolTableRecord
100
AcDbBlockTableRecord
  2
*Model_Space
340
22
  0
BLOCK_RECORD
  5
1B
330
1
100
AcDbSymbolTableRecord
100
AcDbBlockTableRecord
  2
*Paper_Space
340
1E
  0
BLOCK_RECORD
  5
23
330
1
100
AcDbSymbolTableRecord
100
AcDbBlockTableRecord
  2
*Paper_Space0
340
26
  0
ENDTAB
  0
ENDSEC
  0
SECTION
  2
BLOCKS
  0
BLOCK
  5
20
330
1F
100
AcDbEntity
  8
0
100
AcDbBlockBegin
  2
*Model_Space
 70
     0
 71
     0
 10
0.0
 20
0.0
 30
0.0
  3
*Model_Space
  1

  0
ENDBLK
  5
21
330
1F
100
AcDbEntity
  8
0
100
AcDbBlockEnd
  0
BLOCK
  5
1C
330
1B
100
AcDbEntity
 67
     1
  8
0
100
AcDbBlockBegin
  2
*Paper_Space
 70
     0
 71
     0
 10
0.0
 20
0.0
 30
0.0
  3
*Paper_Space
  1

  0
ENDBLK
  5
1D
330
1B
100
AcDbEntity
 67
     1
  8
0
100
AcDbBlockEnd
  0
BLOCK
  5
24
330
23
100
AcDbEntity
  8
0
100
AcDbBlockBegin
  2
*Paper_Space0
 70
     0
 71
     0
 10
0.0
 20
0.0
 30
0.0
  3
*Paper_Space0
  1

  0
ENDBLK
  5
25
330
23
100
AcDbEntity
  8
0
100
AcDbBlockEnd
  0
ENDSEC
  0
SECTION
  2
ENTITIES
  0
POLYLINE
  5
3C
330
1F
100
AcDbEntity
  8
Layer 1
370
     0
100
AcDb2dPolyline
 66
     1
 10
0.0
 20
0.0
 30
0.0
  0
VERTEX
  5
3D
330
3C
100
AcDbEntity
  8
Layer 1
370
     0
100
AcDbVertex
100
AcDb2dVertex
 10
1335.125051207017
 20
-771.162231252522
 30
0.0
  0
VERTEX
  5
3E
330
3C
100
AcDbEntity
  8
Layer 1
370
     0
100
AcDbVertex
100
AcDb2dVertex
 10
1335.125051207017
 20
-771.5115639347263
 30
0.0
  0
VERTEX
  5
3F
330
3C
100
AcDbEntity
  8
Layer 1
370
     0
100
AcDbVertex
100
AcDb2dVertex
 10
1335.125051207017
 20
-771.8608966169306
 30
0.0
  0
VERTEX
  5
40
330
3C
100
AcDbEntity
  8
Layer 1
370
     0
100
AcDbVertex
100
AcDb2dVertex
 10
1335.125051207017
 20
-772.2105738086835
 30
0.0
  0
VERTEX
  5
41
330
3C
100
AcDbEntity
  8
Layer 1
370
     0
100
AcDbVertex
100
AcDb2dVertex
 10
1335.125051207017
 20
-772.5599064908878
 30
0.0
  0
VERTEX
  5
42
330
3C
100
AcDbEntity
  8
Layer 1
370
     0
100
AcDbVertex
100
AcDb2dVertex
 10
1335.27870246566
 20
-772.5599064908878
 30
0.0
  0
VERTEX
  5
43
330
3C
100
AcDbEntity
  8
Layer 1
370
     0
100
AcDbVertex
100
AcDb2dVertex
 10
1335.432353724302
 20
-772.5599064908878
 30
0.0
  0
VERTEX
  5
44
330
3C
100
AcDbEntity
  8
Layer 1
370
     0
100
AcDbVertex
100
AcDb2dVertex
 10
1335.586004982944
 20
-772.5599064908878
 30
0.0
  0
VERTEX
  5
45
330
3C
100
AcDbEntity
  8
Layer 1
370
     0
100
AcDbVertex
100
AcDb2dVertex
 10
1335.739656241586
 20
-772.5599064908878
 30
0.0
  0
VERTEX
  5
46
330
3C
100
AcDbEntity
  8
Layer 1
370
     0
100
AcDbVertex
100
AcDb2dVertex
 10
1335.739656241586
 20
-772.9212970072905
 30
0.0
  0
VERTEX
  5
47
330
3C
100
AcDbEntity
  8
Layer 1
370
     0
100
AcDbVertex
100
AcDb2dVertex
 10
1335.739656241586
 20
-773.2826875236932
 30
0.0
  0
VERTEX
  5
48
330
3C
100
AcDbEntity
  8
Layer 1
370
     0
100
AcDbVertex
100
AcDb2dVertex
 10
1335.739656241586
 20
-773.6440780400959
 30
0.0
  0
VERTEX
  5
49
330
3C
100
AcDbEntity
  8
Layer 1
370
     0
100
AcDbVertex
100
AcDb2dVertex
 10
1335.739656241586
 20
-774.0054685564986
 30
0.0
  0
VERTEX
  5
4A
330
3C
100
AcDbEntity
  8
Layer 1
370
     0
100
AcDbVertex
100
AcDb2dVertex
 10
1335.586004982944
 20
-774.0054685564986
 30
0.0
  0
VERTEX
  5
4B
330
3C
100
AcDbEntity
  8
Layer 1
370
     0
100
AcDbVertex
100
AcDb2dVertex
 10
1335.432353724302
 20
-774.0054685564986
 30
0.0
  0
VERTEX
  5
4C
330
3C
100
AcDbEntity
  8
Layer 1
370
     0
100
AcDbVertex
100
AcDb2dVertex
 10
1335.27870246566
 20
-774.0054685564986
 30
0.0
  0
VERTEX
  5
4D
330
3C
100
AcDbEntity
  8
Layer 1
370
     0
100
AcDbVertex
100
AcDb2dVertex
 10
1335.125051207017
 20
-774.0054685564986
 30
0.0
  0
VERTEX
  5
4E
330
3C
100
AcDbEntity
  8
Layer 1
370
     0
100
AcDbVertex
100
AcDb2dVertex
 10
1335.133663945731
 20
-774.2063176232888
 30
0.0
  0
VERTEX
  5
4F
330
3C
100
AcDbEntity
  8
Layer 1
370
     0
100
AcDbVertex
100
AcDb2dVertex
 10
1335.159157652321
 20
-774.3734047543234
 30
0.0
  0
VERTEX
  5
50
330
3C
100
AcDbEntity
  8
Layer 1
370
     0
100
AcDbVertex
100
AcDb2dVertex
 10
1335.202221345887
 20
-774.506385440054
 30
0.0
  0
VERTEX
  5
51
330
3C
100
AcDbEntity
  8
Layer 1
370
     0
100
AcDbVertex
100
AcDb2dVertex
 10
1335.26216600733
 20
-774.6056041900292
 30
0.0
  0
VERTEX
  5
52
330
3C
100
AcDbEntity
  8
Layer 1
370
     0
100
AcDbVertex
100
AcDb2dVertex
 10
1335.345192808525
 20
-774.6776066856709
 30
0.0
  0
VERTEX
  5
53
330
3C
100
AcDbEntity
  8
Layer 1
370
     0
100
AcDbVertex
100
AcDb2dVertex
 10
1335.456469392698
 20
-774.7289386084011
 30
0.0
  0
VERTEX
  5
54
330
3C
100
AcDbEntity
  8
Layer 1
370
     0
100
AcDbVertex
100
AcDb2dVertex
 10
1335.596684778948
 20
-774.7599444677684
 30
0.0
  0
VERTEX
  5
55
330
3C
100
AcDbEntity
  8
Layer 1
370
     0
100
AcDbVertex
100
AcDb2dVertex
 10
1335.765494457725
 20
-774.7702797542241
 30
0.0
  0
VERTEX
  5
56
330
3C
100
AcDbEntity
  8
Layer 1
370
     0
100
AcDbVertex
100
AcDb2dVertex
 10
1335.765494457725
 20
-775.1299477228843
 30
0.0
  0
VERTEX
  5
57
330
3C
100
AcDbEntity
  8
Layer 1
370
     0
100
AcDbVertex
100
AcDb2dVertex
 10
1335.765494457725
 20
-775.4892711819957
 30
0.0
  0
VERTEX
  5
58
330
3C
100
AcDbEntity
  8
Layer 1
370
     0
100
AcDbVertex
100
AcDb2dVertex
 10
1335.765494457725
 20
-775.8489391506558
 30
0.0
  0
VERTEX
  5
59
330
3C
100
AcDbEntity
  8
Layer 1
370
     0
100
AcDbVertex
100
AcDb2dVertex
 10
1335.765494457725
 20
-776.2082626097674
 30
0.0
  0
VERTEX
  5
5A
330
3C
100
AcDbEntity
  8
Layer 1
370
     0
100
AcDbVertex
100
AcDb2dVertex
 10
1335.715885082738
 20
-776.20998515751
 30
0.0
  0
VERTEX
  5
5B
330
3C
100
AcDbEntity
  8
Layer 1
370
     0
100
AcDbVertex
100
AcDb2dVertex
 10
1335.672821389172
 20
-776.2110186861556
 30
0.0
  0
VERTEX
  5
5C
330
3C
100
AcDbEntity
  8
Layer 1
370
     0
100
AcDbVertex
100
AcDb2dVertex
 10
1335.636992396126
 20
-776.2117077052527
 30
0.0
  0
VERTEX
  5
5D
330
3C
100
AcDbEntity
  8
Layer 1
370
     0
100
AcDbVertex
100
AcDb2dVertex
 10
1335.608053594049
 20
-776.2120522148011
 30
0.0
  0
VERTEX
  5
5E
330
3C
100
AcDbEntity
  8
Layer 1
370
     0
100
AcDbVertex
100
AcDb2dVertex
 10
1335.37895474428
 20
-776.1986163424087
 30
0.0
  0
VERTEX
  5
5F
330
3C
100
AcDbEntity
  8
Layer 1
370
     0
100
AcDbVertex
100
AcDb2dVertex
 10
1335.156401575933
 20
-776.1579642156828
 30
0.0
  0
VERTEX
  5
60
330
3C
100
AcDbEntity
  8
Layer 1
370
     0
100
AcDbVertex
100
AcDb2dVertex
 10
1334.940738598556
 20
-776.0907848537204
 30
0.0
  0
VERTEX
  5
61
330
3C
100
AcDbEntity
  8
Layer 1
370
     0
100
AcDbVertex
100
AcDb2dVertex
 10
1334.731621302602
 20
-775.996044727876
 30
0.0
  0
VERTEX
  5
62
330
3C
100
AcDbEntity
  8
Layer 1
370
     0
100
AcDbVertex
100
AcDb2dVertex
 10
1334.53593987904
 20
-775.8785669718291
 30
0.0
  0
VERTEX
  5
63
330
3C
100
AcDbEntity
  8
Layer 1
370
     0
100
AcDbVertex
100
AcDb2dVertex
 10
1334.36058451884
 20
-775.7417966810646
 30
0.0
  0
VERTEX
  5
64
330
3C
100
AcDbEntity
  8
Layer 1
370
     0
100
AcDbVertex
100
AcDb2dVertex
 10
1334.205555222004
 20
-775.5857338555828
 30
0.0
  0
VERTEX
  5
65
330
3C
100
AcDbEntity
  8
Layer 1
370
     0
100
AcDbVertex
100
AcDb2dVertex
 10
1334.071196498079
 20
-775.410723004932
 30
0.0
  0
VERTEX
  5
66
330
3C
100
AcDbEntity
  8
Layer 1
370
     0
100
AcDbVertex
100
AcDb2dVertex
 10
1333.933392678669
 20
-775.1554414294751
 30
0.0
  0
VERTEX
  5
67
330
3C
100
AcDbEntity
  8
Layer 1
370
     0
100
AcDbVertex
100
AcDb2dVertex
 10
1333.834862947791
 20
-774.8619192941318
 30
0.0
  0
VERTEX
  5
68
330
3C
100
AcDbEntity
  8
Layer 1
370
     0
100
AcDbVertex
100
AcDb2dVertex
 10
1333.775951814994
 20
-774.5298120893536
 30
0.0
  0
VERTEX
  5
69
330
3C
100
AcDbEntity
  8
Layer 1
370
     0
100
AcDbVertex
100
AcDb2dVertex
 10
1333.756314770728
 20
-774.1591198151408
 30
0.0
  0
VERTEX
  5
6A
330
3C
100
AcDbEntity
  8
Layer 1
370
     0
100
AcDbVertex
100
AcDb2dVertex
 10
1333.756314770728
 20
-773.409811547099
 30
0.0
  0
VERTEX
  5
6B
330
3C
100
AcDbEntity
  8
Layer 1
370
     0
100
AcDbVertex
100
AcDb2dVertex
 10
1333.756314770728
 20
-772.6605032790571
 30
0.0
  0
VERTEX
  5
6C
330
3C
100
AcDbEntity
  8
Layer 1
370
     0
100
AcDbVertex
100
AcDb2dVertex
 10
1333.756314770728
 20
-771.9115395205638
 30
0.0
  0
VERTEX
  5
6D
330
3C
100
AcDbEntity
  8
Layer 1
370
     0
100
AcDbVertex
100
AcDb2dVertex
 10
1333.756314770728
 20
-771.162231252522
 30
0.0
  0
VERTEX
  5
6E
330
3C
100
AcDbEntity
  8
Layer 1
370
     0
100
AcDbVertex
100
AcDb2dVertex
 10
1334.098412752413
 20
-771.162231252522
 30
0.0
  0
VERTEX
  5
6F
330
3C
100
AcDbEntity
  8
Layer 1
370
     0
100
AcDbVertex
100
AcDb2dVertex
 10
1334.440510734098
 20
-771.162231252522
 30
0.0
  0
VERTEX
  5
70
330
3C
100
AcDbEntity
  8
Layer 1
370
     0
100
AcDbVertex
100
AcDb2dVertex
 10
1334.782953225332
 20
-771.162231252522
 30
0.0
  0
VERTEX
  5
71
330
3C
100
AcDbEntity
  8
Layer 1
370
     0
100
AcDbVertex
100
AcDb2dVertex
 10
1335.125051207017
 20
-771.162231252522
 30
0.0
  0
VERTEX
  5
72
330
3C
100
AcDbEntity
  8
Layer 1
370
     0
100
AcDbVertex
100
AcDb2dVertex
 10
1335.125051207017
 20
-771.162231252522
 30
0.0
  0
SEQEND
  5
73
330
3C
100
AcDbEntity
  8
Layer 1
370
     0
  0
HATCH
  5
74
330
1F
100
AcDbEntity
  8
Layer 1
 62
   250
420
  2301728
100
AcDbHatch
 10
0.0
 20
0.0
 30
0.0
210
0.0
220
0.0
230
1.0
  2
SOLID
 70
     1
 71
     0
 91
        1
 92
        1
 93
       52
 72
     1
 10
1335.125051207017
 20
-771.162231252522
 11
1335.125051207017
 21
-771.5115639347263
 72
     1
 10
1335.125051207017
 20
-771.5115639347263
 11
1335.125051207017
 21
-771.8608966169306
 72
     1
 10
1335.125051207017
 20
-771.8608966169306
 11
1335.125051207017
 21
-772.2105738086835
 72
     1
 10
1335.125051207017
 20
-772.2105738086835
 11
1335.125051207017
 21
-772.5599064908878
 72
     1
 10
1335.125051207017
 20
-772.5599064908878
 11
1335.27870246566
 21
-772.5599064908878
 72
     1
 10
1335.27870246566
 20
-772.5599064908878
 11
1335.432353724302
 21
-772.5599064908878
 72
     1
 10
1335.432353724302
 20
-772.5599064908878
 11
1335.586004982944
 21
-772.5599064908878
 72
     1
 10
1335.586004982944
 20
-772.5599064908878
 11
1335.739656241586
 21
-772.5599064908878
 72
     1
 10
1335.739656241586
 20
-772.5599064908878
 11
1335.739656241586
 21
-772.9212970072905
 72
     1
 10
1335.739656241586
 20
-772.9212970072905
 11
1335.739656241586
 21
-773.2826875236932
 72
     1
 10
1335.739656241586
 20
-773.2826875236932
 11
1335.739656241586
 21
-773.6440780400959
 72
     1
 10
1335.739656241586
 20
-773.6440780400959
 11
1335.739656241586
 21
-774.0054685564986
 72
     1
 10
1335.739656241586
 20
-774.0054685564986
 11
1335.586004982944
 21
-774.0054685564986
 72
     1
 10
1335.586004982944
 20
-774.0054685564986
 11
1335.432353724302
 21
-774.0054685564986
 72
     1
 10
1335.432353724302
 20
-774.0054685564986
 11
1335.27870246566
 21
-774.0054685564986
 72
     1
 10
1335.27870246566
 20
-774.0054685564986
 11
1335.125051207017
 21
-774.0054685564986
 72
     1
 10
1335.125051207017
 20
-774.0054685564986
 11
1335.133663945731
 21
-774.2063176232888
 72
     1
 10
1335.133663945731
 20
-774.2063176232888
 11
1335.159157652321
 21
-774.3734047543234
 72
     1
 10
1335.159157652321
 20
-774.3734047543234
 11
1335.202221345887
 21
-774.506385440054
 72
     1
 10
1335.202221345887
 20
-774.506385440054
 11
1335.26216600733
 21
-774.6056041900292
 72
     1
 10
1335.26216600733
 20
-774.6056041900292
 11
1335.345192808525
 21
-774.6776066856709
 72
     1
 10
1335.345192808525
 20
-774.6776066856709
 11
1335.456469392698
 21
-774.7289386084011
 72
     1
 10
1335.456469392698
 20
-774.7289386084011
 11
1335.596684778948
 21
-774.7599444677684
 72
     1
 10
1335.596684778948
 20
-774.7599444677684
 11
1335.765494457725
 21
-774.7702797542241
 72
     1
 10
1335.765494457725
 20
-774.7702797542241
 11
1335.765494457725
 21
-775.1299477228843
 72
     1
 10
1335.765494457725
 20
-775.1299477228843
 11
1335.765494457725
 21
-775.4892711819957
 72
     1
 10
1335.765494457725
 20
-775.4892711819957
 11
1335.765494457725
 21
-775.8489391506558
 72
     1
 10
1335.765494457725
 20
-775.8489391506558
 11
1335.765494457725
 21
-776.2082626097674
 72
     1
 10
1335.765494457725
 20
-776.2082626097674
 11
1335.715885082738
 21
-776.20998515751
 72
     1
 10
1335.715885082738
 20
-776.20998515751
 11
1335.672821389172
 21
-776.2110186861556
 72
     1
 10
1335.672821389172
 20
-776.2110186861556
 11
1335.636992396126
 21
-776.2117077052527
 72
     1
 10
1335.636992396126
 20
-776.2117077052527
 11
1335.608053594049
 21
-776.2120522148011
 72
     1
 10
1335.608053594049
 20
-776.2120522148011
 11
1335.37895474428
 21
-776.1986163424087
 72
     1
 10
1335.37895474428
 20
-776.1986163424087
 11
1335.156401575933
 21
-776.1579642156828
 72
     1
 10
1335.156401575933
 20
-776.1579642156828
 11
1334.940738598556
 21
-776.0907848537204
 72
     1
 10
1334.940738598556
 20
-776.0907848537204
 11
1334.731621302602
 21
-775.996044727876
 72
     1
 10
1334.731621302602
 20
-775.996044727876
 11
1334.53593987904
 21
-775.8785669718291
 72
     1
 10
1334.53593987904
 20
-775.8785669718291
 11
1334.36058451884
 21
-775.7417966810646
 72
     1
 10
1334.36058451884
 20
-775.7417966810646
 11
1334.205555222004
 21
-775.5857338555828
 72
     1
 10
1334.205555222004
 20
-775.5857338555828
 11
1334.071196498079
 21
-775.410723004932
 72
     1
 10
1334.071196498079
 20
-775.410723004932
 11
1333.933392678669
 21
-775.1554414294751
 72
     1
 10
1333.933392678669
 20
-775.1554414294751
 11
1333.834862947791
 21
-774.8619192941318
 72
     1
 10
1333.834862947791
 20
-774.8619192941318
 11
1333.775951814994
 21
-774.5298120893536
 72
     1
 10
1333.775951814994
 20
-774.5298120893536
 11
1333.756314770728
 21
-774.1591198151408
 72
     1
 10
1333.756314770728
 20
-774.1591198151408
 11
1333.756314770728
 21
-773.409811547099
 72
     1
 10
1333.756314770728
 20
-773.409811547099
 11
1333.756314770728
 21
-772.6605032790571
 72
     1
 10
1333.756314770728
 20
-772.6605032790571
 11
1333.756314770728
 21
-771.9115395205638
 72
     1
 10
1333.756314770728
 20
-771.9115395205638
 11
1333.756314770728
 21
-771.162231252522
 72
     1
 10
1333.756314770728
 20
-771.162231252522
 11
1334.098412752413
 21
-771.162231252522
 72
     1
 10
1334.098412752413
 20
-771.162231252522
 11
1334.440510734098
 21
-771.162231252522
 72
     1
 10
1334.440510734098
 20
-771.162231252522
 11
1334.782953225332
 21
-771.162231252522
 72
     1
 10
1334.782953225332
 20
-771.162231252522
 11
1335.125051207017
 21
-771.162231252522
 97
        0
 75
     2
 76
     1
 98
        0
  0
POLYLINE
  5
75
330
1F
100
AcDbEntity
  8
Layer 1
370
     0
100
AcDb2dPolyline
 66
     1
 10
0.0
 20
0.0
 30
0.0
  0
VERTEX
  5
76
330
75
100
AcDbEntity
  8
Layer 1
370
     0
100
AcDbVertex
100
AcDb2dVertex
 10
1338.414772885882
 20
-772.472056556014
 30
0.0
  0
VERTEX
  5
77
330
75
100
AcDbEntity
  8
Layer 1
370
     0
100
AcDbVertex
100
AcDb2dVertex
 10
1338.414772885882
 20
-772.838270206096
 30
0.0
  0
VERTEX
  5
78
330
75
100
AcDbEntity
  8
Layer 1
370
     0
100
AcDbVertex
100
AcDb2dVertex
 10
1338.414772885882
 20
-773.2041393466295
 30
0.0
  0
VERTEX
  5
79
330
75
100
AcDbEntity
  8
Layer 1
370
     0
100
AcDbVertex
100
AcDb2dVertex
 10
1338.414772885882
 20
-773.5700084871631
 30
0.0
  0
VERTEX
  5
7A
330
75
100
AcDbEntity
  8
Layer 1
370
     0
100
AcDbVertex
100
AcDb2dVertex
 10
1338.414772885882
 20
-773.9358776276966
 30
0.0
  0
VERTEX
  5
7B
330
75
100
AcDbEntity
  8
Layer 1
370
     0
100
AcDbVertex
100
AcDb2dVertex
 10
1338.345181957081
 20
-773.9007376537471
 30
0.0
  0
VERTEX
  5
7C
330
75
100
AcDbEntity
  8
Layer 1
370
     0
100
AcDbVertex
100
AcDb2dVertex
 10
1338.278347104667
 20
-773.8755884567048
 30
0.0
  0
VERTEX
  5
7D
330
75
100
AcDbEntity
  8
Layer 1
370
     0
100
AcDbVertex
100
AcDb2dVertex
 10
1338.214957347738
 20
-773.8604300365696
 30
0.0
  0
VERTEX
  5
7E
330
75
100
AcDbEntity
  8
Layer 1
370
     0
100
AcDbVertex
100
AcDb2dVertex
 10
1338.155012686295
 20
-773.8552623933418
 30
0.0
  0
VERTEX
  5
7F
330
75
100
AcDbEntity
  8
Layer 1
370
     0
100
AcDbVertex
100
AcDb2dVertex
 10
1337.991715160294
 20
-773.8910913863883
 30
0.0
  0
VERTEX
  5
80
330
75
100
AcDbEntity
  8
Layer 1
370
     0
100
AcDbVertex
100
AcDb2dVertex
 10
1337.874926423344
 20
-773.9982338559796
 30
0.0
  0
VERTEX
  5
81
330
75
100
AcDbEntity
  8
Layer 1
370
     0
100
AcDbVertex
100
AcDb2dVertex
 10
1337.804990984993
 20
-774.1766898021156
 30
0.0
  0
VERTEX
  5
82
330
75
100
AcDbEntity
  8
Layer 1
370
     0
100
AcDbVertex
100
AcDb2dVertex
 10
1337.781564335693
 20
-774.4264592247962
 30
0.0
  0
VERTEX
  5
83
330
75
100
AcDbEntity
  8
Layer 1
370
     0
100
AcDbVertex
100
AcDb2dVertex
 10
1337.781564335693
 20
-774.8591632177436
 30
0.0
  0
VERTEX
  5
84
330
75
100
AcDbEntity
  8
Layer 1
370
     0
100
AcDbVertex
100
AcDb2dVertex
 10
1337.781564335693
 20
-775.291867210691
 30
0.0
  0
VERTEX
  5
85
330
75
100
AcDbEntity
  8
Layer 1
370
     0
100
AcDbVertex
100
AcDb2dVertex
 10
1337.781564335693
 20
-775.7245712036383
 30
0.0
  0
VERTEX
  5
86
330
75
100
AcDbEntity
  8
Layer 1
370
     0
100
AcDbVertex
100
AcDb2dVertex
 10
1337.781564335693
 20
-776.1572751965857
 30
0.0
  0
VERTEX
  5
87
330
75
100
AcDbEntity
  8
Layer 1
370
     0
100
AcDbVertex
100
AcDb2dVertex
 10
1337.439466354008
 20
-776.1572751965857
 30
0.0
  0
VERTEX
  5
88
330
75
100
AcDbEntity
  8
Layer 1
370
     0
100
AcDbVertex
100
AcDb2dVertex
 10
1337.097368372323
 20
-776.1572751965857
 30
0.0
  0
VERTEX
  5
89
330
75
100
AcDbEntity
  8
Layer 1
370
     0
100
AcDbVertex
100
AcDb2dVertex
 10
1336.755270390638
 20
-776.1572751965857
 30
0.0
  0
VERTEX
  5
8A
330
75
100
AcDbEntity
  8
Layer 1
370
     0
100
AcDbVertex
100
AcDb2dVertex
 10
1336.413172408952
 20
-776.1572751965857
 30
0.0
  0
VERTEX
  5
8B
330
75
100
AcDbEntity
  8
Layer 1
370
     0
100
AcDbVertex
100
AcDb2dVertex
 10
1336.413172408952
 20
-775.6584253703215
 30
0.0
  0
VERTEX
  5
8C
330
75
100
AcDbEntity
  8
Layer 1
370
     0
100
AcDbVertex
100
AcDb2dVertex
 10
1336.413172408952
 20
-775.1599200536059
 30
0.0
  0
VERTEX
  5
8D
330
75
100
AcDbEntity
  8
Layer 1
370
     0
100
AcDbVertex
100
AcDb2dVertex
 10
1336.413172408952
 20
-774.6614147368903
 30
0.0
  0
VERTEX
  5
8E
330
75
100
AcDbEntity
  8
Layer 1
370
     0
100
AcDbVertex
100
AcDb2dVertex
 10
1336.413172408952
 20
-774.1629094201746
 30
0.0
  0
VERTEX
  5
8F
330
75
100
AcDbEntity
  8
Layer 1
370
     0
100
AcDbVertex
100
AcDb2dVertex
 10
1336.440044153737
 20
-773.7877385218309
 30
0.0
  0
VERTEX
  5
90
330
75
100
AcDbEntity
  8
Layer 1
370
     0
100
AcDbVertex
100
AcDb2dVertex
 10
1336.521003897641
 20
-773.4525307311161
 30
0.0
  0
VERTEX
  5
91
330
75
100
AcDbEntity
  8
Layer 1
370
     0
100
AcDbVertex
100
AcDb2dVertex
 10
1336.656051640662
 20
-773.1572860480302
 30
0.0
  0
VERTEX
  5
92
330
75
100
AcDbEntity
  8
Layer 1
370
     0
100
AcDbVertex
100
AcDb2dVertex
 10
1336.844842873254
 20
-772.9020044725731
 30
0.0
  0
VERTEX
  5
93
330
75
100
AcDbEntity
  8
Layer 1
370
     0
100
AcDbVertex
100
AcDb2dVertex
 10
1337.078764856702
 20
-772.6963322721037
 30
0.0
  0
VERTEX
  5
94
330
75
100
AcDbEntity
  8
Layer 1
370
     0
100
AcDbVertex
100
AcDb2dVertex
 10
1337.348860342746
 20
-772.5495712044321
 30
0.0
  0
VERTEX
  5
95
330
75
100
AcDbEntity
  8
Layer 1
370
     0
100
AcDbVertex
100
AcDb2dVertex
 10
1337.655129331385
 20
-772.4613767600097
 30
0.0
  0
VERTEX
  5
96
330
75
100
AcDbEntity
  8
Layer 1
370
     0
100
AcDbVertex
100
AcDb2dVertex
 10
1337.997571822619
 20
-772.4320934483851
 30
0.0
  0
VERTEX
  5
97
330
75
100
AcDbEntity
  8
Layer 1
370
     0
100
AcDbVertex
100
AcDb2dVertex
 10
1338.084043719299
 20
-772.4345050152248
 30
0.0
  0
VERTEX
  5
98
330
75
100
AcDbEntity
  8
Layer 1
370
     0
100
AcDbVertex
100
AcDb2dVertex
 10
1338.182228940628
 20
-772.4420842252923
 30
0.0
  0
VERTEX
  5
99
330
75
100
AcDbEntity
  8
Layer 1
370
     0
100
AcDbVertex
100
AcDb2dVertex
 10
1338.292471996156
 20
-772.4544865690392
 30
0.0
  0
VERTEX
  5
9A
330
75
100
AcDbEntity
  8
Layer 1
370
     0
100
AcDbVertex
100
AcDb2dVertex
 10
1338.414772885882
 20
-772.472056556014
 30
0.0
  0
VERTEX
  5
9B
330
75
100
AcDbEntity
  8
Layer 1
370
     0
100
AcDbVertex
100
AcDb2dVertex
 10
1338.414772885882
 20
-772.472056556014
 30
0.0
  0
SEQEND
  5
9C
330
75
100
AcDbEntity
  8
Layer 1
370
     0
  0
HATCH
  5
9D
330
1F
100
AcDbEntity
  8
Layer 1
 62
   250
420
  2301728
100
AcDbHatch
 10
0.0
 20
0.0
 30
0.0
210
0.0
220
0.0
230
1.0
  2
SOLID
 70
     1
 71
     0
 91
        1
 92
        1
 93
       36
 72
     1
 10
1338.414772885882
 20
-772.472056556014
 11
1338.414772885882
 21
-772.838270206096
 72
     1
 10
1338.414772885882
 20
-772.838270206096
 11
1338.414772885882
 21
-773.2041393466295
 72
     1
 10
1338.414772885882
 20
-773.2041393466295
 11
1338.414772885882
 21
-773.5700084871631
 72
     1
 10
1338.414772885882
 20
-773.5700084871631
 11
1338.414772885882
 21
-773.9358776276966
 72
     1
 10
1338.414772885882
 20
-773.9358776276966
 11
1338.345181957081
 21
-773.9007376537471
 72
     1
 10
1338.345181957081
 20
-773.9007376537471
 11
1338.278347104667
 21
-773.8755884567048
 72
     1
 10
1338.278347104667
 20
-773.8755884567048
 11
1338.214957347738
 21
-773.8604300365696
 72
     1
 10
1338.214957347738
 20
-773.8604300365696
 11
1338.155012686295
 21
-773.8552623933418
 72
     1
 10
1338.155012686295
 20
-773.8552623933418
 11
1337.991715160294
 21
-773.8910913863883
 72
     1
 10
1337.991715160294
 20
-773.8910913863883
 11
1337.874926423344
 21
-773.9982338559796
 72
     1
 10
1337.874926423344
 20
-773.9982338559796
 11
1337.804990984993
 21
-774.1766898021156
 72
     1
 10
1337.804990984993
 20
-774.1766898021156
 11
1337.781564335693
 21
-774.4264592247962
 72
     1
 10
1337.781564335693
 20
-774.4264592247962
 11
1337.781564335693
 21
-774.8591632177436
 72
     1
 10
1337.781564335693
 20
-774.8591632177436
 11
1337.781564335693
 21
-775.291867210691
 72
     1
 10
1337.781564335693
 20
-775.291867210691
 11
1337.781564335693
 21
-775.7245712036383
 72
     1
 10
1337.781564335693
 20
-775.7245712036383
 11
1337.781564335693
 21
-776.1572751965857
 72
     1
 10
1337.781564335693
 20
-776.1572751965857
 11
1337.439466354008
 21
-776.1572751965857
 72
     1
 10
1337.439466354008
 20
-776.1572751965857
 11
1337.097368372323
 21
-776.1572751965857
 72
     1
 10
1337.097368372323
 20
-776.1572751965857
 11
1336.755270390638
 21
-776.1572751965857
 72
     1
 10
1336.755270390638
 20
-776.1572751965857
 11
1336.413172408952
 21
-776.1572751965857
 72
     1
 10
1336.413172408952
 20
-776.1572751965857
 11
1336.413172408952
 21
-775.6584253703215
 72
     1
 10
1336.413172408952
 20
-775.6584253703215
 11
1336.413172408952
 21
-775.1599200536059
 72
     1
 10
1336.413172408952
 20
-775.1599200536059
 11
1336.413172408952
 21
-774.6614147368903
 72
     1
 10
1336.413172408952
 20
-774.6614147368903
 11
1336.413172408952
 21
-774.1629094201746
 72
     1
 10
1336.413172408952
 20
-774.1629094201746
 11
1336.440044153737
 21
-773.7877385218309
 72
     1
 10
1336.440044153737
 20
-773.7877385218309
 11
1336.521003897641
 21
-773.4525307311161
 72
     1
 10
1336.521003897641
 20
-773.4525307311161
 11
1336.656051640662
 21
-773.1572860480302
 72
     1
 10
1336.656051640662
 20
-773.1572860480302
 11
1336.844842873254
 21
-772.9020044725731
 72
     1
 10
1336.844842873254
 20
-772.9020044725731
 11
1337.078764856702
 21
-772.6963322721037
 72
     1
 10
1337.078764856702
 20
-772.6963322721037
 11
1337.348860342746
 21
-772.5495712044321
 72
     1
 10
1337.348860342746
 20
-772.5495712044321
 11
1337.655129331385
 21
-772.4613767600097
 72
     1
 10
1337.655129331385
 20
-772.4613767600097
 11
1337.997571822619
 21
-772.4320934483851
 72
     1
 10
1337.997571822619
 20
-772.4320934483851
 11
1338.084043719299
 21
-772.4345050152248
 72
     1
 10
1338.084043719299
 20
-772.4345050152248
 11
1338.182228940628
 21
-772.4420842252923
 72
     1
 10
1338.182228940628
 20
-772.4420842252923
 11
1338.292471996156
 21
-772.4544865690392
 72
     1
 10
1338.292471996156
 20
-772.4544865690392
 11
1338.414772885882
 21
-772.472056556014
 97
        0
 75
     2
 76
     1
 98
        0
  0
POLYLINE
  5
9E
330
1F
100
AcDbEntity
  8
Layer 1
370
     0
100
AcDb2dPolyline
 66
     1
 10
0.0
 20
0.0
 30
0.0
  0
VERTEX
  5
9F
330
9E
100
AcDbEntity
  8
Layer 1
370
     0
100
AcDbVertex
100
AcDb2dVertex
 10
1344.29176127417
 20
-771.162231252522
 30
0.0
  0
VERTEX
  5
A0
330
9E
100
AcDbEntity
  8
Layer 1
370
     0
100
AcDbVertex
100
AcDb2dVertex
 10
1344.29176127417
 20
-771.9094724632727
 30
0.0
  0
VERTEX
  5
A1
330
9E
100
AcDbEntity
  8
Layer 1
370
     0
100
AcDbVertex
100
AcDb2dVertex
 10
1344.29176127417
 20
-772.6570581835718
 30
0.0
  0
VERTEX
  5
A2
330
9E
100
AcDbEntity
  8
Layer 1
370
     0
100
AcDbVertex
100
AcDb2dVertex
 10
1344.29176127417
 20
-773.4042993943226
 30
0.0
  0
VERTEX
  5
A3
330
9E
100
AcDbEntity
  8
Layer 1
370
     0
100
AcDbVertex
100
AcDb2dVertex
 10
1344.29176127417
 20
-774.1518851146218
 30
0.0
  0
VERTEX
  5
A4
330
9E
100
AcDbEntity
  8
Layer 1
370
     0
100
AcDbVertex
100
AcDb2dVertex
 10
1344.32448968128
 20
-774.4705564470074
 30
0.0
  0
VERTEX
  5
A5
330
9E
100
AcDbEntity
  8
Layer 1
370
     0
100
AcDbVertex
100
AcDb2dVertex
 10
1344.42267490261
 20
-774.6979327490338
 30
0.0
  0
VERTEX
  5
A6
330
9E
100
AcDbEntity
  8
Layer 1
370
     0
100
AcDbVertex
100
AcDb2dVertex
 10
1344.585972428611
 20
-774.8347030397983
 30
0.0
  0
VERTEX
  5
A7
330
9E
100
AcDbEntity
  8
Layer 1
370
     0
100
AcDbVertex
100
AcDb2dVertex
 10
1344.81507127838
 20
-774.8801783002036
 30
0.0
  0
VERTEX
  5
A8
330
9E
100
AcDbEntity
  8
Layer 1
370
     0
100
AcDbVertex
100
AcDb2dVertex
 10
1344.922558257519
 20
-774.870532032845
 30
0.0
  0
VERTEX
  5
A9
330
9E
100
AcDbEntity
  8
Layer 1
370
     0
100
AcDbVertex
100
AcDb2dVertex
 10
1345.021432497946
 20
-774.8419377403173
 30
0.0
  0
VERTEX
  5
AA
330
9E
100
AcDbEntity
  8
Layer 1
370
     0
100
AcDbVertex
100
AcDb2dVertex
 10
1345.11169399966
 20
-774.7947399321694
 30
0.0
  0
VERTEX
  5
AB
330
9E
100
AcDbEntity
  8
Layer 1
370
     0
100
AcDbVertex
100
AcDb2dVertex
 10
1345.193687272209
 20
-774.728249589304
 30
0.0
  0
VERTEX
  5
AC
330
9E
100
AcDbEntity
  8
Layer 1
370
     0
100
AcDbVertex
100
AcDb2dVertex
 10
1345.261900162817
 20
-774.6483233740463
 30
0.0
  0
VERTEX
  5
AD
330
9E
100
AcDbEntity
  8
Layer 1
370
     0
100
AcDbVertex
100
AcDb2dVertex
 10
1345.310476009158
 20
-774.5604734391724
 30
0.0
  0
VERTEX
  5
AE
330
9E
100
AcDbEntity
  8
Layer 1
370
     0
100
AcDbVertex
100
AcDb2dVertex
 10
1345.339759320783
 20
-774.4643552751339
 30
0.0
  0
VERTEX
  5
AF
330
9E
100
AcDbEntity
  8
Layer 1
370
     0
100
AcDbVertex
100
AcDb2dVertex
 10
1345.349405588142
 20
-774.3603133914794
 30
0.0
  0
VERTEX
  5
B0
330
9E
100
AcDbEntity
  8
Layer 1
370
     0
100
AcDbVertex
100
AcDb2dVertex
 10
1345.340103830332
 20
-774.2531709218881
 30
0.0
  0
VERTEX
  5
B1
330
9E
100
AcDbEntity
  8
Layer 1
370
     0
100
AcDbVertex
100
AcDb2dVertex
 10
1345.31254306645
 20
-774.1549857005585
 30
0.0
  0
VERTEX
  5
B2
330
9E
100
AcDbEntity
  8
Layer 1
370
     0
100
AcDbVertex
100
AcDb2dVertex
 10
1345.267067806044
 20
-774.0657577274906
 30
0.0
  0
VERTEX
  5
B3
330
9E
100
AcDbEntity
  8
Layer 1
370
     0
100
AcDbVertex
100
AcDb2dVertex
 10
1345.202989030019
 20
-773.9854870026842
 30
0.0
  0
VERTEX
  5
B4
330
9E
100
AcDbEntity
  8
Layer 1
370
     0
100
AcDbVertex
100
AcDb2dVertex
 10
1345.125818891149
 20
-773.9189966598188
 30
0.0
  0
VERTEX
  5
B5
330
9E
100
AcDbEntity
  8
Layer 1
370
     0
100
AcDbVertex
100
AcDb2dVertex
 10
1345.040036013566
 20
-773.8714543421224
 30
0.0
  0
VERTEX
  5
B6
330
9E
100
AcDbEntity
  8
Layer 1
370
     0
100
AcDbVertex
100
AcDb2dVertex
 10
1344.946329416368
 20
-773.8428600495948
 30
0.0
  0
VERTEX
  5
B7
330
9E
100
AcDbEntity
  8
Layer 1
370
     0
100
AcDbVertex
100
AcDb2dVertex
 10
1344.844354590004
 20
-773.8335582917847
 30
0.0
  0
VERTEX
  5
B8
330
9E
100
AcDbEntity
  8
Layer 1
370
     0
100
AcDbVertex
100
AcDb2dVertex
 10
1344.766495432038
 20
-773.8418265209493
 30
0.0
  0
VERTEX
  5
B9
330
9E
100
AcDbEntity
  8
Layer 1
370
     0
100
AcDbVertex
100
AcDb2dVertex
 10
1344.683468630843
 20
-773.8662866988946
 30
0.0
  0
VERTEX
  5
BA
330
9E
100
AcDbEntity
  8
Layer 1
370
     0
100
AcDbVertex
100
AcDb2dVertex
 10
1344.594585167324
 20
-773.9076278447176
 30
0.0
  0
VERTEX
  5
BB
330
9E
100
AcDbEntity
  8
Layer 1
370
     0
100
AcDbVertex
100
AcDb2dVertex
 10
1344.500189551028
 20
-773.9651609393212
 30
0.0
  0
VERTEX
  5
BC
330
9E
100
AcDbEntity
  8
Layer 1
370
     0
100
AcDbVertex
100
AcDb2dVertex
 10
1344.500189551028
 20
-773.5882674932349
 30
0.0
  0
VERTEX
  5
BD
330
9E
100
AcDbEntity
  8
Layer 1
370
     0
100
AcDbVertex
100
AcDb2dVertex
 10
1344.500189551028
 20
-773.2113740471485
 30
0.0
  0
VERTEX
  5
BE
330
9E
100
AcDbEntity
  8
Layer 1
370
     0
100
AcDbVertex
100
AcDb2dVertex
 10
1344.500189551028
 20
-772.8344806010623
 30
0.0
  0
VERTEX
  5
BF
330
9E
100
AcDbEntity
  8
Layer 1
370
     0
100
AcDbVertex
100
AcDb2dVertex
 10
1344.500189551028
 20
-772.457587154976
 30
0.0
  0
VERTEX
  5
C0
330
9E
100
AcDbEntity
  8
Layer 1
370
     0
100
AcDbVertex
100
AcDb2dVertex
 10
1344.613877702041
 20
-772.4479408876172
 30
0.0
  0
VERTEX
  5
C1
330
9E
100
AcDbEntity
  8
Layer 1
370
     0
100
AcDbVertex
100
AcDb2dVertex
 10
1344.712407432919
 20
-772.4410506966467
 30
0.0
  0
VERTEX
  5
C2
330
9E
100
AcDbEntity
  8
Layer 1
370
     0
100
AcDbVertex
100
AcDb2dVertex
 10
1344.796812272308
 20
-772.4369165820644
 30
0.0
  0
VERTEX
  5
C3
330
9E
100
AcDbEntity
  8
Layer 1
370
     0
100
AcDbVertex
100
AcDb2dVertex
 10
1344.86640320111
 20
-772.4355385438703
 30
0.0
  0
VERTEX
  5
C4
330
9E
100
AcDbEntity
  8
Layer 1
370
     0
100
AcDbVertex
100
AcDb2dVertex
 10
1345.238473513517
 20
-772.4703340082714
 30
0.0
  0
VERTEX
  5
C5
330
9E
100
AcDbEntity
  8
Layer 1
370
     0
100
AcDbVertex
100
AcDb2dVertex
 10
1345.582983062042
 20
-772.5747204014745
 30
0.0
  0
VERTEX
  5
C6
330
9E
100
AcDbEntity
  8
Layer 1
370
     0
100
AcDbVertex
100
AcDb2dVertex
 10
1345.899931846685
 20
-772.748353213931
 30
0.0
  0
VERTEX
  5
C7
330
9E
100
AcDbEntity
  8
Layer 1
370
     0
100
AcDbVertex
100
AcDb2dVertex
 10
1346.188975357897
 20
-772.9919214647382
 30
0.0
  0
VERTEX
  5
C8
330
9E
100
AcDbEntity
  8
Layer 1
370
     0
100
AcDbVertex
100
AcDb2dVertex
 10
1346.430132041865
 20
-773.2840655618874
 30
0.0
  0
VERTEX
  5
C9
330
9E
100
AcDbEntity
  8
Layer 1
370
     0
100
AcDbVertex
100
AcDb2dVertex
 10
1346.602386816127
 20
-773.6048039515641
 30
0.0
  0
VERTEX
  5
CA
330
9E
100
AcDbEntity
  8
Layer 1
370
     0
100
AcDbVertex
100
AcDb2dVertex
 10
1346.705395171136
 20
-773.95379212422
 30
0.0
  0
VERTEX
  5
CB
330
9E
100
AcDbEntity
  8
Layer 1
370
     0
100
AcDbVertex
100
AcDb2dVertex
 10
1346.739846125989
 20
-774.3310300798548
 30
0.0
  0
VERTEX
  5
CC
330
9E
100
AcDbEntity
  8
Layer 1
370
     0
100
AcDbVertex
100
AcDb2dVertex
 10
1346.705050661588
 20
-774.7161917551057
 30
0.0
  0
VERTEX
  5
CD
330
9E
100
AcDbEntity
  8
Layer 1
370
     0
100
AcDbVertex
100
AcDb2dVertex
 10
1346.599975249288
 20
-775.0693140423438
 30
0.0
  0
VERTEX
  5
CE
330
9E
100
AcDbEntity
  8
Layer 1
370
     0
100
AcDbVertex
100
AcDb2dVertex
 10
1346.424964398637
 20
-775.3910859606661
 30
0.0
  0
VERTEX
  5
CF
330
9E
100
AcDbEntity
  8
Layer 1
370
     0
100
AcDbVertex
100
AcDb2dVertex
 10
1346.180018109636
 20
-775.6815075100727
 30
0.0
  0
VERTEX
  5
D0
330
9E
100
AcDbEntity
  8
Layer 1
370
     0
100
AcDbVertex
100
AcDb2dVertex
 10
1345.884084407453
 20
-775.9216306653947
 30
0.0
  0
VERTEX
  5
D1
330
9E
100
AcDbEntity
  8
Layer 1
370
     0
100
AcDbVertex
100
AcDb2dVertex
 10
1345.556111317257
 20
-776.09319642056
 30
0.0
  0
VERTEX
  5
D2
330
9E
100
AcDbEntity
  8
Layer 1
370
     0
100
AcDbVertex
100
AcDb2dVertex
 10
1345.196098839048
 20
-776.1962047755691
 30
0.0
  0
VERTEX
  5
D3
330
9E
100
AcDbEntity
  8
Layer 1
370
     0
100
AcDbVertex
100
AcDb2dVertex
 10
1344.804046972827
 20
-776.230311220873
 30
0.0
  0
VERTEX
  5
D4
330
9E
100
AcDbEntity
  8
Layer 1
370
     0
100
AcDbVertex
100
AcDb2dVertex
 10
1344.600441829649
 20
-776.2192869153203
 30
0.0
  0
VERTEX
  5
D5
330
9E
100
AcDbEntity
  8
Layer 1
370
     0
100
AcDbVertex
100
AcDb2dVertex
 10
1344.39924825331
 20
-776.1855249795648
 30
0.0
  0
VERTEX
  5
D6
330
9E
100
AcDbEntity
  8
Layer 1
370
     0
100
AcDbVertex
100
AcDb2dVertex
 10
1344.200466243811
 20
-776.1293699231552
 30
0.0
  0
VERTEX
  5
D7
330
9E
100
AcDbEntity
  8
Layer 1
370
     0
100
AcDbVertex
100
AcDb2dVertex
 10
1344.0044403107
 20
-776.05116625564
 30
0.0
  0
VERTEX
  5
D8
330
9E
100
AcDbEntity
  8
Layer 1
370
     0
100
AcDbVertex
100
AcDb2dVertex
 10
1343.818060644948
 20
-775.9536700534074
 30
0.0
  0
VERTEX
  5
D9
330
9E
100
AcDbEntity
  8
Layer 1
370
     0
100
AcDbVertex
100
AcDb2dVertex
 10
1343.649250966171
 20
-775.8406709214912
 30
0.0
  0
VERTEX
  5
DA
330
9E
100
AcDbEntity
  8
Layer 1
370
     0
100
AcDbVertex
100
AcDb2dVertex
 10
1343.496977745723
 20
-775.7121688598914
 30
0.0
  0
VERTEX
  5
DB
330
9E
100
AcDbEntity
  8
Layer 1
370
     0
100
AcDbVertex
100
AcDb2dVertex
 10
1343.36227451225
 20
-775.5681638686079
 30
0.0
  0
VERTEX
  5
DC
330
9E
100
AcDbEntity
  8
Layer 1
370
     0
100
AcDbVertex
100
AcDb2dVertex
 10
1343.170038184173
 20
-775.2849770197205
 30
0.0
  0
VERTEX
  5
DD
330
9E
100
AcDbEntity
  8
Layer 1
370
     0
100
AcDbVertex
100
AcDb2dVertex
 10
1343.03292338386
 20
-774.9632051013981
 30
0.0
  0
VERTEX
  5
DE
330
9E
100
AcDbEntity
  8
Layer 1
370
     0
100
AcDbVertex
100
AcDb2dVertex
 10
1342.950585601762
 20
-774.6025036040925
 30
0.0
  0
VERTEX
  5
DF
330
9E
100
AcDbEntity
  8
Layer 1
370
     0
100
AcDbVertex
100
AcDb2dVertex
 10
1342.92302483788
 20
-774.203217037352
 30
0.0
  0
VERTEX
  5
E0
330
9E
100
AcDbEntity
  8
Layer 1
370
     0
100
AcDbVertex
100
AcDb2dVertex
 10
1342.92302483788
 20
-773.4428844637574
 30
0.0
  0
VERTEX
  5
E1
330
9E
100
AcDbEntity
  8
Layer 1
370
     0
100
AcDbVertex
100
AcDb2dVertex
 10
1342.92302483788
 20
-772.6825518901627
 30
0.0
  0
VERTEX
  5
E2
330
9E
100
AcDbEntity
  8
Layer 1
370
     0
100
AcDbVertex
100
AcDb2dVertex
 10
1342.92302483788
 20
-771.9222193165681
 30
0.0
  0
VERTEX
  5
E3
330
9E
100
AcDbEntity
  8
Layer 1
370
     0
100
AcDbVertex
100
AcDb2dVertex
 10
1342.92302483788
 20
-771.162231252522
 30
0.0
  0
VERTEX
  5
E4
330
9E
100
AcDbEntity
  8
Layer 1
370
     0
100
AcDbVertex
100
AcDb2dVertex
 10
1343.265467329114
 20
-771.162231252522
 30
0.0
  0
VERTEX
  5
E5
330
9E
100
AcDbEntity
  8
Layer 1
370
     0
100
AcDbVertex
100
AcDb2dVertex
 10
1343.6075653108
 20
-771.162231252522
 30
0.0
  0
VERTEX
  5
E6
330
9E
100
AcDbEntity
  8
Layer 1
370
     0
100
AcDbVertex
100
AcDb2dVertex
 10
1343.949663292485
 20
-771.162231252522
 30
0.0
  0
VERTEX
  5
E7
330
9E
100
AcDbEntity
  8
Layer 1
370
     0
100
AcDbVertex
100
AcDb2dVertex
 10
1344.29176127417
 20
-771.162231252522
 30
0.0
  0
VERTEX
  5
E8
330
9E
100
AcDbEntity
  8
Layer 1
370
     0
100
AcDbVertex
100
AcDb2dVertex
 10
1344.29176127417
 20
-771.162231252522
 30
0.0
  0
SEQEND
  5
E9
330
9E
100
AcDbEntity
  8
Layer 1
370
     0
  0
HATCH
  5
EA
330
1F
100
AcDbEntity
  8
Layer 1
 62
   250
420
  2301728
100
AcDbHatch
 10
0.0
 20
0.0
 30
0.0
210
0.0
220
0.0
230
1.0
  2
SOLID
 70
     1
 71
     0
 91
        1
 92
        1
 93
       72
 72
     1
 10
1344.29176127417
 20
-771.162231252522
 11
1344.29176127417
 21
-771.9094724632727
 72
     1
 10
1344.29176127417
 20
-771.9094724632727
 11
1344.29176127417
 21
-772.6570581835718
 72
     1
 10
1344.29176127417
 20
-772.6570581835718
 11
1344.29176127417
 21
-773.4042993943226
 72
     1
 10
1344.29176127417
 20
-773.4042993943226
 11
1344.29176127417
 21
-774.1518851146218
 72
     1
 10
1344.29176127417
 20
-774.1518851146218
 11
1344.32448968128
 21
-774.4705564470074
 72
     1
 10
1344.32448968128
 20
-774.4705564470074
 11
1344.42267490261
 21
-774.6979327490338
 72
     1
 10
1344.42267490261
 20
-774.6979327490338
 11
1344.585972428611
 21
-774.8347030397983
 72
     1
 10
1344.585972428611
 20
-774.8347030397983
 11
1344.81507127838
 21
-774.8801783002036
 72
     1
 10
1344.81507127838
 20
-774.8801783002036
 11
1344.922558257519
 21
-774.870532032845
 72
     1
 10
1344.922558257519
 20
-774.870532032845
 11
1345.021432497946
 21
-774.8419377403173
 72
     1
 10
1345.021432497946
 20
-774.8419377403173
 11
1345.11169399966
 21
-774.7947399321694
 72
     1
 10
1345.11169399966
 20
-774.7947399321694
 11
1345.193687272209
 21
-774.728249589304
 72
     1
 10
1345.193687272209
 20
-774.728249589304
 11
1345.261900162817
 21
-774.6483233740463
 72
     1
 10
1345.261900162817
 20
-774.6483233740463
 11
1345.310476009158
 21
-774.5604734391724
 72
     1
 10
1345.310476009158
 20
-774.5604734391724
 11
1345.339759320783
 21
-774.4643552751339
 72
     1
 10
1345.339759320783
 20
-774.4643552751339
 11
1345.349405588142
 21
-774.3603133914794
 72
     1
 10
1345.349405588142
 20
-774.3603133914794
 11
1345.340103830332
 21
-774.2531709218881
 72
     1
 10
1345.340103830332
 20
-774.2531709218881
 11
1345.31254306645
 21
-774.1549857005585
 72
     1
 10
1345.31254306645
 20
-774.1549857005585
 11
1345.267067806044
 21
-774.0657577274906
 72
     1
 10
1345.267067806044
 20
-774.0657577274906
 11
1345.202989030019
 21
-773.9854870026842
 72
     1
 10
1345.202989030019
 20
-773.9854870026842
 11
1345.125818891149
 21
-773.9189966598188
 72
     1
 10
1345.125818891149
 20
-773.9189966598188
 11
1345.040036013566
 21
-773.8714543421224
 72
     1
 10
1345.040036013566
 20
-773.8714543421224
 11
1344.946329416368
 21
-773.8428600495948
 72
     1
 10
1344.946329416368
 20
-773.8428600495948
 11
1344.844354590004
 21
-773.8335582917847
 72
     1
 10
1344.844354590004
 20
-773.8335582917847
 11
1344.766495432038
 21
-773.8418265209493
 72
     1
 10
1344.766495432038
 20
-773.8418265209493
 11
1344.683468630843
 21
-773.8662866988946
 72
     1
 10
1344.683468630843
 20
-773.8662866988946
 11
1344.594585167324
 21
-773.9076278447176
 72
     1
 10
1344.594585167324
 20
-773.9076278447176
 11
1344.500189551028
 21
-773.9651609393212
 72
     1
 10
1344.500189551028
 20
-773.9651609393212
 11
1344.500189551028
 21
-773.5882674932349
 72
     1
 10
1344.500189551028
 20
-773.5882674932349
 11
1344.500189551028
 21
-773.2113740471485
 72
     1
 10
1344.500189551028
 20
-773.2113740471485
 11
1344.500189551028
 21
-772.8344806010623
 72
     1
 10
1344.500189551028
 20
-772.8344806010623
 11
1344.500189551028
 21
-772.457587154976
 72
     1
 10
1344.500189551028
 20
-772.457587154976
 11
1344.613877702041
 21
-772.4479408876172
 72
     1
 10
1344.613877702041
 20
-772.4479408876172
 11
1344.712407432919
 21
-772.4410506966467
 72
     1
 10
1344.712407432919
 20
-772.4410506966467
 11
1344.796812272308
 21
-772.4369165820644
 72
     1
 10
1344.796812272308
 20
-772.4369165820644
 11
1344.86640320111
 21
-772.4355385438703
 72
     1
 10
1344.86640320111
 20
-772.4355385438703
 11
1345.238473513517
 21
-772.4703340082714
 72
     1
 10
1345.238473513517
 20
-772.4703340082714
 11
1345.582983062042
 21
-772.5747204014745
 72
     1
 10
1345.582983062042
 20
-772.5747204014745
 11
1345.899931846685
 21
-772.748353213931
 72
     1
 10
1345.899931846685
 20
-772.748353213931
 11
1346.188975357897
 21
-772.9919214647382
 72
     1
 10
1346.188975357897
 20
-772.9919214647382
 11
1346.430132041865
 21
-773.2840655618874
 72
     1
 10
1346.430132041865
 20
-773.2840655618874
 11
1346.602386816127
 21
-773.6048039515641
 72
     1
 10
1346.602386816127
 20
-773.6048039515641
 11
1346.705395171136
 21
-773.95379212422
 72
     1
 10
1346.705395171136
 20
-773.95379212422
 11
1346.739846125989
 21
-774.3310300798548
 72
     1
 10
1346.739846125989
 20
-774.3310300798548
 11
1346.705050661588
 21
-774.7161917551057
 72
     1
 10
1346.705050661588
 20
-774.7161917551057
 11
1346.599975249288
 21
-775.0693140423438
 72
     1
 10
1346.599975249288
 20
-775.0693140423438
 11
1346.424964398637
 21
-775.3910859606661
 72
     1
 10
1346.424964398637
 20
-775.3910859606661
 11
1346.180018109636
 21
-775.6815075100727
 72
     1
 10
1346.180018109636
 20
-775.6815075100727
 11
1345.884084407453
 21
-775.9216306653947
 72
     1
 10
1345.884084407453
 20
-775.9216306653947
 11
1345.556111317257
 21
-776.09319642056
 72
     1
 10
1345.556111317257
 20
-776.09319642056
 11
1345.196098839048
 21
-776.1962047755691
 72
     1
 10
1345.196098839048
 20
-776.1962047755691
 11
1344.804046972827
 21
-776.230311220873
 72
     1
 10
1344.804046972827
 20
-776.230311220873
 11
1344.600441829649
 21
-776.2192869153203
 72
     1
 10
1344.600441829649
 20
-776.2192869153203
 11
1344.39924825331
 21
-776.1855249795648
 72
     1
 10
1344.39924825331
 20
-776.1855249795648
 11
1344.200466243811
 21
-776.1293699231552
 72
     1
 10
1344.200466243811
 20
-776.1293699231552
 11
1344.0044403107
 21
-776.05116625564
 72
     1
 10
1344.0044403107
 20
-776.05116625564
 11
1343.818060644948
 21
-775.9536700534074
 72
     1
 10
1343.818060644948
 20
-775.9536700534074
 11
1343.649250966171
 21
-775.8406709214912
 72
     1
 10
1343.649250966171
 20
-775.8406709214912
 11
1343.496977745723
 21
-775.7121688598914
 72
     1
 10
1343.496977745723
 20
-775.7121688598914
 11
1343.36227451225
 21
-775.5681638686079
 72
     1
 10
1343.36227451225
 20
-775.5681638686079
 11
1343.170038184173
 21
-775.2849770197205
 72
     1
 10
1343.170038184173
 20
-775.2849770197205
 11
1343.03292338386
 21
-774.9632051013981
 72
     1
 10
1343.03292338386
 20
-774.9632051013981
 11
1342.950585601762
 21
-774.6025036040925
 72
     1
 10
1342.950585601762
 20
-774.6025036040925
 11
1342.92302483788
 21
-774.203217037352
 72
     1
 10
1342.92302483788
 20
-774.203217037352
 11
1342.92302483788
 21
-773.4428844637574
 72
     1
 10
1342.92302483788
 20
-773.4428844637574
 11
1342.92302483788
 21
-772.6825518901627
 72
     1
 10
1342.92302483788
 20
-772.6825518901627
 11
1342.92302483788
 21
-771.9222193165681
 72
     1
 10
1342.92302483788
 20
-771.9222193165681
 11
1342.92302483788
 21
-771.162231252522
 72
     1
 10
1342.92302483788
 20
-771.162231252522
 11
1343.265467329114
 21
-771.162231252522
 72
     1
 10
1343.265467329114
 20
-771.162231252522
 11
1343.6075653108
 21
-771.162231252522
 72
     1
 10
1343.6075653108
 20
-771.162231252522
 11
1343.949663292485
 21
-771.162231252522
 72
     1
 10
1343.949663292485
 20
-771.162231252522
 11
1344.29176127417
 21
-771.162231252522
 97
        0
 75
     2
 76
     1
 98
        0
  0
POLYLINE
  5
EB
330
1F
100
AcDbEntity
  8
Layer 1
370
     0
100
AcDb2dPolyline
 66
     1
 10
0.0
 20
0.0
 30
0.0
  0
VERTEX
  5
EC
330
EB
100
AcDbEntity
  8
Layer 1
370
     0
100
AcDbVertex
100
AcDb2dVertex
 10
1350.926326159664
 20
-774.554272267299
 30
0.0
  0
VERTEX
  5
ED
330
EB
100
AcDbEntity
  8
Layer 1
370
     0
100
AcDbVertex
100
AcDb2dVertex
 10
1350.407494779586
 20
-774.554272267299
 30
0.0
  0
VERTEX
  5
EE
330
EB
100
AcDbEntity
  8
Layer 1
370
     0
100
AcDbVertex
100
AcDb2dVertex
 10
1349.889007909056
 20
-774.554272267299
 30
0.0
  0
VERTEX
  5
EF
330
EB
100
AcDbEntity
  8
Layer 1
370
     0
100
AcDbVertex
100
AcDb2dVertex
 10
1349.370176528977
 20
-774.554272267299
 30
0.0
  0
VERTEX
  5
F0
330
EB
100
AcDbEntity
  8
Layer 1
370
     0
100
AcDbVertex
100
AcDb2dVertex
 10
1348.851345148898
 20
-774.554272267299
 30
0.0
  0
VERTEX
  5
F1
330
EB
100
AcDbEntity
  8
Layer 1
370
     0
100
AcDbVertex
100
AcDb2dVertex
 10
1348.830674575987
 20
-774.4774466379779
 30
0.0
  0
VERTEX
  5
F2
330
EB
100
AcDbEntity
  8
Layer 1
370
     0
100
AcDbVertex
100
AcDb2dVertex
 10
1348.815516155852
 20
-774.403377085045
 30
0.0
  0
VERTEX
  5
F3
330
EB
100
AcDbEntity
  8
Layer 1
370
     0
100
AcDbVertex
100
AcDb2dVertex
 10
1348.806903417139
 20
-774.3327526275974
 30
0.0
  0
VERTEX
  5
F4
330
EB
100
AcDbEntity
  8
Layer 1
370
     0
100
AcDbVertex
100
AcDb2dVertex
 10
1348.803802831202
 20
-774.2652287560865
 30
0.0
  0
VERTEX
  5
F5
330
EB
100
AcDbEntity
  8
Layer 1
370
     0
100
AcDbVertex
100
AcDb2dVertex
 10
1348.807936945784
 20
-774.1742782352759
 30
0.0
  0
VERTEX
  5
F6
330
EB
100
AcDbEntity
  8
Layer 1
370
     0
100
AcDbVertex
100
AcDb2dVertex
 10
1348.820339289531
 20
-774.0840167335624
 30
0.0
  0
VERTEX
  5
F7
330
EB
100
AcDbEntity
  8
Layer 1
370
     0
100
AcDbVertex
100
AcDb2dVertex
 10
1348.841009862443
 20
-773.9947887604944
 30
0.0
  0
VERTEX
  5
F8
330
EB
100
AcDbEntity
  8
Layer 1
370
     0
100
AcDbVertex
100
AcDb2dVertex
 10
1348.86960415497
 20
-773.906594316072
 30
0.0
  0
VERTEX
  5
F9
330
EB
100
AcDbEntity
  8
Layer 1
370
     0
100
AcDbVertex
100
AcDb2dVertex
 10
1349.043581476975
 20
-773.906594316072
 30
0.0
  0
VERTEX
  5
FA
330
EB
100
AcDbEntity
  8
Layer 1
370
     0
100
AcDbVertex
100
AcDb2dVertex
 10
1349.217214289432
 20
-773.906594316072
 30
0.0
  0
VERTEX
  5
FB
330
EB
100
AcDbEntity
  8
Layer 1
370
     0
100
AcDbVertex
100
AcDb2dVertex
 10
1349.391191611437
 20
-773.906594316072
 30
0.0
  0
VERTEX
  5
FC
330
EB
100
AcDbEntity
  8
Layer 1
370
     0
100
AcDbVertex
100
AcDb2dVertex
 10
1349.565168933442
 20
-773.906594316072
 30
0.0
  0
VERTEX
  5
FD
330
EB
100
AcDbEntity
  8
Layer 1
370
     0
100
AcDbVertex
100
AcDb2dVertex
 10
1349.509013877032
 20
-773.7288273890331
 30
0.0
  0
VERTEX
  5
FE
330
EB
100
AcDbEntity
  8
Layer 1
370
     0
100
AcDbVertex
100
AcDb2dVertex
 10
1349.41392924164
 20
-773.6020478751759
 30
0.0
  0
VERTEX
  5
FF
330
EB
100
AcDbEntity
  8
Layer 1
370
     0
100
AcDbVertex
100
AcDb2dVertex
 10
1349.280259536812
 20
-773.5259112649519
 30
0.0
  0
VERTEX
  5
100
330
EB
100
AcDbEntity
  8
Layer 1
370
     0
100
AcDbVertex
100
AcDb2dVertex
 10
1349.107660253001
 20
-773.500417558361
 30
0.0
  0
VERTEX
  5
101
330
EB
100
AcDbEntity
  8
Layer 1
370
     0
100
AcDbVertex
100
AcDb2dVertex
 10
1348.985359363274
 20
-773.5141979403021
 30
0.0
  0
VERTEX
  5
102
330
EB
100
AcDbEntity
  8
Layer 1
370
     0
100
AcDbVertex
100
AcDb2dVertex
 10
1348.875116307747
 20
-773.554850067028
 30
0.0
  0
VERTEX
  5
103
330
EB
100
AcDbEntity
  8
Layer 1
370
     0
100
AcDbVertex
100
AcDb2dVertex
 10
1348.776931086417
 20
-773.623062957636
 30
0.0
  0
VERTEX
  5
104
330
EB
100
AcDbEntity
  8
Layer 1
370
     0
100
AcDbVertex
100
AcDb2dVertex
 10
1348.690459189737
 20
-773.7181475930288
 30
0.0
  0
VERTEX
  5
105
330
EB
100
AcDbEntity
  8
Layer 1
370
     0
100
AcDbVertex
100
AcDb2dVertex
 10
1348.61983473229
 20
-773.8345918204303
 30
0.0
  0
VERTEX
  5
106
330
EB
100
AcDbEntity
  8
Layer 1
370
     0
100
AcDbVertex
100
AcDb2dVertex
 10
1348.569536338205
 20
-773.9665389775154
 30
0.0
  0
VERTEX
  5
107
330
EB
100
AcDbEntity
  8
Layer 1
370
     0
100
AcDbVertex
100
AcDb2dVertex
 10
1348.539564007483
 20
-774.1136445547355
 30
0.0
  0
VERTEX
  5
108
330
EB
100
AcDbEntity
  8
Layer 1
370
     0
100
AcDbVertex
100
AcDb2dVertex
 10
1348.529228721027
 20
-774.2762530616393
 30
0.0
  0
VERTEX
  5
109
330
EB
100
AcDbEntity
  8
Layer 1
370
     0
100
AcDbVertex
100
AcDb2dVertex
 10
1348.539219497935
 20
-774.4454072499651
 30
0.0
  0
VERTEX
  5
10A
330
EB
100
AcDbEntity
  8
Layer 1
370
     0
100
AcDbVertex
100
AcDb2dVertex
 10
1348.568158300011
 20
-774.5973359608646
 30
0.0
  0
VERTEX
  5
10B
330
EB
100
AcDbEntity
  8
Layer 1
370
     0
100
AcDbVertex
100
AcDb2dVertex
 10
1348.616734146353
 20
-774.7323837038864
 30
0.0
  0
VERTEX
  5
10C
330
EB
100
AcDbEntity
  8
Layer 1
370
     0
100
AcDbVertex
100
AcDb2dVertex
 10
1348.684947036961
 20
-774.850894988579
 30
0.0
  0
VERTEX
  5
10D
330
EB
100
AcDbEntity
  8
Layer 1
370
     0
100
AcDbVertex
100
AcDb2dVertex
 10
1348.768662857252
 20
-774.9470131526175
 30
0.0
  0
VERTEX
  5
10E
330
EB
100
AcDbEntity
  8
Layer 1
370
     0
100
AcDbVertex
100
AcDb2dVertex
 10
1348.864781021291
 20
-775.015570552774
 30
0.0
  0
VERTEX
  5
10F
330
EB
100
AcDbEntity
  8
Layer 1
370
     0
100
AcDbVertex
100
AcDb2dVertex
 10
1348.972612509979
 20
-775.0565671890483
 30
0.0
  0
VERTEX
  5
110
330
EB
100
AcDbEntity
  8
Layer 1
370
     0
100
AcDbVertex
100
AcDb2dVertex
 10
1349.092846342414
 20
-775.0703475709894
 30
0.0
  0
VERTEX
  5
111
330
EB
100
AcDbEntity
  8
Layer 1
370
     0
100
AcDbVertex
100
AcDb2dVertex
 10
1349.194476659229
 20
-775.057600717694
 30
0.0
  0
VERTEX
  5
112
330
EB
100
AcDbEntity
  8
Layer 1
370
     0
100
AcDbVertex
100
AcDb2dVertex
 10
1349.294039918753
 20
-775.0190156482591
 30
0.0
  0
VERTEX
  5
113
330
EB
100
AcDbEntity
  8
Layer 1
370
     0
100
AcDbVertex
100
AcDb2dVertex
 10
1349.392225140082
 20
-774.9549368722335
 30
0.0
  0
VERTEX
  5
114
330
EB
100
AcDbEntity
  8
Layer 1
370
     0
100
AcDbVertex
100
AcDb2dVertex
 10
1349.487998794573
 20
-774.8653643896171
 30
0.0
  0
VERTEX
  5
115
330
EB
100
AcDbEntity
  8
Layer 1
370
     0
100
AcDbVertex
100
AcDb2dVertex
 10
1349.682991199038
 20
-775.0996308826141
 30
0.0
  0
VERTEX
  5
116
330
EB
100
AcDbEntity
  8
Layer 1
370
     0
100
AcDbVertex
100
AcDb2dVertex
 10
1349.877983603503
 20
-775.3338973756111
 30
0.0
  0
VERTEX
  5
117
330
EB
100
AcDbEntity
  8
Layer 1
370
     0
100
AcDbVertex
100
AcDb2dVertex
 10
1350.072631498419
 20
-775.5681638686079
 30
0.0
  0
VERTEX
  5
118
330
EB
100
AcDbEntity
  8
Layer 1
370
     0
100
AcDbVertex
100
AcDb2dVertex
 10
1350.267623902884
 20
-775.8020858520565
 30
0.0
  0
VERTEX
  5
119
330
EB
100
AcDbEntity
  8
Layer 1
370
     0
100
AcDbVertex
100
AcDb2dVertex
 10
1349.987537639934
 20
-775.9894990464541
 30
0.0
  0
VERTEX
  5
11A
330
EB
100
AcDbEntity
  8
Layer 1
370
     0
100
AcDbVertex
100
AcDb2dVertex
 10
1349.691948447299
 20
-776.1235132608302
 30
0.0
  0
VERTEX
  5
11B
330
EB
100
AcDbEntity
  8
Layer 1
370
     0
100
AcDbVertex
100
AcDb2dVertex
 10
1349.381889853627
 20
-776.2037839856366
 30
0.0
  0
VERTEX
  5
11C
330
EB
100
AcDbEntity
  8
Layer 1
370
     0
100
AcDbVertex
100
AcDb2dVertex
 10
1349.056328330271
 20
-776.230311220873
 30
0.0
  0
VERTEX
  5
11D
330
EB
100
AcDbEntity
  8
Layer 1
370
     0
100
AcDbVertex
100
AcDb2dVertex
 10
1348.66634352134
 20
-776.1962047755691
 30
0.0
  0
VERTEX
  5
11E
330
EB
100
AcDbEntity
  8
Layer 1
370
     0
100
AcDbVertex
100
AcDb2dVertex
 10
1348.308742609971
 20
-776.0942299492057
 30
0.0
  0
VERTEX
  5
11F
330
EB
100
AcDbEntity
  8
Layer 1
370
     0
100
AcDbVertex
100
AcDb2dVertex
 10
1347.983870105712
 20
-775.9236977226858
 30
0.0
  0
VERTEX
  5
120
330
EB
100
AcDbEntity
  8
Layer 1
370
     0
100
AcDbVertex
100
AcDb2dVertex
 10
1347.691381499015
 20
-775.6852971151064
 30
0.0
  0
VERTEX
  5
121
330
EB
100
AcDbEntity
  8
Layer 1
370
     0
100
AcDbVertex
100
AcDb2dVertex
 10
1347.44953579595
 20
-775.396253603894
 30
0.0
  0
VERTEX
  5
122
330
EB
100
AcDbEntity
  8
Layer 1
370
     0
100
AcDbVertex
100
AcDb2dVertex
 10
1347.276936512139
 20
-775.0748261951202
 30
0.0
  0
VERTEX
  5
123
330
EB
100
AcDbEntity
  8
Layer 1
370
     0
100
AcDbVertex
100
AcDb2dVertex
 10
1347.173239138033
 20
-774.721014888785
 30
0.0
  0
VERTEX
  5
124
330
EB
100
AcDbEntity
  8
Layer 1
370
     0
100
AcDbVertex
100
AcDb2dVertex
 10
1347.138788183181
 20
-774.3348196848885
 30
0.0
  0
VERTEX
  5
125
330
EB
100
AcDbEntity
  8
Layer 1
370
     0
100
AcDbVertex
100
AcDb2dVertex
 10
1347.173583647582
 20
-773.9496580096376
 30
0.0
  0
VERTEX
  5
126
330
EB
100
AcDbEntity
  8
Layer 1
370
     0
100
AcDbVertex
100
AcDb2dVertex
 10
1347.278314550333
 20
-773.595502193754
 30
0.0
  0
VERTEX
  5
127
330
EB
100
AcDbEntity
  8
Layer 1
370
     0
100
AcDbVertex
100
AcDb2dVertex
 10
1347.452636381887
 20
-773.272696746786
 30
0.0
  0
VERTEX
  5
128
330
EB
100
AcDbEntity
  8
Layer 1
370
     0
100
AcDbVertex
100
AcDb2dVertex
 10
1347.696893651791
 20
-772.9808971591854
 30
0.0
  0
VERTEX
  5
129
330
EB
100
AcDbEntity
  8
Layer 1
370
     0
100
AcDbVertex
100
AcDb2dVertex
 10
1347.991793825329
 20
-772.7390514561208
 30
0.0
  0
VERTEX
  5
12A
330
EB
100
AcDbEntity
  8
Layer 1
370
     0
100
AcDbVertex
100
AcDb2dVertex
 10
1348.31838887733
 20
-772.5664521723098
 30
0.0
  0
VERTEX
  5
12B
330
EB
100
AcDbEntity
  8
Layer 1
370
     0
100
AcDbVertex
100
AcDb2dVertex
 10
1348.677023317345
 20
-772.4627547982038
 30
0.0
  0
VERTEX
  5
12C
330
EB
100
AcDbEntity
  8
Layer 1
370
     0
100
AcDbVertex
100
AcDb2dVertex
 10
1349.067352635823
 20
-772.4283038433513
 30
0.0
  0
VERTEX
  5
12D
330
EB
100
AcDbEntity
  8
Layer 1
370
     0
100
AcDbVertex
100
AcDb2dVertex
 10
1349.448380196492
 20
-772.4620657791068
 30
0.0
  0
VERTEX
  5
12E
330
EB
100
AcDbEntity
  8
Layer 1
370
     0
100
AcDbVertex
100
AcDb2dVertex
 10
1349.797712878697
 20
-772.5633515863731
 30
0.0
  0
VERTEX
  5
12F
330
EB
100
AcDbEntity
  8
Layer 1
370
     0
100
AcDbVertex
100
AcDb2dVertex
 10
1350.115350682436
 20
-772.7318167556018
 30
0.0
  0
VERTEX
  5
130
330
EB
100
AcDbEntity
  8
Layer 1
370
     0
100
AcDbVertex
100
AcDb2dVertex
 10
1350.401293607712
 20
-772.9681503058899
 30
0.0
  0
VERTEX
  5
131
330
EB
100
AcDbEntity
  8
Layer 1
370
     0
100
AcDbVertex
100
AcDb2dVertex
 10
1350.637282648452
 20
-773.2537487216172
 30
0.0
  0
VERTEX
  5
132
330
EB
100
AcDbEntity
  8
Layer 1
370
     0
100
AcDbVertex
100
AcDb2dVertex
 10
1350.806092327229
 20
-773.5703529967116
 30
0.0
  0
VERTEX
  5
133
330
EB
100
AcDbEntity
  8
Layer 1
370
     0
100
AcDbVertex
100
AcDb2dVertex
 10
1350.907033624947
 20
-773.9186521502704
 30
0.0
  0
VERTEX
  5
134
330
EB
100
AcDbEntity
  8
Layer 1
370
     0
100
AcDbVertex
100
AcDb2dVertex
 10
1350.940795560702
 20
-774.2983016727449
 30
0.0
  0
VERTEX
  5
135
330
EB
100
AcDbEntity
  8
Layer 1
370
     0
100
AcDbVertex
100
AcDb2dVertex
 10
1350.940106541605
 20
-774.3444659522472
 30
0.0
  0
VERTEX
  5
136
330
EB
100
AcDbEntity
  8
Layer 1
370
     0
100
AcDbVertex
100
AcDb2dVertex
 10
1350.937350465217
 20
-774.4023435563995
 30
0.0
  0
VERTEX
  5
137
330
EB
100
AcDbEntity
  8
Layer 1
370
     0
100
AcDbVertex
100
AcDb2dVertex
 10
1350.932527331538
 20
-774.4726235042986
 30
0.0
  0
VERTEX
  5
138
330
EB
100
AcDbEntity
  8
Layer 1
370
     0
100
AcDbVertex
100
AcDb2dVertex
 10
1350.926326159664
 20
-774.554272267299
 30
0.0
  0
VERTEX
  5
139
330
EB
100
AcDbEntity
  8
Layer 1
370
     0
100
AcDbVertex
100
AcDb2dVertex
 10
1350.926326159664
 20
-774.554272267299
 30
0.0
  0
SEQEND
  5
13A
330
EB
100
AcDbEntity
  8
Layer 1
370
     0
  0
HATCH
  5
13B
330
1F
100
AcDbEntity
  8
Layer 1
 62
   250
420
  2301728
100
AcDbHatch
 10
0.0
 20
0.0
 30
0.0
210
0.0
220
0.0
230
1.0
  2
SOLID
 70
     1
 71
     0
 91
        1
 92
        1
 93
       76
 72
     1
 10
1350.926326159664
 20
-774.554272267299
 11
1350.407494779586
 21
-774.554272267299
 72
     1
 10
1350.407494779586
 20
-774.554272267299
 11
1349.889007909056
 21
-774.554272267299
 72
     1
 10
1349.889007909056
 20
-774.554272267299
 11
1349.370176528977
 21
-774.554272267299
 72
     1
 10
1349.370176528977
 20
-774.554272267299
 11
1348.851345148898
 21
-774.554272267299
 72
     1
 10
1348.851345148898
 20
-774.554272267299
 11
1348.830674575987
 21
-774.4774466379779
 72
     1
 10
1348.830674575987
 20
-774.4774466379779
 11
1348.815516155852
 21
-774.403377085045
 72
     1
 10
1348.815516155852
 20
-774.403377085045
 11
1348.806903417139
 21
-774.3327526275974
 72
     1
 10
1348.806903417139
 20
-774.3327526275974
 11
1348.803802831202
 21
-774.2652287560865
 72
     1
 10
1348.803802831202
 20
-774.2652287560865
 11
1348.807936945784
 21
-774.1742782352759
 72
     1
 10
1348.807936945784
 20
-774.1742782352759
 11
1348.820339289531
 21
-774.0840167335624
 72
     1
 10
1348.820339289531
 20
-774.0840167335624
 11
1348.841009862443
 21
-773.9947887604944
 72
     1
 10
1348.841009862443
 20
-773.9947887604944
 11
1348.86960415497
 21
-773.906594316072
 72
     1
 10
1348.86960415497
 20
-773.906594316072
 11
1349.043581476975
 21
-773.906594316072
 72
     1
 10
1349.043581476975
 20
-773.906594316072
 11
1349.217214289432
 21
-773.906594316072
 72
     1
 10
1349.217214289432
 20
-773.906594316072
 11
1349.391191611437
 21
-773.906594316072
 72
     1
 10
1349.391191611437
 20
-773.906594316072
 11
1349.565168933442
 21
-773.906594316072
 72
     1
 10
1349.565168933442
 20
-773.906594316072
 11
1349.509013877032
 21
-773.7288273890331
 72
     1
 10
1349.509013877032
 20
-773.7288273890331
 11
1349.41392924164
 21
-773.6020478751759
 72
     1
 10
1349.41392924164
 20
-773.6020478751759
 11
1349.280259536812
 21
-773.5259112649519
 72
     1
 10
1349.280259536812
 20
-773.5259112649519
 11
1349.107660253001
 21
-773.500417558361
 72
     1
 10
1349.107660253001
 20
-773.500417558361
 11
1348.985359363274
 21
-773.5141979403021
 72
     1
 10
1348.985359363274
 20
-773.5141979403021
 11
1348.875116307747
 21
-773.554850067028
 72
     1
 10
1348.875116307747
 20
-773.554850067028
 11
1348.776931086417
 21
-773.623062957636
 72
     1
 10
1348.776931086417
 20
-773.623062957636
 11
1348.690459189737
 21
-773.7181475930288
 72
     1
 10
1348.690459189737
 20
-773.7181475930288
 11
1348.61983473229
 21
-773.8345918204303
 72
     1
 10
1348.61983473229
 20
-773.8345918204303
 11
1348.569536338205
 21
-773.9665389775154
 72
     1
 10
1348.569536338205
 20
-773.9665389775154
 11
1348.539564007483
 21
-774.1136445547355
 72
     1
 10
1348.539564007483
 20
-774.1136445547355
 11
1348.529228721027
 21
-774.2762530616393
 72
     1
 10
1348.529228721027
 20
-774.2762530616393
 11
1348.539219497935
 21
-774.4454072499651
 72
     1
 10
1348.539219497935
 20
-774.4454072499651
 11
1348.568158300011
 21
-774.5973359608646
 72
     1
 10
1348.568158300011
 20
-774.5973359608646
 11
1348.616734146353
 21
-774.7323837038864
 72
     1
 10
1348.616734146353
 20
-774.7323837038864
 11
1348.684947036961
 21
-774.850894988579
 72
     1
 10
1348.684947036961
 20
-774.850894988579
 11
1348.768662857252
 21
-774.9470131526175
 72
     1
 10
1348.768662857252
 20
-774.9470131526175
 11
1348.864781021291
 21
-775.015570552774
 72
     1
 10
1348.864781021291
 20
-775.015570552774
 11
1348.972612509979
 21
-775.0565671890483
 72
     1
 10
1348.972612509979
 20
-775.0565671890483
 11
1349.092846342414
 21
-775.0703475709894
 72
     1
 10
1349.092846342414
 20
-775.0703475709894
 11
1349.194476659229
 21
-775.057600717694
 72
     1
 10
1349.194476659229
 20
-775.057600717694
 11
1349.294039918753
 21
-775.0190156482591
 72
     1
 10
1349.294039918753
 20
-775.0190156482591
 11
1349.392225140082
 21
-774.9549368722335
 72
     1
 10
1349.392225140082
 20
-774.9549368722335
 11
1349.487998794573
 21
-774.8653643896171
 72
     1
 10
1349.487998794573
 20
-774.8653643896171
 11
1349.682991199038
 21
-775.0996308826141
 72
     1
 10
1349.682991199038
 20
-775.0996308826141
 11
1349.877983603503
 21
-775.3338973756111
 72
     1
 10
1349.877983603503
 20
-775.3338973756111
 11
1350.072631498419
 21
-775.5681638686079
 72
     1
 10
1350.072631498419
 20
-775.5681638686079
 11
1350.267623902884
 21
-775.8020858520565
 72
     1
 10
1350.267623902884
 20
-775.8020858520565
 11
1349.987537639934
 21
-775.9894990464541
 72
     1
 10
1349.987537639934
 20
-775.9894990464541
 11
1349.691948447299
 21
-776.1235132608302
 72
     1
 10
1349.691948447299
 20
-776.1235132608302
 11
1349.381889853627
 21
-776.2037839856366
 72
     1
 10
1349.381889853627
 20
-776.2037839856366
 11
1349.056328330271
 21
-776.230311220873
 72
     1
 10
1349.056328330271
 20
-776.230311220873
 11
1348.66634352134
 21
-776.1962047755691
 72
     1
 10
1348.66634352134
 20
-776.1962047755691
 11
1348.308742609971
 21
-776.0942299492057
 72
     1
 10
1348.308742609971
 20
-776.0942299492057
 11
1347.983870105712
 21
-775.9236977226858
 72
     1
 10
1347.983870105712
 20
-775.9236977226858
 11
1347.691381499015
 21
-775.6852971151064
 72
     1
 10
1347.691381499015
 20
-775.6852971151064
 11
1347.44953579595
 21
-775.396253603894
 72
     1
 10
1347.44953579595
 20
-775.396253603894
 11
1347.276936512139
 21
-775.0748261951202
 72
     1
 10
1347.276936512139
 20
-775.0748261951202
 11
1347.173239138033
 21
-774.721014888785
 72
     1
 10
1347.173239138033
 20
-774.721014888785
 11
1347.138788183181
 21
-774.3348196848885
 72
     1
 10
1347.138788183181
 20
-774.3348196848885
 11
1347.173583647582
 21
-773.9496580096376
 72
     1
 10
1347.173583647582
 20
-773.9496580096376
 11
1347.278314550333
 21
-773.595502193754
 72
     1
 10
1347.278314550333
 20
-773.595502193754
 11
1347.452636381887
 21
-773.272696746786
 72
     1
 10
1347.452636381887
 20
-773.272696746786
 11
1347.696893651791
 21
-772.9808971591854
 72
     1
 10
1347.696893651791
 20
-772.9808971591854
 11
1347.991793825329
 21
-772.7390514561208
 72
     1
 10
1347.991793825329
 20
-772.7390514561208
 11
1348.31838887733
 21
-772.5664521723098
 72
     1
 10
1348.31838887733
 20
-772.5664521723098
 11
1348.677023317345
 21
-772.4627547982038
 72
     1
 10
1348.677023317345
 20
-772.4627547982038
 11
1349.067352635823
 21
-772.4283038433513
 72
     1
 10
1349.067352635823
 20
-772.4283038433513
 11
1349.448380196492
 21
-772.4620657791068
 72
     1
 10
1349.448380196492
 20
-772.4620657791068
 11
1349.797712878697
 21
-772.5633515863731
 72
     1
 10
1349.797712878697
 20
-772.5633515863731
 11
1350.115350682436
 21
-772.7318167556018
 72
     1
 10
1350.115350682436
 20
-772.7318167556018
 11
1350.401293607712
 21
-772.9681503058899
 72
     1
 10
1350.401293607712
 20
-772.9681503058899
 11
1350.637282648452
 21
-773.2537487216172
 72
     1
 10
1350.637282648452
 20
-773.2537487216172
 11
1350.806092327229
 21
-773.5703529967116
 72
     1
 10
1350.806092327229
 20
-773.5703529967116
 11
1350.907033624947
 21
-773.9186521502704
 72
     1
 10
1350.907033624947
 20
-773.9186521502704
 11
1350.940795560702
 21
-774.2983016727449
 72
     1
 10
1350.940795560702
 20
-774.2983016727449
 11
1350.940106541605
 21
-774.3444659522472
 72
     1
 10
1350.940106541605
 20
-774.3444659522472
 11
1350.937350465217
 21
-774.4023435563995
 72
     1
 10
1350.937350465217
 20
-774.4023435563995
 11
1350.932527331538
 21
-774.4726235042986
 72
     1
 10
1350.932527331538
 20
-774.4726235042986
 11
1350.926326159664
 21
-774.554272267299
 97
        0
 75
     2
 76
     1
 98
        0
  0
POLYLINE
  5
13C
330
1F
100
AcDbEntity
  8
Layer 1
370
     0
100
AcDb2dPolyline
 66
     1
 10
0.0
 20
0.0
 30
0.0
  0
VERTEX
  5
13D
330
13C
100
AcDbEntity
  8
Layer 1
370
     0
100
AcDbVertex
100
AcDb2dVertex
 10
1317.2849687462
 20
-772.5051294726724
 30
0.0
  0
VERTEX
  5
13E
330
13C
100
AcDbEntity
  8
Layer 1
370
     0
100
AcDbVertex
100
AcDb2dVertex
 10
1317.2849687462
 20
-773.4180797762635
 30
0.0
  0
VERTEX
  5
13F
330
13C
100
AcDbEntity
  8
Layer 1
370
     0
100
AcDbVertex
100
AcDb2dVertex
 10
1317.2849687462
 20
-774.3310300798548
 30
0.0
  0
VERTEX
  5
140
330
13C
100
AcDbEntity
  8
Layer 1
370
     0
100
AcDbVertex
100
AcDb2dVertex
 10
1317.2849687462
 20
-775.2443248929945
 30
0.0
  0
VERTEX
  5
141
330
13C
100
AcDbEntity
  8
Layer 1
370
     0
100
AcDbVertex
100
AcDb2dVertex
 10
1317.2849687462
 20
-776.1572751965857
 30
0.0
  0
VERTEX
  5
142
330
13C
100
AcDbEntity
  8
Layer 1
370
     0
100
AcDbVertex
100
AcDb2dVertex
 10
1316.913242943341
 20
-776.1572751965857
 30
0.0
  0
VERTEX
  5
143
330
13C
100
AcDbEntity
  8
Layer 1
370
     0
100
AcDbVertex
100
AcDb2dVertex
 10
1316.541861650031
 20
-776.1572751965857
 30
0.0
  0
VERTEX
  5
144
330
13C
100
AcDbEntity
  8
Layer 1
370
     0
100
AcDbVertex
100
AcDb2dVertex
 10
1316.170480356721
 20
-776.1572751965857
 30
0.0
  0
VERTEX
  5
145
330
13C
100
AcDbEntity
  8
Layer 1
370
     0
100
AcDbVertex
100
AcDb2dVertex
 10
1315.799099063411
 20
-776.1572751965857
 30
0.0
  0
VERTEX
  5
146
330
13C
100
AcDbEntity
  8
Layer 1
370
     0
100
AcDbVertex
100
AcDb2dVertex
 10
1315.799099063411
 20
-774.9084280831827
 30
0.0
  0
VERTEX
  5
147
330
13C
100
AcDbEntity
  8
Layer 1
370
     0
100
AcDbVertex
100
AcDb2dVertex
 10
1315.799099063411
 20
-773.6595809697795
 30
0.0
  0
VERTEX
  5
148
330
13C
100
AcDbEntity
  8
Layer 1
370
     0
100
AcDbVertex
100
AcDb2dVertex
 10
1315.799099063411
 20
-772.4107338563765
 30
0.0
  0
VERTEX
  5
149
330
13C
100
AcDbEntity
  8
Layer 1
370
     0
100
AcDbVertex
100
AcDb2dVertex
 10
1315.799099063411
 20
-771.162231252522
 30
0.0
  0
VERTEX
  5
14A
330
13C
100
AcDbEntity
  8
Layer 1
370
     0
100
AcDbVertex
100
AcDb2dVertex
 10
1316.27590027857
 20
-771.162231252522
 30
0.0
  0
VERTEX
  5
14B
330
13C
100
AcDbEntity
  8
Layer 1
370
     0
100
AcDbVertex
100
AcDb2dVertex
 10
1316.75235698418
 20
-771.162231252522
 30
0.0
  0
VERTEX
  5
14C
330
13C
100
AcDbEntity
  8
Layer 1
370
     0
100
AcDbVertex
100
AcDb2dVertex
 10
1317.229158199339
 20
-771.162231252522
 30
0.0
  0
VERTEX
  5
14D
330
13C
100
AcDbEntity
  8
Layer 1
370
     0
100
AcDbVertex
100
AcDb2dVertex
 10
1317.705614904949
 20
-771.162231252522
 30
0.0
  0
VERTEX
  5
14E
330
13C
100
AcDbEntity
  8
Layer 1
370
     0
100
AcDbVertex
100
AcDb2dVertex
 10
1318.116614796339
 20
-771.1891029973069
 30
0.0
  0
VERTEX
  5
14F
330
13C
100
AcDbEntity
  8
Layer 1
370
     0
100
AcDbVertex
100
AcDb2dVertex
 10
1318.478694331839
 20
-771.2700627412103
 30
0.0
  0
VERTEX
  5
150
330
13C
100
AcDbEntity
  8
Layer 1
370
     0
100
AcDbVertex
100
AcDb2dVertex
 10
1318.791853511448
 20
-771.4051104842321
 30
0.0
  0
VERTEX
  5
151
330
13C
100
AcDbEntity
  8
Layer 1
370
     0
100
AcDbVertex
100
AcDb2dVertex
 10
1319.056092335167
 20
-771.5939017168238
 30
0.0
  0
VERTEX
  5
152
330
13C
100
AcDbEntity
  8
Layer 1
370
     0
100
AcDbVertex
100
AcDb2dVertex
 10
1319.289669809066
 20
-771.8515948591205
 30
0.0
  0
VERTEX
  5
153
330
13C
100
AcDbEntity
  8
Layer 1
370
     0
100
AcDbVertex
100
AcDb2dVertex
 10
1319.456756940101
 20
-772.1420164085271
 30
0.0
  0
VERTEX
  5
154
330
13C
100
AcDbEntity
  8
Layer 1
370
     0
100
AcDbVertex
100
AcDb2dVertex
 10
1319.557009218722
 20
-772.464821855495
 30
0.0
  0
VERTEX
  5
155
330
13C
100
AcDbEntity
  8
Layer 1
370
     0
100
AcDbVertex
100
AcDb2dVertex
 10
1319.590426644929
 20
-772.8196666904756
 30
0.0
  0
VERTEX
  5
156
330
13C
100
AcDbEntity
  8
Layer 1
370
     0
100
AcDbVertex
100
AcDb2dVertex
 10
1319.548740989557
 20
-773.1838132832665
 30
0.0
  0
VERTEX
  5
157
330
13C
100
AcDbEntity
  8
Layer 1
370
     0
100
AcDbVertex
100
AcDb2dVertex
 10
1319.424717552088
 20
-773.5179875453358
 30
0.0
  0
VERTEX
  5
158
330
13C
100
AcDbEntity
  8
Layer 1
370
     0
100
AcDbVertex
100
AcDb2dVertex
 10
1319.217667313425
 20
-773.8221894766833
 30
0.0
  0
VERTEX
  5
159
330
13C
100
AcDbEntity
  8
Layer 1
370
     0
100
AcDbVertex
100
AcDb2dVertex
 10
1318.927934783115
 20
-774.0971080964063
 30
0.0
  0
VERTEX
  5
15A
330
13C
100
AcDbEntity
  8
Layer 1
370
     0
100
AcDbVertex
100
AcDb2dVertex
 10
1319.141875212749
 20
-774.6121498714512
 30
0.0
  0
VERTEX
  5
15B
330
13C
100
AcDbEntity
  8
Layer 1
370
     0
100
AcDbVertex
100
AcDb2dVertex
 10
1319.356160151932
 20
-775.127191646496
 30
0.0
  0
VERTEX
  5
15C
330
13C
100
AcDbEntity
  8
Layer 1
370
     0
100
AcDbVertex
100
AcDb2dVertex
 10
1319.570100581566
 20
-775.6422334215408
 30
0.0
  0
VERTEX
  5
15D
330
13C
100
AcDbEntity
  8
Layer 1
370
     0
100
AcDbVertex
100
AcDb2dVertex
 10
1319.784385520748
 20
-776.1572751965857
 30
0.0
  0
VERTEX
  5
15E
330
13C
100
AcDbEntity
  8
Layer 1
370
     0
100
AcDbVertex
100
AcDb2dVertex
 10
1319.394400711818
 20
-776.1572751965857
 30
0.0
  0
VERTEX
  5
15F
330
13C
100
AcDbEntity
  8
Layer 1
370
     0
100
AcDbVertex
100
AcDb2dVertex
 10
1319.004760412436
 20
-776.1572751965857
 30
0.0
  0
VERTEX
  5
160
330
13C
100
AcDbEntity
  8
Layer 1
370
     0
100
AcDbVertex
100
AcDb2dVertex
 10
1318.615120113055
 20
-776.1572751965857
 30
0.0
  0
VERTEX
  5
161
330
13C
100
AcDbEntity
  8
Layer 1
370
     0
100
AcDbVertex
100
AcDb2dVertex
 10
1318.225135304124
 20
-776.1572751965857
 30
0.0
  0
VERTEX
  5
162
330
13C
100
AcDbEntity
  8
Layer 1
370
     0
100
AcDbVertex
100
AcDb2dVertex
 10
1318.044956810246
 20
-775.75454353436
 30
0.0
  0
VERTEX
  5
163
330
13C
100
AcDbEntity
  8
Layer 1
370
     0
100
AcDbVertex
100
AcDb2dVertex
 10
1317.864778316367
 20
-775.3521563816828
 30
0.0
  0
VERTEX
  5
164
330
13C
100
AcDbEntity
  8
Layer 1
370
     0
100
AcDbVertex
100
AcDb2dVertex
 10
1317.684599822489
 20
-774.9494247194572
 30
0.0
  0
VERTEX
  5
165
330
13C
100
AcDbEntity
  8
Layer 1
370
     0
100
AcDbVertex
100
AcDb2dVertex
 10
1317.50442132861
 20
-774.54703756678
 30
0.0
  0
VERTEX
  5
166
330
13C
100
AcDbEntity
  8
Layer 1
370
     0
100
AcDbVertex
100
AcDb2dVertex
 10
1317.50442132861
 20
-774.2259546675547
 30
0.0
  0
VERTEX
  5
167
330
13C
100
AcDbEntity
  8
Layer 1
370
     0
100
AcDbVertex
100
AcDb2dVertex
 10
1317.50442132861
 20
-773.9048717683294
 30
0.0
  0
VERTEX
  5
168
330
13C
100
AcDbEntity
  8
Layer 1
370
     0
100
AcDbVertex
100
AcDb2dVertex
 10
1317.50442132861
 20
-773.5837888691041
 30
0.0
  0
VERTEX
  5
169
330
13C
100
AcDbEntity
  8
Layer 1
370
     0
100
AcDbVertex
100
AcDb2dVertex
 10
1317.50442132861
 20
-773.2627059698788
 30
0.0
  0
VERTEX
  5
16A
330
13C
100
AcDbEntity
  8
Layer 1
370
     0
100
AcDbVertex
100
AcDb2dVertex
 10
1317.533704640235
 20
-773.2627059698788
 30
0.0
  0
VERTEX
  5
16B
330
13C
100
AcDbEntity
  8
Layer 1
370
     0
100
AcDbVertex
100
AcDb2dVertex
 10
1317.562987951859
 20
-773.2627059698788
 30
0.0
  0
VERTEX
  5
16C
330
13C
100
AcDbEntity
  8
Layer 1
370
     0
100
AcDbVertex
100
AcDb2dVertex
 10
1317.592271263484
 20
-773.2627059698788
 30
0.0
  0
VERTEX
  5
16D
330
13C
100
AcDbEntity
  8
Layer 1
370
     0
100
AcDbVertex
100
AcDb2dVertex
 10
1317.621554575109
 20
-773.2627059698788
 30
0.0
  0
VERTEX
  5
16E
330
13C
100
AcDbEntity
  8
Layer 1
370
     0
100
AcDbVertex
100
AcDb2dVertex
 10
1317.826537756481
 20
-773.2375567728365
 30
0.0
  0
VERTEX
  5
16F
330
13C
100
AcDbEntity
  8
Layer 1
370
     0
100
AcDbVertex
100
AcDb2dVertex
 10
1317.972954314604
 20
-773.1621091817095
 30
0.0
  0
VERTEX
  5
170
330
13C
100
AcDbEntity
  8
Layer 1
370
     0
100
AcDbVertex
100
AcDb2dVertex
 10
1318.060459739929
 20
-773.0363631964979
 30
0.0
  0
VERTEX
  5
171
330
13C
100
AcDbEntity
  8
Layer 1
370
     0
100
AcDbVertex
100
AcDb2dVertex
 10
1318.090087561103
 20
-772.8599743076531
 30
0.0
  0
VERTEX
  5
172
330
13C
100
AcDbEntity
  8
Layer 1
370
     0
100
AcDbVertex
100
AcDb2dVertex
 10
1318.055981115799
 20
-772.7049450108168
 30
0.0
  0
VERTEX
  5
173
330
13C
100
AcDbEntity
  8
Layer 1
370
     0
100
AcDbVertex
100
AcDb2dVertex
 10
1317.954350798984
 20
-772.5940129361918
 30
0.0
  0
VERTEX
  5
174
330
13C
100
AcDbEntity
  8
Layer 1
370
     0
100
AcDbVertex
100
AcDb2dVertex
 10
1317.785196610658
 20
-772.5271780837779
 30
0.0
  0
VERTEX
  5
175
330
13C
100
AcDbEntity
  8
Layer 1
370
     0
100
AcDbVertex
100
AcDb2dVertex
 10
1317.548518550821
 20
-772.5051294726724
 30
0.0
  0
VERTEX
  5
176
330
13C
100
AcDbEntity
  8
Layer 1
370
     0
100
AcDbVertex
100
AcDb2dVertex
 10
1317.482372717504
 20
-772.5051294726724
 30
0.0
  0
VERTEX
  5
177
330
13C
100
AcDbEntity
  8
Layer 1
370
     0
100
AcDbVertex
100
AcDb2dVertex
 10
1317.416571393736
 20
-772.5051294726724
 30
0.0
  0
VERTEX
  5
178
330
13C
100
AcDbEntity
  8
Layer 1
370
     0
100
AcDbVertex
100
AcDb2dVertex
 10
1317.350770069968
 20
-772.5051294726724
 30
0.0
  0
VERTEX
  5
179
330
13C
100
AcDbEntity
  8
Layer 1
370
     0
100
AcDbVertex
100
AcDb2dVertex
 10
1317.2849687462
 20
-772.5051294726724
 30
0.0
  0
VERTEX
  5
17A
330
13C
100
AcDbEntity
  8
Layer 1
370
     0
100
AcDbVertex
100
AcDb2dVertex
 10
1317.2849687462
 20
-772.5051294726724
 30
0.0
  0
SEQEND
  5
17B
330
13C
100
AcDbEntity
  8
Layer 1
370
     0
  0
HATCH
  5
17C
330
1F
100
AcDbEntity
  8
Layer 1
 62
   250
420
  2301728
100
AcDbHatch
 10
0.0
 20
0.0
 30
0.0
210
0.0
220
0.0
230
1.0
  2
SOLID
 70
     1
 71
     0
 91
        1
 92
        1
 93
       60
 72
     1
 10
1317.2849687462
 20
-772.5051294726724
 11
1317.2849687462
 21
-773.4180797762635
 72
     1
 10
1317.2849687462
 20
-773.4180797762635
 11
1317.2849687462
 21
-774.3310300798548
 72
     1
 10
1317.2849687462
 20
-774.3310300798548
 11
1317.2849687462
 21
-775.2443248929945
 72
     1
 10
1317.2849687462
 20
-775.2443248929945
 11
1317.2849687462
 21
-776.1572751965857
 72
     1
 10
1317.2849687462
 20
-776.1572751965857
 11
1316.913242943341
 21
-776.1572751965857
 72
     1
 10
1316.913242943341
 20
-776.1572751965857
 11
1316.541861650031
 21
-776.1572751965857
 72
     1
 10
1316.541861650031
 20
-776.1572751965857
 11
1316.170480356721
 21
-776.1572751965857
 72
     1
 10
1316.170480356721
 20
-776.1572751965857
 11
1315.799099063411
 21
-776.1572751965857
 72
     1
 10
1315.799099063411
 20
-776.1572751965857
 11
1315.799099063411
 21
-774.9084280831827
 72
     1
 10
1315.799099063411
 20
-774.9084280831827
 11
1315.799099063411
 21
-773.6595809697795
 72
     1
 10
1315.799099063411
 20
-773.6595809697795
 11
1315.799099063411
 21
-772.4107338563765
 72
     1
 10
1315.799099063411
 20
-772.4107338563765
 11
1315.799099063411
 21
-771.162231252522
 72
     1
 10
1315.799099063411
 20
-771.162231252522
 11
1316.27590027857
 21
-771.162231252522
 72
     1
 10
1316.27590027857
 20
-771.162231252522
 11
1316.75235698418
 21
-771.162231252522
 72
     1
 10
1316.75235698418
 20
-771.162231252522
 11
1317.229158199339
 21
-771.162231252522
 72
     1
 10
1317.229158199339
 20
-771.162231252522
 11
1317.705614904949
 21
-771.162231252522
 72
     1
 10
1317.705614904949
 20
-771.162231252522
 11
1318.116614796339
 21
-771.1891029973069
 72
     1
 10
1318.116614796339
 20
-771.1891029973069
 11
1318.478694331839
 21
-771.2700627412103
 72
     1
 10
1318.478694331839
 20
-771.2700627412103
 11
1318.791853511448
 21
-771.4051104842321
 72
     1
 10
1318.791853511448
 20
-771.4051104842321
 11
1319.056092335167
 21
-771.5939017168238
 72
     1
 10
1319.056092335167
 20
-771.5939017168238
 11
1319.289669809066
 21
-771.8515948591205
 72
     1
 10
1319.289669809066
 20
-771.8515948591205
 11
1319.456756940101
 21
-772.1420164085271
 72
     1
 10
1319.456756940101
 20
-772.1420164085271
 11
1319.557009218722
 21
-772.464821855495
 72
     1
 10
1319.557009218722
 20
-772.464821855495
 11
1319.590426644929
 21
-772.8196666904756
 72
     1
 10
1319.590426644929
 20
-772.8196666904756
 11
1319.548740989557
 21
-773.1838132832665
 72
     1
 10
1319.548740989557
 20
-773.1838132832665
 11
1319.424717552088
 21
-773.5179875453358
 72
     1
 10
1319.424717552088
 20
-773.5179875453358
 11
1319.217667313425
 21
-773.8221894766833
 72
     1
 10
1319.217667313425
 20
-773.8221894766833
 11
1318.927934783115
 21
-774.0971080964063
 72
     1
 10
1318.927934783115
 20
-774.0971080964063
 11
1319.141875212749
 21
-774.6121498714512
 72
     1
 10
1319.141875212749
 20
-774.6121498714512
 11
1319.356160151932
 21
-775.127191646496
 72
     1
 10
1319.356160151932
 20
-775.127191646496
 11
1319.570100581566
 21
-775.6422334215408
 72
     1
 10
1319.570100581566
 20
-775.6422334215408
 11
1319.784385520748
 21
-776.1572751965857
 72
     1
 10
1319.784385520748
 20
-776.1572751965857
 11
1319.394400711818
 21
-776.1572751965857
 72
     1
 10
1319.394400711818
 20
-776.1572751965857
 11
1319.004760412436
 21
-776.1572751965857
 72
     1
 10
1319.004760412436
 20
-776.1572751965857
 11
1318.615120113055
 21
-776.1572751965857
 72
     1
 10
1318.615120113055
 20
-776.1572751965857
 11
1318.225135304124
 21
-776.1572751965857
 72
     1
 10
1318.225135304124
 20
-776.1572751965857
 11
1318.044956810246
 21
-775.75454353436
 72
     1
 10
1318.044956810246
 20
-775.75454353436
 11
1317.864778316367
 21
-775.3521563816828
 72
     1
 10
1317.864778316367
 20
-775.3521563816828
 11
1317.684599822489
 21
-774.9494247194572
 72
     1
 10
1317.684599822489
 20
-774.9494247194572
 11
1317.50442132861
 21
-774.54703756678
 72
     1
 10
1317.50442132861
 20
-774.54703756678
 11
1317.50442132861
 21
-774.2259546675547
 72
     1
 10
1317.50442132861
 20
-774.2259546675547
 11
1317.50442132861
 21
-773.9048717683294
 72
     1
 10
1317.50442132861
 20
-773.9048717683294
 11
1317.50442132861
 21
-773.5837888691041
 72
     1
 10
1317.50442132861
 20
-773.5837888691041
 11
1317.50442132861
 21
-773.2627059698788
 72
     1
 10
1317.50442132861
 20
-773.2627059698788
 11
1317.533704640235
 21
-773.2627059698788
 72
     1
 10
1317.533704640235
 20
-773.2627059698788
 11
1317.562987951859
 21
-773.2627059698788
 72
     1
 10
1317.562987951859
 20
-773.2627059698788
 11
1317.592271263484
 21
-773.2627059698788
 72
     1
 10
1317.592271263484
 20
-773.2627059698788
 11
1317.621554575109
 21
-773.2627059698788
 72
     1
 10
1317.621554575109
 20
-773.2627059698788
 11
1317.826537756481
 21
-773.2375567728365
 72
     1
 10
1317.826537756481
 20
-773.2375567728365
 11
1317.972954314604
 21
-773.1621091817095
 72
     1
 10
1317.972954314604
 20
-773.1621091817095
 11
1318.060459739929
 21
-773.0363631964979
 72
     1
 10
1318.060459739929
 20
-773.0363631964979
 11
1318.090087561103
 21
-772.8599743076531
 72
     1
 10
1318.090087561103
 20
-772.8599743076531
 11
1318.055981115799
 21
-772.7049450108168
 72
     1
 10
1318.055981115799
 20
-772.7049450108168
 11
1317.954350798984
 21
-772.5940129361918
 72
     1
 10
1317.954350798984
 20
-772.5940129361918
 11
1317.785196610658
 21
-772.5271780837779
 72
     1
 10
1317.785196610658
 20
-772.5271780837779
 11
1317.548518550821
 21
-772.5051294726724
 72
     1
 10
1317.548518550821
 20
-772.5051294726724
 11
1317.482372717504
 21
-772.5051294726724
 72
     1
 10
1317.482372717504
 20
-772.5051294726724
 11
1317.416571393736
 21
-772.5051294726724
 72
     1
 10
1317.416571393736
 20
-772.5051294726724
 11
1317.350770069968
 21
-772.5051294726724
 72
     1
 10
1317.350770069968
 20
-772.5051294726724
 11
1317.2849687462
 21
-772.5051294726724
 97
        0
 75
     2
 76
     1
 98
        0
  0
POLYLINE
  5
17D
330
1F
100
AcDbEntity
  8
Layer 1
370
     0
100
AcDb2dPolyline
 66
     1
 10
0.0
 20
0.0
 30
0.0
  0
VERTEX
  5
17E
330
17D
100
AcDbEntity
  8
Layer 1
370
     0
100
AcDbVertex
100
AcDb2dVertex
 10
1323.765537863503
 20
-774.554272267299
 30
0.0
  0
VERTEX
  5
17F
330
17D
100
AcDbEntity
  8
Layer 1
370
     0
100
AcDbVertex
100
AcDb2dVertex
 10
1323.247050992973
 20
-774.554272267299
 30
0.0
  0
VERTEX
  5
180
330
17D
100
AcDbEntity
  8
Layer 1
370
     0
100
AcDbVertex
100
AcDb2dVertex
 10
1322.728219612894
 20
-774.554272267299
 30
0.0
  0
VERTEX
  5
181
330
17D
100
AcDbEntity
  8
Layer 1
370
     0
100
AcDbVertex
100
AcDb2dVertex
 10
1322.209388232816
 20
-774.554272267299
 30
0.0
  0
VERTEX
  5
182
330
17D
100
AcDbEntity
  8
Layer 1
370
     0
100
AcDbVertex
100
AcDb2dVertex
 10
1321.690901362286
 20
-774.554272267299
 30
0.0
  0
VERTEX
  5
183
330
17D
100
AcDbEntity
  8
Layer 1
370
     0
100
AcDbVertex
100
AcDb2dVertex
 10
1321.669886279826
 20
-774.4774466379779
 30
0.0
  0
VERTEX
  5
184
330
17D
100
AcDbEntity
  8
Layer 1
370
     0
100
AcDbVertex
100
AcDb2dVertex
 10
1321.655072369239
 20
-774.403377085045
 30
0.0
  0
VERTEX
  5
185
330
17D
100
AcDbEntity
  8
Layer 1
370
     0
100
AcDbVertex
100
AcDb2dVertex
 10
1321.646115120977
 20
-774.3327526275974
 30
0.0
  0
VERTEX
  5
186
330
17D
100
AcDbEntity
  8
Layer 1
370
     0
100
AcDbVertex
100
AcDb2dVertex
 10
1321.643359044589
 20
-774.2652287560865
 30
0.0
  0
VERTEX
  5
187
330
17D
100
AcDbEntity
  8
Layer 1
370
     0
100
AcDbVertex
100
AcDb2dVertex
 10
1321.647493159172
 20
-774.1742782352759
 30
0.0
  0
VERTEX
  5
188
330
17D
100
AcDbEntity
  8
Layer 1
370
     0
100
AcDbVertex
100
AcDb2dVertex
 10
1321.65955099337
 20
-774.0840167335624
 30
0.0
  0
VERTEX
  5
189
330
17D
100
AcDbEntity
  8
Layer 1
370
     0
100
AcDbVertex
100
AcDb2dVertex
 10
1321.680221566281
 20
-773.9947887604944
 30
0.0
  0
VERTEX
  5
18A
330
17D
100
AcDbEntity
  8
Layer 1
370
     0
100
AcDbVertex
100
AcDb2dVertex
 10
1321.709160368358
 20
-773.906594316072
 30
0.0
  0
VERTEX
  5
18B
330
17D
100
AcDbEntity
  8
Layer 1
370
     0
100
AcDbVertex
100
AcDb2dVertex
 10
1321.882793180814
 20
-773.906594316072
 30
0.0
  0
VERTEX
  5
18C
330
17D
100
AcDbEntity
  8
Layer 1
370
     0
100
AcDbVertex
100
AcDb2dVertex
 10
1322.056770502819
 20
-773.906594316072
 30
0.0
  0
VERTEX
  5
18D
330
17D
100
AcDbEntity
  8
Layer 1
370
     0
100
AcDbVertex
100
AcDb2dVertex
 10
1322.230403315276
 20
-773.906594316072
 30
0.0
  0
VERTEX
  5
18E
330
17D
100
AcDbEntity
  8
Layer 1
370
     0
100
AcDbVertex
100
AcDb2dVertex
 10
1322.404380637281
 20
-773.906594316072
 30
0.0
  0
VERTEX
  5
18F
330
17D
100
AcDbEntity
  8
Layer 1
370
     0
100
AcDbVertex
100
AcDb2dVertex
 10
1322.348225580871
 20
-773.7288273890331
 30
0.0
  0
VERTEX
  5
190
330
17D
100
AcDbEntity
  8
Layer 1
370
     0
100
AcDbVertex
100
AcDb2dVertex
 10
1322.253485455027
 20
-773.6020478751759
 30
0.0
  0
VERTEX
  5
191
330
17D
100
AcDbEntity
  8
Layer 1
370
     0
100
AcDbVertex
100
AcDb2dVertex
 10
1322.119471240651
 20
-773.5259112649519
 30
0.0
  0
VERTEX
  5
192
330
17D
100
AcDbEntity
  8
Layer 1
370
     0
100
AcDbVertex
100
AcDb2dVertex
 10
1321.94687195684
 20
-773.500417558361
 30
0.0
  0
VERTEX
  5
193
330
17D
100
AcDbEntity
  8
Layer 1
370
     0
100
AcDbVertex
100
AcDb2dVertex
 10
1321.824915576662
 20
-773.5141979403021
 30
0.0
  0
VERTEX
  5
194
330
17D
100
AcDbEntity
  8
Layer 1
370
     0
100
AcDbVertex
100
AcDb2dVertex
 10
1321.714672521134
 20
-773.554850067028
 30
0.0
  0
VERTEX
  5
195
330
17D
100
AcDbEntity
  8
Layer 1
370
     0
100
AcDbVertex
100
AcDb2dVertex
 10
1321.616142790256
 20
-773.623062957636
 30
0.0
  0
VERTEX
  5
196
330
17D
100
AcDbEntity
  8
Layer 1
370
     0
100
AcDbVertex
100
AcDb2dVertex
 10
1321.529670893576
 20
-773.7181475930288
 30
0.0
  0
VERTEX
  5
197
330
17D
100
AcDbEntity
  8
Layer 1
370
     0
100
AcDbVertex
100
AcDb2dVertex
 10
1321.459390945677
 20
-773.8345918204303
 30
0.0
  0
VERTEX
  5
198
330
17D
100
AcDbEntity
  8
Layer 1
370
     0
100
AcDbVertex
100
AcDb2dVertex
 10
1321.409092551592
 20
-773.9665389775154
 30
0.0
  0
VERTEX
  5
199
330
17D
100
AcDbEntity
  8
Layer 1
370
     0
100
AcDbVertex
100
AcDb2dVertex
 10
1321.378775711322
 20
-774.1136445547355
 30
0.0
  0
VERTEX
  5
19A
330
17D
100
AcDbEntity
  8
Layer 1
370
     0
100
AcDbVertex
100
AcDb2dVertex
 10
1321.368784934415
 20
-774.2762530616393
 30
0.0
  0
VERTEX
  5
19B
330
17D
100
AcDbEntity
  8
Layer 1
370
     0
100
AcDbVertex
100
AcDb2dVertex
 10
1321.378431201774
 20
-774.4454072499651
 30
0.0
  0
VERTEX
  5
19C
330
17D
100
AcDbEntity
  8
Layer 1
370
     0
100
AcDbVertex
100
AcDb2dVertex
 10
1321.407714513398
 20
-774.5973359608646
 30
0.0
  0
VERTEX
  5
19D
330
17D
100
AcDbEntity
  8
Layer 1
370
     0
100
AcDbVertex
100
AcDb2dVertex
 10
1321.45629035974
 20
-774.7323837038864
 30
0.0
  0
VERTEX
  5
19E
330
17D
100
AcDbEntity
  8
Layer 1
370
     0
100
AcDbVertex
100
AcDb2dVertex
 10
1321.5241587408
 20
-774.850894988579
 30
0.0
  0
VERTEX
  5
19F
330
17D
100
AcDbEntity
  8
Layer 1
370
     0
100
AcDbVertex
100
AcDb2dVertex
 10
1321.60821907064
 20
-774.9470131526175
 30
0.0
  0
VERTEX
  5
1A0
330
17D
100
AcDbEntity
  8
Layer 1
370
     0
100
AcDbVertex
100
AcDb2dVertex
 10
1321.70399272513
 20
-775.015570552774
 30
0.0
  0
VERTEX
  5
1A1
330
17D
100
AcDbEntity
  8
Layer 1
370
     0
100
AcDbVertex
100
AcDb2dVertex
 10
1321.812168723367
 20
-775.0565671890483
 30
0.0
  0
VERTEX
  5
1A2
330
17D
100
AcDbEntity
  8
Layer 1
370
     0
100
AcDbVertex
100
AcDb2dVertex
 10
1321.932402555802
 20
-775.0703475709894
 30
0.0
  0
VERTEX
  5
1A3
330
17D
100
AcDbEntity
  8
Layer 1
370
     0
100
AcDbVertex
100
AcDb2dVertex
 10
1322.033688363068
 20
-775.057600717694
 30
0.0
  0
VERTEX
  5
1A4
330
17D
100
AcDbEntity
  8
Layer 1
370
     0
100
AcDbVertex
100
AcDb2dVertex
 10
1322.13359613214
 20
-775.0190156482591
 30
0.0
  0
VERTEX
  5
1A5
330
17D
100
AcDbEntity
  8
Layer 1
370
     0
100
AcDbVertex
100
AcDb2dVertex
 10
1322.231436843921
 20
-774.9549368722335
 30
0.0
  0
VERTEX
  5
1A6
330
17D
100
AcDbEntity
  8
Layer 1
370
     0
100
AcDbVertex
100
AcDb2dVertex
 10
1322.32755500796
 20
-774.8653643896171
 30
0.0
  0
VERTEX
  5
1A7
330
17D
100
AcDbEntity
  8
Layer 1
370
     0
100
AcDbVertex
100
AcDb2dVertex
 10
1322.522547412425
 20
-775.0996308826141
 30
0.0
  0
VERTEX
  5
1A8
330
17D
100
AcDbEntity
  8
Layer 1
370
     0
100
AcDbVertex
100
AcDb2dVertex
 10
1322.717195307342
 20
-775.3338973756111
 30
0.0
  0
VERTEX
  5
1A9
330
17D
100
AcDbEntity
  8
Layer 1
370
     0
100
AcDbVertex
100
AcDb2dVertex
 10
1322.912187711807
 20
-775.5681638686079
 30
0.0
  0
VERTEX
  5
1AA
330
17D
100
AcDbEntity
  8
Layer 1
370
     0
100
AcDbVertex
100
AcDb2dVertex
 10
1323.106835606723
 20
-775.8020858520565
 30
0.0
  0
VERTEX
  5
1AB
330
17D
100
AcDbEntity
  8
Layer 1
370
     0
100
AcDbVertex
100
AcDb2dVertex
 10
1322.826749343772
 20
-775.9894990464541
 30
0.0
  0
VERTEX
  5
1AC
330
17D
100
AcDbEntity
  8
Layer 1
370
     0
100
AcDbVertex
100
AcDb2dVertex
 10
1322.531504660687
 20
-776.1235132608302
 30
0.0
  0
VERTEX
  5
1AD
330
17D
100
AcDbEntity
  8
Layer 1
370
     0
100
AcDbVertex
100
AcDb2dVertex
 10
1322.221101557466
 20
-776.2037839856366
 30
0.0
  0
VERTEX
  5
1AE
330
17D
100
AcDbEntity
  8
Layer 1
370
     0
100
AcDbVertex
100
AcDb2dVertex
 10
1321.895540034109
 20
-776.230311220873
 30
0.0
  0
VERTEX
  5
1AF
330
17D
100
AcDbEntity
  8
Layer 1
370
     0
100
AcDbVertex
100
AcDb2dVertex
 10
1321.505555225179
 20
-776.1962047755691
 30
0.0
  0
VERTEX
  5
1B0
330
17D
100
AcDbEntity
  8
Layer 1
370
     0
100
AcDbVertex
100
AcDb2dVertex
 10
1321.148298823359
 20
-776.0942299492057
 30
0.0
  0
VERTEX
  5
1B1
330
17D
100
AcDbEntity
  8
Layer 1
370
     0
100
AcDbVertex
100
AcDb2dVertex
 10
1320.8234263191
 20
-775.9236977226858
 30
0.0
  0
VERTEX
  5
1B2
330
17D
100
AcDbEntity
  8
Layer 1
370
     0
100
AcDbVertex
100
AcDb2dVertex
 10
1320.530593202853
 20
-775.6852971151064
 30
0.0
  0
VERTEX
  5
1B3
330
17D
100
AcDbEntity
  8
Layer 1
370
     0
100
AcDbVertex
100
AcDb2dVertex
 10
1320.289092009338
 20
-775.396253603894
 30
0.0
  0
VERTEX
  5
1B4
330
17D
100
AcDbEntity
  8
Layer 1
370
     0
100
AcDbVertex
100
AcDb2dVertex
 10
1320.116492725527
 20
-775.0748261951202
 30
0.0
  0
VERTEX
  5
1B5
330
17D
100
AcDbEntity
  8
Layer 1
370
     0
100
AcDbVertex
100
AcDb2dVertex
 10
1320.01279535142
 20
-774.721014888785
 30
0.0
  0
VERTEX
  5
1B6
330
17D
100
AcDbEntity
  8
Layer 1
370
     0
100
AcDbVertex
100
AcDb2dVertex
 10
1319.977999887019
 20
-774.3348196848885
 30
0.0
  0
VERTEX
  5
1B7
330
17D
100
AcDbEntity
  8
Layer 1
370
     0
100
AcDbVertex
100
AcDb2dVertex
 10
1320.013139860969
 20
-773.9496580096376
 30
0.0
  0
VERTEX
  5
1B8
330
17D
100
AcDbEntity
  8
Layer 1
370
     0
100
AcDbVertex
100
AcDb2dVertex
 10
1320.117870763721
 20
-773.595502193754
 30
0.0
  0
VERTEX
  5
1B9
330
17D
100
AcDbEntity
  8
Layer 1
370
     0
100
AcDbVertex
100
AcDb2dVertex
 10
1320.292192595274
 20
-773.272696746786
 30
0.0
  0
VERTEX
  5
1BA
330
17D
100
AcDbEntity
  8
Layer 1
370
     0
100
AcDbVertex
100
AcDb2dVertex
 10
1320.53610535563
 20
-772.9808971591854
 30
0.0
  0
VERTEX
  5
1BB
330
17D
100
AcDbEntity
  8
Layer 1
370
     0
100
AcDbVertex
100
AcDb2dVertex
 10
1320.831005529167
 20
-772.7390514561208
 30
0.0
  0
VERTEX
  5
1BC
330
17D
100
AcDbEntity
  8
Layer 1
370
     0
100
AcDbVertex
100
AcDb2dVertex
 10
1321.157945090717
 20
-772.5664521723098
 30
0.0
  0
VERTEX
  5
1BD
330
17D
100
AcDbEntity
  8
Layer 1
370
     0
100
AcDbVertex
100
AcDb2dVertex
 10
1321.516235021184
 20
-772.4627547982038
 30
0.0
  0
VERTEX
  5
1BE
330
17D
100
AcDbEntity
  8
Layer 1
370
     0
100
AcDbVertex
100
AcDb2dVertex
 10
1321.906564339662
 20
-772.4283038433513
 30
0.0
  0
VERTEX
  5
1BF
330
17D
100
AcDbEntity
  8
Layer 1
370
     0
100
AcDbVertex
100
AcDb2dVertex
 10
1322.287936409879
 20
-772.4620657791068
 30
0.0
  0
VERTEX
  5
1C0
330
17D
100
AcDbEntity
  8
Layer 1
370
     0
100
AcDbVertex
100
AcDb2dVertex
 10
1322.637269092084
 20
-772.5633515863731
 30
0.0
  0
VERTEX
  5
1C1
330
17D
100
AcDbEntity
  8
Layer 1
370
     0
100
AcDbVertex
100
AcDb2dVertex
 10
1322.954562386275
 20
-772.7318167556018
 30
0.0
  0
VERTEX
  5
1C2
330
17D
100
AcDbEntity
  8
Layer 1
370
     0
100
AcDbVertex
100
AcDb2dVertex
 10
1323.240505311551
 20
-772.9681503058899
 30
0.0
  0
VERTEX
  5
1C3
330
17D
100
AcDbEntity
  8
Layer 1
370
     0
100
AcDbVertex
100
AcDb2dVertex
 10
1323.476838861839
 20
-773.2537487216172
 30
0.0
  0
VERTEX
  5
1C4
330
17D
100
AcDbEntity
  8
Layer 1
370
     0
100
AcDbVertex
100
AcDb2dVertex
 10
1323.645304031068
 20
-773.5703529967116
 30
0.0
  0
VERTEX
  5
1C5
330
17D
100
AcDbEntity
  8
Layer 1
370
     0
100
AcDbVertex
100
AcDb2dVertex
 10
1323.746589838334
 20
-773.9186521502704
 30
0.0
  0
VERTEX
  5
1C6
330
17D
100
AcDbEntity
  8
Layer 1
370
     0
100
AcDbVertex
100
AcDb2dVertex
 10
1323.78035177409
 20
-774.2983016727449
 30
0.0
  0
VERTEX
  5
1C7
330
17D
100
AcDbEntity
  8
Layer 1
370
     0
100
AcDbVertex
100
AcDb2dVertex
 10
1323.779318245444
 20
-774.3444659522472
 30
0.0
  0
VERTEX
  5
1C8
330
17D
100
AcDbEntity
  8
Layer 1
370
     0
100
AcDbVertex
100
AcDb2dVertex
 10
1323.776562169056
 20
-774.4023435563995
 30
0.0
  0
VERTEX
  5
1C9
330
17D
100
AcDbEntity
  8
Layer 1
370
     0
100
AcDbVertex
100
AcDb2dVertex
 10
1323.772083544925
 20
-774.4726235042986
 30
0.0
  0
VERTEX
  5
1CA
330
17D
100
AcDbEntity
  8
Layer 1
370
     0
100
AcDbVertex
100
AcDb2dVertex
 10
1323.765537863503
 20
-774.554272267299
 30
0.0
  0
VERTEX
  5
1CB
330
17D
100
AcDbEntity
  8
Layer 1
370
     0
100
AcDbVertex
100
AcDb2dVertex
 10
1323.765537863503
 20
-774.554272267299
 30
0.0
  0
SEQEND
  5
1CC
330
17D
100
AcDbEntity
  8
Layer 1
370
     0
  0
HATCH
  5
1CD
330
1F
100
AcDbEntity
  8
Layer 1
 62
   250
420
  2301728
100
AcDbHatch
 10
0.0
 20
0.0
 30
0.0
210
0.0
220
0.0
230
1.0
  2
SOLID
 70
     1
 71
     0
 91
        1
 92
        1
 93
       76
 72
     1
 10
1323.765537863503
 20
-774.554272267299
 11
1323.247050992973
 21
-774.554272267299
 72
     1
 10
1323.247050992973
 20
-774.554272267299
 11
1322.728219612894
 21
-774.554272267299
 72
     1
 10
1322.728219612894
 20
-774.554272267299
 11
1322.209388232816
 21
-774.554272267299
 72
     1
 10
1322.209388232816
 20
-774.554272267299
 11
1321.690901362286
 21
-774.554272267299
 72
     1
 10
1321.690901362286
 20
-774.554272267299
 11
1321.669886279826
 21
-774.4774466379779
 72
     1
 10
1321.669886279826
 20
-774.4774466379779
 11
1321.655072369239
 21
-774.403377085045
 72
     1
 10
1321.655072369239
 20
-774.403377085045
 11
1321.646115120977
 21
-774.3327526275974
 72
     1
 10
1321.646115120977
 20
-774.3327526275974
 11
1321.643359044589
 21
-774.2652287560865
 72
     1
 10
1321.643359044589
 20
-774.2652287560865
 11
1321.647493159172
 21
-774.1742782352759
 72
     1
 10
1321.647493159172
 20
-774.1742782352759
 11
1321.65955099337
 21
-774.0840167335624
 72
     1
 10
1321.65955099337
 20
-774.0840167335624
 11
1321.680221566281
 21
-773.9947887604944
 72
     1
 10
1321.680221566281
 20
-773.9947887604944
 11
1321.709160368358
 21
-773.906594316072
 72
     1
 10
1321.709160368358
 20
-773.906594316072
 11
1321.882793180814
 21
-773.906594316072
 72
     1
 10
1321.882793180814
 20
-773.906594316072
 11
1322.056770502819
 21
-773.906594316072
 72
     1
 10
1322.056770502819
 20
-773.906594316072
 11
1322.230403315276
 21
-773.906594316072
 72
     1
 10
1322.230403315276
 20
-773.906594316072
 11
1322.404380637281
 21
-773.906594316072
 72
     1
 10
1322.404380637281
 20
-773.906594316072
 11
1322.348225580871
 21
-773.7288273890331
 72
     1
 10
1322.348225580871
 20
-773.7288273890331
 11
1322.253485455027
 21
-773.6020478751759
 72
     1
 10
1322.253485455027
 20
-773.6020478751759
 11
1322.119471240651
 21
-773.5259112649519
 72
     1
 10
1322.119471240651
 20
-773.5259112649519
 11
1321.94687195684
 21
-773.500417558361
 72
     1
 10
1321.94687195684
 20
-773.500417558361
 11
1321.824915576662
 21
-773.5141979403021
 72
     1
 10
1321.824915576662
 20
-773.5141979403021
 11
1321.714672521134
 21
-773.554850067028
 72
     1
 10
1321.714672521134
 20
-773.554850067028
 11
1321.616142790256
 21
-773.623062957636
 72
     1
 10
1321.616142790256
 20
-773.623062957636
 11
1321.529670893576
 21
-773.7181475930288
 72
     1
 10
1321.529670893576
 20
-773.7181475930288
 11
1321.459390945677
 21
-773.8345918204303
 72
     1
 10
1321.459390945677
 20
-773.8345918204303
 11
1321.409092551592
 21
-773.9665389775154
 72
     1
 10
1321.409092551592
 20
-773.9665389775154
 11
1321.378775711322
 21
-774.1136445547355
 72
     1
 10
1321.378775711322
 20
-774.1136445547355
 11
1321.368784934415
 21
-774.2762530616393
 72
     1
 10
1321.368784934415
 20
-774.2762530616393
 11
1321.378431201774
 21
-774.4454072499651
 72
     1
 10
1321.378431201774
 20
-774.4454072499651
 11
1321.407714513398
 21
-774.5973359608646
 72
     1
 10
1321.407714513398
 20
-774.5973359608646
 11
1321.45629035974
 21
-774.7323837038864
 72
     1
 10
1321.45629035974
 20
-774.7323837038864
 11
1321.5241587408
 21
-774.850894988579
 72
     1
 10
1321.5241587408
 20
-774.850894988579
 11
1321.60821907064
 21
-774.9470131526175
 72
     1
 10
1321.60821907064
 20
-774.9470131526175
 11
1321.70399272513
 21
-775.015570552774
 72
     1
 10
1321.70399272513
 20
-775.015570552774
 11
1321.812168723367
 21
-775.0565671890483
 72
     1
 10
1321.812168723367
 20
-775.0565671890483
 11
1321.932402555802
 21
-775.0703475709894
 72
     1
 10
1321.932402555802
 20
-775.0703475709894
 11
1322.033688363068
 21
-775.057600717694
 72
     1
 10
1322.033688363068
 20
-775.057600717694
 11
1322.13359613214
 21
-775.0190156482591
 72
     1
 10
1322.13359613214
 20
-775.0190156482591
 11
1322.231436843921
 21
-774.9549368722335
 72
     1
 10
1322.231436843921
 20
-774.9549368722335
 11
1322.32755500796
 21
-774.8653643896171
 72
     1
 10
1322.32755500796
 20
-774.8653643896171
 11
1322.522547412425
 21
-775.0996308826141
 72
     1
 10
1322.522547412425
 20
-775.0996308826141
 11
1322.717195307342
 21
-775.3338973756111
 72
     1
 10
1322.717195307342
 20
-775.3338973756111
 11
1322.912187711807
 21
-775.5681638686079
 72
     1
 10
1322.912187711807
 20
-775.5681638686079
 11
1323.106835606723
 21
-775.8020858520565
 72
     1
 10
1323.106835606723
 20
-775.8020858520565
 11
1322.826749343772
 21
-775.9894990464541
 72
     1
 10
1322.826749343772
 20
-775.9894990464541
 11
1322.531504660687
 21
-776.1235132608302
 72
     1
 10
1322.531504660687
 20
-776.1235132608302
 11
1322.221101557466
 21
-776.2037839856366
 72
     1
 10
1322.221101557466
 20
-776.2037839856366
 11
1321.895540034109
 21
-776.230311220873
 72
     1
 10
1321.895540034109
 20
-776.230311220873
 11
1321.505555225179
 21
-776.1962047755691
 72
     1
 10
1321.505555225179
 20
-776.1962047755691
 11
1321.148298823359
 21
-776.0942299492057
 72
     1
 10
1321.148298823359
 20
-776.0942299492057
 11
1320.8234263191
 21
-775.9236977226858
 72
     1
 10
1320.8234263191
 20
-775.9236977226858
 11
1320.530593202853
 21
-775.6852971151064
 72
     1
 10
1320.530593202853
 20
-775.6852971151064
 11
1320.289092009338
 21
-775.396253603894
 72
     1
 10
1320.289092009338
 20
-775.396253603894
 11
1320.116492725527
 21
-775.0748261951202
 72
     1
 10
1320.116492725527
 20
-775.0748261951202
 11
1320.01279535142
 21
-774.721014888785
 72
     1
 10
1320.01279535142
 20
-774.721014888785
 11
1319.977999887019
 21
-774.3348196848885
 72
     1
 10
1319.977999887019
 20
-774.3348196848885
 11
1320.013139860969
 21
-773.9496580096376
 72
     1
 10
1320.013139860969
 20
-773.9496580096376
 11
1320.117870763721
 21
-773.595502193754
 72
     1
 10
1320.117870763721
 20
-773.595502193754
 11
1320.292192595274
 21
-773.272696746786
 72
     1
 10
1320.292192595274
 20
-773.272696746786
 11
1320.53610535563
 21
-772.9808971591854
 72
     1
 10
1320.53610535563
 20
-772.9808971591854
 11
1320.831005529167
 21
-772.7390514561208
 72
     1
 10
1320.831005529167
 20
-772.7390514561208
 11
1321.157945090717
 21
-772.5664521723098
 72
     1
 10
1321.157945090717
 20
-772.5664521723098
 11
1321.516235021184
 21
-772.4627547982038
 72
     1
 10
1321.516235021184
 20
-772.4627547982038
 11
1321.906564339662
 21
-772.4283038433513
 72
     1
 10
1321.906564339662
 20
-772.4283038433513
 11
1322.287936409879
 21
-772.4620657791068
 72
     1
 10
1322.287936409879
 20
-772.4620657791068
 11
1322.637269092084
 21
-772.5633515863731
 72
     1
 10
1322.637269092084
 20
-772.5633515863731
 11
1322.954562386275
 21
-772.7318167556018
 72
     1
 10
1322.954562386275
 20
-772.7318167556018
 11
1323.240505311551
 21
-772.9681503058899
 72
     1
 10
1323.240505311551
 20
-772.9681503058899
 11
1323.476838861839
 21
-773.2537487216172
 72
     1
 10
1323.476838861839
 20
-773.2537487216172
 11
1323.645304031068
 21
-773.5703529967116
 72
     1
 10
1323.645304031068
 20
-773.5703529967116
 11
1323.746589838334
 21
-773.9186521502704
 72
     1
 10
1323.746589838334
 20
-773.9186521502704
 11
1323.78035177409
 21
-774.2983016727449
 72
     1
 10
1323.78035177409
 20
-774.2983016727449
 11
1323.779318245444
 21
-774.3444659522472
 72
     1
 10
1323.779318245444
 20
-774.3444659522472
 11
1323.776562169056
 21
-774.4023435563995
 72
     1
 10
1323.776562169056
 20
-774.4023435563995
 11
1323.772083544925
 21
-774.4726235042986
 72
     1
 10
1323.772083544925
 20
-774.4726235042986
 11
1323.765537863503
 21
-774.554272267299
 97
        0
 75
     2
 76
     1
 98
        0
  0
POLYLINE
  5
1CE
330
1F
100
AcDbEntity
  8
Layer 1
370
     0
100
AcDb2dPolyline
 66
     1
 10
0.0
 20
0.0
 30
0.0
  0
VERTEX
  5
1CF
330
1CE
100
AcDbEntity
  8
Layer 1
370
     0
100
AcDbVertex
100
AcDb2dVertex
 10
1326.360039273445
 20
-774.788538760296
 30
0.0
  0
VERTEX
  5
1D0
330
1CE
100
AcDbEntity
  8
Layer 1
370
     0
100
AcDbVertex
100
AcDb2dVertex
 10
1326.360039273445
 20
-775.1426945761797
 30
0.0
  0
VERTEX
  5
1D1
330
1CE
100
AcDbEntity
  8
Layer 1
370
     0
100
AcDbVertex
100
AcDb2dVertex
 10
1326.360039273445
 20
-775.4965058825148
 30
0.0
  0
VERTEX
  5
1D2
330
1CE
100
AcDbEntity
  8
Layer 1
370
     0
100
AcDbVertex
100
AcDb2dVertex
 10
1326.360039273445
 20
-775.8506616983984
 30
0.0
  0
VERTEX
  5
1D3
330
1CE
100
AcDbEntity
  8
Layer 1
370
     0
100
AcDbVertex
100
AcDb2dVertex
 10
1326.360039273445
 20
-776.2048175142821
 30
0.0
  0
VERTEX
  5
1D4
330
1CE
100
AcDbEntity
  8
Layer 1
370
     0
100
AcDbVertex
100
AcDb2dVertex
 10
1326.277701491347
 20
-776.2175643675776
 30
0.0
  0
VERTEX
  5
1D5
330
1CE
100
AcDbEntity
  8
Layer 1
370
     0
100
AcDbVertex
100
AcDb2dVertex
 10
1326.199153314284
 20
-776.2268661253878
 30
0.0
  0
VERTEX
  5
1D6
330
1CE
100
AcDbEntity
  8
Layer 1
370
     0
100
AcDbVertex
100
AcDb2dVertex
 10
1326.124050232705
 20
-776.2323782781642
 30
0.0
  0
VERTEX
  5
1D7
330
1CE
100
AcDbEntity
  8
Layer 1
370
     0
100
AcDbVertex
100
AcDb2dVertex
 10
1326.052736756161
 20
-776.2341008259068
 30
0.0
  0
VERTEX
  5
1D8
330
1CE
100
AcDbEntity
  8
Layer 1
370
     0
100
AcDbVertex
100
AcDb2dVertex
 10
1325.658273323099
 20
-776.2003388901513
 30
0.0
  0
VERTEX
  5
1D9
330
1CE
100
AcDbEntity
  8
Layer 1
370
     0
100
AcDbVertex
100
AcDb2dVertex
 10
1325.297916335342
 20
-776.0987085733365
 30
0.0
  0
VERTEX
  5
1DA
330
1CE
100
AcDbEntity
  8
Layer 1
370
     0
100
AcDbVertex
100
AcDb2dVertex
 10
1324.972010302438
 20
-775.9295543850106
 30
0.0
  0
VERTEX
  5
1DB
330
1CE
100
AcDbEntity
  8
Layer 1
370
     0
100
AcDbVertex
100
AcDb2dVertex
 10
1324.680555224385
 20
-775.6925318156256
 30
0.0
  0
VERTEX
  5
1DC
330
1CE
100
AcDbEntity
  8
Layer 1
370
     0
100
AcDbVertex
100
AcDb2dVertex
 10
1324.440432069063
 20
-775.4045218330587
 30
0.0
  0
VERTEX
  5
1DD
330
1CE
100
AcDbEntity
  8
Layer 1
370
     0
100
AcDbVertex
100
AcDb2dVertex
 10
1324.268866313898
 20
-775.0824054051877
 30
0.0
  0
VERTEX
  5
1DE
330
1CE
100
AcDbEntity
  8
Layer 1
370
     0
100
AcDbVertex
100
AcDb2dVertex
 10
1324.165857958889
 20
-774.7258380224644
 30
0.0
  0
VERTEX
  5
1DF
330
1CE
100
AcDbEntity
  8
Layer 1
370
     0
100
AcDbVertex
100
AcDb2dVertex
 10
1324.131407004037
 20
-774.3348196848885
 30
0.0
  0
VERTEX
  5
1E0
330
1CE
100
AcDbEntity
  8
Layer 1
370
     0
100
AcDbVertex
100
AcDb2dVertex
 10
1324.166202468438
 20
-773.9527585955743
 30
0.0
  0
VERTEX
  5
1E1
330
1CE
100
AcDbEntity
  8
Layer 1
370
     0
100
AcDbVertex
100
AcDb2dVertex
 10
1324.270244352092
 20
-773.6010143465303
 30
0.0
  0
VERTEX
  5
1E2
330
1CE
100
AcDbEntity
  8
Layer 1
370
     0
100
AcDbVertex
100
AcDb2dVertex
 10
1324.443532655
 20
-773.2795869377566
 30
0.0
  0
VERTEX
  5
1E3
330
1CE
100
AcDbEntity
  8
Layer 1
370
     0
100
AcDbVertex
100
AcDb2dVertex
 10
1324.686067377162
 20
-772.9881318597044
 30
0.0
  0
VERTEX
  5
1E4
330
1CE
100
AcDbEntity
  8
Layer 1
370
     0
100
AcDbVertex
100
AcDb2dVertex
 10
1324.978211474311
 20
-772.7462861566398
 30
0.0
  0
VERTEX
  5
1E5
330
1CE
100
AcDbEntity
  8
Layer 1
370
     0
100
AcDbVertex
100
AcDb2dVertex
 10
1325.300327902182
 20
-772.5736868728288
 30
0.0
  0
VERTEX
  5
1E6
330
1CE
100
AcDbEntity
  8
Layer 1
370
     0
100
AcDbVertex
100
AcDb2dVertex
 10
1325.652416660774
 20
-772.4699894987228
 30
0.0
  0
VERTEX
  5
1E7
330
1CE
100
AcDbEntity
  8
Layer 1
370
     0
100
AcDbVertex
100
AcDb2dVertex
 10
1326.034477750089
 20
-772.4355385438703
 30
0.0
  0
VERTEX
  5
1E8
330
1CE
100
AcDbEntity
  8
Layer 1
370
     0
100
AcDbVertex
100
AcDb2dVertex
 10
1326.453745870644
 20
-772.4679224414317
 30
0.0
  0
VERTEX
  5
1E9
330
1CE
100
AcDbEntity
  8
Layer 1
370
     0
100
AcDbVertex
100
AcDb2dVertex
 10
1326.826160692599
 20
-772.5650741341157
 30
0.0
  0
VERTEX
  5
1EA
330
1CE
100
AcDbEntity
  8
Layer 1
370
     0
100
AcDbVertex
100
AcDb2dVertex
 10
1327.151722215955
 20
-772.7269936219225
 30
0.0
  0
VERTEX
  5
1EB
330
1CE
100
AcDbEntity
  8
Layer 1
370
     0
100
AcDbVertex
100
AcDb2dVertex
 10
1327.430430440712
 20
-772.9533363953034
 30
0.0
  0
VERTEX
  5
1EC
330
1CE
100
AcDbEntity
  8
Layer 1
370
     0
100
AcDbVertex
100
AcDb2dVertex
 10
1327.654017137705
 20
-773.2358342250939
 30
0.0
  0
VERTEX
  5
1ED
330
1CE
100
AcDbEntity
  8
Layer 1
370
     0
100
AcDbVertex
100
AcDb2dVertex
 10
1327.813525058672
 20
-773.5658743725808
 30
0.0
  0
VERTEX
  5
1EE
330
1CE
100
AcDbEntity
  8
Layer 1
370
     0
100
AcDbVertex
100
AcDb2dVertex
 10
1327.909298713162
 20
-773.9431123282156
 30
0.0
  0
VERTEX
  5
1EF
330
1CE
100
AcDbEntity
  8
Layer 1
370
     0
100
AcDbVertex
100
AcDb2dVertex
 10
1327.940993591626
 20
-774.3678926015469
 30
0.0
  0
VERTEX
  5
1F0
330
1CE
100
AcDbEntity
  8
Layer 1
370
     0
100
AcDbVertex
100
AcDb2dVertex
 10
1327.940993591626
 20
-774.8150659955323
 30
0.0
  0
VERTEX
  5
1F1
330
1CE
100
AcDbEntity
  8
Layer 1
370
     0
100
AcDbVertex
100
AcDb2dVertex
 10
1327.940993591626
 20
-775.2625838990664
 30
0.0
  0
VERTEX
  5
1F2
330
1CE
100
AcDbEntity
  8
Layer 1
370
     0
100
AcDbVertex
100
AcDb2dVertex
 10
1327.940993591626
 20
-775.7097572930518
 30
0.0
  0
VERTEX
  5
1F3
330
1CE
100
AcDbEntity
  8
Layer 1
370
     0
100
AcDbVertex
100
AcDb2dVertex
 10
1327.940993591626
 20
-776.1572751965857
 30
0.0
  0
VERTEX
  5
1F4
330
1CE
100
AcDbEntity
  8
Layer 1
370
     0
100
AcDbVertex
100
AcDb2dVertex
 10
1327.598895609941
 20
-776.1572751965857
 30
0.0
  0
VERTEX
  5
1F5
330
1CE
100
AcDbEntity
  8
Layer 1
370
     0
100
AcDbVertex
100
AcDb2dVertex
 10
1327.256797628255
 20
-776.1572751965857
 30
0.0
  0
VERTEX
  5
1F6
330
1CE
100
AcDbEntity
  8
Layer 1
370
     0
100
AcDbVertex
100
AcDb2dVertex
 10
1326.91469964657
 20
-776.1572751965857
 30
0.0
  0
VERTEX
  5
1F7
330
1CE
100
AcDbEntity
  8
Layer 1
370
     0
100
AcDbVertex
100
AcDb2dVertex
 10
1326.572601664885
 20
-776.1572751965857
 30
0.0
  0
VERTEX
  5
1F8
330
1CE
100
AcDbEntity
  8
Layer 1
370
     0
100
AcDbVertex
100
AcDb2dVertex
 10
1326.572601664885
 20
-775.7345619805455
 30
0.0
  0
VERTEX
  5
1F9
330
1CE
100
AcDbEntity
  8
Layer 1
370
     0
100
AcDbVertex
100
AcDb2dVertex
 10
1326.572601664885
 20
-775.3118487645054
 30
0.0
  0
VERTEX
  5
1FA
330
1CE
100
AcDbEntity
  8
Layer 1
370
     0
100
AcDbVertex
100
AcDb2dVertex
 10
1326.572601664885
 20
-774.8891355484652
 30
0.0
  0
VERTEX
  5
1FB
330
1CE
100
AcDbEntity
  8
Layer 1
370
     0
100
AcDbVertex
100
AcDb2dVertex
 10
1326.572601664885
 20
-774.466422332425
 30
0.0
  0
VERTEX
  5
1FC
330
1CE
100
AcDbEntity
  8
Layer 1
370
     0
100
AcDbVertex
100
AcDb2dVertex
 10
1326.563644416623
 20
-774.3293075321121
 30
0.0
  0
VERTEX
  5
1FD
330
1CE
100
AcDbEntity
  8
Layer 1
370
     0
100
AcDbVertex
100
AcDb2dVertex
 10
1326.537117181387
 20
-774.2066621328372
 30
0.0
  0
VERTEX
  5
1FE
330
1CE
100
AcDbEntity
  8
Layer 1
370
     0
100
AcDbVertex
100
AcDb2dVertex
 10
1326.493019959175
 20
-774.098830644149
 30
0.0
  0
VERTEX
  5
1FF
330
1CE
100
AcDbEntity
  8
Layer 1
370
     0
100
AcDbVertex
100
AcDb2dVertex
 10
1326.431352749989
 20
-774.0054685564986
 30
0.0
  0
VERTEX
  5
200
330
1CE
100
AcDbEntity
  8
Layer 1
370
     0
100
AcDbVertex
100
AcDb2dVertex
 10
1326.354871630217
 20
-773.9303654749202
 30
0.0
  0
VERTEX
  5
201
330
1CE
100
AcDbEntity
  8
Layer 1
370
     0
100
AcDbVertex
100
AcDb2dVertex
 10
1326.266332676246
 20
-773.8766219853503
 30
0.0
  0
VERTEX
  5
202
330
1CE
100
AcDbEntity
  8
Layer 1
370
     0
100
AcDbVertex
100
AcDb2dVertex
 10
1326.165735888077
 20
-773.844238087789
 30
0.0
  0
VERTEX
  5
203
330
1CE
100
AcDbEntity
  8
Layer 1
370
     0
100
AcDbVertex
100
AcDb2dVertex
 10
1326.052736756161
 20
-773.8335582917847
 30
0.0
  0
VERTEX
  5
204
330
1CE
100
AcDbEntity
  8
Layer 1
370
     0
100
AcDbVertex
100
AcDb2dVertex
 10
1325.948350362957
 20
-773.8432045591434
 30
0.0
  0
VERTEX
  5
205
330
1CE
100
AcDbEntity
  8
Layer 1
370
     0
100
AcDbVertex
100
AcDb2dVertex
 10
1325.851543179822
 20
-773.8728323803166
 30
0.0
  0
VERTEX
  5
206
330
1CE
100
AcDbEntity
  8
Layer 1
370
     0
100
AcDbVertex
100
AcDb2dVertex
 10
1325.761970697205
 20
-773.9220972457556
 30
0.0
  0
VERTEX
  5
207
330
1CE
100
AcDbEntity
  8
Layer 1
370
     0
100
AcDbVertex
100
AcDb2dVertex
 10
1325.679632915108
 20
-773.9909991554606
 30
0.0
  0
VERTEX
  5
208
330
1CE
100
AcDbEntity
  8
Layer 1
370
     0
100
AcDbVertex
100
AcDb2dVertex
 10
1325.610731005403
 20
-774.0733369375581
 30
0.0
  0
VERTEX
  5
209
330
1CE
100
AcDbEntity
  8
Layer 1
370
     0
100
AcDbVertex
100
AcDb2dVertex
 10
1325.561466139964
 20
-774.1629094201746
 30
0.0
  0
VERTEX
  5
20A
330
1CE
100
AcDbEntity
  8
Layer 1
370
     0
100
AcDbVertex
100
AcDb2dVertex
 10
1325.532182828339
 20
-774.2597166033102
 30
0.0
  0
VERTEX
  5
20B
330
1CE
100
AcDbEntity
  8
Layer 1
370
     0
100
AcDbVertex
100
AcDb2dVertex
 10
1325.522192051432
 20
-774.3641029965132
 30
0.0
  0
VERTEX
  5
20C
330
1CE
100
AcDbEntity
  8
Layer 1
370
     0
100
AcDbVertex
100
AcDb2dVertex
 10
1325.531149299694
 20
-774.4726235042986
 30
0.0
  0
VERTEX
  5
20D
330
1CE
100
AcDbEntity
  8
Layer 1
370
     0
100
AcDbVertex
100
AcDb2dVertex
 10
1325.55767653493
 20
-774.5708087256281
 30
0.0
  0
VERTEX
  5
20E
330
1CE
100
AcDbEntity
  8
Layer 1
370
     0
100
AcDbVertex
100
AcDb2dVertex
 10
1325.602462776238
 20
-774.6590031700506
 30
0.0
  0
VERTEX
  5
20F
330
1CE
100
AcDbEntity
  8
Layer 1
370
     0
100
AcDbVertex
100
AcDb2dVertex
 10
1325.664819004521
 20
-774.7372068375657
 30
0.0
  0
VERTEX
  5
210
330
1CE
100
AcDbEntity
  8
Layer 1
370
     0
100
AcDbVertex
100
AcDb2dVertex
 10
1325.740955614745
 20
-774.8012856135914
 30
0.0
  0
VERTEX
  5
211
330
1CE
100
AcDbEntity
  8
Layer 1
370
     0
100
AcDbVertex
100
AcDb2dVertex
 10
1325.826738492328
 20
-774.8471053835452
 30
0.0
  0
VERTEX
  5
212
330
1CE
100
AcDbEntity
  8
Layer 1
370
     0
100
AcDbVertex
100
AcDb2dVertex
 10
1325.922167637269
 20
-774.8746661474272
 30
0.0
  0
VERTEX
  5
213
330
1CE
100
AcDbEntity
  8
Layer 1
370
     0
100
AcDbVertex
100
AcDb2dVertex
 10
1326.02724304957
 20
-774.8836233956888
 30
0.0
  0
VERTEX
  5
214
330
1CE
100
AcDbEntity
  8
Layer 1
370
     0
100
AcDbVertex
100
AcDb2dVertex
 10
1326.115092984443
 20
-774.877766733364
 30
0.0
  0
VERTEX
  5
215
330
1CE
100
AcDbEntity
  8
Layer 1
370
     0
100
AcDbVertex
100
AcDb2dVertex
 10
1326.200186842929
 20
-774.8598522368407
 30
0.0
  0
VERTEX
  5
216
330
1CE
100
AcDbEntity
  8
Layer 1
370
     0
100
AcDbVertex
100
AcDb2dVertex
 10
1326.28183560593
 20
-774.8302244156674
 30
0.0
  0
VERTEX
  5
217
330
1CE
100
AcDbEntity
  8
Layer 1
370
     0
100
AcDbVertex
100
AcDb2dVertex
 10
1326.360039273445
 20
-774.788538760296
 30
0.0
  0
VERTEX
  5
218
330
1CE
100
AcDbEntity
  8
Layer 1
370
     0
100
AcDbVertex
100
AcDb2dVertex
 10
1326.360039273445
 20
-774.788538760296
 30
0.0
  0
SEQEND
  5
219
330
1CE
100
AcDbEntity
  8
Layer 1
370
     0
  0
HATCH
  5
21A
330
1F
100
AcDbEntity
  8
Layer 1
 62
   250
420
  2301728
100
AcDbHatch
 10
0.0
 20
0.0
 30
0.0
210
0.0
220
0.0
230
1.0
  2
SOLID
 70
     1
 71
     0
 91
        1
 92
        1
 93
       72
 72
     1
 10
1326.360039273445
 20
-774.788538760296
 11
1326.360039273445
 21
-775.1426945761797
 72
     1
 10
1326.360039273445
 20
-775.1426945761797
 11
1326.360039273445
 21
-775.4965058825148
 72
     1
 10
1326.360039273445
 20
-775.4965058825148
 11
1326.360039273445
 21
-775.8506616983984
 72
     1
 10
1326.360039273445
 20
-775.8506616983984
 11
1326.360039273445
 21
-776.2048175142821
 72
     1
 10
1326.360039273445
 20
-776.2048175142821
 11
1326.277701491347
 21
-776.2175643675776
 72
     1
 10
1326.277701491347
 20
-776.2175643675776
 11
1326.199153314284
 21
-776.2268661253878
 72
     1
 10
1326.199153314284
 20
-776.2268661253878
 11
1326.124050232705
 21
-776.2323782781642
 72
     1
 10
1326.124050232705
 20
-776.2323782781642
 11
1326.052736756161
 21
-776.2341008259068
 72
     1
 10
1326.052736756161
 20
-776.2341008259068
 11
1325.658273323099
 21
-776.2003388901513
 72
     1
 10
1325.658273323099
 20
-776.2003388901513
 11
1325.297916335342
 21
-776.0987085733365
 72
     1
 10
1325.297916335342
 20
-776.0987085733365
 11
1324.972010302438
 21
-775.9295543850106
 72
     1
 10
1324.972010302438
 20
-775.9295543850106
 11
1324.680555224385
 21
-775.6925318156256
 72
     1
 10
1324.680555224385
 20
-775.6925318156256
 11
1324.440432069063
 21
-775.4045218330587
 72
     1
 10
1324.440432069063
 20
-775.4045218330587
 11
1324.268866313898
 21
-775.0824054051877
 72
     1
 10
1324.268866313898
 20
-775.0824054051877
 11
1324.165857958889
 21
-774.7258380224644
 72
     1
 10
1324.165857958889
 20
-774.7258380224644
 11
1324.131407004037
 21
-774.3348196848885
 72
     1
 10
1324.131407004037
 20
-774.3348196848885
 11
1324.166202468438
 21
-773.9527585955743
 72
     1
 10
1324.166202468438
 20
-773.9527585955743
 11
1324.270244352092
 21
-773.6010143465303
 72
     1
 10
1324.270244352092
 20
-773.6010143465303
 11
1324.443532655
 21
-773.2795869377566
 72
     1
 10
1324.443532655
 20
-773.2795869377566
 11
1324.686067377162
 21
-772.9881318597044
 72
     1
 10
1324.686067377162
 20
-772.9881318597044
 11
1324.978211474311
 21
-772.7462861566398
 72
     1
 10
1324.978211474311
 20
-772.7462861566398
 11
1325.300327902182
 21
-772.5736868728288
 72
     1
 10
1325.300327902182
 20
-772.5736868728288
 11
1325.652416660774
 21
-772.4699894987228
 72
     1
 10
1325.652416660774
 20
-772.4699894987228
 11
1326.034477750089
 21
-772.4355385438703
 72
     1
 10
1326.034477750089
 20
-772.4355385438703
 11
1326.453745870644
 21
-772.4679224414317
 72
     1
 10
1326.453745870644
 20
-772.4679224414317
 11
1326.826160692599
 21
-772.5650741341157
 72
     1
 10
1326.826160692599
 20
-772.5650741341157
 11
1327.151722215955
 21
-772.7269936219225
 72
     1
 10
1327.151722215955
 20
-772.7269936219225
 11
1327.430430440712
 21
-772.9533363953034
 72
     1
 10
1327.430430440712
 20
-772.9533363953034
 11
1327.654017137705
 21
-773.2358342250939
 72
     1
 10
1327.654017137705
 20
-773.2358342250939
 11
1327.813525058672
 21
-773.5658743725808
 72
     1
 10
1327.813525058672
 20
-773.5658743725808
 11
1327.909298713162
 21
-773.9431123282156
 72
     1
 10
1327.909298713162
 20
-773.9431123282156
 11
1327.940993591626
 21
-774.3678926015469
 72
     1
 10
1327.940993591626
 20
-774.3678926015469
 11
1327.940993591626
 21
-774.8150659955323
 72
     1
 10
1327.940993591626
 20
-774.8150659955323
 11
1327.940993591626
 21
-775.2625838990664
 72
     1
 10
1327.940993591626
 20
-775.2625838990664
 11
1327.940993591626
 21
-775.7097572930518
 72
     1
 10
1327.940993591626
 20
-775.7097572930518
 11
1327.940993591626
 21
-776.1572751965857
 72
     1
 10
1327.940993591626
 20
-776.1572751965857
 11
1327.598895609941
 21
-776.1572751965857
 72
     1
 10
1327.598895609941
 20
-776.1572751965857
 11
1327.256797628255
 21
-776.1572751965857
 72
     1
 10
1327.256797628255
 20
-776.1572751965857
 11
1326.91469964657
 21
-776.1572751965857
 72
     1
 10
1326.91469964657
 20
-776.1572751965857
 11
1326.572601664885
 21
-776.1572751965857
 72
     1
 10
1326.572601664885
 20
-776.1572751965857
 11
1326.572601664885
 21
-775.7345619805455
 72
     1
 10
1326.572601664885
 20
-775.7345619805455
 11
1326.572601664885
 21
-775.3118487645054
 72
     1
 10
1326.572601664885
 20
-775.3118487645054
 11
1326.572601664885
 21
-774.8891355484652
 72
     1
 10
1326.572601664885
 20
-774.8891355484652
 11
1326.572601664885
 21
-774.466422332425
 72
     1
 10
1326.572601664885
 20
-774.466422332425
 11
1326.563644416623
 21
-774.3293075321121
 72
     1
 10
1326.563644416623
 20
-774.3293075321121
 11
1326.537117181387
 21
-774.2066621328372
 72
     1
 10
1326.537117181387
 20
-774.2066621328372
 11
1326.493019959175
 21
-774.098830644149
 72
     1
 10
1326.493019959175
 20
-774.098830644149
 11
1326.431352749989
 21
-774.0054685564986
 72
     1
 10
1326.431352749989
 20
-774.0054685564986
 11
1326.354871630217
 21
-773.9303654749202
 72
     1
 10
1326.354871630217
 20
-773.9303654749202
 11
1326.266332676246
 21
-773.8766219853503
 72
     1
 10
1326.266332676246
 20
-773.8766219853503
 11
1326.165735888077
 21
-773.844238087789
 72
     1
 10
1326.165735888077
 20
-773.844238087789
 11
1326.052736756161
 21
-773.8335582917847
 72
     1
 10
1326.052736756161
 20
-773.8335582917847
 11
1325.948350362957
 21
-773.8432045591434
 72
     1
 10
1325.948350362957
 20
-773.8432045591434
 11
1325.851543179822
 21
-773.8728323803166
 72
     1
 10
1325.851543179822
 20
-773.8728323803166
 11
1325.761970697205
 21
-773.9220972457556
 72
     1
 10
1325.761970697205
 20
-773.9220972457556
 11
1325.679632915108
 21
-773.9909991554606
 72
     1
 10
1325.679632915108
 20
-773.9909991554606
 11
1325.610731005403
 21
-774.0733369375581
 72
     1
 10
1325.610731005403
 20
-774.0733369375581
 11
1325.561466139964
 21
-774.1629094201746
 72
     1
 10
1325.561466139964
 20
-774.1629094201746
 11
1325.532182828339
 21
-774.2597166033102
 72
     1
 10
1325.532182828339
 20
-774.2597166033102
 11
1325.522192051432
 21
-774.3641029965132
 72
     1
 10
1325.522192051432
 20
-774.3641029965132
 11
1325.531149299694
 21
-774.4726235042986
 72
     1
 10
1325.531149299694
 20
-774.4726235042986
 11
1325.55767653493
 21
-774.5708087256281
 72
     1
 10
1325.55767653493
 20
-774.5708087256281
 11
1325.602462776238
 21
-774.6590031700506
 72
     1
 10
1325.602462776238
 20
-774.6590031700506
 11
1325.664819004521
 21
-774.7372068375657
 72
     1
 10
1325.664819004521
 20
-774.7372068375657
 11
1325.740955614745
 21
-774.8012856135914
 72
     1
 10
1325.740955614745
 20
-774.8012856135914
 11
1325.826738492328
 21
-774.8471053835452
 72
     1
 10
1325.826738492328
 20
-774.8471053835452
 11
1325.922167637269
 21
-774.8746661474272
 72
     1
 10
1325.922167637269
 20
-774.8746661474272
 11
1326.02724304957
 21
-774.8836233956888
 72
     1
 10
1326.02724304957
 20
-774.8836233956888
 11
1326.115092984443
 21
-774.877766733364
 72
     1
 10
1326.115092984443
 20
-774.877766733364
 11
1326.200186842929
 21
-774.8598522368407
 72
     1
 10
1326.200186842929
 20
-774.8598522368407
 11
1326.28183560593
 21
-774.8302244156674
 72
     1
 10
1326.28183560593
 20
-774.8302244156674
 11
1326.360039273445
 21
-774.788538760296
 97
        0
 75
     2
 76
     1
 98
        0
  0
POLYLINE
  5
21B
330
1F
100
AcDbEntity
  8
Layer 1
370
     0
100
AcDb2dPolyline
 66
     1
 10
0.0
 20
0.0
 30
0.0
  0
VERTEX
  5
21C
330
21B
100
AcDbEntity
  8
Layer 1
370
     0
100
AcDbVertex
100
AcDb2dVertex
 10
1310.622154077726
 20
-769.1289358971276
 30
0.0
  0
VERTEX
  5
21D
330
21B
100
AcDbEntity
  8
Layer 1
370
     0
100
AcDbVertex
100
AcDb2dVertex
 10
1311.982277775303
 20
-769.1289358971276
 30
0.0
  0
VERTEX
  5
21E
330
21B
100
AcDbEntity
  8
Layer 1
370
     0
100
AcDbVertex
100
AcDb2dVertex
 10
1311.982277775303
 20
-778.1902260424316
 30
0.0
  0
VERTEX
  5
21F
330
21B
100
AcDbEntity
  8
Layer 1
370
     0
100
AcDbVertex
100
AcDb2dVertex
 10
1310.622154077726
 20
-778.1902260424316
 30
0.0
  0
VERTEX
  5
220
330
21B
100
AcDbEntity
  8
Layer 1
370
     0
100
AcDbVertex
100
AcDb2dVertex
 10
1310.622154077726
 20
-769.1289358971276
 30
0.0
  0
VERTEX
  5
221
330
21B
100
AcDbEntity
  8
Layer 1
370
     0
100
AcDbVertex
100
AcDb2dVertex
 10
1310.622154077726
 20
-769.1289358971276
 30
0.0
  0
SEQEND
  5
222
330
21B
100
AcDbEntity
  8
Layer 1
370
     0
  0
HATCH
  5
223
330
1F
100
AcDbEntity
  8
Layer 1
 62
   250
420
  2301728
100
AcDbHatch
 10
0.0
 20
0.0
 30
0.0
210
0.0
220
0.0
230
1.0
  2
SOLID
 70
     1
 71
     0
 91
        1
 92
        1
 93
        4
 72
     1
 10
1310.622154077726
 20
-769.1289358971276
 11
1311.982277775303
 21
-769.1289358971276
 72
     1
 10
1311.982277775303
 20
-769.1289358971276
 11
1311.982277775303
 21
-778.1902260424316
 72
     1
 10
1311.982277775303
 20
-778.1902260424316
 11
1310.622154077726
 21
-778.1902260424316
 72
     1
 10
1310.622154077726
 20
-778.1902260424316
 11
1310.622154077726
 21
-769.1289358971276
 97
        0
 75
     2
 76
     1
 98
        0
  0
POLYLINE
  5
224
330
1F
100
AcDbEntity
  8
Layer 1
370
     0
100
AcDb2dPolyline
 66
     1
 10
0.0
 20
0.0
 30
0.0
  0
VERTEX
  5
225
330
224
100
AcDbEntity
  8
Layer 1
370
     0
100
AcDbVertex
100
AcDb2dVertex
 10
1313.210454315795
 20
-769.1289358971276
 30
0.0
  0
VERTEX
  5
226
330
224
100
AcDbEntity
  8
Layer 1
370
     0
100
AcDbVertex
100
AcDb2dVertex
 10
1314.57092252292
 20
-769.1289358971276
 30
0.0
  0
VERTEX
  5
227
330
224
100
AcDbEntity
  8
Layer 1
370
     0
100
AcDbVertex
100
AcDb2dVertex
 10
1314.57092252292
 20
-778.1902260424316
 30
0.0
  0
VERTEX
  5
228
330
224
100
AcDbEntity
  8
Layer 1
370
     0
100
AcDbVertex
100
AcDb2dVertex
 10
1313.210454315795
 20
-778.1902260424316
 30
0.0
  0
VERTEX
  5
229
330
224
100
AcDbEntity
  8
Layer 1
370
     0
100
AcDbVertex
100
AcDb2dVertex
 10
1313.210454315795
 20
-769.1289358971276
 30
0.0
  0
VERTEX
  5
22A
330
224
100
AcDbEntity
  8
Layer 1
370
     0
100
AcDbVertex
100
AcDb2dVertex
 10
1313.210454315795
 20
-769.1289358971276
 30
0.0
  0
SEQEND
  5
22B
330
224
100
AcDbEntity
  8
Layer 1
370
     0
  0
HATCH
  5
22C
330
1F
100
AcDbEntity
  8
Layer 1
 62
   250
420
  2301728
100
AcDbHatch
 10
0.0
 20
0.0
 30
0.0
210
0.0
220
0.0
230
1.0
  2
SOLID
 70
     1
 71
     0
 91
        1
 92
        1
 93
        4
 72
     1
 10
1313.210454315795
 20
-769.1289358971276
 11
1314.57092252292
 21
-769.1289358971276
 72
     1
 10
1314.57092252292
 20
-769.1289358971276
 11
1314.57092252292
 21
-778.1902260424316
 72
     1
 10
1314.57092252292
 20
-778.1902260424316
 11
1313.210454315795
 21
-778.1902260424316
 72
     1
 10
1313.210454315795
 20
-778.1902260424316
 11
1313.210454315795
 21
-769.1289358971276
 97
        0
 75
     2
 76
     1
 98
        0
  0
POLYLINE
  5
22D
330
1F
100
AcDbEntity
  8
Layer 1
370
     0
100
AcDb2dPolyline
 66
     1
 10
0.0
 20
0.0
 30
0.0
  0
VERTEX
  5
22E
330
22D
100
AcDbEntity
  8
Layer 1
370
     0
100
AcDbVertex
100
AcDb2dVertex
 10
1344.312431847082
 20
-780.3334199438056
 30
0.0
  0
VERTEX
  5
22F
330
22D
100
AcDbEntity
  8
Layer 1
370
     0
100
AcDbVertex
100
AcDb2dVertex
 10
1343.641671756104
 20
-780.2769203778474
 30
0.0
  0
VERTEX
  5
230
330
22D
100
AcDbEntity
  8
Layer 1
370
     0
100
AcDbVertex
100
AcDb2dVertex
 10
1342.970911665125
 20
-780.2224878691806
 30
0.0
  0
VERTEX
  5
231
330
22D
100
AcDbEntity
  8
Layer 1
370
     0
100
AcDbVertex
100
AcDb2dVertex
 10
1342.300151574147
 20
-780.1708114369018
 30
0.0
  0
VERTEX
  5
232
330
22D
100
AcDbEntity
  8
Layer 1
370
     0
100
AcDbVertex
100
AcDb2dVertex
 10
1341.629391483169
 20
-780.1212020619142
 30
0.0
  0
VERTEX
  5
233
330
22D
100
AcDbEntity
  8
Layer 1
370
     0
100
AcDbVertex
100
AcDb2dVertex
 10
1340.958631392191
 20
-780.0729707251206
 30
0.0
  0
VERTEX
  5
234
330
22D
100
AcDbEntity
  8
Layer 1
370
     0
100
AcDbVertex
100
AcDb2dVertex
 10
1340.287871301213
 20
-780.0767603301545
 30
0.0
  0
VERTEX
  5
235
330
22D
100
AcDbEntity
  8
Layer 1
370
     0
100
AcDbVertex
100
AcDb2dVertex
 10
1335.132630417085
 20
-780.0767603301545
 30
0.0
  0
VERTEX
  5
236
330
22D
100
AcDbEntity
  8
Layer 1
370
     0
100
AcDbVertex
100
AcDb2dVertex
 10
1331.229337232297
 20
-773.8414820114008
 30
0.0
  0
VERTEX
  5
237
330
22D
100
AcDbEntity
  8
Layer 1
370
     0
100
AcDbVertex
100
AcDb2dVertex
 10
1335.132630417085
 20
-767.6065482021957
 30
0.0
  0
VERTEX
  5
238
330
22D
100
AcDbEntity
  8
Layer 1
370
     0
100
AcDbVertex
100
AcDb2dVertex
 10
1340.287871301213
 20
-767.6065482021957
 30
0.0
  0
VERTEX
  5
239
330
22D
100
AcDbEntity
  8
Layer 1
370
     0
100
AcDbVertex
100
AcDb2dVertex
 10
1340.958631392191
 20
-767.6134383931661
 30
0.0
  0
VERTEX
  5
23A
330
22D
100
AcDbEntity
  8
Layer 1
370
     0
100
AcDbVertex
100
AcDb2dVertex
 10
1341.294183692454
 20
-767.5913897820606
 30
0.0
  0
VERTEX
  5
23B
330
22D
100
AcDbEntity
  8
Layer 1
370
     0
100
AcDbVertex
100
AcDb2dVertex
 10
1341.629391483169
 20
-767.5669296041152
 30
0.0
  0
VERTEX
  5
23C
330
22D
100
AcDbEntity
  8
Layer 1
370
     0
100
AcDbVertex
100
AcDb2dVertex
 10
1342.300151574147
 20
-767.5176647386762
 30
0.0
  0
VERTEX
  5
23D
330
22D
100
AcDbEntity
  8
Layer 1
370
     0
100
AcDbVertex
100
AcDb2dVertex
 10
1342.970911665125
 20
-767.4656437968489
 30
0.0
  0
VERTEX
  5
23E
330
22D
100
AcDbEntity
  8
Layer 1
370
     0
100
AcDbVertex
100
AcDb2dVertex
 10
1343.641671756104
 20
-767.4108667786335
 30
0.0
  0
VERTEX
  5
23F
330
22D
100
AcDbEntity
  8
Layer 1
370
     0
100
AcDbVertex
100
AcDb2dVertex
 10
1344.312431847082
 20
-767.3533336840297
 30
0.0
  0
VERTEX
  5
240
330
22D
100
AcDbEntity
  8
Layer 1
370
     0
100
AcDbVertex
100
AcDb2dVertex
 10
1344.98319193806
 20
-767.2927000034894
 30
0.0
  0
VERTEX
  5
241
330
22D
100
AcDbEntity
  8
Layer 1
370
     0
100
AcDbVertex
100
AcDb2dVertex
 10
1345.653607519489
 20
-767.2265541701726
 30
0.0
  0
VERTEX
  5
242
330
22D
100
AcDbEntity
  8
Layer 1
370
     0
100
AcDbVertex
100
AcDb2dVertex
 10
1344.98319193806
 20
-767.1607528464043
 30
0.0
  0
VERTEX
  5
243
330
22D
100
AcDbEntity
  8
Layer 1
370
     0
100
AcDbVertex
100
AcDb2dVertex
 10
1344.312431847082
 20
-767.1001191658639
 30
0.0
  0
VERTEX
  5
244
330
22D
100
AcDbEntity
  8
Layer 1
370
     0
100
AcDbVertex
100
AcDb2dVertex
 10
1343.641671756104
 20
-767.0425860712602
 30
0.0
  0
VERTEX
  5
245
330
22D
100
AcDbEntity
  8
Layer 1
370
     0
100
AcDbVertex
100
AcDb2dVertex
 10
1342.970911665125
 20
-766.9878090530448
 30
0.0
  0
VERTEX
  5
246
330
22D
100
AcDbEntity
  8
Layer 1
370
     0
100
AcDbVertex
100
AcDb2dVertex
 10
1342.300151574147
 20
-766.9357881112174
 30
0.0
  0
VERTEX
  5
247
330
22D
100
AcDbEntity
  8
Layer 1
370
     0
100
AcDbVertex
100
AcDb2dVertex
 10
1341.629391483169
 20
-766.8865232457784
 30
0.0
  0
VERTEX
  5
248
330
22D
100
AcDbEntity
  8
Layer 1
370
     0
100
AcDbVertex
100
AcDb2dVertex
 10
1341.294183692454
 20
-766.8620630678331
 30
0.0
  0
VERTEX
  5
249
330
22D
100
AcDbEntity
  8
Layer 1
370
     0
100
AcDbVertex
100
AcDb2dVertex
 10
1340.958631392191
 20
-766.8400144567275
 30
0.0
  0
VERTEX
  5
24A
330
22D
100
AcDbEntity
  8
Layer 1
370
     0
100
AcDbVertex
100
AcDb2dVertex
 10
1340.287871301213
 20
-766.846904647698
 30
0.0
  0
VERTEX
  5
24B
330
22D
100
AcDbEntity
  8
Layer 1
370
     0
100
AcDbVertex
100
AcDb2dVertex
 10
1334.922135082936
 20
-766.846904647698
 30
0.0
  0
VERTEX
  5
24C
330
22D
100
AcDbEntity
  8
Layer 1
370
     0
100
AcDbVertex
100
AcDb2dVertex
 10
1334.711984258336
 20
-766.846904647698
 30
0.0
  0
VERTEX
  5
24D
330
22D
100
AcDbEntity
  8
Layer 1
370
     0
100
AcDbVertex
100
AcDb2dVertex
 10
1334.600363164614
 20
-767.025360593834
 30
0.0
  0
VERTEX
  5
24E
330
22D
100
AcDbEntity
  8
Layer 1
370
     0
100
AcDbVertex
100
AcDb2dVertex
 10
1330.781474819215
 20
-773.1259356791144
 30
0.0
  0
VERTEX
  5
24F
330
22D
100
AcDbEntity
  8
Layer 1
370
     0
100
AcDbVertex
100
AcDb2dVertex
 10
1326.962586473815
 20
-767.025360593834
 30
0.0
  0
VERTEX
  5
250
330
22D
100
AcDbEntity
  8
Layer 1
370
     0
100
AcDbVertex
100
AcDb2dVertex
 10
1326.850965380093
 20
-766.846904647698
 30
0.0
  0
VERTEX
  5
251
330
22D
100
AcDbEntity
  8
Layer 1
370
     0
100
AcDbVertex
100
AcDb2dVertex
 10
1326.640814555493
 20
-766.846904647698
 30
0.0
  0
VERTEX
  5
252
330
22D
100
AcDbEntity
  8
Layer 1
370
     0
100
AcDbVertex
100
AcDb2dVertex
 10
1321.275078337216
 20
-766.846904647698
 30
0.0
  0
VERTEX
  5
253
330
22D
100
AcDbEntity
  8
Layer 1
370
     0
100
AcDbVertex
100
AcDb2dVertex
 10
1320.604318246238
 20
-766.8400144567275
 30
0.0
  0
VERTEX
  5
254
330
22D
100
AcDbEntity
  8
Layer 1
370
     0
100
AcDbVertex
100
AcDb2dVertex
 10
1320.268765945975
 20
-766.8620630678331
 30
0.0
  0
VERTEX
  5
255
330
22D
100
AcDbEntity
  8
Layer 1
370
     0
100
AcDbVertex
100
AcDb2dVertex
 10
1319.93355815526
 20
-766.8865232457784
 30
0.0
  0
VERTEX
  5
256
330
22D
100
AcDbEntity
  8
Layer 1
370
     0
100
AcDbVertex
100
AcDb2dVertex
 10
1319.262798064282
 20
-766.9357881112174
 30
0.0
  0
VERTEX
  5
257
330
22D
100
AcDbEntity
  8
Layer 1
370
     0
100
AcDbVertex
100
AcDb2dVertex
 10
1318.592037973303
 20
-766.9878090530448
 30
0.0
  0
VERTEX
  5
258
330
22D
100
AcDbEntity
  8
Layer 1
370
     0
100
AcDbVertex
100
AcDb2dVertex
 10
1317.921277882325
 20
-767.0425860712602
 30
0.0
  0
VERTEX
  5
259
330
22D
100
AcDbEntity
  8
Layer 1
370
     0
100
AcDbVertex
100
AcDb2dVertex
 10
1317.250862300896
 20
-767.1001191658639
 30
0.0
  0
VERTEX
  5
25A
330
22D
100
AcDbEntity
  8
Layer 1
370
     0
100
AcDbVertex
100
AcDb2dVertex
 10
1316.580102209918
 20
-767.1607528464043
 30
0.0
  0
VERTEX
  5
25B
330
22D
100
AcDbEntity
  8
Layer 1
370
     0
100
AcDbVertex
100
AcDb2dVertex
 10
1315.909342118939
 20
-767.2265541701726
 30
0.0
  0
VERTEX
  5
25C
330
22D
100
AcDbEntity
  8
Layer 1
370
     0
100
AcDbVertex
100
AcDb2dVertex
 10
1316.580102209918
 20
-767.2927000034894
 30
0.0
  0
VERTEX
  5
25D
330
22D
100
AcDbEntity
  8
Layer 1
370
     0
100
AcDbVertex
100
AcDb2dVertex
 10
1317.250862300896
 20
-767.3533336840297
 30
0.0
  0
VERTEX
  5
25E
330
22D
100
AcDbEntity
  8
Layer 1
370
     0
100
AcDbVertex
100
AcDb2dVertex
 10
1317.921277882325
 20
-767.4108667786335
 30
0.0
  0
VERTEX
  5
25F
330
22D
100
AcDbEntity
  8
Layer 1
370
     0
100
AcDbVertex
100
AcDb2dVertex
 10
1318.592037973303
 20
-767.4656437968489
 30
0.0
  0
VERTEX
  5
260
330
22D
100
AcDbEntity
  8
Layer 1
370
     0
100
AcDbVertex
100
AcDb2dVertex
 10
1319.262798064282
 20
-767.5176647386762
 30
0.0
  0
VERTEX
  5
261
330
22D
100
AcDbEntity
  8
Layer 1
370
     0
100
AcDbVertex
100
AcDb2dVertex
 10
1319.93355815526
 20
-767.5669296041152
 30
0.0
  0
VERTEX
  5
262
330
22D
100
AcDbEntity
  8
Layer 1
370
     0
100
AcDbVertex
100
AcDb2dVertex
 10
1320.268765945975
 20
-767.5913897820606
 30
0.0
  0
VERTEX
  5
263
330
22D
100
AcDbEntity
  8
Layer 1
370
     0
100
AcDbVertex
100
AcDb2dVertex
 10
1320.604318246238
 20
-767.6134383931661
 30
0.0
  0
VERTEX
  5
264
330
22D
100
AcDbEntity
  8
Layer 1
370
     0
100
AcDbVertex
100
AcDb2dVertex
 10
1321.275078337216
 20
-767.6065482021957
 30
0.0
  0
VERTEX
  5
265
330
22D
100
AcDbEntity
  8
Layer 1
370
     0
100
AcDbVertex
100
AcDb2dVertex
 10
1326.430663730892
 20
-767.6065482021957
 30
0.0
  0
VERTEX
  5
266
330
22D
100
AcDbEntity
  8
Layer 1
370
     0
100
AcDbVertex
100
AcDb2dVertex
 10
1330.333612406132
 20
-773.8414820114008
 30
0.0
  0
VERTEX
  5
267
330
22D
100
AcDbEntity
  8
Layer 1
370
     0
100
AcDbVertex
100
AcDb2dVertex
 10
1326.430663730892
 20
-780.0767603301545
 30
0.0
  0
VERTEX
  5
268
330
22D
100
AcDbEntity
  8
Layer 1
370
     0
100
AcDbVertex
100
AcDb2dVertex
 10
1321.275078337216
 20
-780.0767603301545
 30
0.0
  0
VERTEX
  5
269
330
22D
100
AcDbEntity
  8
Layer 1
370
     0
100
AcDbVertex
100
AcDb2dVertex
 10
1320.604318246238
 20
-780.0729707251206
 30
0.0
  0
VERTEX
  5
26A
330
22D
100
AcDbEntity
  8
Layer 1
370
     0
100
AcDbVertex
100
AcDb2dVertex
 10
1319.93355815526
 20
-780.1212020619142
 30
0.0
  0
VERTEX
  5
26B
330
22D
100
AcDbEntity
  8
Layer 1
370
     0
100
AcDbVertex
100
AcDb2dVertex
 10
1319.262798064282
 20
-780.1708114369018
 30
0.0
  0
VERTEX
  5
26C
330
22D
100
AcDbEntity
  8
Layer 1
370
     0
100
AcDbVertex
100
AcDb2dVertex
 10
1318.592037973303
 20
-780.2224878691806
 30
0.0
  0
VERTEX
  5
26D
330
22D
100
AcDbEntity
  8
Layer 1
370
     0
100
AcDbVertex
100
AcDb2dVertex
 10
1317.921277882325
 20
-780.2769203778474
 30
0.0
  0
VERTEX
  5
26E
330
22D
100
AcDbEntity
  8
Layer 1
370
     0
100
AcDbVertex
100
AcDb2dVertex
 10
1317.250862300896
 20
-780.3334199438056
 30
0.0
  0
VERTEX
  5
26F
330
22D
100
AcDbEntity
  8
Layer 1
370
     0
100
AcDbVertex
100
AcDb2dVertex
 10
1316.580102209918
 20
-780.3926755861519
 30
0.0
  0
VERTEX
  5
270
330
22D
100
AcDbEntity
  8
Layer 1
370
     0
100
AcDbVertex
100
AcDb2dVertex
 10
1315.909342118939
 20
-780.456409852629
 30
0.0
  0
VERTEX
  5
271
330
22D
100
AcDbEntity
  8
Layer 1
370
     0
100
AcDbVertex
100
AcDb2dVertex
 10
1316.580102209918
 20
-780.5201441191061
 30
0.0
  0
VERTEX
  5
272
330
22D
100
AcDbEntity
  8
Layer 1
370
     0
100
AcDbVertex
100
AcDb2dVertex
 10
1317.250862300896
 20
-780.5793997614525
 30
0.0
  0
VERTEX
  5
273
330
22D
100
AcDbEntity
  8
Layer 1
370
     0
100
AcDbVertex
100
AcDb2dVertex
 10
1317.921277882325
 20
-780.6358993274105
 30
0.0
  0
VERTEX
  5
274
330
22D
100
AcDbEntity
  8
Layer 1
370
     0
100
AcDbVertex
100
AcDb2dVertex
 10
1318.592037973303
 20
-780.6903318360775
 30
0.0
  0
VERTEX
  5
275
330
22D
100
AcDbEntity
  8
Layer 1
370
     0
100
AcDbVertex
100
AcDb2dVertex
 10
1319.262798064282
 20
-780.7420082683562
 30
0.0
  0
VERTEX
  5
276
330
22D
100
AcDbEntity
  8
Layer 1
370
     0
100
AcDbVertex
100
AcDb2dVertex
 10
1319.93355815526
 20
-780.7916176433438
 30
0.0
  0
VERTEX
  5
277
330
22D
100
AcDbEntity
  8
Layer 1
370
     0
100
AcDbVertex
100
AcDb2dVertex
 10
1320.604318246238
 20
-780.8398489801373
 30
0.0
  0
VERTEX
  5
278
330
22D
100
AcDbEntity
  8
Layer 1
370
     0
100
AcDbVertex
100
AcDb2dVertex
 10
1321.275078337216
 20
-780.8360593751036
 30
0.0
  0
VERTEX
  5
279
330
22D
100
AcDbEntity
  8
Layer 1
370
     0
100
AcDbVertex
100
AcDb2dVertex
 10
1326.640814555493
 20
-780.8360593751036
 30
0.0
  0
VERTEX
  5
27A
330
22D
100
AcDbEntity
  8
Layer 1
370
     0
100
AcDbVertex
100
AcDb2dVertex
 10
1326.850965380093
 20
-780.8360593751036
 30
0.0
  0
VERTEX
  5
27B
330
22D
100
AcDbEntity
  8
Layer 1
370
     0
100
AcDbVertex
100
AcDb2dVertex
 10
1326.962586473815
 20
-780.6579479385161
 30
0.0
  0
VERTEX
  5
27C
330
22D
100
AcDbEntity
  8
Layer 1
370
     0
100
AcDbVertex
100
AcDb2dVertex
 10
1330.781474819215
 20
-774.5570283436872
 30
0.0
  0
VERTEX
  5
27D
330
22D
100
AcDbEntity
  8
Layer 1
370
     0
100
AcDbVertex
100
AcDb2dVertex
 10
1334.600363164614
 20
-780.6579479385161
 30
0.0
  0
VERTEX
  5
27E
330
22D
100
AcDbEntity
  8
Layer 1
370
     0
100
AcDbVertex
100
AcDb2dVertex
 10
1334.711984258336
 20
-780.8360593751036
 30
0.0
  0
VERTEX
  5
27F
330
22D
100
AcDbEntity
  8
Layer 1
370
     0
100
AcDbVertex
100
AcDb2dVertex
 10
1334.922135082936
 20
-780.8360593751036
 30
0.0
  0
VERTEX
  5
280
330
22D
100
AcDbEntity
  8
Layer 1
370
     0
100
AcDbVertex
100
AcDb2dVertex
 10
1340.287871301213
 20
-780.8360593751036
 30
0.0
  0
VERTEX
  5
281
330
22D
100
AcDbEntity
  8
Layer 1
370
     0
100
AcDbVertex
100
AcDb2dVertex
 10
1340.958631392191
 20
-780.8398489801373
 30
0.0
  0
VERTEX
  5
282
330
22D
100
AcDbEntity
  8
Layer 1
370
     0
100
AcDbVertex
100
AcDb2dVertex
 10
1341.629391483169
 20
-780.7916176433438
 30
0.0
  0
VERTEX
  5
283
330
22D
100
AcDbEntity
  8
Layer 1
370
     0
100
AcDbVertex
100
AcDb2dVertex
 10
1342.300151574147
 20
-780.7420082683562
 30
0.0
  0
VERTEX
  5
284
330
22D
100
AcDbEntity
  8
Layer 1
370
     0
100
AcDbVertex
100
AcDb2dVertex
 10
1342.970911665125
 20
-780.6903318360775
 30
0.0
  0
VERTEX
  5
285
330
22D
100
AcDbEntity
  8
Layer 1
370
     0
100
AcDbVertex
100
AcDb2dVertex
 10
1343.641671756104
 20
-780.6358993274105
 30
0.0
  0
VERTEX
  5
286
330
22D
100
AcDbEntity
  8
Layer 1
370
     0
100
AcDbVertex
100
AcDb2dVertex
 10
1344.312431847082
 20
-780.5793997614525
 30
0.0
  0
VERTEX
  5
287
330
22D
100
AcDbEntity
  8
Layer 1
370
     0
100
AcDbVertex
100
AcDb2dVertex
 10
1344.98319193806
 20
-780.5201441191061
 30
0.0
  0
VERTEX
  5
288
330
22D
100
AcDbEntity
  8
Layer 1
370
     0
100
AcDbVertex
100
AcDb2dVertex
 10
1345.653607519489
 20
-780.456409852629
 30
0.0
  0
VERTEX
  5
289
330
22D
100
AcDbEntity
  8
Layer 1
370
     0
100
AcDbVertex
100
AcDb2dVertex
 10
1344.98319193806
 20
-780.3926755861519
 30
0.0
  0
VERTEX
  5
28A
330
22D
100
AcDbEntity
  8
Layer 1
370
     0
100
AcDbVertex
100
AcDb2dVertex
 10
1344.312431847082
 20
-780.3334199438056
 30
0.0
  0
VERTEX
  5
28B
330
22D
100
AcDbEntity
  8
Layer 1
370
     0
100
AcDbVertex
100
AcDb2dVertex
 10
1344.312431847082
 20
-780.3334199438056
 30
0.0
  0
SEQEND
  5
28C
330
22D
100
AcDbEntity
  8
Layer 1
370
     0
  0
HATCH
  5
28D
330
1F
100
AcDbEntity
  8
Layer 1
 62
   250
420
  2301728
100
AcDbHatch
 10
0.0
 20
0.0
 30
0.0
210
0.0
220
0.0
230
1.0
  2
SOLID
 70
     1
 71
     0
 91
        1
 92
        1
 93
       92
 72
     1
 10
1344.312431847082
 20
-780.3334199438056
 11
1343.641671756104
 21
-780.2769203778474
 72
     1
 10
1343.641671756104
 20
-780.2769203778474
 11
1342.970911665125
 21
-780.2224878691806
 72
     1
 10
1342.970911665125
 20
-780.2224878691806
 11
1342.300151574147
 21
-780.1708114369018
 72
     1
 10
1342.300151574147
 20
-780.1708114369018
 11
1341.629391483169
 21
-780.1212020619142
 72
     1
 10
1341.629391483169
 20
-780.1212020619142
 11
1340.958631392191
 21
-780.0729707251206
 72
     1
 10
1340.958631392191
 20
-780.0729707251206
 11
1340.287871301213
 21
-780.0767603301545
 72
     1
 10
1340.287871301213
 20
-780.0767603301545
 11
1335.132630417085
 21
-780.0767603301545
 72
     1
 10
1335.132630417085
 20
-780.0767603301545
 11
1331.229337232297
 21
-773.8414820114008
 72
     1
 10
1331.229337232297
 20
-773.8414820114008
 11
1335.132630417085
 21
-767.6065482021957
 72
     1
 10
1335.132630417085
 20
-767.6065482021957
 11
1340.287871301213
 21
-767.6065482021957
 72
     1
 10
1340.287871301213
 20
-767.6065482021957
 11
1340.958631392191
 21
-767.6134383931661
 72
     1
 10
1340.958631392191
 20
-767.6134383931661
 11
1341.294183692454
 21
-767.5913897820606
 72
     1
 10
1341.294183692454
 20
-767.5913897820606
 11
1341.629391483169
 21
-767.5669296041152
 72
     1
 10
1341.629391483169
 20
-767.5669296041152
 11
1342.300151574147
 21
-767.5176647386762
 72
     1
 10
1342.300151574147
 20
-767.5176647386762
 11
1342.970911665125
 21
-767.4656437968489
 72
     1
 10
1342.970911665125
 20
-767.4656437968489
 11
1343.641671756104
 21
-767.4108667786335
 72
     1
 10
1343.641671756104
 20
-767.4108667786335
 11
1344.312431847082
 21
-767.3533336840297
 72
     1
 10
1344.312431847082
 20
-767.3533336840297
 11
1344.98319193806
 21
-767.2927000034894
 72
     1
 10
1344.98319193806
 20
-767.2927000034894
 11
1345.653607519489
 21
-767.2265541701726
 72
     1
 10
1345.653607519489
 20
-767.2265541701726
 11
1344.98319193806
 21
-767.1607528464043
 72
     1
 10
1344.98319193806
 20
-767.1607528464043
 11
1344.312431847082
 21
-767.1001191658639
 72
     1
 10
1344.312431847082
 20
-767.1001191658639
 11
1343.641671756104
 21
-767.0425860712602
 72
     1
 10
1343.641671756104
 20
-767.0425860712602
 11
1342.970911665125
 21
-766.9878090530448
 72
     1
 10
1342.970911665125
 20
-766.9878090530448
 11
1342.300151574147
 21
-766.9357881112174
 72
     1
 10
1342.300151574147
 20
-766.9357881112174
 11
1341.629391483169
 21
-766.8865232457784
 72
     1
 10
1341.629391483169
 20
-766.8865232457784
 11
1341.294183692454
 21
-766.8620630678331
 72
     1
 10
1341.294183692454
 20
-766.8620630678331
 11
1340.958631392191
 21
-766.8400144567275
 72
     1
 10
1340.958631392191
 20
-766.8400144567275
 11
1340.287871301213
 21
-766.846904647698
 72
     1
 10
1340.287871301213
 20
-766.846904647698
 11
1334.922135082936
 21
-766.846904647698
 72
     1
 10
1334.922135082936
 20
-766.846904647698
 11
1334.711984258336
 21
-766.846904647698
 72
     1
 10
1334.711984258336
 20
-766.846904647698
 11
1334.600363164614
 21
-767.025360593834
 72
     1
 10
1334.600363164614
 20
-767.025360593834
 11
1330.781474819215
 21
-773.1259356791144
 72
     1
 10
1330.781474819215
 20
-773.1259356791144
 11
1326.962586473815
 21
-767.025360593834
 72
     1
 10
1326.962586473815
 20
-767.025360593834
 11
1326.850965380093
 21
-766.846904647698
 72
     1
 10
1326.850965380093
 20
-766.846904647698
 11
1326.640814555493
 21
-766.846904647698
 72
     1
 10
1326.640814555493
 20
-766.846904647698
 11
1321.275078337216
 21
-766.846904647698
 72
     1
 10
1321.275078337216
 20
-766.846904647698
 11
1320.604318246238
 21
-766.8400144567275
 72
     1
 10
1320.604318246238
 20
-766.8400144567275
 11
1320.268765945975
 21
-766.8620630678331
 72
     1
 10
1320.268765945975
 20
-766.8620630678331
 11
1319.93355815526
 21
-766.8865232457784
 72
     1
 10
1319.93355815526
 20
-766.8865232457784
 11
1319.262798064282
 21
-766.9357881112174
 72
     1
 10
1319.262798064282
 20
-766.9357881112174
 11
1318.592037973303
 21
-766.9878090530448
 72
     1
 10
1318.592037973303
 20
-766.9878090530448
 11
1317.921277882325
 21
-767.0425860712602
 72
     1
 10
1317.921277882325
 20
-767.0425860712602
 11
1317.250862300896
 21
-767.1001191658639
 72
     1
 10
1317.250862300896
 20
-767.1001191658639
 11
1316.580102209918
 21
-767.1607528464043
 72
     1
 10
1316.580102209918
 20
-767.1607528464043
 11
1315.909342118939
 21
-767.2265541701726
 72
     1
 10
1315.909342118939
 20
-767.2265541701726
 11
1316.580102209918
 21
-767.2927000034894
 72
     1
 10
1316.580102209918
 20
-767.2927000034894
 11
1317.250862300896
 21
-767.3533336840297
 72
     1
 10
1317.250862300896
 20
-767.3533336840297
 11
1317.921277882325
 21
-767.4108667786335
 72
     1
 10
1317.921277882325
 20
-767.4108667786335
 11
1318.592037973303
 21
-767.4656437968489
 72
     1
 10
1318.592037973303
 20
-767.4656437968489
 11
1319.262798064282
 21
-767.5176647386762
 72
     1
 10
1319.262798064282
 20
-767.5176647386762
 11
1319.93355815526
 21
-767.5669296041152
 72
     1
 10
1319.93355815526
 20
-767.5669296041152
 11
1320.268765945975
 21
-767.5913897820606
 72
     1
 10
1320.268765945975
 20
-767.5913897820606
 11
1320.604318246238
 21
-767.6134383931661
 72
     1
 10
1320.604318246238
 20
-767.6134383931661
 11
1321.275078337216
 21
-767.6065482021957
 72
     1
 10
1321.275078337216
 20
-767.6065482021957
 11
1326.430663730892
 21
-767.6065482021957
 72
     1
 10
1326.430663730892
 20
-767.6065482021957
 11
1330.333612406132
 21
-773.8414820114008
 72
     1
 10
1330.333612406132
 20
-773.8414820114008
 11
1326.430663730892
 21
-780.0767603301545
 72
     1
 10
1326.430663730892
 20
-780.0767603301545
 11
1321.275078337216
 21
-780.0767603301545
 72
     1
 10
1321.275078337216
 20
-780.0767603301545
 11
1320.604318246238
 21
-780.0729707251206
 72
     1
 10
1320.604318246238
 20
-780.0729707251206
 11
1319.93355815526
 21
-780.1212020619142
 72
     1
 10
1319.93355815526
 20
-780.1212020619142
 11
1319.262798064282
 21
-780.1708114369018
 72
     1
 10
1319.262798064282
 20
-780.1708114369018
 11
1318.592037973303
 21
-780.2224878691806
 72
     1
 10
1318.592037973303
 20
-780.2224878691806
 11
1317.921277882325
 21
-780.2769203778474
 72
     1
 10
1317.921277882325
 20
-780.2769203778474
 11
1317.250862300896
 21
-780.3334199438056
 72
     1
 10
1317.250862300896
 20
-780.3334199438056
 11
1316.580102209918
 21
-780.3926755861519
 72
     1
 10
1316.580102209918
 20
-780.3926755861519
 11
1315.909342118939
 21
-780.456409852629
 72
     1
 10
1315.909342118939
 20
-780.456409852629
 11
1316.580102209918
 21
-780.5201441191061
 72
     1
 10
1316.580102209918
 20
-780.5201441191061
 11
1317.250862300896
 21
-780.5793997614525
 72
     1
 10
1317.250862300896
 20
-780.5793997614525
 11
1317.921277882325
 21
-780.6358993274105
 72
     1
 10
1317.921277882325
 20
-780.6358993274105
 11
1318.592037973303
 21
-780.6903318360775
 72
     1
 10
1318.592037973303
 20
-780.6903318360775
 11
1319.262798064282
 21
-780.7420082683562
 72
     1
 10
1319.262798064282
 20
-780.7420082683562
 11
1319.93355815526
 21
-780.7916176433438
 72
     1
 10
1319.93355815526
 20
-780.7916176433438
 11
1320.604318246238
 21
-780.8398489801373
 72
     1
 10
1320.604318246238
 20
-780.8398489801373
 11
1321.275078337216
 21
-780.8360593751036
 72
     1
 10
1321.275078337216
 20
-780.8360593751036
 11
1326.640814555493
 21
-780.8360593751036
 72
     1
 10
1326.640814555493
 20
-780.8360593751036
 11
1326.850965380093
 21
-780.8360593751036
 72
     1
 10
1326.850965380093
 20
-780.8360593751036
 11
1326.962586473815
 21
-780.6579479385161
 72
     1
 10
1326.962586473815
 20
-780.6579479385161
 11
1330.781474819215
 21
-774.5570283436872
 72
     1
 10
1330.781474819215
 20
-774.5570283436872
 11
1334.600363164614
 21
-780.6579479385161
 72
     1
 10
1334.600363164614
 20
-780.6579479385161
 11
1334.711984258336
 21
-780.8360593751036
 72
     1
 10
1334.711984258336
 20
-780.8360593751036
 11
1334.922135082936
 21
-780.8360593751036
 72
     1
 10
1334.922135082936
 20
-780.8360593751036
 11
1340.287871301213
 21
-780.8360593751036
 72
     1
 10
1340.287871301213
 20
-780.8360593751036
 11
1340.958631392191
 21
-780.8398489801373
 72
     1
 10
1340.958631392191
 20
-780.8398489801373
 11
1341.629391483169
 21
-780.7916176433438
 72
     1
 10
1341.629391483169
 20
-780.7916176433438
 11
1342.300151574147
 21
-780.7420082683562
 72
     1
 10
1342.300151574147
 20
-780.7420082683562
 11
1342.970911665125
 21
-780.6903318360775
 72
     1
 10
1342.970911665125
 20
-780.6903318360775
 11
1343.641671756104
 21
-780.6358993274105
 72
     1
 10
1343.641671756104
 20
-780.6358993274105
 11
1344.312431847082
 21
-780.5793997614525
 72
     1
 10
1344.312431847082
 20
-780.5793997614525
 11
1344.98319193806
 21
-780.5201441191061
 72
     1
 10
1344.98319193806
 20
-780.5201441191061
 11
1345.653607519489
 21
-780.456409852629
 72
     1
 10
1345.653607519489
 20
-780.456409852629
 11
1344.98319193806
 21
-780.3926755861519
 72
     1
 10
1344.98319193806
 20
-780.3926755861519
 11
1344.312431847082
 21
-780.3334199438056
 97
        0
 75
     2
 76
     1
 98
        0
  0
POLYLINE
  5
28E
330
1F
100
AcDbEntity
  8
Layer 1
370
     0
100
AcDb2dPolyline
 66
     1
 10
0.0
 20
0.0
 30
0.0
  0
VERTEX
  5
28F
330
28E
100
AcDbEntity
  8
Layer 1
370
     0
100
AcDbVertex
100
AcDb2dVertex
 10
1342.298429026405
 20
-773.60342591337
 30
0.0
  0
VERTEX
  5
290
330
28E
100
AcDbEntity
  8
Layer 1
370
     0
100
AcDbVertex
100
AcDb2dVertex
 10
1342.125140723497
 20
-773.2826875236932
 30
0.0
  0
VERTEX
  5
291
330
28E
100
AcDbEntity
  8
Layer 1
370
     0
100
AcDbVertex
100
AcDb2dVertex
 10
1341.882606001335
 20
-772.9898544074471
 30
0.0
  0
VERTEX
  5
292
330
28E
100
AcDbEntity
  8
Layer 1
370
     0
100
AcDbVertex
100
AcDb2dVertex
 10
1341.591495432831
 20
-772.7459416470913
 30
0.0
  0
VERTEX
  5
293
330
28E
100
AcDbEntity
  8
Layer 1
370
     0
100
AcDbVertex
100
AcDb2dVertex
 10
1341.272824100446
 20
-772.5716198155377
 30
0.0
  0
VERTEX
  5
294
330
28E
100
AcDbEntity
  8
Layer 1
370
     0
100
AcDbVertex
100
AcDb2dVertex
 10
1340.92624749463
 20
-772.4668889127861
 30
0.0
  0
VERTEX
  5
295
330
28E
100
AcDbEntity
  8
Layer 1
370
     0
100
AcDbVertex
100
AcDb2dVertex
 10
1340.55245463448
 20
-772.4320934483851
 30
0.0
  0
VERTEX
  5
296
330
28E
100
AcDbEntity
  8
Layer 1
370
     0
100
AcDbVertex
100
AcDb2dVertex
 10
1340.517659170079
 20
-772.4351940343217
 30
0.0
  0
VERTEX
  5
297
330
28E
100
AcDbEntity
  8
Layer 1
370
     0
100
AcDbVertex
100
AcDb2dVertex
 10
1340.517659170079
 20
-773.7822263690545
 30
0.0
  0
VERTEX
  5
298
330
28E
100
AcDbEntity
  8
Layer 1
370
     0
100
AcDbVertex
100
AcDb2dVertex
 10
1340.623079091928
 20
-773.7922171459617
 30
0.0
  0
VERTEX
  5
299
330
28E
100
AcDbEntity
  8
Layer 1
370
     0
100
AcDbVertex
100
AcDb2dVertex
 10
1340.721608822806
 20
-773.8221894766833
 30
0.0
  0
VERTEX
  5
29A
330
28E
100
AcDbEntity
  8
Layer 1
370
     0
100
AcDbVertex
100
AcDb2dVertex
 10
1340.811525814971
 20
-773.871798851671
 30
0.0
  0
VERTEX
  5
29B
330
28E
100
AcDbEntity
  8
Layer 1
370
     0
100
AcDbVertex
100
AcDb2dVertex
 10
1340.892485558874
 20
-773.9413897804731
 30
0.0
  0
VERTEX
  5
29C
330
28E
100
AcDbEntity
  8
Layer 1
370
     0
100
AcDbVertex
100
AcDb2dVertex
 10
1340.960009430385
 20
-774.0254501103132
 30
0.0
  0
VERTEX
  5
29D
330
28E
100
AcDbEntity
  8
Layer 1
370
     0
100
AcDbVertex
100
AcDb2dVertex
 10
1341.00789625763
 20
-774.1184676884149
 30
0.0
  0
VERTEX
  5
29E
330
28E
100
AcDbEntity
  8
Layer 1
370
     0
100
AcDbVertex
100
AcDb2dVertex
 10
1341.036835059706
 20
-774.2204425147783
 30
0.0
  0
VERTEX
  5
29F
330
28E
100
AcDbEntity
  8
Layer 1
370
     0
100
AcDbVertex
100
AcDb2dVertex
 10
1341.046481327065
 20
-774.3310300798548
 30
0.0
  0
VERTEX
  5
2A0
330
28E
100
AcDbEntity
  8
Layer 1
370
     0
100
AcDbVertex
100
AcDb2dVertex
 10
1341.036490550158
 20
-774.4405841162858
 30
0.0
  0
VERTEX
  5
2A1
330
28E
100
AcDbEntity
  8
Layer 1
370
     0
100
AcDbVertex
100
AcDb2dVertex
 10
1341.007551748082
 20
-774.5415254140036
 30
0.0
  0
VERTEX
  5
2A2
330
28E
100
AcDbEntity
  8
Layer 1
370
     0
100
AcDbVertex
100
AcDb2dVertex
 10
1340.958975901739
 20
-774.6345429921053
 30
0.0
  0
VERTEX
  5
2A3
330
28E
100
AcDbEntity
  8
Layer 1
370
     0
100
AcDbVertex
100
AcDb2dVertex
 10
1340.890763011132
 20
-774.7189478314939
 30
0.0
  0
VERTEX
  5
2A4
330
28E
100
AcDbEntity
  8
Layer 1
370
     0
100
AcDbVertex
100
AcDb2dVertex
 10
1340.809114248131
 20
-774.7895722889415
 30
0.0
  0
VERTEX
  5
2A5
330
28E
100
AcDbEntity
  8
Layer 1
370
     0
100
AcDbVertex
100
AcDb2dVertex
 10
1340.719197255966
 20
-774.8398706830262
 30
0.0
  0
VERTEX
  5
2A6
330
28E
100
AcDbEntity
  8
Layer 1
370
     0
100
AcDbVertex
100
AcDb2dVertex
 10
1340.621356544185
 20
-774.8701875232964
 30
0.0
  0
VERTEX
  5
2A7
330
28E
100
AcDbEntity
  8
Layer 1
370
     0
100
AcDbVertex
100
AcDb2dVertex
 10
1340.517659170079
 20
-774.8798337906551
 30
0.0
  0
VERTEX
  5
2A8
330
28E
100
AcDbEntity
  8
Layer 1
370
     0
100
AcDbVertex
100
AcDb2dVertex
 10
1340.517659170079
 20
-776.230311220873
 30
0.0
  0
VERTEX
  5
2A9
330
28E
100
AcDbEntity
  8
Layer 1
370
     0
100
AcDbVertex
100
AcDb2dVertex
 10
1340.519381717822
 20
-776.230311220873
 30
0.0
  0
VERTEX
  5
2AA
330
28E
100
AcDbEntity
  8
Layer 1
370
     0
100
AcDbVertex
100
AcDb2dVertex
 10
1340.901787316684
 20
-776.195515756472
 30
0.0
  0
VERTEX
  5
2AB
330
28E
100
AcDbEntity
  8
Layer 1
370
     0
100
AcDbVertex
100
AcDb2dVertex
 10
1341.255254113471
 20
-776.0914738728175
 30
0.0
  0
VERTEX
  5
2AC
330
28E
100
AcDbEntity
  8
Layer 1
370
     0
100
AcDbVertex
100
AcDb2dVertex
 10
1341.579782108181
 20
-775.9174965508123
 30
0.0
  0
VERTEX
  5
2AD
330
28E
100
AcDbEntity
  8
Layer 1
370
     0
100
AcDbVertex
100
AcDb2dVertex
 10
1341.875026791267
 20
-775.6742728095537
 30
0.0
  0
VERTEX
  5
2AE
330
28E
100
AcDbEntity
  8
Layer 1
370
     0
100
AcDbVertex
100
AcDb2dVertex
 10
1342.121006608914
 20
-775.3814396933075
 30
0.0
  0
VERTEX
  5
2AF
330
28E
100
AcDbEntity
  8
Layer 1
370
     0
100
AcDbVertex
100
AcDb2dVertex
 10
1342.296361969113
 20
-775.0593232654365
 30
0.0
  0
VERTEX
  5
2B0
330
28E
100
AcDbEntity
  8
Layer 1
370
     0
100
AcDbVertex
100
AcDb2dVertex
 10
1342.401781890962
 20
-774.707923525941
 30
0.0
  0
VERTEX
  5
2B1
330
28E
100
AcDbEntity
  8
Layer 1
370
     0
100
AcDbVertex
100
AcDb2dVertex
 10
1342.436921864912
 20
-774.3275849843695
 30
0.0
  0
VERTEX
  5
2B2
330
28E
100
AcDbEntity
  8
Layer 1
370
     0
100
AcDbVertex
100
AcDb2dVertex
 10
1342.402126400511
 20
-773.9517250669288
 30
0.0
  0
VERTEX
  5
2B3
330
28E
100
AcDbEntity
  8
Layer 1
370
     0
100
AcDbVertex
100
AcDb2dVertex
 10
1342.298429026405
 20
-773.60342591337
 30
0.0
  0
SEQEND
  5
2B4
330
28E
100
AcDbEntity
  8
Layer 1
370
     0
  0
HATCH
  5
2B5
330
1F
100
AcDbEntity
  8
Layer 1
 62
   250
420
  2301728
100
AcDbHatch
 10
0.0
 20
0.0
 30
0.0
210
0.0
220
0.0
230
1.0
  2
SOLID
 70
     1
 71
     0
 91
        1
 92
        1
 93
       36
 72
     1
 10
1342.298429026405
 20
-773.60342591337
 11
1342.125140723497
 21
-773.2826875236932
 72
     1
 10
1342.125140723497
 20
-773.2826875236932
 11
1341.882606001335
 21
-772.9898544074471
 72
     1
 10
1341.882606001335
 20
-772.9898544074471
 11
1341.591495432831
 21
-772.7459416470913
 72
     1
 10
1341.591495432831
 20
-772.7459416470913
 11
1341.272824100446
 21
-772.5716198155377
 72
     1
 10
1341.272824100446
 20
-772.5716198155377
 11
1340.92624749463
 21
-772.4668889127861
 72
     1
 10
1340.92624749463
 20
-772.4668889127861
 11
1340.55245463448
 21
-772.4320934483851
 72
     1
 10
1340.55245463448
 20
-772.4320934483851
 11
1340.517659170079
 21
-772.4351940343217
 72
     1
 10
1340.517659170079
 20
-772.4351940343217
 11
1340.517659170079
 21
-773.7822263690545
 72
     1
 10
1340.517659170079
 20
-773.7822263690545
 11
1340.623079091928
 21
-773.7922171459617
 72
     1
 10
1340.623079091928
 20
-773.7922171459617
 11
1340.721608822806
 21
-773.8221894766833
 72
     1
 10
1340.721608822806
 20
-773.8221894766833
 11
1340.811525814971
 21
-773.871798851671
 72
     1
 10
1340.811525814971
 20
-773.871798851671
 11
1340.892485558874
 21
-773.9413897804731
 72
     1
 10
1340.892485558874
 20
-773.9413897804731
 11
1340.960009430385
 21
-774.0254501103132
 72
     1
 10
1340.960009430385
 20
-774.0254501103132
 11
1341.00789625763
 21
-774.1184676884149
 72
     1
 10
1341.00789625763
 20
-774.1184676884149
 11
1341.036835059706
 21
-774.2204425147783
 72
     1
 10
1341.036835059706
 20
-774.2204425147783
 11
1341.046481327065
 21
-774.3310300798548
 72
     1
 10
1341.046481327065
 20
-774.3310300798548
 11
1341.036490550158
 21
-774.4405841162858
 72
     1
 10
1341.036490550158
 20
-774.4405841162858
 11
1341.007551748082
 21
-774.5415254140036
 72
     1
 10
1341.007551748082
 20
-774.5415254140036
 11
1340.958975901739
 21
-774.6345429921053
 72
     1
 10
1340.958975901739
 20
-774.6345429921053
 11
1340.890763011132
 21
-774.7189478314939
 72
     1
 10
1340.890763011132
 20
-774.7189478314939
 11
1340.809114248131
 21
-774.7895722889415
 72
     1
 10
1340.809114248131
 20
-774.7895722889415
 11
1340.719197255966
 21
-774.8398706830262
 72
     1
 10
1340.719197255966
 20
-774.8398706830262
 11
1340.621356544185
 21
-774.8701875232964
 72
     1
 10
1340.621356544185
 20
-774.8701875232964
 11
1340.517659170079
 21
-774.8798337906551
 72
     1
 10
1340.517659170079
 20
-774.8798337906551
 11
1340.517659170079
 21
-776.230311220873
 72
     1
 10
1340.517659170079
 20
-776.230311220873
 11
1340.519381717822
 21
-776.230311220873
 72
     1
 10
1340.519381717822
 20
-776.230311220873
 11
1340.901787316684
 21
-776.195515756472
 72
     1
 10
1340.901787316684
 20
-776.195515756472
 11
1341.255254113471
 21
-776.0914738728175
 72
     1
 10
1341.255254113471
 20
-776.0914738728175
 11
1341.579782108181
 21
-775.9174965508123
 72
     1
 10
1341.579782108181
 20
-775.9174965508123
 11
1341.875026791267
 21
-775.6742728095537
 72
     1
 10
1341.875026791267
 20
-775.6742728095537
 11
1342.121006608914
 21
-775.3814396933075
 72
     1
 10
1342.121006608914
 20
-775.3814396933075
 11
1342.296361969113
 21
-775.0593232654365
 72
     1
 10
1342.296361969113
 20
-775.0593232654365
 11
1342.401781890962
 21
-774.707923525941
 72
     1
 10
1342.401781890962
 20
-774.707923525941
 11
1342.436921864912
 21
-774.3275849843695
 72
     1
 10
1342.436921864912
 20
-774.3275849843695
 11
1342.402126400511
 21
-773.9517250669288
 72
     1
 10
1342.402126400511
 20
-773.9517250669288
 11
1342.298429026405
 21
-773.60342591337
 97
        0
 75
     2
 76
     1
 98
        0
  0
POLYLINE
  5
2B6
330
1F
100
AcDbEntity
  8
Layer 1
370
     0
100
AcDb2dPolyline
 66
     1
 10
0.0
 20
0.0
 30
0.0
  0
VERTEX
  5
2B7
330
2B6
100
AcDbEntity
  8
Layer 1
370
     0
100
AcDbVertex
100
AcDb2dVertex
 10
1340.513525055497
 20
-774.8798337906551
 30
0.0
  0
VERTEX
  5
2B8
330
2B6
100
AcDbEntity
  8
Layer 1
370
     0
100
AcDbVertex
100
AcDb2dVertex
 10
1340.511457998206
 20
-774.8801783002036
 30
0.0
  0
VERTEX
  5
2B9
330
2B6
100
AcDbEntity
  8
Layer 1
370
     0
100
AcDbVertex
100
AcDb2dVertex
 10
1340.407416114551
 20
-774.8701875232964
 30
0.0
  0
VERTEX
  5
2BA
330
2B6
100
AcDbEntity
  8
Layer 1
370
     0
100
AcDbVertex
100
AcDb2dVertex
 10
1340.310953440964
 20
-774.8398706830262
 30
0.0
  0
VERTEX
  5
2BB
330
2B6
100
AcDbEntity
  8
Layer 1
370
     0
100
AcDbVertex
100
AcDb2dVertex
 10
1340.221725467896
 20
-774.7895722889415
 30
0.0
  0
VERTEX
  5
2BC
330
2B6
100
AcDbEntity
  8
Layer 1
370
     0
100
AcDbVertex
100
AcDb2dVertex
 10
1340.140076704896
 20
-774.7189478314939
 30
0.0
  0
VERTEX
  5
2BD
330
2B6
100
AcDbEntity
  8
Layer 1
370
     0
100
AcDbVertex
100
AcDb2dVertex
 10
1340.072208323836
 20
-774.6345429921053
 30
0.0
  0
VERTEX
  5
2BE
330
2B6
100
AcDbEntity
  8
Layer 1
370
     0
100
AcDbVertex
100
AcDb2dVertex
 10
1340.023632477494
 20
-774.5415254140036
 30
0.0
  0
VERTEX
  5
2BF
330
2B6
100
AcDbEntity
  8
Layer 1
370
     0
100
AcDbVertex
100
AcDb2dVertex
 10
1339.99434916587
 20
-774.4405841162858
 30
0.0
  0
VERTEX
  5
2C0
330
2B6
100
AcDbEntity
  8
Layer 1
370
     0
100
AcDbVertex
100
AcDb2dVertex
 10
1339.984702898511
 20
-774.3310300798548
 30
0.0
  0
VERTEX
  5
2C1
330
2B6
100
AcDbEntity
  8
Layer 1
370
     0
100
AcDbVertex
100
AcDb2dVertex
 10
1339.99434916587
 20
-774.2204425147783
 30
0.0
  0
VERTEX
  5
2C2
330
2B6
100
AcDbEntity
  8
Layer 1
370
     0
100
AcDbVertex
100
AcDb2dVertex
 10
1340.022943458397
 20
-774.1184676884149
 30
0.0
  0
VERTEX
  5
2C3
330
2B6
100
AcDbEntity
  8
Layer 1
370
     0
100
AcDbVertex
100
AcDb2dVertex
 10
1340.071174795191
 20
-774.0254501103132
 30
0.0
  0
VERTEX
  5
2C4
330
2B6
100
AcDbEntity
  8
Layer 1
370
     0
100
AcDbVertex
100
AcDb2dVertex
 10
1340.138354157153
 20
-773.9413897804731
 30
0.0
  0
VERTEX
  5
2C5
330
2B6
100
AcDbEntity
  8
Layer 1
370
     0
100
AcDbVertex
100
AcDb2dVertex
 10
1340.219313901056
 20
-773.871798851671
 30
0.0
  0
VERTEX
  5
2C6
330
2B6
100
AcDbEntity
  8
Layer 1
370
     0
100
AcDbVertex
100
AcDb2dVertex
 10
1340.308541874124
 20
-773.8221894766833
 30
0.0
  0
VERTEX
  5
2C7
330
2B6
100
AcDbEntity
  8
Layer 1
370
     0
100
AcDbVertex
100
AcDb2dVertex
 10
1340.406038076357
 20
-773.7922171459617
 30
0.0
  0
VERTEX
  5
2C8
330
2B6
100
AcDbEntity
  8
Layer 1
370
     0
100
AcDbVertex
100
AcDb2dVertex
 10
1340.511457998206
 20
-773.7822263690545
 30
0.0
  0
VERTEX
  5
2C9
330
2B6
100
AcDbEntity
  8
Layer 1
370
     0
100
AcDbVertex
100
AcDb2dVertex
 10
1340.513525055497
 20
-773.7822263690545
 30
0.0
  0
VERTEX
  5
2CA
330
2B6
100
AcDbEntity
  8
Layer 1
370
     0
100
AcDbVertex
100
AcDb2dVertex
 10
1340.513525055497
 20
-772.4351940343217
 30
0.0
  0
VERTEX
  5
2CB
330
2B6
100
AcDbEntity
  8
Layer 1
370
     0
100
AcDbVertex
100
AcDb2dVertex
 10
1340.151101010448
 20
-772.466199893689
 30
0.0
  0
VERTEX
  5
2CC
330
2B6
100
AcDbEntity
  8
Layer 1
370
     0
100
AcDbVertex
100
AcDb2dVertex
 10
1339.786954417657
 20
-772.5688637391495
 30
0.0
  0
VERTEX
  5
2CD
330
2B6
100
AcDbEntity
  8
Layer 1
370
     0
100
AcDbVertex
100
AcDb2dVertex
 10
1339.455880741525
 20
-772.7397404752179
 30
0.0
  0
VERTEX
  5
2CE
330
2B6
100
AcDbEntity
  8
Layer 1
370
     0
100
AcDbVertex
100
AcDb2dVertex
 10
1339.157535472502
 20
-772.9791746114428
 30
0.0
  0
VERTEX
  5
2CF
330
2B6
100
AcDbEntity
  8
Layer 1
370
     0
100
AcDbVertex
100
AcDb2dVertex
 10
1338.910866635759
 20
-773.2685626322037
 30
0.0
  0
VERTEX
  5
2D0
330
2B6
100
AcDbEntity
  8
Layer 1
370
     0
100
AcDbVertex
100
AcDb2dVertex
 10
1338.734822256462
 20
-773.589645531429
 30
0.0
  0
VERTEX
  5
2D1
330
2B6
100
AcDbEntity
  8
Layer 1
370
     0
100
AcDbVertex
100
AcDb2dVertex
 10
1338.629402334614
 20
-773.9427678186671
 30
0.0
  0
VERTEX
  5
2D2
330
2B6
100
AcDbEntity
  8
Layer 1
370
     0
100
AcDbVertex
100
AcDb2dVertex
 10
1338.593917851116
 20
-774.3275849843695
 30
0.0
  0
VERTEX
  5
2D3
330
2B6
100
AcDbEntity
  8
Layer 1
370
     0
100
AcDbVertex
100
AcDb2dVertex
 10
1338.629402334614
 20
-774.706545487747
 30
0.0
  0
VERTEX
  5
2D4
330
2B6
100
AcDbEntity
  8
Layer 1
370
     0
100
AcDbVertex
100
AcDb2dVertex
 10
1338.734822256462
 20
-775.0572562081454
 30
0.0
  0
VERTEX
  5
2D5
330
2B6
100
AcDbEntity
  8
Layer 1
370
     0
100
AcDbVertex
100
AcDb2dVertex
 10
1338.910866635759
 20
-775.3790281264678
 30
0.0
  0
VERTEX
  5
2D6
330
2B6
100
AcDbEntity
  8
Layer 1
370
     0
100
AcDbVertex
100
AcDb2dVertex
 10
1339.157535472502
 20
-775.6722057522626
 30
0.0
  0
VERTEX
  5
2D7
330
2B6
100
AcDbEntity
  8
Layer 1
370
     0
100
AcDbVertex
100
AcDb2dVertex
 10
1339.453813684234
 20
-775.9164630221668
 30
0.0
  0
VERTEX
  5
2D8
330
2B6
100
AcDbEntity
  8
Layer 1
370
     0
100
AcDbVertex
100
AcDb2dVertex
 10
1339.778686188493
 20
-776.0907848537204
 30
0.0
  0
VERTEX
  5
2D9
330
2B6
100
AcDbEntity
  8
Layer 1
370
     0
100
AcDbVertex
100
AcDb2dVertex
 10
1340.132497494828
 20
-776.195515756472
 30
0.0
  0
VERTEX
  5
2DA
330
2B6
100
AcDbEntity
  8
Layer 1
370
     0
100
AcDbVertex
100
AcDb2dVertex
 10
1340.513525055497
 20
-776.230311220873
 30
0.0
  0
VERTEX
  5
2DB
330
2B6
100
AcDbEntity
  8
Layer 1
370
     0
100
AcDbVertex
100
AcDb2dVertex
 10
1340.513525055497
 20
-774.8798337906551
 30
0.0
  0
SEQEND
  5
2DC
330
2B6
100
AcDbEntity
  8
Layer 1
370
     0
  0
HATCH
  5
2DD
330
1F
100
AcDbEntity
  8
Layer 1
 62
   250
420
  2301728
100
AcDbHatch
 10
0.0
 20
0.0
 30
0.0
210
0.0
220
0.0
230
1.0
  2
SOLID
 70
     1
 71
     0
 91
        1
 92
        1
 93
       36
 72
     1
 10
1340.513525055497
 20
-774.8798337906551
 11
1340.511457998206
 21
-774.8801783002036
 72
     1
 10
1340.511457998206
 20
-774.8801783002036
 11
1340.407416114551
 21
-774.8701875232964
 72
     1
 10
1340.407416114551
 20
-774.8701875232964
 11
1340.310953440964
 21
-774.8398706830262
 72
     1
 10
1340.310953440964
 20
-774.8398706830262
 11
1340.221725467896
 21
-774.7895722889415
 72
     1
 10
1340.221725467896
 20
-774.7895722889415
 11
1340.140076704896
 21
-774.7189478314939
 72
     1
 10
1340.140076704896
 20
-774.7189478314939
 11
1340.072208323836
 21
-774.6345429921053
 72
     1
 10
1340.072208323836
 20
-774.6345429921053
 11
1340.023632477494
 21
-774.5415254140036
 72
     1
 10
1340.023632477494
 20
-774.5415254140036
 11
1339.99434916587
 21
-774.4405841162858
 72
     1
 10
1339.99434916587
 20
-774.4405841162858
 11
1339.984702898511
 21
-774.3310300798548
 72
     1
 10
1339.984702898511
 20
-774.3310300798548
 11
1339.99434916587
 21
-774.2204425147783
 72
     1
 10
1339.99434916587
 20
-774.2204425147783
 11
1340.022943458397
 21
-774.1184676884149
 72
     1
 10
1340.022943458397
 20
-774.1184676884149
 11
1340.071174795191
 21
-774.0254501103132
 72
     1
 10
1340.071174795191
 20
-774.0254501103132
 11
1340.138354157153
 21
-773.9413897804731
 72
     1
 10
1340.138354157153
 20
-773.9413897804731
 11
1340.219313901056
 21
-773.871798851671
 72
     1
 10
1340.219313901056
 20
-773.871798851671
 11
1340.308541874124
 21
-773.8221894766833
 72
     1
 10
1340.308541874124
 20
-773.8221894766833
 11
1340.406038076357
 21
-773.7922171459617
 72
     1
 10
1340.406038076357
 20
-773.7922171459617
 11
1340.511457998206
 21
-773.7822263690545
 72
     1
 10
1340.511457998206
 20
-773.7822263690545
 11
1340.513525055497
 21
-773.7822263690545
 72
     1
 10
1340.513525055497
 20
-773.7822263690545
 11
1340.513525055497
 21
-772.4351940343217
 72
     1
 10
1340.513525055497
 20
-772.4351940343217
 11
1340.151101010448
 21
-772.466199893689
 72
     1
 10
1340.151101010448
 20
-772.466199893689
 11
1339.786954417657
 21
-772.5688637391495
 72
     1
 10
1339.786954417657
 20
-772.5688637391495
 11
1339.455880741525
 21
-772.7397404752179
 72
     1
 10
1339.455880741525
 20
-772.7397404752179
 11
1339.157535472502
 21
-772.9791746114428
 72
     1
 10
1339.157535472502
 20
-772.9791746114428
 11
1338.910866635759
 21
-773.2685626322037
 72
     1
 10
1338.910866635759
 20
-773.2685626322037
 11
1338.734822256462
 21
-773.589645531429
 72
     1
 10
1338.734822256462
 20
-773.589645531429
 11
1338.629402334614
 21
-773.9427678186671
 72
     1
 10
1338.629402334614
 20
-773.9427678186671
 11
1338.593917851116
 21
-774.3275849843695
 72
     1
 10
1338.593917851116
 20
-774.3275849843695
 11
1338.629402334614
 21
-774.706545487747
 72
     1
 10
1338.629402334614
 20
-774.706545487747
 11
1338.734822256462
 21
-775.0572562081454
 72
     1
 10
1338.734822256462
 20
-775.0572562081454
 11
1338.910866635759
 21
-775.3790281264678
 72
     1
 10
1338.910866635759
 20
-775.3790281264678
 11
1339.157535472502
 21
-775.6722057522626
 72
     1
 10
1339.157535472502
 20
-775.6722057522626
 11
1339.453813684234
 21
-775.9164630221668
 72
     1
 10
1339.453813684234
 20
-775.9164630221668
 11
1339.778686188493
 21
-776.0907848537204
 72
     1
 10
1339.778686188493
 20
-776.0907848537204
 11
1340.132497494828
 21
-776.195515756472
 72
     1
 10
1340.132497494828
 20
-776.195515756472
 11
1340.513525055497
 21
-776.230311220873
 72
     1
 10
1340.513525055497
 20
-776.230311220873
 11
1340.513525055497
 21
-774.8798337906551
 97
        0
 75
     2
 76
     1
 98
        0
  0
ENDSEC
  0
SECTION
  2
OBJECTS
  0
DICTIONARY
  5
C
330
0
100
AcDbDictionary
281
     1
  3
ACAD_GROUP
350
D
  3
ACAD_LAYOUT
350
1A
  3
ACAD_MLINESTYLE
350
17
  3
ACAD_PLOTSETTINGS
350
19
  3
ACAD_PLOTSTYLENAME
350
E
  3
ACAD_TABLESTYLE
350
2DE
  3
ACAD_VISUALSTYLE
350
2A
  0
DICTIONARY
  5
D
102
{ACAD_REACTORS
330
C
102
}
330
C
100
AcDbDictionary
281
     1
  0
DICTIONARY
  5
1A
102
{ACAD_REACTORS
330
C
102
}
330
C
100
AcDbDictionary
281
     1
  3
Layout1
350
1E
  3
Layout2
350
26
  3
Model
350
22
  0
DICTIONARY
  5
17
102
{ACAD_REACTORS
330
C
102
}
330
C
100
AcDbDictionary
281
     1
  3
Standard
350
18
  0
DICTIONARY
  5
19
102
{ACAD_REACTORS
330
C
102
}
330
C
100
AcDbDictionary
281
     1
  0
ACDBDICTIONARYWDFLT
  5
E
102
{ACAD_REACTORS
330
C
102
}
330
C
100
AcDbDictionary
281
     1
  3
Normal
350
F
100
AcDbDictionaryWithDefault
340
F
  0
DICTIONARY
  5
2DE
102
{ACAD_REACTORS
330
C
102
}
330
C
100
AcDbDictionary
281
     1
  0
DICTIONARY
  5
2A
102
{ACAD_REACTORS
330
C
102
}
330
C
100
AcDbDictionary
281
     1
  3
2dWireframe
350
2F
  3
3D Hidden
350
31
  3
3dWireframe
350
30
  3
Basic
350
32
  3
Brighten
350
36
  3
ColorChange
350
3A
  3
Conceptual
350
34
  3
Dim
350
35
  3
Facepattern
350
39
  3
Flat
350
2B
  3
FlatWithEdges
350
2C
  3
Gouraud
350
2D
  3
GouraudWithEdges
350
2E
  3
Linepattern
350
38
  3
Realistic
350
33
  3
Thicken
350
37
  0
LAYOUT
  5
1E
102
{ACAD_REACTORS
330
1A
102
}
330
1A
100
AcDbPlotSettings
  1

  2
none_device
  4

  6

 40
0.0
 41
0.0
 42
0.0
 43
0.0
 44
0.0
 45
0.0
 46
0.0
 47
0.0
 48
0.0
 49
0.0
140
0.0
141
0.0
142
1.0
143
1.0
 70
   688
 72
     0
 73
     0
 74
     5
  7

 75
    16
 76
     0
 77
     2
 78
   300
147
1.0
148
0.0
149
0.0
100
AcDbLayout
  1
Layout1
 70
     1
 71
     1
 10
0.0
 20
0.0
 11
12.0
 21
9.0
 12
0.0
 22
0.0
 32
0.0
 14
1.000000000000000E+20
 24
1.000000000000000E+20
 34
1.000000000000000E+20
 15
-1.000000000000000E+20
 25
-1.000000000000000E+20
 35
-1.000000000000000E+20
146
0.0
 13
0.0
 23
0.0
 33
0.0
 16
1.0
 26
0.0
 36
0.0
 17
0.0
 27
1.0
 37
0.0
 76
     0
330
1B
  0
LAYOUT
  5
26
102
{ACAD_REACTORS
330
1A
102
}
330
1A
100
AcDbPlotSettings
  1

  2
none_device
  4

  6

 40
0.0
 41
0.0
 42
0.0
 43
0.0
 44
0.0
 45
0.0
 46
0.0
 47
0.0
 48
0.0
 49
0.0
140
0.0
141
0.0
142
1.0
143
1.0
 70
   688
 72
     0
 73
     0
 74
     5
  7

 75
    16
 76
     0
 77
     2
 78
   300
147
1.0
148
0.0
149
0.0
100
AcDbLayout
  1
Layout2
 70
     1
 71
     2
 10
0.0
 20
0.0
 11
0.0
 21
0.0
 12
0.0
 22
0.0
 32
0.0
 14
0.0
 24
0.0
 34
0.0
 15
0.0
 25
0.0
 35
0.0
146
0.0
 13
0.0
 23
0.0
 33
0.0
 16
1.0
 26
0.0
 36
0.0
 17
0.0
 27
1.0
 37
0.0
 76
     0
330
23
  0
LAYOUT
  5
22
102
{ACAD_REACTORS
330
1A
102
}
330
1A
100
AcDbPlotSettings
  1

  2
none_device
  4

  6

 40
0.0
 41
0.0
 42
0.0
 43
0.0
 44
0.0
 45
0.0
 46
0.0
 47
0.0
 48
0.0
 49
0.0
140
0.0
141
0.0
142
1.0
143
1.0
 70
  1712
 72
     0
 73
     0
 74
     0
  7

 75
     0
 76
     0
 77
     2
 78
   300
147
1.0
148
0.0
149
0.0
100
AcDbLayout
  1
Model
 70
     1
 71
     0
 10
0.0
 20
0.0
 11
12.0
 21
9.0
 12
0.0
 22
0.0
 32
0.0
 14
1.000000000000000E+20
 24
1.000000000000000E+20
 34
1.000000000000000E+20
 15
-1.000000000000000E+20
 25
-1.000000000000000E+20
 35
-1.000000000000000E+20
146
0.0
 13
0.0
 23
0.0
 33
0.0
 16
1.0
 26
0.0
 36
0.0
 17
0.0
 27
1.0
 37
0.0
 76
     0
330
1F
331
29
  0
MLINESTYLE
  5
18
102
{ACAD_REACTORS
330
17
102
}
330
17
100
AcDbMlineStyle
  2
Standard
 70
     0
  3

 62
   256
 51
90.0
 52
90.0
 71
     2
 49
0.5
 62
   256
  6
BYLAYER
 49
-0.5
 62
   256
  6
BYLAYER
  0
ACDBPLACEHOLDER
  5
F
102
{ACAD_REACTORS
330
E
102
}
330
E
  0
VISUALSTYLE
  5
2F
102
{ACAD_REACTORS
330
2A
102
}
330
2A
100
AcDbVisualStyle
  2
2dWireframe
 70
     4
 71
     0
 72
     2
 73
     0
 90
        0
 40
-0.6
 41
-30.0
 62
     5
 63
     7
421
 16777215
 74
     1
 91
        4
 64
     7
 65
   257
 75
     1
175
     1
 42
1.0
 92
        0
 66
   257
 43
1.0
 76
     1
 77
     6
 78
     2
 67
     7
 79
     5
170
     0
171
     0
290
     0
174
     0
 93
        1
 44
0.0
173
     0
291
     0
 45
0.0
1001
ACAD
1000
AcDbSavedByObjectVersion
1070
     0
  0
VISUALSTYLE
  5
31
102
{ACAD_REACTORS
330
2A
102
}
330
2A
100
AcDbVisualStyle
  2
3D Hidden
 70
     6
 71
     1
 72
     2
 73
     2
 90
        0
 40
-0.6
 41
-30.0
 62
     5
 63
     7
421
 16777215
 74
     2
 91
        2
 64
     7
 65
   257
 75
     2
175
     1
 42
40.0
 92
        0
 66
   257
 43
1.0
 76
     1
 77
     6
 78
     2
 67
     7
 79
     3
170
     0
171
     0
290
     0
174
     0
 93
        1
 44
0.0
173
     0
291
     0
 45
0.0
1001
ACAD
1000
AcDbSavedByObjectVersion
1070
     0
  0
VISUALSTYLE
  5
30
102
{ACAD_REACTORS
330
2A
102
}
330
2A
100
AcDbVisualStyle
  2
3dWireframe
 70
     5
 71
     0
 72
     2
 73
     0
 90
        0
 40
-0.6
 41
-30.0
 62
     5
 63
     7
421
 16777215
 74
     1
 91
        4
 64
     7
 65
   257
 75
     1
175
     1
 42
1.0
 92
        0
 66
   257
 43
1.0
 76
     1
 77
     6
 78
     2
 67
     7
 79
     5
170
     0
171
     0
290
     0
174
     0
 93
        1
 44
0.0
173
     0
291
     0
 45
0.0
1001
ACAD
1000
AcDbSavedByObjectVersion
1070
     0
  0
VISUALSTYLE
  5
32
102
{ACAD_REACTORS
330
2A
102
}
330
2A
100
AcDbVisualStyle
  2
Basic
 70
     7
 71
     1
 72
     0
 73
     1
 90
        0
 40
-0.6
 41
-30.0
 62
     5
 63
     7
421
 16777215
 74
     0
 91
        4
 64
     7
 65
   257
 75
     1
175
     1
 42
1.0
 92
        8
 66
     7
 43
1.0
 76
     1
 77
     6
 78
     2
 67
     7
 79
     5
170
     0
171
     0
290
     0
174
     0
 93
        1
 44
0.0
173
     0
291
     1
 45
0.0
1001
ACAD
1000
AcDbSavedByObjectVersion
1070
     0
  0
VISUALSTYLE
  5
36
102
{ACAD_REACTORS
330
2A
102
}
330
2A
100
AcDbVisualStyle
  2
Brighten
 70
    12
 71
     2
 72
     2
 73
     0
 90
        0
 40
-0.6
 41
-30.0
 62
     5
 63
     7
421
 16777215
 74
     1
 91
        4
 64
     7
 65
   257
 75
     1
175
     1
 42
1.0
 92
        8
 66
     7
 43
1.0
 76
     1
 77
     6
 78
     2
 67
     7
 79
     5
170
     0
171
     0
290
     0
174
     0
 93
        1
 44
50.0
173
     0
291
     1
 45
0.0
1001
ACAD
1000
AcDbSavedByObjectVersion
1070
     0
  0
VISUALSTYLE
  5
3A
102
{ACAD_REACTORS
330
2A
102
}
330
2A
100
AcDbVisualStyle
  2
ColorChange
 70
    16
 71
     2
 72
     2
 73
     3
 90
        0
 40
-0.6
 41
-30.0
 62
     5
 63
     8
421
  8421504
 74
     1
 91
        4
 64
     7
 65
   257
 75
     1
175
     1
 42
1.0
 92
        8
 66
     8
424
  8421504
 43
1.0
 76
     1
 77
     6
 78
     2
 67
     7
 79
     5
170
     0
171
     0
290
     0
174
     0
 93
        1
 44
0.0
173
     0
291
     1
 45
0.0
1001
ACAD
1000
AcDbSavedByObjectVersion
1070
     0
  0
VISUALSTYLE
  5
34
102
{ACAD_REACTORS
330
2A
102
}
330
2A
100
AcDbVisualStyle
  2
Conceptual
 70
     9
 71
     3
 72
     2
 73
     0
 90
        0
 40
-0.6
 41
-30.0
 62
     5
 63
     7
421
 16777215
 74
     2
 91
        2
 64
     7
 65
   257
 75
     1
175
     1
 42
40.0
 92
        8
 66
     7
 43
1.0
 76
     1
 77
     6
 78
     2
 67
     7
 79
     3
170
     0
171
     0
290
     0
174
     0
 93
        1
 44
0.0
173
     0
291
     0
 45
0.0
1001
ACAD
1000
AcDbSavedByObjectVersion
1070
     0
  0
VISUALSTYLE
  5
35
102
{ACAD_REACTORS
330
2A
102
}
330
2A
100
AcDbVisualStyle
  2
Dim
 70
    11
 71
     2
 72
     2
 73
     0
 90
        0
 40
-0.6
 41
-30.0
 62
     5
 63
     7
421
 16777215
 74
     1
 91
        4
 64
     7
 65
   257
 75
     1
175
     1
 42
1.0
 92
        8
 66
     7
 43
1.0
 76
     1
 77
     6
 78
     2
 67
     7
 79
     5
170
     0
171
     0
290
     0
174
     0
 93
        1
 44
-50.0
173
     0
291
     1
 45
0.0
1001
ACAD
1000
AcDbSavedByObjectVersion
1070
     0
  0
VISUALSTYLE
  5
39
102
{ACAD_REACTORS
330
2A
102
}
330
2A
100
AcDbVisualStyle
  2
Facepattern
 70
    15
 71
     2
 72
     2
 73
     0
 90
        0
 40
-0.6
 41
-30.0
 62
     5
 63
     7
421
 16777215
 74
     1
 91
        4
 64
     7
 65
   257
 75
     1
175
     1
 42
1.0
 92
        8
 66
     7
 43
1.0
 76
     1
 77
     6
 78
     2
 67
     7
 79
     5
170
     0
171
     0
290
     0
174
     0
 93
        1
 44
0.0
173
     0
291
     1
 45
0.0
1001
ACAD
1000
AcDbSavedByObjectVersion
1070
     0
  0
VISUALSTYLE
  5
2B
102
{ACAD_REACTORS
330
2A
102
}
330
2A
100
AcDbVisualStyle
  2
Flat
 70
     0
 71
     2
 72
     1
 73
     1
 90
        2
 40
-0.6
 41
30.0
 62
     5
 63
     7
421
 16777215
 74
     0
 91
        4
 64
     7
 65
   257
 75
     1
175
     1
 42
1.0
 92
        8
 66
     7
 43
1.0
 76
     1
 77
     6
 78
     2
 67
     7
 79
     5
170
     0
171
     0
290
     0
174
     0
 93
       13
 44
0.0
173
     0
291
     1
 45
0.0
1001
ACAD
1000
AcDbSavedByObjectVersion
1070
     0
  0
VISUALSTYLE
  5
2C
102
{ACAD_REACTORS
330
2A
102
}
330
2A
100
AcDbVisualStyle
  2
FlatWithEdges
 70
     1
 71
     2
 72
     1
 73
     1
 90
        2
 40
-0.6
 41
30.0
 62
     5
 63
     7
421
 16777215
 74
     1
 91
        4
 64
     7
 65
   257
 75
     1
175
     1
 42
1.0
 92
        0
 66
   257
 43
1.0
 76
     1
 77
     6
 78
     2
 67
     7
 79
     5
170
     0
171
     0
290
     0
174
     0
 93
       13
 44
0.0
173
     0
291
     1
 45
0.0
1001
ACAD
1000
AcDbSavedByObjectVersion
1070
     0
  0
VISUALSTYLE
  5
2D
102
{ACAD_REACTORS
330
2A
102
}
330
2A
100
AcDbVisualStyle
  2
Gouraud
 70
     2
 71
     2
 72
     2
 73
     1
 90
        2
 40
-0.6
 41
30.0
 62
     5
 63
     7
421
 16777215
 74
     0
 91
        4
 64
     7
 65
   257
 75
     1
175
     1
 42
1.0
 92
        0
 66
     7
 43
1.0
 76
     1
 77
     6
 78
     2
 67
     7
 79
     5
170
     0
171
     0
290
     0
174
     0
 93
       13
 44
0.0
173
     0
291
     1
 45
0.0
1001
ACAD
1000
AcDbSavedByObjectVersion
1070
     0
  0
VISUALSTYLE
  5
2E
102
{ACAD_REACTORS
330
2A
102
}
330
2A
100
AcDbVisualStyle
  2
GouraudWithEdges
 70
     3
 71
     2
 72
     2
 73
     1
 90
        2
 40
-0.6
 41
30.0
 62
     5
 63
     7
421
 16777215
 74
     1
 91
        4
 64
     7
 65
   257
 75
     1
175
     1
 42
1.0
 92
        0
 66
   257
 43
1.0
 76
     1
 77
     6
 78
     2
 67
     7
 79
     5
170
     0
171
     0
290
     0
174
     0
 93
       13
 44
0.0
173
     0
291
     1
 45
0.0
1001
ACAD
1000
AcDbSavedByObjectVersion
1070
     0
  0
VISUALSTYLE
  5
38
102
{ACAD_REACTORS
330
2A
102
}
330
2A
100
AcDbVisualStyle
  2
Linepattern
 70
    14
 71
     2
 72
     2
 73
     0
 90
        0
 40
-0.6
 41
-30.0
 62
     5
 63
     7
421
 16777215
 74
     1
 91
        4
 64
     7
 65
   257
 75
     7
175
     7
 42
1.0
 92
        8
 66
     7
 43
1.0
 76
     1
 77
     6
 78
     2
 67
     7
 79
     5
170
     0
171
     0
290
     0
174
     0
 93
        1
 44
0.0
173
     0
291
     1
 45
0.0
1001
ACAD
1000
AcDbSavedByObjectVersion
1070
     0
  0
VISUALSTYLE
  5
33
102
{ACAD_REACTORS
330
2A
102
}
330
2A
100
AcDbVisualStyle
  2
Realistic
 70
     8
 71
     2
 72
     2
 73
     0
 90
        0
 40
-0.6
 41
-30.0
 62
     5
 63
     7
421
 16777215
 74
     1
 91
        0
 64
     7
 65
   257
 75
     1
175
     1
 42
1.0
 92
        8
 66
     8
424
  7895160
 43
1.0
 76
     1
 77
     6
 78
     2
 67
     7
 79
     5
170
     0
171
     0
290
     0
174
     0
 93
       13
 44
0.0
173
     0
291
     0
 45
0.0
1001
ACAD
1000
AcDbSavedByObjectVersion
1070
     0
  0
VISUALSTYLE
  5
37
102
{ACAD_REACTORS
330
2A
102
}
330
2A
100
AcDbVisualStyle
  2
Thicken
 70
    13
 71
     2
 72
     2
 73
     0
 90
        0
 40
-0.6
 41
-30.0
 62
     5
 63
     7
421
 16777215
 74
     1
 91
        4
 64
     7
 65
   257
 75
     1
175
     1
 42
1.0
 92
       12
 66
     7
 43
1.0
 76
     1
 77
     6
 78
     2
 67
     7
 79
     5
170
     0
171
     0
290
     0
174
     0
 93
        1
 44
0.0
173
     0
291
     1
 45
0.0
1001
ACAD
1000
AcDbSavedByObjectVersion
1070
     0
  0
ENDSEC
  0
EOF
