<?xml version="1.0" encoding="utf-8"?>
<!-- Generator: Adobe Illustrator 16.0.0, SVG Export Plug-In . SVG Version: 6.00 Build 0)  -->
<!DOCTYPE svg PUBLIC "-//W3C//DTD SVG 1.1//EN" "http://www.w3.org/Graphics/SVG/1.1/DTD/svg11.dtd">
<svg version="1.1" id="Layer_1" xmlns="http://www.w3.org/2000/svg" xmlns:xlink="http://www.w3.org/1999/xlink" x="0px" y="0px"
	 width="2390.764px" height="957.464px" viewBox="0 0 2390.764 957.464" enable-background="new 0 0 2390.764 957.464"
	 xml:space="preserve">
<g>
	<rect width="2390.764" height="957.464"/>
</g>
<g>
	<path fill="#FFFFFF" d="M1422.397,338.688v73.062h32.131v75.549h-32.131c0,15.175,2.391,25.629,7.172,31.366
		c4.781,5.738,13.547,8.607,26.299,8.607v75.166c-3.701,0.125-6.441,0.191-8.225,0.191c-16.195,0-31.463-3.76-45.807-11.285
		c-14.346-7.521-25.854-17.721-34.523-30.602c-10.969-16.448-16.449-38.252-16.449-65.411V338.688H1422.397z"/>
	<path fill="#FFFFFF" d="M1594.341,407.159v76.505c-4.973-2.803-9.5-4.208-13.58-4.208c-13.006,0-19.508,9.946-19.508,29.837v90.467
		h-71.533V495.521c0-27.541,7.521-49.504,22.568-65.89c15.045-16.383,35.127-24.576,60.248-24.576
		C1578.146,405.056,1585.413,405.757,1594.341,407.159z"/>
	<path fill="#FFFFFF" d="M1705.847,405.056c27.029,0,50.205,9.725,69.523,29.167c19.316,19.445,28.977,42.747,28.977,69.906
		c0,27.541-9.787,51.004-29.359,70.385c-19.574,19.383-43.195,29.071-70.863,29.071c-27.67,0-51.322-9.722-70.957-29.167
		c-19.637-19.443-29.455-42.873-29.455-70.289c0-27.924,9.818-51.416,29.455-70.479
		C1652.802,414.589,1677.028,405.056,1705.847,405.056z M1703.933,475.631c-7.65,0-14.152,2.773-19.508,8.32
		s-8.033,12.336-8.033,20.369c0,7.907,2.707,14.664,8.129,20.273c5.418,5.612,11.889,8.416,19.412,8.416
		c7.65,0,14.184-2.804,19.605-8.416c5.418-5.609,8.129-12.366,8.129-20.273c0-8.033-2.678-14.822-8.033-20.369
		S1711.71,475.631,1703.933,475.631z"/>
	<path fill="#FFFFFF" d="M1901.507,338.688v156.261c0,25.375,9.115,38.062,27.352,38.062c7.775,0,14.373-2.645,19.795-7.938
		c5.418-5.29,8.129-11.697,8.129-19.223c0-7.775-2.553-14.311-7.65-19.604c-5.102-5.289-11.352-7.938-18.744-7.938
		c-5.23,0-11.223,2.295-17.979,6.885v-78.8c8.416-0.765,14.789-1.146,19.127-1.146c26.9,0,49.949,9.691,69.141,29.071
		c19.189,19.383,28.785,42.717,28.785,70.002c0,27.924-9.756,51.449-29.264,70.575s-43.482,28.689-71.914,28.689
		c-14.283,0-28.211-3.126-41.791-9.372s-24.768-14.661-33.566-25.246c-15.301-18.361-22.951-42.141-22.951-71.341V338.688H1901.507z
		"/>
	<path fill="#FFFFFF" d="M2248.265,515.987h-108.445c-1.658-5.481-2.486-10.52-2.486-15.11c0-6.374,1.148-12.623,3.443-18.743h36.34
		c-2.553-14.153-10.52-21.229-23.908-21.229c-8.926,0-16.195,3.795-21.805,11.379c-5.611,7.588-8.414,17.31-8.414,29.168
		c0,12.369,2.707,22.377,8.129,30.028c5.418,7.65,12.527,11.476,21.324,11.476c7.141,0,14.025-3.568,20.656-10.711l40.74,48.963
		c-19.002,14.919-40.104,22.378-63.309,22.378c-28.307,0-52.09-9.497-71.34-28.498c-19.256-18.997-28.881-42.522-28.881-70.575
		c0-27.924,9.721-51.513,29.166-70.767c19.443-19.252,43.322-28.881,71.629-28.881c27.666,0,50.904,9.404,69.715,28.211
		c18.807,18.81,28.211,41.981,28.211,69.523C2249.03,505.404,2248.772,509.867,2248.265,515.987z"/>
	<path fill="#FFFFFF" d="M489.968,408.88v190.88h-77.652V338.688h99.648c30.345,0,53.869,7.524,70.575,22.569
		c18.615,16.83,27.925,38.189,27.925,64.072c0,26.394-11.542,48.646-34.619,66.751l44.756,107.68h-81.479l-37.678-84.155v-67.133
		h6.12c16.32,0,24.481-7.011,24.481-21.039c0-12.366-9.438-18.553-28.307-18.553H489.968z"/>
	<path fill="#FFFFFF" d="M828.693,515.987H720.248c-1.659-5.481-2.487-10.52-2.487-15.11c0-6.374,1.148-12.623,3.443-18.743h36.34
		c-2.553-14.153-10.52-21.229-23.908-21.229c-8.926,0-16.193,3.795-21.803,11.379c-5.613,7.588-8.416,17.31-8.416,29.168
		c0,12.369,2.707,22.377,8.129,30.028c5.418,7.65,12.527,11.476,21.325,11.476c7.14,0,14.024-3.568,20.656-10.711l40.739,48.963
		c-19.001,14.919-40.103,22.378-63.309,22.378c-28.307,0-52.088-9.497-71.34-28.498c-19.255-18.997-28.881-42.522-28.881-70.575
		c0-27.924,9.722-51.513,29.168-70.767c19.442-19.252,43.32-28.881,71.627-28.881c27.668,0,50.906,9.404,69.715,28.211
		c18.807,18.81,28.211,41.981,28.211,69.523C829.458,505.404,829.201,509.867,828.693,515.987z"/>
	<path fill="#FFFFFF" d="M964.298,528.229v74.018c-5.866,1.02-11.222,1.53-16.066,1.53c-28.689,0-52.597-9.435-71.723-28.307
		c-19.127-18.869-28.689-42.522-28.689-70.958c0-27.668,9.658-51.13,28.977-70.385c19.316-19.251,42.81-28.88,70.479-28.88
		c30.856,0,55.179,9.021,72.966,27.063c17.788,18.045,26.682,42.685,26.682,73.923v93.527h-71.531v-88.363
		c0-10.07-2.457-18.104-7.364-24.099c-4.91-5.991-11.509-8.989-19.796-8.989c-7.524,0-14.027,2.743-19.508,8.225
		c-5.484,5.483-8.225,11.986-8.225,19.508c0,7.908,2.486,14.41,7.459,19.51c4.973,5.101,11.285,7.65,18.936,7.65
		C953.139,533.201,958.942,531.545,964.298,528.229z"/>
	<path fill="#FFFFFF" d="M141.733,232.422h71.096v473.604h-71.096V232.422z"/>
	<path fill="#FFFFFF" d="M277.024,232.421h71.096v473.604h-71.096V232.421z"/>
	<path fill="#FFFFFF" d="M1902.581,818.033c-11.685-0.98-23.37-2.028-35.056-2.953l-35.056-2.836l-35.056-2.701l-35.056-2.601
		l-35.056-2.52c-11.686-0.736-23.371,0.233-35.056,0.198l-269.456,0.001l-204-325.89l203.999-325.889l269.457,0.011
		c11.685,0.053,23.37,0.9,35.056,0.36c5.843-0.245,11.686-0.757,17.527-1.158l17.528-1.271c11.685-0.865,23.37-1.651,35.056-2.583
		l35.056-2.715l35.056-2.862c11.686-0.936,23.371-1.998,35.056-3.002c11.685-0.989,23.37-2.117,35.056-3.17
		c11.686-1.109,23.371-2.244,35.056-3.453c-11.685-1.209-23.37-2.344-35.056-3.453c-11.686-1.053-23.371-2.181-35.056-3.17
		c-11.685-1.004-23.37-2.066-35.056-3.002l-35.056-2.862l-35.056-2.715c-11.686-0.932-23.371-1.718-35.056-2.583l-17.528-1.271
		c-5.842-0.401-11.685-0.913-17.527-1.158c-11.686-0.54-23.371,0.308-35.056,0.36l-280.445,0.012l-10.989,0.001l-5.83,9.313
		l-199.601,318.863L995.781,122.472l-5.83-9.313l-10.989-0.001l-280.445-0.012c-11.686-0.053-23.37-0.9-35.056-0.36
		c-5.843,0.245-11.686,0.757-17.527,1.158l-17.528,1.271c-11.686,0.865-23.37,1.651-35.056,2.583l-35.056,2.715l-35.056,2.862
		c-11.686,0.936-23.37,1.998-35.056,3.002c-11.686,0.989-23.37,2.117-35.056,3.17c-11.686,1.109-23.37,2.244-35.056,3.453
		c11.686,1.209,23.37,2.344,35.056,3.453c11.686,1.053,23.37,2.181,35.056,3.17c11.686,1.004,23.37,2.066,35.056,3.002l35.056,2.862
		l35.056,2.715c11.686,0.932,23.37,1.718,35.056,2.583l17.528,1.271c5.842,0.401,11.685,0.913,17.527,1.158
		c11.686,0.54,23.37-0.308,35.056-0.36l269.457-0.011l203.999,325.889l-204,325.89l-269.456-0.001
		c-11.686,0.035-23.37-0.935-35.056-0.198l-35.056,2.52l-35.056,2.601l-35.056,2.701l-35.056,2.836
		c-11.686,0.925-23.37,1.973-35.056,2.953l-35.056,3.096c-11.686,1.077-23.37,2.174-35.056,3.336
		c11.686,1.162,23.37,2.259,35.056,3.336l35.056,3.096c11.686,0.98,23.37,2.028,35.056,2.953l35.056,2.836l35.056,2.701
		l35.056,2.601l35.056,2.52c11.686,0.736,23.37-0.233,35.056-0.198l280.445-0.001h10.988l5.831-9.314l199.601-318.863
		l199.601,318.863l5.831,9.314h10.988l280.445,0.001c11.685-0.035,23.37,0.935,35.056,0.198l35.056-2.52l35.056-2.601l35.056-2.701
		l35.056-2.836c11.686-0.925,23.371-1.973,35.056-2.953l35.056-3.096c11.686-1.077,23.371-2.174,35.056-3.336
		c-11.685-1.162-23.37-2.259-35.056-3.336L1902.581,818.033z"/>
</g>
</svg>
