G04 EAGLE Gerber RS-274X export*
G75*
%MOMM*%
%FSLAX34Y34*%
%LPD*%
%INBottom Copper*%
%IPPOS*%
%AMOC8*
5,1,8,0,0,1.08239X$1,22.5*%
G01*
%ADD10C,1.650000*%
%ADD11R,1.650000X1.650000*%
%ADD12C,1.378000*%
%ADD13R,1.378000X1.378000*%
%ADD14R,1.950000X1.950000*%
%ADD15C,1.950000*%
%ADD16C,0.756400*%
%ADD17C,0.203200*%
%ADD18C,0.304800*%

G36*
X283702Y10167D02*
X283702Y10167D01*
X283727Y10164D01*
X283785Y10186D01*
X283845Y10200D01*
X283865Y10217D01*
X283889Y10226D01*
X283931Y10271D01*
X283979Y10310D01*
X283989Y10334D01*
X284007Y10353D01*
X284024Y10412D01*
X284050Y10469D01*
X284049Y10494D01*
X284056Y10519D01*
X284045Y10580D01*
X284043Y10642D01*
X284031Y10664D01*
X284026Y10690D01*
X283978Y10761D01*
X283960Y10794D01*
X283952Y10800D01*
X283945Y10810D01*
X282983Y11772D01*
X282983Y16168D01*
X286092Y19277D01*
X290488Y19277D01*
X292635Y17130D01*
X292699Y17090D01*
X292761Y17046D01*
X292773Y17044D01*
X292782Y17039D01*
X292819Y17035D01*
X292904Y17019D01*
X293360Y17019D01*
X293385Y17025D01*
X293411Y17022D01*
X293468Y17044D01*
X293528Y17058D01*
X293548Y17075D01*
X293572Y17084D01*
X293614Y17129D01*
X293662Y17168D01*
X293673Y17192D01*
X293690Y17211D01*
X293708Y17270D01*
X293733Y17327D01*
X293732Y17352D01*
X293739Y17377D01*
X293729Y17438D01*
X293726Y17500D01*
X293714Y17522D01*
X293710Y17548D01*
X293661Y17619D01*
X293644Y17652D01*
X293636Y17658D01*
X293629Y17668D01*
X291433Y19863D01*
X289945Y23456D01*
X289945Y27344D01*
X291433Y30937D01*
X294183Y33687D01*
X297776Y35175D01*
X301664Y35175D01*
X305257Y33687D01*
X308007Y30937D01*
X309495Y27344D01*
X309495Y23456D01*
X308007Y19863D01*
X305811Y17668D01*
X305798Y17646D01*
X305778Y17630D01*
X305753Y17573D01*
X305720Y17521D01*
X305718Y17495D01*
X305707Y17471D01*
X305709Y17410D01*
X305703Y17348D01*
X305713Y17324D01*
X305714Y17298D01*
X305743Y17244D01*
X305765Y17186D01*
X305784Y17169D01*
X305796Y17146D01*
X305847Y17111D01*
X305892Y17069D01*
X305917Y17061D01*
X305938Y17046D01*
X306023Y17030D01*
X306058Y17019D01*
X306068Y17021D01*
X306080Y17019D01*
X318760Y17019D01*
X318785Y17025D01*
X318811Y17022D01*
X318868Y17044D01*
X318928Y17058D01*
X318948Y17075D01*
X318972Y17084D01*
X319014Y17129D01*
X319062Y17168D01*
X319073Y17192D01*
X319090Y17211D01*
X319108Y17270D01*
X319133Y17327D01*
X319132Y17352D01*
X319139Y17377D01*
X319129Y17438D01*
X319126Y17500D01*
X319114Y17522D01*
X319110Y17548D01*
X319061Y17619D01*
X319044Y17652D01*
X319036Y17658D01*
X319029Y17668D01*
X316833Y19863D01*
X315345Y23456D01*
X315345Y27344D01*
X316833Y30937D01*
X319583Y33687D01*
X323176Y35175D01*
X327064Y35175D01*
X330657Y33687D01*
X333407Y30937D01*
X334895Y27344D01*
X334895Y23456D01*
X333407Y19863D01*
X331211Y17668D01*
X331198Y17646D01*
X331178Y17630D01*
X331153Y17573D01*
X331120Y17521D01*
X331118Y17495D01*
X331107Y17471D01*
X331109Y17410D01*
X331103Y17348D01*
X331113Y17324D01*
X331114Y17298D01*
X331143Y17244D01*
X331165Y17186D01*
X331184Y17169D01*
X331196Y17146D01*
X331247Y17111D01*
X331292Y17069D01*
X331317Y17061D01*
X331338Y17046D01*
X331423Y17030D01*
X331458Y17019D01*
X331468Y17021D01*
X331480Y17019D01*
X337670Y17019D01*
X337744Y17036D01*
X337818Y17049D01*
X337829Y17056D01*
X337838Y17058D01*
X337867Y17082D01*
X337939Y17130D01*
X340634Y19825D01*
X340674Y19890D01*
X340718Y19952D01*
X340720Y19964D01*
X340725Y19973D01*
X340729Y20010D01*
X340745Y20094D01*
X340745Y34282D01*
X341638Y35175D01*
X359402Y35175D01*
X360295Y34282D01*
X360295Y16518D01*
X359402Y15625D01*
X345214Y15625D01*
X345140Y15608D01*
X345066Y15595D01*
X345055Y15588D01*
X345046Y15586D01*
X345017Y15562D01*
X344945Y15514D01*
X340353Y10921D01*
X292904Y10921D01*
X292889Y10918D01*
X292873Y10920D01*
X292742Y10883D01*
X292735Y10882D01*
X292734Y10881D01*
X292671Y10829D01*
X292601Y10772D01*
X292601Y10771D01*
X292600Y10770D01*
X292567Y10695D01*
X292530Y10613D01*
X292530Y10612D01*
X292534Y10527D01*
X292537Y10440D01*
X292537Y10439D01*
X292578Y10364D01*
X292620Y10288D01*
X292621Y10287D01*
X292693Y10236D01*
X292761Y10188D01*
X292762Y10188D01*
X292763Y10188D01*
X292770Y10187D01*
X292904Y10161D01*
X588699Y10161D01*
X588749Y10172D01*
X588800Y10174D01*
X588832Y10192D01*
X588868Y10200D01*
X588907Y10233D01*
X588952Y10257D01*
X588973Y10287D01*
X589001Y10310D01*
X589022Y10357D01*
X589052Y10399D01*
X589060Y10441D01*
X589072Y10469D01*
X589071Y10499D01*
X589079Y10541D01*
X589079Y45889D01*
X589073Y45914D01*
X589076Y45939D01*
X589054Y45997D01*
X589040Y46057D01*
X589023Y46077D01*
X589014Y46101D01*
X588969Y46143D01*
X588930Y46191D01*
X588906Y46201D01*
X588887Y46219D01*
X588828Y46237D01*
X588771Y46262D01*
X588746Y46261D01*
X588721Y46268D01*
X588660Y46258D01*
X588598Y46255D01*
X588576Y46243D01*
X588550Y46238D01*
X588479Y46190D01*
X588446Y46172D01*
X588440Y46164D01*
X588430Y46157D01*
X587127Y44854D01*
X585562Y43717D01*
X583838Y42839D01*
X581998Y42241D01*
X580087Y41938D01*
X579881Y41938D01*
X579881Y53848D01*
X579870Y53898D01*
X579868Y53949D01*
X579850Y53981D01*
X579842Y54017D01*
X579809Y54056D01*
X579785Y54101D01*
X579755Y54122D01*
X579732Y54150D01*
X579685Y54171D01*
X579643Y54200D01*
X579601Y54209D01*
X579573Y54221D01*
X579543Y54220D01*
X579501Y54228D01*
X579119Y54228D01*
X579119Y54230D01*
X579501Y54230D01*
X579551Y54242D01*
X579602Y54243D01*
X579634Y54261D01*
X579670Y54269D01*
X579709Y54302D01*
X579754Y54326D01*
X579775Y54356D01*
X579803Y54380D01*
X579824Y54426D01*
X579854Y54468D01*
X579862Y54510D01*
X579874Y54538D01*
X579873Y54568D01*
X579881Y54610D01*
X579881Y66520D01*
X580087Y66520D01*
X581998Y66217D01*
X583838Y65619D01*
X585562Y64741D01*
X587127Y63604D01*
X588430Y62301D01*
X588452Y62287D01*
X588468Y62267D01*
X588525Y62242D01*
X588577Y62209D01*
X588603Y62207D01*
X588627Y62196D01*
X588688Y62199D01*
X588750Y62193D01*
X588774Y62202D01*
X588800Y62203D01*
X588854Y62232D01*
X588912Y62254D01*
X588929Y62273D01*
X588952Y62286D01*
X588987Y62336D01*
X589029Y62381D01*
X589037Y62406D01*
X589052Y62427D01*
X589068Y62512D01*
X589079Y62548D01*
X589077Y62557D01*
X589079Y62569D01*
X589079Y72725D01*
X589073Y72751D01*
X589076Y72776D01*
X589054Y72834D01*
X589040Y72894D01*
X589023Y72914D01*
X589014Y72938D01*
X588969Y72980D01*
X588930Y73028D01*
X588906Y73038D01*
X588887Y73056D01*
X588828Y73073D01*
X588771Y73099D01*
X588746Y73098D01*
X588721Y73105D01*
X588660Y73094D01*
X588598Y73092D01*
X588576Y73080D01*
X588550Y73075D01*
X588479Y73027D01*
X588446Y73009D01*
X588440Y73001D01*
X588430Y72994D01*
X585507Y70071D01*
X581363Y68354D01*
X576877Y68354D01*
X572733Y70071D01*
X569562Y73242D01*
X568276Y76346D01*
X568239Y76397D01*
X568209Y76453D01*
X568189Y76467D01*
X568175Y76486D01*
X568119Y76516D01*
X568067Y76553D01*
X568041Y76558D01*
X568022Y76568D01*
X567985Y76569D01*
X567925Y76580D01*
X560458Y76580D01*
X503829Y133210D01*
X503764Y133250D01*
X503702Y133294D01*
X503690Y133296D01*
X503681Y133301D01*
X503644Y133305D01*
X503560Y133321D01*
X332601Y133321D01*
X332527Y133304D01*
X332452Y133291D01*
X332442Y133284D01*
X332432Y133282D01*
X332404Y133258D01*
X332332Y133210D01*
X330694Y131571D01*
X210354Y131571D01*
X210280Y131554D01*
X210205Y131541D01*
X210195Y131534D01*
X210185Y131532D01*
X210156Y131508D01*
X210085Y131460D01*
X207938Y129313D01*
X203542Y129313D01*
X200433Y132422D01*
X200433Y136818D01*
X203542Y139927D01*
X207938Y139927D01*
X210085Y137780D01*
X210149Y137740D01*
X210211Y137696D01*
X210223Y137694D01*
X210232Y137689D01*
X210269Y137685D01*
X210354Y137669D01*
X328011Y137669D01*
X328085Y137686D01*
X328159Y137699D01*
X328169Y137706D01*
X328179Y137708D01*
X328208Y137732D01*
X328279Y137780D01*
X329918Y139419D01*
X506243Y139419D01*
X562872Y82789D01*
X562937Y82749D01*
X562999Y82705D01*
X563011Y82703D01*
X563020Y82698D01*
X563057Y82694D01*
X563141Y82678D01*
X567925Y82678D01*
X567987Y82692D01*
X568050Y82699D01*
X568070Y82712D01*
X568094Y82717D01*
X568143Y82758D01*
X568196Y82792D01*
X568211Y82814D01*
X568227Y82827D01*
X568243Y82862D01*
X568276Y82912D01*
X569562Y86016D01*
X572733Y89187D01*
X576877Y90904D01*
X581363Y90904D01*
X585507Y89187D01*
X588430Y86264D01*
X588452Y86250D01*
X588468Y86230D01*
X588525Y86205D01*
X588577Y86172D01*
X588603Y86170D01*
X588627Y86159D01*
X588688Y86162D01*
X588750Y86156D01*
X588774Y86165D01*
X588800Y86166D01*
X588854Y86195D01*
X588912Y86217D01*
X588929Y86236D01*
X588952Y86249D01*
X588987Y86299D01*
X589029Y86344D01*
X589037Y86369D01*
X589052Y86390D01*
X589068Y86475D01*
X589079Y86511D01*
X589077Y86521D01*
X589079Y86533D01*
X589079Y93374D01*
X589068Y93424D01*
X589066Y93475D01*
X589048Y93507D01*
X589040Y93543D01*
X589007Y93582D01*
X588983Y93627D01*
X588953Y93648D01*
X588930Y93676D01*
X588883Y93697D01*
X588841Y93727D01*
X588799Y93735D01*
X588771Y93747D01*
X588741Y93746D01*
X588699Y93754D01*
X568738Y93754D01*
X567845Y94647D01*
X567845Y115411D01*
X568738Y116304D01*
X588699Y116304D01*
X588749Y116315D01*
X588800Y116317D01*
X588832Y116335D01*
X588868Y116343D01*
X588907Y116376D01*
X588952Y116400D01*
X588973Y116430D01*
X589001Y116453D01*
X589022Y116500D01*
X589052Y116542D01*
X589060Y116584D01*
X589072Y116612D01*
X589071Y116642D01*
X589079Y116684D01*
X589079Y148719D01*
X589068Y148769D01*
X589066Y148820D01*
X589048Y148852D01*
X589040Y148888D01*
X589007Y148927D01*
X588983Y148972D01*
X588953Y148993D01*
X588930Y149021D01*
X588883Y149042D01*
X588841Y149072D01*
X588799Y149080D01*
X588771Y149092D01*
X588741Y149091D01*
X588699Y149099D01*
X10541Y149099D01*
X10491Y149088D01*
X10440Y149086D01*
X10408Y149068D01*
X10372Y149060D01*
X10333Y149027D01*
X10288Y149003D01*
X10267Y148973D01*
X10239Y148950D01*
X10218Y148903D01*
X10188Y148861D01*
X10180Y148819D01*
X10168Y148791D01*
X10169Y148761D01*
X10161Y148719D01*
X10161Y100426D01*
X10173Y100373D01*
X10177Y100317D01*
X10193Y100289D01*
X10200Y100258D01*
X10235Y100215D01*
X10263Y100167D01*
X10290Y100149D01*
X10310Y100124D01*
X10361Y100101D01*
X10407Y100071D01*
X10439Y100066D01*
X10469Y100053D01*
X10524Y100055D01*
X10579Y100048D01*
X10609Y100059D01*
X10642Y100060D01*
X10690Y100086D01*
X10743Y100104D01*
X10770Y100129D01*
X10794Y100143D01*
X10813Y100170D01*
X10849Y100203D01*
X10945Y100336D01*
X12313Y101704D01*
X13878Y102841D01*
X15602Y103719D01*
X17442Y104317D01*
X19353Y104620D01*
X19559Y104620D01*
X19559Y92710D01*
X19570Y92660D01*
X19572Y92609D01*
X19590Y92577D01*
X19598Y92541D01*
X19631Y92502D01*
X19655Y92457D01*
X19685Y92436D01*
X19708Y92408D01*
X19755Y92387D01*
X19797Y92358D01*
X19839Y92349D01*
X19867Y92337D01*
X19897Y92338D01*
X19939Y92330D01*
X20321Y92330D01*
X20321Y92328D01*
X19939Y92328D01*
X19889Y92316D01*
X19838Y92315D01*
X19806Y92297D01*
X19770Y92289D01*
X19731Y92256D01*
X19686Y92232D01*
X19665Y92202D01*
X19637Y92178D01*
X19616Y92132D01*
X19586Y92090D01*
X19578Y92048D01*
X19566Y92020D01*
X19567Y91990D01*
X19567Y91989D01*
X19566Y91987D01*
X19566Y91984D01*
X19559Y91948D01*
X19559Y80038D01*
X19353Y80038D01*
X17442Y80341D01*
X15602Y80939D01*
X13878Y81817D01*
X12313Y82954D01*
X10945Y84322D01*
X10849Y84455D01*
X10807Y84491D01*
X10772Y84534D01*
X10742Y84547D01*
X10718Y84568D01*
X10664Y84582D01*
X10613Y84605D01*
X10581Y84604D01*
X10550Y84612D01*
X10496Y84600D01*
X10440Y84598D01*
X10412Y84583D01*
X10380Y84576D01*
X10337Y84542D01*
X10288Y84515D01*
X10269Y84489D01*
X10244Y84469D01*
X10220Y84419D01*
X10188Y84374D01*
X10181Y84337D01*
X10169Y84313D01*
X10170Y84279D01*
X10161Y84232D01*
X10161Y78584D01*
X10172Y78534D01*
X10174Y78483D01*
X10192Y78451D01*
X10200Y78415D01*
X10233Y78376D01*
X10257Y78331D01*
X10287Y78310D01*
X10310Y78282D01*
X10357Y78261D01*
X10399Y78231D01*
X10441Y78223D01*
X10469Y78211D01*
X10499Y78212D01*
X10541Y78204D01*
X30702Y78204D01*
X31595Y77311D01*
X31595Y56547D01*
X30702Y55654D01*
X10541Y55654D01*
X10491Y55643D01*
X10440Y55641D01*
X10408Y55623D01*
X10372Y55615D01*
X10333Y55582D01*
X10288Y55558D01*
X10267Y55528D01*
X10239Y55505D01*
X10218Y55458D01*
X10188Y55416D01*
X10180Y55374D01*
X10168Y55346D01*
X10169Y55316D01*
X10161Y55274D01*
X10161Y10541D01*
X10172Y10491D01*
X10174Y10440D01*
X10192Y10408D01*
X10200Y10372D01*
X10233Y10333D01*
X10257Y10288D01*
X10287Y10267D01*
X10310Y10239D01*
X10357Y10218D01*
X10399Y10188D01*
X10441Y10180D01*
X10469Y10168D01*
X10499Y10169D01*
X10541Y10161D01*
X283676Y10161D01*
X283702Y10167D01*
G37*
%LPC*%
G36*
X246976Y15625D02*
X246976Y15625D01*
X243383Y17113D01*
X240633Y19863D01*
X239145Y23456D01*
X239145Y27344D01*
X240079Y29598D01*
X240089Y29660D01*
X240107Y29721D01*
X240103Y29745D01*
X240107Y29769D01*
X240088Y29830D01*
X240077Y29892D01*
X240062Y29914D01*
X240056Y29934D01*
X240030Y29962D01*
X239996Y30012D01*
X238251Y31757D01*
X238251Y113496D01*
X238234Y113570D01*
X238221Y113645D01*
X238214Y113655D01*
X238212Y113665D01*
X238188Y113694D01*
X238140Y113765D01*
X236955Y114950D01*
X236891Y114990D01*
X236829Y115034D01*
X236817Y115036D01*
X236808Y115041D01*
X236771Y115045D01*
X236686Y115061D01*
X176537Y115061D01*
X168747Y122852D01*
X168682Y122892D01*
X168620Y122936D01*
X168608Y122938D01*
X168599Y122943D01*
X168562Y122947D01*
X168478Y122963D01*
X165442Y122963D01*
X162333Y126072D01*
X162333Y130468D01*
X165442Y133577D01*
X169838Y133577D01*
X172947Y130468D01*
X172947Y127432D01*
X172964Y127358D01*
X172977Y127284D01*
X172984Y127273D01*
X172986Y127264D01*
X173010Y127235D01*
X173058Y127163D01*
X178951Y121270D01*
X179016Y121230D01*
X179078Y121186D01*
X179090Y121184D01*
X179099Y121179D01*
X179136Y121175D01*
X179220Y121159D01*
X236686Y121159D01*
X236760Y121176D01*
X236835Y121189D01*
X236845Y121196D01*
X236855Y121198D01*
X236884Y121222D01*
X236955Y121270D01*
X239102Y123417D01*
X243498Y123417D01*
X246607Y120308D01*
X246607Y115912D01*
X244460Y113765D01*
X244420Y113701D01*
X244376Y113639D01*
X244374Y113627D01*
X244369Y113618D01*
X244365Y113581D01*
X244349Y113496D01*
X244349Y105452D01*
X244355Y105426D01*
X244352Y105401D01*
X244374Y105343D01*
X244388Y105283D01*
X244405Y105263D01*
X244414Y105239D01*
X244459Y105197D01*
X244498Y105149D01*
X244522Y105139D01*
X244541Y105121D01*
X244600Y105104D01*
X244657Y105078D01*
X244682Y105079D01*
X244707Y105072D01*
X244768Y105083D01*
X244830Y105085D01*
X244852Y105097D01*
X244878Y105102D01*
X244949Y105150D01*
X244982Y105168D01*
X244988Y105176D01*
X244998Y105183D01*
X246722Y106907D01*
X251118Y106907D01*
X254227Y103798D01*
X254227Y100762D01*
X254244Y100688D01*
X254257Y100614D01*
X254264Y100603D01*
X254266Y100594D01*
X254290Y100565D01*
X254338Y100493D01*
X263251Y91580D01*
X263316Y91540D01*
X263378Y91496D01*
X263390Y91494D01*
X263399Y91489D01*
X263436Y91485D01*
X263520Y91469D01*
X274459Y91469D01*
X274533Y91486D01*
X274608Y91499D01*
X274618Y91506D01*
X274628Y91508D01*
X274656Y91532D01*
X274728Y91580D01*
X275096Y91949D01*
X355868Y91949D01*
X355942Y91966D01*
X356017Y91979D01*
X356027Y91986D01*
X356037Y91988D01*
X356066Y92012D01*
X356137Y92060D01*
X358284Y94207D01*
X362680Y94207D01*
X365789Y91098D01*
X365789Y86702D01*
X362680Y83593D01*
X358284Y83593D01*
X356137Y85740D01*
X356073Y85780D01*
X356011Y85824D01*
X355999Y85826D01*
X355990Y85831D01*
X355953Y85835D01*
X355868Y85851D01*
X277779Y85851D01*
X277705Y85834D01*
X277631Y85821D01*
X277621Y85814D01*
X277611Y85812D01*
X277582Y85788D01*
X277511Y85740D01*
X277142Y85371D01*
X260837Y85371D01*
X250027Y96182D01*
X249962Y96222D01*
X249900Y96266D01*
X249888Y96268D01*
X249879Y96273D01*
X249842Y96277D01*
X249758Y96293D01*
X246722Y96293D01*
X244998Y98017D01*
X244976Y98031D01*
X244960Y98051D01*
X244903Y98076D01*
X244851Y98109D01*
X244825Y98111D01*
X244801Y98122D01*
X244740Y98119D01*
X244678Y98125D01*
X244654Y98116D01*
X244628Y98115D01*
X244574Y98086D01*
X244516Y98064D01*
X244499Y98045D01*
X244476Y98032D01*
X244441Y97982D01*
X244399Y97937D01*
X244391Y97912D01*
X244376Y97891D01*
X244360Y97806D01*
X244349Y97770D01*
X244351Y97760D01*
X244349Y97748D01*
X244349Y34656D01*
X244358Y34618D01*
X244356Y34580D01*
X244377Y34535D01*
X244388Y34487D01*
X244413Y34457D01*
X244429Y34422D01*
X244467Y34391D01*
X244498Y34353D01*
X244534Y34338D01*
X244563Y34313D01*
X244611Y34303D01*
X244657Y34282D01*
X244695Y34284D01*
X244733Y34275D01*
X244792Y34288D01*
X244830Y34289D01*
X244848Y34299D01*
X244875Y34304D01*
X246976Y35175D01*
X250864Y35175D01*
X254457Y33687D01*
X257207Y30937D01*
X258695Y27344D01*
X258695Y23456D01*
X257207Y19863D01*
X254457Y17113D01*
X250864Y15625D01*
X246976Y15625D01*
G37*
%LPD*%
%LPC*%
G36*
X378948Y62597D02*
X378948Y62597D01*
X375839Y65706D01*
X375839Y70102D01*
X378494Y72757D01*
X378534Y72822D01*
X378578Y72883D01*
X378580Y72896D01*
X378585Y72904D01*
X378589Y72941D01*
X378605Y73026D01*
X378605Y82428D01*
X380205Y84027D01*
X380860Y84682D01*
X380900Y84747D01*
X380944Y84809D01*
X380946Y84821D01*
X380951Y84830D01*
X380955Y84867D01*
X380971Y84951D01*
X380971Y103341D01*
X380960Y103391D01*
X380958Y103442D01*
X380940Y103474D01*
X380932Y103510D01*
X380899Y103549D01*
X380875Y103594D01*
X380845Y103615D01*
X380822Y103644D01*
X380775Y103664D01*
X380733Y103694D01*
X380691Y103702D01*
X380663Y103714D01*
X380633Y103713D01*
X380591Y103721D01*
X377954Y103721D01*
X374845Y106830D01*
X374845Y111226D01*
X376761Y113142D01*
X376775Y113164D01*
X376795Y113180D01*
X376820Y113237D01*
X376852Y113289D01*
X376855Y113315D01*
X376866Y113339D01*
X376863Y113400D01*
X376869Y113462D01*
X376860Y113486D01*
X376859Y113512D01*
X376829Y113566D01*
X376807Y113624D01*
X376788Y113641D01*
X376776Y113664D01*
X376726Y113699D01*
X376680Y113741D01*
X376656Y113749D01*
X376634Y113764D01*
X376550Y113780D01*
X376514Y113791D01*
X376504Y113789D01*
X376492Y113791D01*
X368450Y113791D01*
X368376Y113774D01*
X368302Y113761D01*
X368291Y113754D01*
X368282Y113752D01*
X368253Y113728D01*
X368181Y113680D01*
X361018Y106517D01*
X360978Y106452D01*
X360934Y106390D01*
X360932Y106378D01*
X360927Y106369D01*
X360923Y106332D01*
X360907Y106248D01*
X360907Y103212D01*
X357798Y100103D01*
X353402Y100103D01*
X350293Y103212D01*
X350293Y107608D01*
X353402Y110717D01*
X356438Y110717D01*
X356512Y110734D01*
X356586Y110747D01*
X356597Y110754D01*
X356606Y110756D01*
X356635Y110780D01*
X356707Y110828D01*
X365767Y119889D01*
X426713Y119889D01*
X435499Y111103D01*
X435499Y100484D01*
X435516Y100410D01*
X435529Y100335D01*
X435536Y100325D01*
X435538Y100315D01*
X435562Y100286D01*
X435610Y100215D01*
X436548Y99277D01*
X436548Y94881D01*
X433439Y91772D01*
X429043Y91772D01*
X425934Y94881D01*
X425934Y99277D01*
X429154Y102497D01*
X429290Y102632D01*
X429330Y102697D01*
X429374Y102759D01*
X429376Y102771D01*
X429381Y102779D01*
X429385Y102816D01*
X429401Y102901D01*
X429401Y108420D01*
X429384Y108494D01*
X429371Y108568D01*
X429364Y108579D01*
X429362Y108588D01*
X429338Y108617D01*
X429290Y108689D01*
X424299Y113680D01*
X424234Y113720D01*
X424172Y113764D01*
X424160Y113766D01*
X424151Y113771D01*
X424114Y113775D01*
X424030Y113791D01*
X383812Y113791D01*
X383787Y113785D01*
X383761Y113788D01*
X383703Y113766D01*
X383643Y113752D01*
X383623Y113735D01*
X383599Y113726D01*
X383557Y113681D01*
X383509Y113642D01*
X383499Y113618D01*
X383481Y113599D01*
X383464Y113540D01*
X383438Y113483D01*
X383439Y113458D01*
X383432Y113433D01*
X383443Y113372D01*
X383445Y113310D01*
X383457Y113288D01*
X383462Y113262D01*
X383510Y113191D01*
X383528Y113158D01*
X383536Y113152D01*
X383543Y113142D01*
X385459Y111226D01*
X385459Y107472D01*
X385472Y107416D01*
X385472Y107404D01*
X385476Y107397D01*
X385489Y107323D01*
X385496Y107313D01*
X385498Y107303D01*
X385522Y107275D01*
X385570Y107203D01*
X386053Y106721D01*
X386053Y82689D01*
X384453Y81089D01*
X383798Y80434D01*
X383758Y80370D01*
X383714Y80308D01*
X383712Y80296D01*
X383707Y80287D01*
X383703Y80250D01*
X383687Y80165D01*
X383687Y73026D01*
X383704Y72952D01*
X383717Y72877D01*
X383724Y72867D01*
X383726Y72857D01*
X383750Y72828D01*
X383798Y72757D01*
X386453Y70102D01*
X386453Y65706D01*
X383344Y62597D01*
X378948Y62597D01*
G37*
%LPD*%
%LPC*%
G36*
X428332Y69623D02*
X428332Y69623D01*
X425223Y72732D01*
X425223Y77128D01*
X428332Y80237D01*
X429546Y80237D01*
X429620Y80254D01*
X429695Y80267D01*
X429705Y80274D01*
X429715Y80276D01*
X429744Y80300D01*
X429815Y80348D01*
X450512Y101045D01*
X450552Y101110D01*
X450596Y101172D01*
X450598Y101184D01*
X450603Y101192D01*
X450607Y101229D01*
X450623Y101314D01*
X450623Y103798D01*
X453732Y106907D01*
X456768Y106907D01*
X456842Y106924D01*
X456916Y106937D01*
X456927Y106944D01*
X456936Y106946D01*
X456965Y106970D01*
X457037Y107018D01*
X465803Y115784D01*
X465843Y115849D01*
X465886Y115911D01*
X465889Y115923D01*
X465894Y115931D01*
X465898Y115968D01*
X465914Y116053D01*
X465914Y119089D01*
X469023Y122197D01*
X473419Y122197D01*
X476527Y119089D01*
X476527Y114693D01*
X473419Y111584D01*
X470383Y111584D01*
X470309Y111567D01*
X470234Y111554D01*
X470224Y111547D01*
X470214Y111544D01*
X470185Y111521D01*
X470114Y111473D01*
X461348Y102707D01*
X461308Y102642D01*
X461264Y102580D01*
X461262Y102568D01*
X461257Y102559D01*
X461253Y102522D01*
X461237Y102438D01*
X461237Y100200D01*
X461243Y100175D01*
X461240Y100149D01*
X461262Y100091D01*
X461276Y100031D01*
X461293Y100011D01*
X461302Y99987D01*
X461347Y99945D01*
X461386Y99898D01*
X461410Y99887D01*
X461429Y99870D01*
X461488Y99852D01*
X461545Y99827D01*
X461570Y99828D01*
X461595Y99820D01*
X461656Y99831D01*
X461718Y99833D01*
X461740Y99846D01*
X461766Y99850D01*
X461837Y99898D01*
X461870Y99916D01*
X461876Y99924D01*
X461886Y99931D01*
X462698Y100744D01*
X477742Y100744D01*
X478635Y99851D01*
X478635Y84807D01*
X477742Y83914D01*
X462698Y83914D01*
X461805Y84807D01*
X461805Y99052D01*
X461799Y99078D01*
X461802Y99103D01*
X461780Y99161D01*
X461766Y99221D01*
X461749Y99241D01*
X461740Y99265D01*
X461695Y99307D01*
X461656Y99355D01*
X461632Y99365D01*
X461613Y99383D01*
X461554Y99400D01*
X461497Y99426D01*
X461472Y99425D01*
X461447Y99432D01*
X461386Y99421D01*
X461324Y99419D01*
X461302Y99407D01*
X461276Y99402D01*
X461205Y99354D01*
X461172Y99336D01*
X461166Y99328D01*
X461156Y99321D01*
X458128Y96293D01*
X453732Y96293D01*
X453608Y96417D01*
X453565Y96444D01*
X453527Y96479D01*
X453492Y96489D01*
X453461Y96508D01*
X453410Y96513D01*
X453361Y96528D01*
X453325Y96522D01*
X453288Y96525D01*
X453241Y96507D01*
X453190Y96498D01*
X453155Y96474D01*
X453126Y96463D01*
X453106Y96441D01*
X453070Y96417D01*
X435078Y78425D01*
X435051Y78381D01*
X435016Y78344D01*
X435006Y78309D01*
X434987Y78278D01*
X434982Y78227D01*
X434967Y78178D01*
X434973Y78142D01*
X434970Y78105D01*
X434988Y78057D01*
X434997Y78007D01*
X435021Y77972D01*
X435032Y77943D01*
X435054Y77922D01*
X435078Y77887D01*
X435837Y77128D01*
X435837Y72732D01*
X432728Y69623D01*
X428332Y69623D01*
G37*
%LPD*%
%LPC*%
G36*
X320382Y100103D02*
X320382Y100103D01*
X317273Y103212D01*
X317273Y106248D01*
X317256Y106322D01*
X317243Y106396D01*
X317236Y106407D01*
X317234Y106416D01*
X317210Y106445D01*
X317162Y106517D01*
X316349Y107330D01*
X316284Y107370D01*
X316222Y107414D01*
X316210Y107416D01*
X316201Y107421D01*
X316164Y107425D01*
X316080Y107441D01*
X277664Y107441D01*
X277590Y107424D01*
X277515Y107411D01*
X277505Y107404D01*
X277495Y107402D01*
X277466Y107378D01*
X277395Y107330D01*
X275248Y105183D01*
X270852Y105183D01*
X267743Y108292D01*
X267743Y112688D01*
X270852Y115797D01*
X275248Y115797D01*
X277395Y113650D01*
X277459Y113610D01*
X277521Y113566D01*
X277533Y113564D01*
X277542Y113559D01*
X277579Y113555D01*
X277664Y113539D01*
X318763Y113539D01*
X321473Y110828D01*
X321538Y110788D01*
X321600Y110744D01*
X321612Y110742D01*
X321621Y110737D01*
X321658Y110733D01*
X321742Y110717D01*
X324778Y110717D01*
X327887Y107608D01*
X327887Y103212D01*
X324778Y100103D01*
X320382Y100103D01*
G37*
%LPD*%
%LPC*%
G36*
X272376Y15625D02*
X272376Y15625D01*
X268783Y17113D01*
X266033Y19863D01*
X264545Y23456D01*
X264545Y27344D01*
X266033Y30937D01*
X268783Y33687D01*
X272376Y35175D01*
X276264Y35175D01*
X279857Y33687D01*
X282607Y30937D01*
X284095Y27344D01*
X284095Y23456D01*
X282607Y19863D01*
X279857Y17113D01*
X276264Y15625D01*
X272376Y15625D01*
G37*
%LPD*%
%LPC*%
G36*
X319112Y51843D02*
X319112Y51843D01*
X316003Y54952D01*
X316003Y59348D01*
X319112Y62457D01*
X322148Y62457D01*
X322222Y62474D01*
X322296Y62487D01*
X322307Y62494D01*
X322316Y62496D01*
X322345Y62520D01*
X322417Y62568D01*
X325512Y65663D01*
X331051Y65663D01*
X331125Y65681D01*
X331200Y65694D01*
X331210Y65700D01*
X331220Y65703D01*
X331248Y65727D01*
X331320Y65775D01*
X333466Y67921D01*
X337863Y67921D01*
X340971Y64813D01*
X340971Y60416D01*
X337863Y57308D01*
X333466Y57308D01*
X331320Y59454D01*
X331255Y59495D01*
X331193Y59538D01*
X331181Y59541D01*
X331173Y59546D01*
X331136Y59549D01*
X331051Y59566D01*
X328195Y59566D01*
X328121Y59549D01*
X328046Y59536D01*
X328036Y59529D01*
X328026Y59526D01*
X327997Y59503D01*
X327926Y59454D01*
X326728Y58257D01*
X326688Y58192D01*
X326644Y58130D01*
X326642Y58118D01*
X326637Y58109D01*
X326633Y58072D01*
X326617Y57988D01*
X326617Y54952D01*
X323508Y51843D01*
X319112Y51843D01*
G37*
%LPD*%
%LPC*%
G36*
X21081Y93090D02*
X21081Y93090D01*
X21081Y104620D01*
X21287Y104620D01*
X23198Y104317D01*
X25038Y103719D01*
X26762Y102841D01*
X28327Y101704D01*
X29695Y100336D01*
X30832Y98771D01*
X31710Y97047D01*
X32308Y95207D01*
X32611Y93296D01*
X32611Y93090D01*
X21081Y93090D01*
G37*
%LPD*%
%LPC*%
G36*
X21081Y80038D02*
X21081Y80038D01*
X21081Y91568D01*
X32611Y91568D01*
X32611Y91362D01*
X32308Y89451D01*
X31710Y87611D01*
X30832Y85887D01*
X29695Y84322D01*
X28327Y82954D01*
X26762Y81817D01*
X25038Y80939D01*
X23198Y80341D01*
X21287Y80038D01*
X21081Y80038D01*
G37*
%LPD*%
%LPC*%
G36*
X566829Y54990D02*
X566829Y54990D01*
X566829Y55196D01*
X567132Y57107D01*
X567730Y58947D01*
X568608Y60671D01*
X569745Y62236D01*
X571113Y63604D01*
X572678Y64741D01*
X574402Y65619D01*
X576242Y66217D01*
X578153Y66520D01*
X578359Y66520D01*
X578359Y54990D01*
X566829Y54990D01*
G37*
%LPD*%
%LPC*%
G36*
X578153Y41938D02*
X578153Y41938D01*
X576242Y42241D01*
X574402Y42839D01*
X572678Y43717D01*
X571113Y44854D01*
X569745Y46222D01*
X568608Y47787D01*
X567730Y49511D01*
X567132Y51351D01*
X566829Y53262D01*
X566829Y53468D01*
X578359Y53468D01*
X578359Y41938D01*
X578153Y41938D01*
G37*
%LPD*%
%LPC*%
G36*
X224281Y26161D02*
X224281Y26161D01*
X224281Y36191D01*
X224369Y36191D01*
X226047Y35925D01*
X227662Y35400D01*
X229176Y34629D01*
X230550Y33631D01*
X231751Y32430D01*
X232749Y31056D01*
X233520Y29542D01*
X234045Y27927D01*
X234311Y26249D01*
X234311Y26161D01*
X224281Y26161D01*
G37*
%LPD*%
%LPC*%
G36*
X212729Y26161D02*
X212729Y26161D01*
X212729Y26249D01*
X212995Y27927D01*
X213520Y29542D01*
X214291Y31056D01*
X215289Y32430D01*
X216490Y33631D01*
X217864Y34629D01*
X219378Y35400D01*
X220993Y35925D01*
X222671Y36191D01*
X222759Y36191D01*
X222759Y26161D01*
X212729Y26161D01*
G37*
%LPD*%
%LPC*%
G36*
X224281Y14609D02*
X224281Y14609D01*
X224281Y24639D01*
X234311Y24639D01*
X234311Y24551D01*
X234045Y22873D01*
X233520Y21258D01*
X232749Y19744D01*
X231751Y18370D01*
X230550Y17169D01*
X229176Y16171D01*
X227662Y15400D01*
X226047Y14875D01*
X224369Y14609D01*
X224281Y14609D01*
G37*
%LPD*%
%LPC*%
G36*
X222671Y14609D02*
X222671Y14609D01*
X220993Y14875D01*
X219378Y15400D01*
X217864Y16171D01*
X216490Y17169D01*
X215289Y18370D01*
X214291Y19744D01*
X213520Y21258D01*
X212995Y22873D01*
X212729Y24551D01*
X212729Y24639D01*
X222759Y24639D01*
X222759Y14609D01*
X222671Y14609D01*
G37*
%LPD*%
%LPC*%
G36*
X470981Y67690D02*
X470981Y67690D01*
X470981Y76360D01*
X471149Y76360D01*
X472971Y75997D01*
X474687Y75286D01*
X476232Y74254D01*
X477545Y72941D01*
X478577Y71396D01*
X479288Y69680D01*
X479651Y67858D01*
X479651Y67690D01*
X470981Y67690D01*
G37*
%LPD*%
%LPC*%
G36*
X470981Y57498D02*
X470981Y57498D01*
X470981Y66168D01*
X479651Y66168D01*
X479651Y66000D01*
X479601Y65750D01*
X479525Y65370D01*
X479525Y65369D01*
X479374Y64609D01*
X479298Y64229D01*
X479288Y64178D01*
X478577Y62462D01*
X477545Y60917D01*
X476232Y59604D01*
X474687Y58572D01*
X472971Y57861D01*
X471149Y57498D01*
X470981Y57498D01*
G37*
%LPD*%
%LPC*%
G36*
X460789Y67690D02*
X460789Y67690D01*
X460789Y67858D01*
X460871Y68266D01*
X460871Y68267D01*
X460946Y68647D01*
X461097Y69407D01*
X461152Y69680D01*
X461863Y71396D01*
X462895Y72941D01*
X464208Y74254D01*
X465753Y75286D01*
X467469Y75997D01*
X469291Y76360D01*
X469459Y76360D01*
X469459Y67690D01*
X460789Y67690D01*
G37*
%LPD*%
%LPC*%
G36*
X469291Y57498D02*
X469291Y57498D01*
X467469Y57861D01*
X465753Y58572D01*
X464208Y59604D01*
X462895Y60917D01*
X461863Y62462D01*
X461152Y64178D01*
X460789Y66000D01*
X460789Y66168D01*
X469459Y66168D01*
X469459Y57498D01*
X469291Y57498D01*
G37*
%LPD*%
%LPC*%
G36*
X470219Y66928D02*
X470219Y66928D01*
X470219Y66930D01*
X470221Y66930D01*
X470221Y66928D01*
X470219Y66928D01*
G37*
%LPD*%
%LPC*%
G36*
X223519Y25399D02*
X223519Y25399D01*
X223519Y25401D01*
X223521Y25401D01*
X223521Y25399D01*
X223519Y25399D01*
G37*
%LPD*%
D10*
X325120Y25400D03*
X299720Y25400D03*
D11*
X350520Y25400D03*
D10*
X274320Y25400D03*
X248920Y25400D03*
X223520Y25400D03*
D12*
X470220Y66929D03*
D13*
X470220Y92329D03*
D14*
X20320Y66929D03*
D15*
X20320Y92329D03*
D14*
X579120Y105029D03*
D15*
X579120Y79629D03*
X579120Y54229D03*
D16*
X153670Y81280D03*
X190500Y29210D03*
X217170Y86360D03*
X217170Y102870D03*
X273050Y95250D03*
X364490Y45720D03*
X93980Y57150D03*
X76200Y128270D03*
X138430Y40640D03*
X397510Y92710D03*
X405130Y86360D03*
X397510Y80010D03*
X369570Y86360D03*
X425620Y104310D03*
X449580Y86360D03*
X374650Y26670D03*
X443230Y44450D03*
X334010Y129540D03*
X430530Y74930D03*
X455930Y101600D03*
D17*
X454660Y101600D01*
X430530Y77470D01*
X430530Y74930D01*
D16*
X471221Y116891D03*
D18*
X455930Y101600D01*
D16*
X241300Y118110D03*
D18*
X177800Y118110D01*
X167640Y128270D01*
D16*
X167640Y128270D03*
D18*
X241300Y118110D02*
X241300Y33020D01*
X248920Y25400D01*
X339090Y13970D02*
X350520Y25400D01*
X339090Y13970D02*
X288290Y13970D01*
D16*
X288290Y13970D03*
X273050Y110490D03*
X431241Y97079D03*
D18*
X317500Y110490D02*
X273050Y110490D01*
X317500Y110490D02*
X322580Y105410D01*
D16*
X322580Y105410D03*
X355600Y105410D03*
D18*
X367030Y116840D01*
X431241Y100272D02*
X432450Y101481D01*
X431241Y100272D02*
X431241Y97079D01*
X432450Y101481D02*
X432450Y109840D01*
X425450Y116840D02*
X367030Y116840D01*
X425450Y116840D02*
X432450Y109840D01*
D16*
X321310Y57150D03*
D18*
X326775Y62615D01*
X335665Y62615D01*
D16*
X335665Y62615D03*
X205740Y134620D03*
D18*
X329431Y134620D01*
X331181Y136370D01*
X504980Y136370D01*
X561721Y79629D02*
X579120Y79629D01*
X561721Y79629D02*
X504980Y136370D01*
D16*
X360482Y88900D03*
X248920Y101600D03*
D18*
X275879Y88420D02*
X276359Y88900D01*
X360482Y88900D01*
X275879Y88420D02*
X262100Y88420D01*
X248920Y101600D01*
D16*
X381146Y67904D03*
X380152Y109028D03*
D17*
X383512Y83741D02*
X381146Y81375D01*
X381146Y67904D01*
X383512Y105668D02*
X380152Y109028D01*
X383512Y105668D02*
X383512Y83741D01*
M02*
