G04 EAGLE Gerber RS-274X export*
G75*
%MOMM*%
%FSLAX34Y34*%
%LPD*%
%INSilkscreen Bottom*%
%IPPOS*%
%AMOC8*
5,1,8,0,0,1.08239X$1,22.5*%
G01*
%ADD10C,0.101600*%

G36*
X339562Y9246D02*
X339562Y9246D01*
X342914Y9491D01*
X349622Y9984D01*
X356329Y10504D01*
X363037Y11052D01*
X369745Y11627D01*
X376452Y12233D01*
X383157Y12891D01*
X383158Y12893D01*
X383160Y12895D01*
X383158Y12897D01*
X383157Y12900D01*
X376452Y13561D01*
X369745Y14168D01*
X363037Y14743D01*
X356329Y15291D01*
X349622Y15811D01*
X342914Y16304D01*
X339562Y16548D01*
X336207Y16769D01*
X336206Y16769D01*
X329499Y16700D01*
X277949Y16700D01*
X238918Y79045D01*
X277949Y141393D01*
X329499Y141393D01*
X336206Y141355D01*
X336206Y141356D01*
X336207Y141355D01*
X342914Y141838D01*
X349622Y142334D01*
X356329Y142851D01*
X363037Y143395D01*
X369745Y143960D01*
X376452Y144553D01*
X383157Y145190D01*
X383158Y145192D01*
X383160Y145193D01*
X383160Y145194D01*
X383158Y145196D01*
X383157Y145198D01*
X376452Y145836D01*
X369745Y146428D01*
X363037Y146993D01*
X356329Y147538D01*
X349622Y148054D01*
X342914Y148550D01*
X336207Y149033D01*
X336206Y149033D01*
X329499Y148995D01*
X273740Y148995D01*
X273738Y148993D01*
X273736Y148993D01*
X272620Y147212D01*
X234435Y86208D01*
X196250Y147212D01*
X195133Y148993D01*
X195131Y148994D01*
X195130Y148995D01*
X139371Y148995D01*
X132663Y149033D01*
X125955Y148550D01*
X119248Y148054D01*
X112540Y147538D01*
X105832Y146993D01*
X99128Y146428D01*
X92421Y145836D01*
X85713Y145198D01*
X85711Y145197D01*
X85709Y145195D01*
X85710Y145195D01*
X85709Y145194D01*
X85711Y145192D01*
X85713Y145190D01*
X92421Y144553D01*
X99128Y143960D01*
X105832Y143395D01*
X112540Y142851D01*
X119248Y142334D01*
X125955Y141838D01*
X132663Y141355D01*
X132663Y141356D01*
X132663Y141355D01*
X139371Y141393D01*
X190924Y141393D01*
X229951Y79045D01*
X190924Y16700D01*
X139371Y16700D01*
X132663Y16769D01*
X129307Y16548D01*
X125955Y16304D01*
X119248Y15811D01*
X112540Y15291D01*
X105832Y14743D01*
X99128Y14168D01*
X92421Y13561D01*
X85713Y12900D01*
X85711Y12898D01*
X85709Y12896D01*
X85710Y12896D01*
X85709Y12896D01*
X85711Y12894D01*
X85713Y12891D01*
X92421Y12233D01*
X99128Y11627D01*
X105832Y11052D01*
X112540Y10504D01*
X119248Y9984D01*
X125955Y9491D01*
X129307Y9246D01*
X132663Y9026D01*
X139371Y9095D01*
X195130Y9095D01*
X195132Y9096D01*
X195133Y9097D01*
X196250Y10881D01*
X234435Y71881D01*
X272620Y10881D01*
X273736Y9097D01*
X273739Y9096D01*
X273740Y9095D01*
X329499Y9095D01*
X336206Y9026D01*
X336207Y9026D01*
X339562Y9246D01*
G37*
G36*
X103676Y52248D02*
X103676Y52248D01*
X107786Y52517D01*
X107787Y52517D01*
X111408Y53326D01*
X111408Y53327D01*
X111409Y53327D01*
X114540Y54677D01*
X114540Y54678D01*
X114541Y54678D01*
X117183Y56566D01*
X117184Y56566D01*
X119520Y59143D01*
X119520Y59144D01*
X121191Y62048D01*
X121191Y62049D01*
X121192Y62049D01*
X122194Y65277D01*
X122194Y65278D01*
X122529Y68826D01*
X122528Y68827D01*
X122529Y68827D01*
X122112Y72469D01*
X122111Y72469D01*
X122111Y72470D01*
X120871Y75811D01*
X120871Y75812D01*
X118800Y78854D01*
X118800Y78855D01*
X115904Y81602D01*
X118043Y86750D01*
X120186Y91900D01*
X122325Y97051D01*
X124468Y102201D01*
X124468Y102202D01*
X124467Y102204D01*
X124466Y102207D01*
X124465Y102206D01*
X124464Y102207D01*
X108871Y102207D01*
X108869Y102205D01*
X108868Y102205D01*
X107066Y98177D01*
X105264Y94153D01*
X103462Y90126D01*
X101660Y86102D01*
X101661Y86101D01*
X101660Y86100D01*
X101660Y73257D01*
X101664Y73253D01*
X102835Y73253D01*
X104884Y73001D01*
X106347Y72248D01*
X107221Y70992D01*
X107517Y69230D01*
X107176Y67682D01*
X106161Y66574D01*
X104471Y65906D01*
X102105Y65686D01*
X99474Y65686D01*
X99474Y102203D01*
X99470Y102207D01*
X84611Y102207D01*
X84607Y102203D01*
X84607Y52252D01*
X84610Y52248D01*
X84611Y52248D01*
X103676Y52248D01*
X103676Y52248D01*
G37*
G36*
X369542Y52252D02*
X369542Y52252D01*
X369542Y82149D01*
X369869Y85334D01*
X370850Y87607D01*
X372482Y88973D01*
X374771Y89428D01*
X375845Y89331D01*
X376833Y89045D01*
X377735Y88574D01*
X378554Y87909D01*
X379235Y87111D01*
X379721Y86233D01*
X380013Y85273D01*
X380110Y84233D01*
X380017Y83163D01*
X379741Y82181D01*
X379287Y81290D01*
X378647Y80488D01*
X377876Y79824D01*
X377019Y79348D01*
X376082Y79063D01*
X375064Y78970D01*
X374286Y79053D01*
X373456Y79297D01*
X372568Y79710D01*
X371624Y80285D01*
X371623Y80285D01*
X371622Y80286D01*
X371621Y80285D01*
X371619Y80284D01*
X371619Y80283D01*
X371618Y80282D01*
X371618Y65206D01*
X371621Y65202D01*
X371622Y65202D01*
X372758Y65105D01*
X372759Y65105D01*
X373744Y65036D01*
X374588Y64995D01*
X375284Y64981D01*
X379005Y65329D01*
X379006Y65330D01*
X379006Y65329D01*
X382451Y66373D01*
X382451Y66374D01*
X382452Y66373D01*
X385621Y68110D01*
X385622Y68110D01*
X388513Y70546D01*
X390925Y73468D01*
X390925Y73469D01*
X392648Y76676D01*
X392648Y76677D01*
X393678Y80167D01*
X393678Y80168D01*
X394023Y83940D01*
X394022Y83940D01*
X394023Y83941D01*
X393675Y87792D01*
X393674Y87793D01*
X393675Y87793D01*
X392624Y91324D01*
X392623Y91325D01*
X392624Y91325D01*
X390873Y94543D01*
X390873Y94544D01*
X388423Y97448D01*
X385464Y99850D01*
X385463Y99850D01*
X382183Y101566D01*
X382182Y101566D01*
X378582Y102596D01*
X378581Y102596D01*
X374661Y102937D01*
X374660Y102937D01*
X372624Y102827D01*
X370612Y102489D01*
X370611Y102489D01*
X368624Y101928D01*
X368623Y101928D01*
X366663Y101146D01*
X366663Y101145D01*
X366662Y101145D01*
X364799Y100170D01*
X364798Y100170D01*
X363110Y99040D01*
X361587Y97755D01*
X360240Y96315D01*
X360240Y96314D01*
X360239Y96314D01*
X358317Y93482D01*
X358317Y93481D01*
X356945Y90264D01*
X356945Y90263D01*
X356122Y86656D01*
X356122Y86655D01*
X355846Y82662D01*
X355846Y52252D01*
X355850Y52248D01*
X369538Y52248D01*
X369542Y52252D01*
G37*
G36*
X72333Y31919D02*
X72333Y31919D01*
X72333Y122532D01*
X72330Y122537D01*
X72329Y122536D01*
X72329Y122537D01*
X58725Y122537D01*
X58720Y122533D01*
X58721Y122533D01*
X58720Y122532D01*
X58720Y31919D01*
X58724Y31915D01*
X58725Y31915D01*
X72329Y31915D01*
X72333Y31919D01*
G37*
G36*
X46447Y31919D02*
X46447Y31919D01*
X46447Y122532D01*
X46443Y122537D01*
X46443Y122536D01*
X46443Y122537D01*
X32842Y122537D01*
X32837Y122533D01*
X32838Y122533D01*
X32837Y122532D01*
X32837Y31919D01*
X32841Y31915D01*
X32842Y31915D01*
X46443Y31915D01*
X46447Y31919D01*
G37*
G36*
X191158Y65305D02*
X191158Y65305D01*
X191159Y65305D01*
X194883Y66277D01*
X194884Y66277D01*
X198139Y67896D01*
X198139Y67897D01*
X198140Y67897D01*
X200927Y70160D01*
X200927Y70161D01*
X200928Y70161D01*
X203164Y72986D01*
X204759Y76287D01*
X204759Y76288D01*
X205717Y80060D01*
X205717Y80061D01*
X206034Y84309D01*
X206034Y102203D01*
X206030Y102207D01*
X192346Y102207D01*
X192342Y102203D01*
X192342Y85294D01*
X192252Y83924D01*
X191987Y82698D01*
X191546Y81620D01*
X190930Y80687D01*
X190166Y79937D01*
X189282Y79400D01*
X188277Y79077D01*
X187147Y78970D01*
X186104Y79066D01*
X185137Y79362D01*
X184242Y79855D01*
X183419Y80543D01*
X182731Y81366D01*
X182239Y82261D01*
X181946Y83228D01*
X181846Y84271D01*
X181936Y85356D01*
X182201Y86337D01*
X182648Y87218D01*
X183271Y87999D01*
X184032Y88639D01*
X184889Y89097D01*
X185842Y89372D01*
X186893Y89462D01*
X187770Y89403D01*
X188621Y89224D01*
X189437Y88928D01*
X190218Y88512D01*
X190219Y88512D01*
X190220Y88511D01*
X190221Y88512D01*
X190224Y88513D01*
X190224Y88514D01*
X190225Y88515D01*
X190225Y102678D01*
X190221Y102682D01*
X189398Y102810D01*
X188612Y102903D01*
X187861Y102958D01*
X187148Y102975D01*
X187147Y102975D01*
X183202Y102638D01*
X183202Y102637D01*
X183202Y102638D01*
X179598Y101621D01*
X179597Y101621D01*
X176338Y99929D01*
X176337Y99929D01*
X173423Y97559D01*
X173423Y97558D01*
X173422Y97558D01*
X171021Y94678D01*
X171021Y94677D01*
X169305Y91456D01*
X169305Y91455D01*
X168275Y87890D01*
X168275Y87889D01*
X168274Y87889D01*
X168275Y87889D01*
X168274Y87889D01*
X167930Y83979D01*
X167930Y83978D01*
X168278Y80157D01*
X168278Y80156D01*
X169318Y76639D01*
X169319Y76639D01*
X169319Y76638D01*
X171052Y73424D01*
X171052Y73423D01*
X173477Y70509D01*
X173478Y70509D01*
X173478Y70508D01*
X176399Y68090D01*
X176400Y68090D01*
X176400Y68089D01*
X179621Y66363D01*
X179622Y66363D01*
X183143Y65326D01*
X183144Y65326D01*
X186964Y64981D01*
X186965Y64981D01*
X191158Y65305D01*
G37*
G36*
X421104Y65246D02*
X421104Y65246D01*
X421105Y65247D01*
X424598Y66259D01*
X424599Y66260D01*
X427776Y67944D01*
X427776Y67945D01*
X430636Y70308D01*
X430636Y70309D01*
X432996Y73165D01*
X432997Y73166D01*
X434685Y76332D01*
X435694Y79815D01*
X435694Y79816D01*
X435695Y79816D01*
X436032Y83613D01*
X436025Y84075D01*
X435998Y84654D01*
X435950Y85356D01*
X435950Y85357D01*
X435888Y86173D01*
X435884Y86177D01*
X435883Y86177D01*
X415134Y86177D01*
X415131Y86174D01*
X415129Y86174D01*
X414923Y85406D01*
X414923Y85405D01*
X414771Y84665D01*
X414771Y84664D01*
X414685Y83958D01*
X414654Y83283D01*
X414654Y83282D01*
X414695Y82373D01*
X414695Y82372D01*
X414819Y81470D01*
X414819Y81469D01*
X415026Y80577D01*
X415312Y79695D01*
X415315Y79693D01*
X415316Y79692D01*
X422266Y79692D01*
X421706Y77920D01*
X420756Y76654D01*
X419421Y75893D01*
X417696Y75638D01*
X416475Y75776D01*
X415373Y76182D01*
X414392Y76864D01*
X413528Y77814D01*
X412822Y78978D01*
X412320Y80297D01*
X412020Y81767D01*
X411917Y83393D01*
X412016Y85084D01*
X412306Y86602D01*
X412791Y87952D01*
X413473Y89136D01*
X414309Y90097D01*
X415270Y90782D01*
X416347Y91192D01*
X417548Y91329D01*
X418564Y91202D01*
X419558Y90816D01*
X420540Y90176D01*
X421497Y89281D01*
X421503Y89280D01*
X421503Y89281D01*
X423453Y91624D01*
X425403Y93966D01*
X427350Y96309D01*
X429299Y98648D01*
X429299Y98654D01*
X426498Y100529D01*
X426497Y100528D01*
X426497Y100529D01*
X423541Y101869D01*
X420440Y102672D01*
X420439Y102672D01*
X417184Y102937D01*
X417183Y102937D01*
X413283Y102596D01*
X413282Y102596D01*
X409706Y101576D01*
X409705Y101576D01*
X406457Y99871D01*
X406457Y99870D01*
X406456Y99870D01*
X403531Y97486D01*
X399906Y93153D01*
X399906Y93152D01*
X399905Y93151D01*
X398348Y87841D01*
X398349Y87841D01*
X398348Y87840D01*
X398004Y83979D01*
X398004Y83978D01*
X398352Y80126D01*
X398352Y80125D01*
X399399Y76584D01*
X399400Y76583D01*
X399399Y76583D01*
X401143Y73355D01*
X401143Y73354D01*
X403586Y70436D01*
X406535Y68017D01*
X406536Y68017D01*
X409802Y66291D01*
X409803Y66291D01*
X409803Y66290D01*
X413389Y65253D01*
X413390Y65254D01*
X413390Y65253D01*
X417293Y64909D01*
X417294Y64909D01*
X421104Y65246D01*
G37*
G36*
X149500Y65246D02*
X149500Y65246D01*
X149500Y65247D01*
X149501Y65247D01*
X152994Y66259D01*
X152994Y66260D01*
X152995Y66260D01*
X156168Y67944D01*
X156168Y67945D01*
X159028Y70308D01*
X159028Y70309D01*
X161392Y73165D01*
X161392Y73166D01*
X163077Y76332D01*
X164090Y79815D01*
X164090Y79816D01*
X164428Y83613D01*
X164417Y84075D01*
X164390Y84654D01*
X164345Y85356D01*
X164345Y85357D01*
X164280Y86173D01*
X164276Y86177D01*
X164275Y86177D01*
X143529Y86177D01*
X143526Y86174D01*
X143525Y86174D01*
X143315Y85406D01*
X143315Y85405D01*
X143167Y84665D01*
X143167Y84664D01*
X143166Y84664D01*
X143077Y83958D01*
X143049Y83283D01*
X143050Y83282D01*
X143049Y83282D01*
X143091Y82373D01*
X143091Y82372D01*
X143211Y81470D01*
X143212Y81469D01*
X143211Y81469D01*
X143418Y80577D01*
X143708Y79695D01*
X143711Y79693D01*
X143712Y79692D01*
X150658Y79692D01*
X150098Y77920D01*
X149152Y76654D01*
X147813Y75893D01*
X146089Y75638D01*
X144870Y75776D01*
X143769Y76182D01*
X142784Y76864D01*
X141920Y77814D01*
X141218Y78978D01*
X140715Y80297D01*
X140412Y81767D01*
X140312Y83393D01*
X140409Y85084D01*
X140701Y86602D01*
X141187Y87952D01*
X141865Y89136D01*
X142705Y90097D01*
X143662Y90782D01*
X144743Y91192D01*
X145944Y91329D01*
X146956Y91202D01*
X147954Y90816D01*
X148932Y90176D01*
X149893Y89281D01*
X149898Y89280D01*
X149898Y89281D01*
X149899Y89281D01*
X151849Y91624D01*
X153795Y93966D01*
X155745Y96309D01*
X157692Y98648D01*
X157692Y98654D01*
X157691Y98654D01*
X154890Y100529D01*
X154889Y100528D01*
X154889Y100529D01*
X151937Y101869D01*
X151936Y101869D01*
X148832Y102672D01*
X148831Y102672D01*
X145576Y102937D01*
X145575Y102937D01*
X141675Y102596D01*
X141674Y102596D01*
X138102Y101576D01*
X138101Y101576D01*
X134852Y99871D01*
X134852Y99870D01*
X131923Y97486D01*
X129508Y94595D01*
X129507Y94595D01*
X127781Y91380D01*
X126744Y87841D01*
X126744Y87840D01*
X126396Y83979D01*
X126396Y83978D01*
X126747Y80126D01*
X126748Y80126D01*
X126747Y80125D01*
X127795Y76584D01*
X127795Y76583D01*
X129538Y73355D01*
X129539Y73355D01*
X129539Y73354D01*
X131978Y70436D01*
X134927Y68017D01*
X134928Y68017D01*
X138198Y66291D01*
X138198Y66290D01*
X141781Y65253D01*
X141782Y65254D01*
X141782Y65253D01*
X145685Y64909D01*
X145686Y64909D01*
X149500Y65246D01*
G37*
G36*
X277875Y52252D02*
X277875Y52252D01*
X277874Y52252D01*
X277875Y52252D01*
X277875Y66225D01*
X284017Y66225D01*
X284021Y66229D01*
X284021Y80685D01*
X284017Y80689D01*
X277875Y80689D01*
X277961Y82693D01*
X277961Y82695D01*
X277962Y82703D01*
X277963Y82707D01*
X277964Y82712D01*
X277965Y82720D01*
X277966Y82724D01*
X277966Y82729D01*
X277968Y82737D01*
X277968Y82741D01*
X277969Y82746D01*
X277970Y82754D01*
X277971Y82758D01*
X277971Y82763D01*
X277972Y82763D01*
X277971Y82763D01*
X277972Y82767D01*
X277973Y82771D01*
X277973Y82775D01*
X277974Y82780D01*
X277975Y82784D01*
X277975Y82788D01*
X277976Y82792D01*
X277977Y82797D01*
X277977Y82801D01*
X277978Y82805D01*
X277979Y82809D01*
X277979Y82814D01*
X277980Y82818D01*
X277981Y82822D01*
X277981Y82826D01*
X277982Y82831D01*
X277983Y82835D01*
X277983Y82839D01*
X277984Y82843D01*
X277984Y82848D01*
X277985Y82852D01*
X277986Y82860D01*
X277987Y82865D01*
X277988Y82869D01*
X277989Y82877D01*
X277990Y82882D01*
X277990Y82886D01*
X277992Y82894D01*
X277992Y82899D01*
X277993Y82903D01*
X277994Y82911D01*
X277995Y82916D01*
X277995Y82920D01*
X277996Y82920D01*
X277995Y82920D01*
X277996Y82924D01*
X277997Y82928D01*
X277997Y82933D01*
X277998Y82937D01*
X277999Y82941D01*
X277999Y82945D01*
X278000Y82950D01*
X278001Y82954D01*
X278001Y82958D01*
X278002Y82962D01*
X278003Y82967D01*
X278003Y82971D01*
X278004Y82975D01*
X278005Y82979D01*
X278005Y82984D01*
X278006Y82988D01*
X278007Y82992D01*
X278007Y82996D01*
X278008Y83001D01*
X278008Y83005D01*
X278009Y83009D01*
X278010Y83013D01*
X278010Y83018D01*
X278011Y83022D01*
X278012Y83026D01*
X278013Y83035D01*
X278014Y83039D01*
X278014Y83043D01*
X278016Y83052D01*
X278016Y83056D01*
X278017Y83060D01*
X278018Y83069D01*
X278019Y83073D01*
X278019Y83077D01*
X278020Y83077D01*
X278019Y83077D01*
X278021Y83086D01*
X278021Y83090D01*
X278022Y83094D01*
X278023Y83098D01*
X278023Y83103D01*
X278024Y83107D01*
X278025Y83111D01*
X278025Y83115D01*
X278026Y83120D01*
X278027Y83124D01*
X278027Y83128D01*
X278028Y83132D01*
X278029Y83137D01*
X278029Y83141D01*
X278030Y83145D01*
X278030Y83149D01*
X278031Y83149D01*
X278031Y83154D01*
X278032Y83158D01*
X278032Y83162D01*
X278033Y83166D01*
X278034Y83171D01*
X278034Y83175D01*
X278035Y83179D01*
X278036Y83183D01*
X278037Y83192D01*
X278038Y83196D01*
X278038Y83200D01*
X278040Y83209D01*
X278040Y83213D01*
X278041Y83217D01*
X278042Y83226D01*
X278043Y83230D01*
X278043Y83234D01*
X278044Y83234D01*
X278043Y83234D01*
X278045Y83243D01*
X278045Y83247D01*
X278046Y83251D01*
X278047Y83260D01*
X278048Y83264D01*
X278049Y83268D01*
X278049Y83273D01*
X278050Y83277D01*
X278051Y83281D01*
X278051Y83285D01*
X278052Y83290D01*
X278053Y83294D01*
X278053Y83298D01*
X278054Y83302D01*
X278054Y83307D01*
X278055Y83307D01*
X278055Y83311D01*
X278056Y83315D01*
X278056Y83319D01*
X278057Y83324D01*
X278058Y83328D01*
X278058Y83332D01*
X278059Y83336D01*
X278060Y83341D01*
X278060Y83345D01*
X278061Y83349D01*
X278062Y83353D01*
X278062Y83358D01*
X278064Y83366D01*
X278064Y83370D01*
X278065Y83375D01*
X278066Y83383D01*
X278067Y83387D01*
X278067Y83392D01*
X278068Y83392D01*
X278067Y83392D01*
X278069Y83400D01*
X278069Y83404D01*
X278070Y83409D01*
X278071Y83417D01*
X278072Y83421D01*
X278073Y83426D01*
X278073Y83430D01*
X278074Y83434D01*
X278075Y83438D01*
X278075Y83443D01*
X278076Y83447D01*
X278077Y83451D01*
X278077Y83455D01*
X278078Y83460D01*
X278078Y83464D01*
X278079Y83464D01*
X278079Y83468D01*
X278080Y83472D01*
X278080Y83477D01*
X278081Y83481D01*
X278082Y83485D01*
X278082Y83489D01*
X278083Y83494D01*
X278084Y83498D01*
X278084Y83502D01*
X278085Y83506D01*
X278086Y83511D01*
X278086Y83515D01*
X278088Y83523D01*
X278088Y83528D01*
X278089Y83532D01*
X278090Y83540D01*
X278091Y83545D01*
X278091Y83549D01*
X278092Y83549D01*
X278091Y83549D01*
X278093Y83557D01*
X278093Y83562D01*
X278094Y83566D01*
X278095Y83574D01*
X278096Y83579D01*
X278097Y83583D01*
X278098Y83591D01*
X278099Y83596D01*
X278099Y83600D01*
X278100Y83604D01*
X278101Y83608D01*
X278101Y83613D01*
X278102Y83617D01*
X278102Y83621D01*
X278103Y83621D01*
X278103Y83625D01*
X278104Y83630D01*
X278104Y83634D01*
X278105Y83638D01*
X278106Y83642D01*
X278106Y83647D01*
X278107Y83651D01*
X278108Y83655D01*
X278108Y83659D01*
X278109Y83664D01*
X278110Y83668D01*
X278110Y83672D01*
X278111Y83676D01*
X278112Y83681D01*
X278112Y83685D01*
X278113Y83689D01*
X278114Y83698D01*
X278115Y83702D01*
X278115Y83706D01*
X278116Y83706D01*
X278115Y83706D01*
X278117Y83715D01*
X278117Y83719D01*
X278118Y83723D01*
X278119Y83732D01*
X278120Y83736D01*
X278121Y83740D01*
X278122Y83749D01*
X278123Y83753D01*
X278123Y83757D01*
X278124Y83761D01*
X278125Y83766D01*
X278125Y83770D01*
X278126Y83774D01*
X278126Y83778D01*
X278127Y83778D01*
X278127Y83783D01*
X278128Y83787D01*
X278128Y83791D01*
X278129Y83795D01*
X278130Y83800D01*
X278130Y83804D01*
X278131Y83808D01*
X278132Y83812D01*
X278132Y83817D01*
X278133Y83821D01*
X278134Y83825D01*
X278134Y83829D01*
X278135Y83834D01*
X278136Y83838D01*
X278136Y83842D01*
X278137Y83846D01*
X278138Y83851D01*
X278138Y83855D01*
X278139Y83859D01*
X278139Y83863D01*
X278140Y83863D01*
X278139Y83863D01*
X278141Y83872D01*
X278141Y83876D01*
X278142Y83880D01*
X278143Y83889D01*
X278144Y83893D01*
X278145Y83897D01*
X278146Y83906D01*
X278147Y83910D01*
X278147Y83914D01*
X278149Y83923D01*
X278149Y83927D01*
X278150Y83931D01*
X278150Y83936D01*
X278151Y83936D01*
X278151Y83940D01*
X278152Y83944D01*
X278152Y83948D01*
X278153Y83953D01*
X278154Y83957D01*
X278154Y83961D01*
X278155Y83965D01*
X278156Y83970D01*
X278156Y83974D01*
X278157Y83978D01*
X278158Y83982D01*
X278158Y83987D01*
X278159Y83991D01*
X278160Y83995D01*
X278160Y83999D01*
X278161Y84004D01*
X278162Y84008D01*
X278162Y84012D01*
X278163Y84016D01*
X278163Y84021D01*
X278164Y84021D01*
X278163Y84021D01*
X278165Y84029D01*
X278165Y84033D01*
X278166Y84038D01*
X278167Y84046D01*
X278168Y84050D01*
X278169Y84055D01*
X278170Y84063D01*
X278171Y84067D01*
X278171Y84072D01*
X278173Y84080D01*
X278173Y84084D01*
X278174Y84089D01*
X278174Y84093D01*
X278175Y84093D01*
X278175Y84097D01*
X278176Y84101D01*
X278176Y84106D01*
X278177Y84110D01*
X278178Y84114D01*
X278178Y84118D01*
X278179Y84123D01*
X278180Y84127D01*
X278180Y84131D01*
X278181Y84135D01*
X278182Y84140D01*
X278182Y84144D01*
X278183Y84148D01*
X278184Y84152D01*
X278184Y84157D01*
X278185Y84161D01*
X278186Y84165D01*
X278186Y84169D01*
X278187Y84174D01*
X278187Y84178D01*
X278188Y84178D01*
X278187Y84178D01*
X278188Y84182D01*
X278189Y84186D01*
X278189Y84191D01*
X278190Y84195D01*
X278191Y84203D01*
X278192Y84208D01*
X278193Y84212D01*
X278194Y84220D01*
X278195Y84225D01*
X278195Y84229D01*
X278197Y84237D01*
X278197Y84242D01*
X278198Y84246D01*
X278199Y84254D01*
X278200Y84259D01*
X278200Y84263D01*
X278201Y84267D01*
X278202Y84271D01*
X278202Y84276D01*
X278203Y84280D01*
X278204Y84284D01*
X278204Y84288D01*
X278205Y84293D01*
X278206Y84297D01*
X278206Y84301D01*
X278207Y84305D01*
X278208Y84310D01*
X278208Y84314D01*
X278209Y84318D01*
X278210Y84322D01*
X278210Y84327D01*
X278211Y84331D01*
X278211Y84335D01*
X278212Y84335D01*
X278211Y84335D01*
X278212Y84339D01*
X278213Y84344D01*
X278213Y84348D01*
X278214Y84352D01*
X278215Y84361D01*
X278216Y84363D01*
X278646Y85692D01*
X279245Y86683D01*
X280074Y87403D01*
X281186Y87915D01*
X282587Y88225D01*
X284275Y88329D01*
X284279Y88333D01*
X284279Y102713D01*
X284275Y102717D01*
X283779Y102734D01*
X283348Y102744D01*
X282990Y102751D01*
X282701Y102755D01*
X282700Y102755D01*
X280409Y102620D01*
X278183Y102214D01*
X276026Y101542D01*
X273934Y100594D01*
X271977Y99419D01*
X270223Y98051D01*
X268673Y96490D01*
X268672Y96490D01*
X267329Y94740D01*
X267329Y94739D01*
X267328Y94739D01*
X265950Y92186D01*
X264965Y89251D01*
X264965Y89250D01*
X264964Y89250D01*
X264961Y89232D01*
X264961Y89228D01*
X264960Y89228D01*
X264955Y89198D01*
X264954Y89194D01*
X264949Y89164D01*
X264948Y89160D01*
X264943Y89130D01*
X264942Y89126D01*
X264942Y89122D01*
X264936Y89092D01*
X264936Y89088D01*
X264930Y89058D01*
X264930Y89054D01*
X264924Y89024D01*
X264924Y89020D01*
X264918Y88990D01*
X264918Y88986D01*
X264912Y88956D01*
X264912Y88952D01*
X264911Y88952D01*
X264906Y88922D01*
X264905Y88918D01*
X264900Y88888D01*
X264899Y88884D01*
X264894Y88854D01*
X264893Y88850D01*
X264888Y88820D01*
X264887Y88816D01*
X264882Y88786D01*
X264881Y88782D01*
X264876Y88752D01*
X264875Y88748D01*
X264875Y88743D01*
X264869Y88714D01*
X264869Y88709D01*
X264863Y88680D01*
X264863Y88675D01*
X264862Y88675D01*
X264857Y88646D01*
X264856Y88641D01*
X264851Y88612D01*
X264850Y88607D01*
X264845Y88578D01*
X264844Y88573D01*
X264839Y88544D01*
X264838Y88539D01*
X264833Y88510D01*
X264832Y88505D01*
X264827Y88476D01*
X264826Y88471D01*
X264821Y88442D01*
X264820Y88437D01*
X264815Y88408D01*
X264814Y88403D01*
X264809Y88374D01*
X264808Y88369D01*
X264807Y88365D01*
X264802Y88335D01*
X264801Y88331D01*
X264796Y88301D01*
X264795Y88297D01*
X264790Y88267D01*
X264789Y88263D01*
X264784Y88233D01*
X264783Y88229D01*
X264778Y88199D01*
X264777Y88195D01*
X264772Y88165D01*
X264771Y88161D01*
X264766Y88131D01*
X264765Y88127D01*
X264760Y88097D01*
X264759Y88093D01*
X264754Y88063D01*
X264753Y88059D01*
X264748Y88029D01*
X264747Y88025D01*
X264742Y87995D01*
X264741Y87991D01*
X264740Y87987D01*
X264735Y87957D01*
X264734Y87953D01*
X264729Y87923D01*
X264728Y87919D01*
X264723Y87889D01*
X264722Y87885D01*
X264717Y87855D01*
X264716Y87851D01*
X264711Y87821D01*
X264710Y87817D01*
X264705Y87787D01*
X264704Y87783D01*
X264699Y87753D01*
X264698Y87749D01*
X264693Y87719D01*
X264692Y87715D01*
X264687Y87685D01*
X264686Y87681D01*
X264681Y87651D01*
X264680Y87647D01*
X264675Y87617D01*
X264674Y87613D01*
X264669Y87583D01*
X264668Y87579D01*
X264667Y87575D01*
X264662Y87545D01*
X264661Y87541D01*
X264656Y87511D01*
X264655Y87507D01*
X264650Y87477D01*
X264649Y87473D01*
X264644Y87443D01*
X264643Y87439D01*
X264638Y87409D01*
X264637Y87405D01*
X264632Y87375D01*
X264631Y87371D01*
X264626Y87341D01*
X264625Y87337D01*
X264620Y87307D01*
X264619Y87303D01*
X264614Y87273D01*
X264613Y87269D01*
X264608Y87239D01*
X264607Y87235D01*
X264602Y87205D01*
X264601Y87201D01*
X264600Y87196D01*
X264595Y87167D01*
X264594Y87162D01*
X264589Y87133D01*
X264588Y87128D01*
X264583Y87099D01*
X264582Y87094D01*
X264577Y87065D01*
X264576Y87060D01*
X264571Y87031D01*
X264570Y87026D01*
X264565Y86997D01*
X264564Y86992D01*
X264559Y86963D01*
X264558Y86958D01*
X264553Y86929D01*
X264552Y86924D01*
X264547Y86895D01*
X264546Y86890D01*
X264541Y86861D01*
X264540Y86856D01*
X264535Y86827D01*
X264534Y86822D01*
X264533Y86818D01*
X264528Y86788D01*
X264527Y86784D01*
X264522Y86754D01*
X264521Y86750D01*
X264516Y86720D01*
X264515Y86716D01*
X264510Y86686D01*
X264509Y86682D01*
X264504Y86652D01*
X264503Y86648D01*
X264498Y86618D01*
X264497Y86614D01*
X264492Y86584D01*
X264491Y86580D01*
X264486Y86550D01*
X264485Y86546D01*
X264480Y86516D01*
X264479Y86512D01*
X264474Y86482D01*
X264473Y86482D01*
X264474Y86482D01*
X264473Y86478D01*
X264467Y86448D01*
X264467Y86444D01*
X264466Y86440D01*
X264461Y86410D01*
X264460Y86406D01*
X264455Y86376D01*
X264454Y86372D01*
X264449Y86342D01*
X264448Y86338D01*
X264443Y86308D01*
X264442Y86304D01*
X264437Y86274D01*
X264436Y86270D01*
X264431Y86240D01*
X264430Y86236D01*
X264425Y86206D01*
X264424Y86206D01*
X264425Y86206D01*
X264424Y86202D01*
X264418Y86172D01*
X264418Y86168D01*
X264412Y86138D01*
X264412Y86134D01*
X264406Y86104D01*
X264406Y86100D01*
X264400Y86070D01*
X264400Y86066D01*
X264399Y86062D01*
X264394Y86032D01*
X264393Y86028D01*
X264388Y85998D01*
X264387Y85994D01*
X264382Y85964D01*
X264381Y85960D01*
X264376Y85930D01*
X264375Y85930D01*
X264376Y85930D01*
X264375Y85929D01*
X264376Y85929D01*
X264375Y85928D01*
X264372Y85866D01*
X264364Y85722D01*
X264357Y85577D01*
X264349Y85433D01*
X264341Y85288D01*
X264334Y85144D01*
X264326Y84999D01*
X264318Y84855D01*
X264311Y84710D01*
X264310Y84689D01*
X264302Y84544D01*
X264294Y84400D01*
X264287Y84255D01*
X264279Y84111D01*
X264271Y83966D01*
X264264Y83822D01*
X264256Y83677D01*
X264248Y83533D01*
X264241Y83388D01*
X264233Y83244D01*
X264225Y83099D01*
X264217Y82934D01*
X264209Y82789D01*
X264201Y82645D01*
X264194Y82500D01*
X264186Y82356D01*
X264179Y82221D01*
X264179Y52252D01*
X264183Y52248D01*
X277871Y52248D01*
X277875Y52252D01*
G37*
G36*
X307461Y64971D02*
X307461Y64971D01*
X308443Y65047D01*
X309545Y65171D01*
X310768Y65346D01*
X310772Y65350D01*
X310772Y65351D01*
X310772Y79989D01*
X310771Y79989D01*
X310772Y79990D01*
X310770Y79991D01*
X310768Y79993D01*
X310767Y79992D01*
X310766Y79993D01*
X310070Y79641D01*
X309402Y79390D01*
X308769Y79239D01*
X308170Y79187D01*
X306539Y79545D01*
X305373Y80615D01*
X304674Y82398D01*
X304440Y84895D01*
X304440Y102203D01*
X304436Y102207D01*
X290752Y102207D01*
X290747Y102203D01*
X290748Y102203D01*
X290747Y102203D01*
X290747Y82259D01*
X290748Y82259D01*
X290747Y82259D01*
X291016Y78507D01*
X291017Y78507D01*
X291016Y78506D01*
X291826Y75154D01*
X293177Y72201D01*
X293177Y72200D01*
X295065Y69647D01*
X295066Y69647D01*
X297405Y67590D01*
X297406Y67590D01*
X300107Y66122D01*
X303170Y65240D01*
X303171Y65240D01*
X306595Y64947D01*
X306596Y64947D01*
X307461Y64971D01*
G37*
G36*
X335883Y65295D02*
X335883Y65295D01*
X335884Y65295D01*
X339349Y66342D01*
X339350Y66343D01*
X339350Y66342D01*
X342537Y68086D01*
X342538Y68086D01*
X345449Y70525D01*
X345449Y70526D01*
X347875Y73454D01*
X347875Y73455D01*
X349608Y76662D01*
X349608Y76663D01*
X350645Y80146D01*
X350645Y80147D01*
X350646Y80147D01*
X350646Y80148D01*
X350646Y80153D01*
X350647Y80161D01*
X350647Y80165D01*
X350648Y80170D01*
X350648Y80174D01*
X350648Y80178D01*
X350649Y80182D01*
X350649Y80187D01*
X350650Y80191D01*
X350650Y80195D01*
X350650Y80199D01*
X350651Y80204D01*
X350652Y80212D01*
X350652Y80216D01*
X350652Y80221D01*
X350653Y80225D01*
X350654Y80233D01*
X350654Y80238D01*
X350654Y80242D01*
X350655Y80246D01*
X350655Y80250D01*
X350656Y80255D01*
X350656Y80259D01*
X350656Y80263D01*
X350657Y80267D01*
X350657Y80272D01*
X350657Y80276D01*
X350658Y80276D01*
X350657Y80276D01*
X350658Y80284D01*
X350659Y80289D01*
X350659Y80293D01*
X350659Y80297D01*
X350660Y80306D01*
X350661Y80310D01*
X350661Y80314D01*
X350661Y80318D01*
X350662Y80323D01*
X350662Y80327D01*
X350663Y80335D01*
X350663Y80340D01*
X350664Y80344D01*
X350664Y80348D01*
X350665Y80357D01*
X350665Y80361D01*
X350666Y80365D01*
X350666Y80369D01*
X350667Y80378D01*
X350667Y80382D01*
X350668Y80386D01*
X350668Y80391D01*
X350668Y80395D01*
X350669Y80395D01*
X350668Y80395D01*
X350669Y80399D01*
X350670Y80408D01*
X350670Y80412D01*
X350670Y80416D01*
X350671Y80420D01*
X350672Y80429D01*
X350672Y80433D01*
X350672Y80437D01*
X350673Y80442D01*
X350673Y80446D01*
X350674Y80450D01*
X350674Y80454D01*
X350674Y80459D01*
X350675Y80463D01*
X350675Y80467D01*
X350676Y80471D01*
X350676Y80480D01*
X350677Y80484D01*
X350677Y80488D01*
X350678Y80493D01*
X350678Y80501D01*
X350679Y80505D01*
X350679Y80510D01*
X350680Y80514D01*
X350680Y80518D01*
X350680Y80522D01*
X350681Y80527D01*
X350681Y80531D01*
X350681Y80535D01*
X350682Y80535D01*
X350681Y80535D01*
X350682Y80539D01*
X350682Y80544D01*
X350683Y80552D01*
X350683Y80556D01*
X350684Y80561D01*
X350684Y80565D01*
X350685Y80573D01*
X350685Y80578D01*
X350686Y80582D01*
X350686Y80586D01*
X350687Y80590D01*
X350687Y80595D01*
X350687Y80599D01*
X350688Y80603D01*
X350688Y80607D01*
X350689Y80612D01*
X350689Y80616D01*
X350690Y80624D01*
X350690Y80629D01*
X350691Y80633D01*
X350691Y80637D01*
X350692Y80646D01*
X350692Y80650D01*
X350692Y80654D01*
X350693Y80654D01*
X350692Y80654D01*
X350693Y80658D01*
X350693Y80663D01*
X350694Y80667D01*
X350694Y80671D01*
X350694Y80675D01*
X350695Y80680D01*
X350695Y80684D01*
X350696Y80688D01*
X350696Y80697D01*
X350697Y80701D01*
X350697Y80705D01*
X350698Y80709D01*
X350698Y80718D01*
X350699Y80722D01*
X350699Y80726D01*
X350700Y80731D01*
X350700Y80735D01*
X350700Y80739D01*
X350701Y80743D01*
X350701Y80748D01*
X350702Y80752D01*
X350702Y80756D01*
X350702Y80760D01*
X350703Y80769D01*
X350704Y80773D01*
X350704Y80777D01*
X350704Y80782D01*
X350705Y80790D01*
X350705Y80794D01*
X350706Y80794D01*
X350705Y80794D01*
X350706Y80799D01*
X350706Y80803D01*
X350707Y80807D01*
X350707Y80811D01*
X350708Y80820D01*
X350708Y80824D01*
X350709Y80828D01*
X350709Y80833D01*
X350710Y80841D01*
X350710Y80845D01*
X350711Y80850D01*
X350711Y80854D01*
X350712Y80862D01*
X350712Y80867D01*
X350713Y80871D01*
X350713Y80875D01*
X350713Y80879D01*
X350714Y80884D01*
X350715Y80892D01*
X350715Y80896D01*
X350715Y80901D01*
X350716Y80905D01*
X350716Y80913D01*
X350717Y80913D01*
X350716Y80913D01*
X350717Y80918D01*
X350717Y80922D01*
X350718Y80926D01*
X350718Y80930D01*
X350718Y80935D01*
X350719Y80939D01*
X350719Y80943D01*
X350720Y80947D01*
X350720Y80952D01*
X350720Y80956D01*
X350721Y80964D01*
X350722Y80969D01*
X350722Y80973D01*
X350722Y80977D01*
X350723Y80986D01*
X350724Y80990D01*
X350724Y80994D01*
X350724Y80998D01*
X350725Y81003D01*
X350725Y81007D01*
X350726Y81011D01*
X350726Y81015D01*
X350726Y81020D01*
X350727Y81024D01*
X350727Y81028D01*
X350728Y81037D01*
X350728Y81041D01*
X350729Y81045D01*
X350729Y81049D01*
X350730Y81058D01*
X350730Y81062D01*
X350731Y81066D01*
X350731Y81071D01*
X350731Y81075D01*
X350732Y81079D01*
X350732Y81083D01*
X350733Y81088D01*
X350733Y81092D01*
X350733Y81096D01*
X350734Y81100D01*
X350735Y81109D01*
X350735Y81113D01*
X350735Y81117D01*
X350736Y81122D01*
X350737Y81130D01*
X350737Y81134D01*
X350737Y81139D01*
X350738Y81143D01*
X350738Y81147D01*
X350739Y81151D01*
X350739Y81156D01*
X350739Y81160D01*
X350740Y81164D01*
X350740Y81168D01*
X350740Y81173D01*
X350741Y81173D01*
X350740Y81173D01*
X350741Y81181D01*
X350742Y81185D01*
X350742Y81190D01*
X350742Y81194D01*
X350743Y81202D01*
X350744Y81207D01*
X350744Y81211D01*
X350744Y81215D01*
X350745Y81219D01*
X350745Y81224D01*
X350746Y81228D01*
X350746Y81232D01*
X350746Y81236D01*
X350747Y81241D01*
X350747Y81245D01*
X350748Y81253D01*
X350748Y81258D01*
X350749Y81262D01*
X350749Y81266D01*
X350750Y81275D01*
X350750Y81279D01*
X350751Y81283D01*
X350751Y81287D01*
X350751Y81292D01*
X350752Y81292D01*
X350752Y81296D01*
X350753Y81304D01*
X350753Y81309D01*
X350753Y81313D01*
X350754Y81317D01*
X350755Y81326D01*
X350755Y81330D01*
X350755Y81334D01*
X350756Y81338D01*
X350757Y81347D01*
X350757Y81351D01*
X350757Y81355D01*
X350758Y81360D01*
X350758Y81364D01*
X350759Y81368D01*
X350759Y81377D01*
X350760Y81381D01*
X350760Y81385D01*
X350761Y81389D01*
X350761Y81398D01*
X350762Y81402D01*
X350762Y81406D01*
X350763Y81411D01*
X350763Y81415D01*
X350763Y81419D01*
X350764Y81423D01*
X350764Y81428D01*
X350764Y81432D01*
X350765Y81432D01*
X350764Y81432D01*
X350765Y81436D01*
X350765Y81440D01*
X350766Y81449D01*
X350766Y81453D01*
X350767Y81457D01*
X350767Y81462D01*
X350768Y81470D01*
X350768Y81474D01*
X350769Y81479D01*
X350769Y81483D01*
X350770Y81487D01*
X350770Y81491D01*
X350770Y81496D01*
X350771Y81500D01*
X350771Y81504D01*
X350772Y81508D01*
X350772Y81513D01*
X350773Y81521D01*
X350773Y81525D01*
X350774Y81530D01*
X350774Y81534D01*
X350775Y81542D01*
X350775Y81547D01*
X350775Y81551D01*
X350776Y81551D01*
X350775Y81551D01*
X350776Y81555D01*
X350776Y81559D01*
X350777Y81564D01*
X350777Y81568D01*
X350777Y81572D01*
X350778Y81576D01*
X350778Y81581D01*
X350779Y81585D01*
X350779Y81593D01*
X350780Y81598D01*
X350780Y81602D01*
X350781Y81606D01*
X350781Y81615D01*
X350782Y81619D01*
X350782Y81623D01*
X350783Y81627D01*
X350783Y81632D01*
X350783Y81636D01*
X350784Y81640D01*
X350784Y81644D01*
X350785Y81649D01*
X350785Y81653D01*
X350785Y81657D01*
X350786Y81666D01*
X350787Y81670D01*
X350787Y81674D01*
X350787Y81678D01*
X350788Y81687D01*
X350788Y81691D01*
X350789Y81691D01*
X350788Y81691D01*
X350789Y81695D01*
X350789Y81700D01*
X350790Y81704D01*
X350790Y81708D01*
X350790Y81712D01*
X350791Y81717D01*
X350791Y81721D01*
X350792Y81725D01*
X350792Y81729D01*
X350793Y81738D01*
X350793Y81742D01*
X350794Y81746D01*
X350794Y81751D01*
X350795Y81759D01*
X350795Y81763D01*
X350796Y81768D01*
X350796Y81772D01*
X350796Y81776D01*
X350797Y81780D01*
X350798Y81789D01*
X350798Y81793D01*
X350798Y81797D01*
X350799Y81802D01*
X350799Y81810D01*
X350800Y81810D01*
X350799Y81810D01*
X350800Y81814D01*
X350800Y81819D01*
X350801Y81823D01*
X350801Y81831D01*
X350802Y81836D01*
X350802Y81840D01*
X350803Y81844D01*
X350803Y81848D01*
X350803Y81853D01*
X350804Y81861D01*
X350805Y81865D01*
X350805Y81870D01*
X350805Y81874D01*
X350806Y81882D01*
X350807Y81887D01*
X350807Y81891D01*
X350807Y81895D01*
X350808Y81899D01*
X350808Y81904D01*
X350809Y81908D01*
X350809Y81912D01*
X350809Y81916D01*
X350810Y81921D01*
X350810Y81925D01*
X350811Y81933D01*
X350811Y81938D01*
X350812Y81942D01*
X350812Y81946D01*
X350813Y81955D01*
X350813Y81959D01*
X350814Y81963D01*
X350814Y81967D01*
X350814Y81972D01*
X350815Y81976D01*
X350815Y81980D01*
X350816Y81984D01*
X350816Y81989D01*
X350816Y81993D01*
X350817Y81997D01*
X350818Y82006D01*
X350818Y82010D01*
X350818Y82014D01*
X350819Y82018D01*
X350820Y82027D01*
X350820Y82031D01*
X350820Y82035D01*
X350821Y82040D01*
X350821Y82044D01*
X350822Y82048D01*
X350822Y82052D01*
X350822Y82057D01*
X350823Y82061D01*
X350823Y82065D01*
X350823Y82069D01*
X350824Y82069D01*
X350823Y82069D01*
X350824Y82078D01*
X350825Y82082D01*
X350825Y82086D01*
X350825Y82091D01*
X350826Y82099D01*
X350827Y82103D01*
X350827Y82108D01*
X350827Y82112D01*
X350828Y82116D01*
X350828Y82120D01*
X350829Y82125D01*
X350829Y82129D01*
X350829Y82133D01*
X350830Y82137D01*
X350830Y82142D01*
X350831Y82150D01*
X350831Y82154D01*
X350832Y82159D01*
X350832Y82163D01*
X350833Y82171D01*
X350833Y82176D01*
X350834Y82180D01*
X350834Y82184D01*
X350834Y82188D01*
X350835Y82188D01*
X350835Y82193D01*
X350835Y82197D01*
X350836Y82201D01*
X350836Y82205D01*
X350836Y82210D01*
X350837Y82214D01*
X350838Y82222D01*
X350838Y82227D01*
X350838Y82231D01*
X350839Y82235D01*
X350840Y82244D01*
X350840Y82248D01*
X350840Y82252D01*
X350841Y82256D01*
X350841Y82261D01*
X350842Y82265D01*
X350842Y82273D01*
X350843Y82278D01*
X350843Y82282D01*
X350844Y82286D01*
X350844Y82295D01*
X350845Y82299D01*
X350845Y82303D01*
X350846Y82307D01*
X350846Y82316D01*
X350847Y82320D01*
X350847Y82324D01*
X350847Y82329D01*
X350848Y82329D01*
X350847Y82329D01*
X350848Y82333D01*
X350848Y82337D01*
X350849Y82346D01*
X350849Y82350D01*
X350850Y82354D01*
X350850Y82358D01*
X350851Y82367D01*
X350851Y82371D01*
X350852Y82375D01*
X350852Y82380D01*
X350853Y82384D01*
X350853Y82388D01*
X350853Y82392D01*
X350854Y82397D01*
X350854Y82401D01*
X350855Y82405D01*
X350855Y82409D01*
X350856Y82418D01*
X350856Y82422D01*
X350857Y82426D01*
X350857Y82431D01*
X350858Y82439D01*
X350858Y82443D01*
X350858Y82448D01*
X350859Y82448D01*
X350858Y82448D01*
X350859Y82452D01*
X350859Y82456D01*
X350860Y82460D01*
X350860Y82465D01*
X350860Y82469D01*
X350861Y82473D01*
X350861Y82477D01*
X350862Y82482D01*
X350862Y82490D01*
X350863Y82494D01*
X350863Y82499D01*
X350864Y82503D01*
X350864Y82511D01*
X350865Y82516D01*
X350865Y82520D01*
X350866Y82524D01*
X350866Y82528D01*
X350866Y82533D01*
X350867Y82537D01*
X350867Y82541D01*
X350868Y82545D01*
X350868Y82550D01*
X350868Y82554D01*
X350869Y82562D01*
X350870Y82567D01*
X350870Y82571D01*
X350870Y82575D01*
X350871Y82584D01*
X350871Y82588D01*
X350872Y82588D01*
X350871Y82588D01*
X350872Y82592D01*
X350872Y82596D01*
X350873Y82601D01*
X350873Y82605D01*
X350873Y82609D01*
X350874Y82613D01*
X350874Y82618D01*
X350875Y82622D01*
X350875Y82626D01*
X350876Y82635D01*
X350876Y82639D01*
X350877Y82643D01*
X350877Y82647D01*
X350878Y82656D01*
X350878Y82660D01*
X350879Y82664D01*
X350879Y82669D01*
X350879Y82673D01*
X350880Y82677D01*
X350880Y82681D01*
X350881Y82686D01*
X350881Y82690D01*
X350881Y82694D01*
X350882Y82698D01*
X350882Y82707D01*
X350883Y82707D01*
X350882Y82707D01*
X350883Y82711D01*
X350883Y82715D01*
X350884Y82720D01*
X350884Y82728D01*
X350885Y82732D01*
X350885Y82737D01*
X350886Y82741D01*
X350886Y82745D01*
X350886Y82749D01*
X350887Y82754D01*
X350887Y82758D01*
X350888Y82762D01*
X350888Y82766D01*
X350888Y82771D01*
X350889Y82779D01*
X350890Y82783D01*
X350890Y82788D01*
X350890Y82792D01*
X350891Y82800D01*
X350892Y82805D01*
X350892Y82809D01*
X350892Y82813D01*
X350893Y82817D01*
X350893Y82822D01*
X350894Y82830D01*
X350894Y82834D01*
X350895Y82839D01*
X350895Y82843D01*
X350896Y82851D01*
X350896Y82856D01*
X350897Y82860D01*
X350897Y82864D01*
X350898Y82873D01*
X350898Y82877D01*
X350899Y82881D01*
X350899Y82885D01*
X350899Y82890D01*
X350900Y82894D01*
X350901Y82902D01*
X350901Y82907D01*
X350901Y82911D01*
X350902Y82915D01*
X350903Y82924D01*
X350903Y82928D01*
X350903Y82932D01*
X350904Y82936D01*
X350904Y82941D01*
X350905Y82945D01*
X350905Y82949D01*
X350905Y82953D01*
X350906Y82958D01*
X350906Y82962D01*
X350906Y82966D01*
X350907Y82966D01*
X350906Y82966D01*
X350907Y82975D01*
X350908Y82979D01*
X350908Y82983D01*
X350908Y82987D01*
X350909Y82996D01*
X350910Y83000D01*
X350910Y83004D01*
X350910Y83009D01*
X350911Y83013D01*
X350911Y83017D01*
X350912Y83021D01*
X350912Y83026D01*
X350912Y83030D01*
X350913Y83034D01*
X350913Y83038D01*
X350914Y83047D01*
X350914Y83051D01*
X350915Y83055D01*
X350915Y83060D01*
X350916Y83068D01*
X350916Y83072D01*
X350917Y83077D01*
X350917Y83081D01*
X350917Y83085D01*
X350918Y83085D01*
X350918Y83089D01*
X350918Y83094D01*
X350919Y83098D01*
X350919Y83102D01*
X350919Y83106D01*
X350920Y83111D01*
X350921Y83119D01*
X350921Y83123D01*
X350921Y83128D01*
X350922Y83132D01*
X350923Y83140D01*
X350923Y83145D01*
X350923Y83149D01*
X350924Y83153D01*
X350924Y83157D01*
X350925Y83162D01*
X350925Y83166D01*
X350925Y83170D01*
X350926Y83174D01*
X350926Y83179D01*
X350927Y83183D01*
X350927Y83191D01*
X350928Y83196D01*
X350928Y83200D01*
X350929Y83204D01*
X350929Y83213D01*
X350930Y83217D01*
X350930Y83221D01*
X350930Y83225D01*
X350931Y83225D01*
X350930Y83225D01*
X350931Y83230D01*
X350931Y83234D01*
X350932Y83238D01*
X350932Y83242D01*
X350932Y83247D01*
X350933Y83251D01*
X350933Y83255D01*
X350934Y83264D01*
X350934Y83268D01*
X350935Y83272D01*
X350935Y83276D01*
X350936Y83285D01*
X350936Y83289D01*
X350937Y83293D01*
X350937Y83298D01*
X350938Y83302D01*
X350938Y83306D01*
X350939Y83315D01*
X350939Y83319D01*
X350940Y83323D01*
X350940Y83327D01*
X350941Y83336D01*
X350941Y83340D01*
X350941Y83344D01*
X350942Y83344D01*
X350941Y83344D01*
X350942Y83349D01*
X350943Y83357D01*
X350943Y83361D01*
X350943Y83366D01*
X350944Y83370D01*
X350944Y83374D01*
X350945Y83378D01*
X350945Y83387D01*
X350946Y83391D01*
X350946Y83395D01*
X350947Y83400D01*
X350947Y83408D01*
X350948Y83412D01*
X350948Y83417D01*
X350949Y83421D01*
X350949Y83425D01*
X350949Y83429D01*
X350950Y83434D01*
X350950Y83438D01*
X350951Y83442D01*
X350951Y83446D01*
X350951Y83451D01*
X350952Y83459D01*
X350953Y83463D01*
X350953Y83468D01*
X350953Y83472D01*
X350954Y83480D01*
X350954Y83485D01*
X350955Y83485D01*
X350954Y83485D01*
X350955Y83489D01*
X350955Y83493D01*
X350956Y83497D01*
X350956Y83502D01*
X350956Y83506D01*
X350957Y83510D01*
X350957Y83514D01*
X350958Y83519D01*
X350958Y83523D01*
X350959Y83531D01*
X350959Y83536D01*
X350960Y83540D01*
X350960Y83544D01*
X350961Y83553D01*
X350961Y83557D01*
X350962Y83561D01*
X350962Y83565D01*
X350962Y83570D01*
X350963Y83574D01*
X350963Y83578D01*
X350964Y83582D01*
X350964Y83587D01*
X350964Y83591D01*
X350965Y83595D01*
X350965Y83604D01*
X350966Y83604D01*
X350965Y83604D01*
X350966Y83608D01*
X350966Y83612D01*
X350967Y83616D01*
X350967Y83625D01*
X350968Y83629D01*
X350968Y83633D01*
X350969Y83638D01*
X350969Y83642D01*
X350969Y83646D01*
X350970Y83650D01*
X350970Y83655D01*
X350971Y83659D01*
X350971Y83663D01*
X350971Y83667D01*
X350972Y83676D01*
X350973Y83680D01*
X350973Y83684D01*
X350973Y83689D01*
X350974Y83697D01*
X350975Y83701D01*
X350975Y83706D01*
X350975Y83710D01*
X350976Y83714D01*
X350976Y83718D01*
X350977Y83723D01*
X350977Y83727D01*
X350977Y83731D01*
X350978Y83735D01*
X350978Y83740D01*
X350979Y83748D01*
X350979Y83752D01*
X350980Y83757D01*
X350980Y83761D01*
X350981Y83769D01*
X350981Y83774D01*
X350982Y83778D01*
X350982Y83782D01*
X350982Y83786D01*
X350983Y83791D01*
X350984Y83799D01*
X350984Y83803D01*
X350984Y83808D01*
X350985Y83812D01*
X350986Y83820D01*
X350986Y83825D01*
X350986Y83829D01*
X350987Y83833D01*
X350988Y83842D01*
X350988Y83846D01*
X350988Y83850D01*
X350989Y83854D01*
X350989Y83859D01*
X350989Y83863D01*
X350990Y83863D01*
X350989Y83863D01*
X350990Y83871D01*
X350991Y83876D01*
X350991Y83880D01*
X350991Y83884D01*
X350992Y83893D01*
X350993Y83897D01*
X350993Y83901D01*
X350993Y83905D01*
X350993Y83906D01*
X350642Y87710D01*
X349588Y91224D01*
X349587Y91225D01*
X347834Y94446D01*
X347833Y94447D01*
X345374Y97375D01*
X345373Y97376D01*
X342421Y99808D01*
X342420Y99808D01*
X342420Y99809D01*
X339175Y101548D01*
X339174Y101548D01*
X339174Y101549D01*
X335639Y102589D01*
X335638Y102589D01*
X331814Y102937D01*
X331797Y102937D01*
X331792Y102934D01*
X331793Y102933D01*
X331792Y102933D01*
X331792Y89428D01*
X331796Y89424D01*
X332833Y89328D01*
X333810Y89025D01*
X334709Y88522D01*
X335525Y87816D01*
X336206Y86973D01*
X336692Y86044D01*
X336981Y85035D01*
X337081Y83940D01*
X337080Y83932D01*
X337079Y83928D01*
X337079Y83923D01*
X337079Y83919D01*
X337078Y83915D01*
X337078Y83911D01*
X337077Y83902D01*
X337077Y83898D01*
X337077Y83894D01*
X337076Y83894D01*
X337077Y83894D01*
X337076Y83889D01*
X337076Y83885D01*
X337075Y83881D01*
X337075Y83872D01*
X337074Y83868D01*
X337074Y83864D01*
X337074Y83860D01*
X337073Y83855D01*
X337073Y83851D01*
X337072Y83843D01*
X337072Y83838D01*
X337071Y83834D01*
X337071Y83830D01*
X337071Y83826D01*
X337070Y83821D01*
X337069Y83813D01*
X337069Y83809D01*
X337069Y83804D01*
X337068Y83800D01*
X337068Y83796D01*
X337068Y83792D01*
X337067Y83783D01*
X337067Y83779D01*
X337066Y83779D01*
X337067Y83779D01*
X337066Y83775D01*
X337066Y83770D01*
X337065Y83766D01*
X337065Y83762D01*
X337065Y83758D01*
X337064Y83753D01*
X337064Y83749D01*
X337064Y83745D01*
X337063Y83741D01*
X337063Y83736D01*
X337062Y83732D01*
X337062Y83728D01*
X337062Y83724D01*
X337061Y83719D01*
X337061Y83715D01*
X337061Y83711D01*
X337060Y83707D01*
X337060Y83702D01*
X337059Y83698D01*
X337059Y83694D01*
X337059Y83690D01*
X337058Y83685D01*
X337058Y83681D01*
X337058Y83677D01*
X337057Y83673D01*
X337057Y83668D01*
X337057Y83664D01*
X337056Y83664D01*
X337057Y83664D01*
X337056Y83660D01*
X337056Y83656D01*
X337055Y83651D01*
X337055Y83647D01*
X337055Y83643D01*
X337054Y83639D01*
X337054Y83634D01*
X337054Y83630D01*
X337053Y83626D01*
X337053Y83622D01*
X337052Y83617D01*
X337052Y83613D01*
X337052Y83609D01*
X337051Y83605D01*
X337051Y83600D01*
X337051Y83596D01*
X337050Y83592D01*
X337050Y83588D01*
X337049Y83583D01*
X337049Y83579D01*
X337049Y83575D01*
X337048Y83571D01*
X337048Y83566D01*
X337048Y83562D01*
X337047Y83558D01*
X337047Y83549D01*
X337046Y83549D01*
X337047Y83549D01*
X337046Y83545D01*
X337046Y83541D01*
X337045Y83537D01*
X337045Y83532D01*
X337045Y83528D01*
X337044Y83520D01*
X337044Y83515D01*
X337043Y83511D01*
X337043Y83507D01*
X337042Y83503D01*
X337042Y83498D01*
X337041Y83490D01*
X337041Y83486D01*
X337041Y83481D01*
X337040Y83477D01*
X337040Y83473D01*
X337039Y83469D01*
X337039Y83460D01*
X337038Y83456D01*
X337038Y83452D01*
X337038Y83447D01*
X337037Y83443D01*
X337037Y83439D01*
X337036Y83430D01*
X337036Y83426D01*
X337035Y83422D01*
X337035Y83418D01*
X337035Y83413D01*
X337034Y83409D01*
X337034Y83401D01*
X337033Y83396D01*
X337033Y83392D01*
X337032Y83388D01*
X337032Y83384D01*
X337032Y83379D01*
X337031Y83371D01*
X337031Y83367D01*
X337030Y83362D01*
X337030Y83358D01*
X337029Y83354D01*
X337029Y83350D01*
X337029Y83345D01*
X337028Y83341D01*
X337028Y83337D01*
X337028Y83333D01*
X337027Y83328D01*
X337027Y83324D01*
X337026Y83320D01*
X337026Y83316D01*
X337026Y83311D01*
X337025Y83307D01*
X337025Y83303D01*
X337025Y83299D01*
X337024Y83294D01*
X337024Y83290D01*
X337024Y83286D01*
X337023Y83282D01*
X337023Y83277D01*
X337022Y83273D01*
X337022Y83269D01*
X337022Y83265D01*
X337021Y83260D01*
X337021Y83256D01*
X337021Y83252D01*
X337020Y83248D01*
X337020Y83243D01*
X337019Y83239D01*
X337019Y83235D01*
X337019Y83231D01*
X337018Y83226D01*
X337018Y83222D01*
X337018Y83218D01*
X337017Y83214D01*
X337017Y83209D01*
X337016Y83205D01*
X337016Y83201D01*
X337016Y83197D01*
X337015Y83192D01*
X337015Y83188D01*
X337015Y83184D01*
X337014Y83180D01*
X337014Y83175D01*
X337014Y83171D01*
X337013Y83171D01*
X337014Y83171D01*
X337013Y83167D01*
X337013Y83163D01*
X337012Y83158D01*
X337012Y83154D01*
X337012Y83150D01*
X337011Y83146D01*
X337011Y83137D01*
X337010Y83133D01*
X337010Y83129D01*
X337009Y83124D01*
X337009Y83120D01*
X337009Y83116D01*
X337008Y83107D01*
X337008Y83103D01*
X337007Y83099D01*
X337007Y83095D01*
X337006Y83090D01*
X337006Y83086D01*
X337005Y83078D01*
X337005Y83073D01*
X337005Y83069D01*
X337004Y83065D01*
X337004Y83061D01*
X337004Y83056D01*
X337003Y83056D01*
X337004Y83056D01*
X337003Y83048D01*
X337002Y83044D01*
X337002Y83039D01*
X337002Y83035D01*
X337001Y83031D01*
X337001Y83027D01*
X337000Y83018D01*
X337000Y83014D01*
X336999Y83010D01*
X336999Y83005D01*
X336999Y83001D01*
X336998Y82997D01*
X336998Y82988D01*
X336997Y82984D01*
X336997Y82980D01*
X336996Y82976D01*
X336996Y82971D01*
X336996Y82967D01*
X336995Y82963D01*
X336995Y82959D01*
X336995Y82954D01*
X336994Y82950D01*
X336994Y82946D01*
X336994Y82942D01*
X336993Y82942D01*
X336994Y82942D01*
X336993Y82937D01*
X336993Y82933D01*
X336992Y82929D01*
X336992Y82925D01*
X336992Y82920D01*
X336991Y82916D01*
X336991Y82912D01*
X336991Y82908D01*
X336990Y82903D01*
X336990Y82899D01*
X336989Y82895D01*
X336989Y82891D01*
X336989Y82886D01*
X336988Y82882D01*
X336988Y82878D01*
X336988Y82874D01*
X336987Y82869D01*
X336987Y82865D01*
X336986Y82861D01*
X336986Y82857D01*
X336986Y82852D01*
X336985Y82848D01*
X336985Y82844D01*
X336985Y82840D01*
X336984Y82835D01*
X336695Y81816D01*
X336217Y80887D01*
X335542Y80047D01*
X334733Y79352D01*
X333834Y78856D01*
X332850Y78556D01*
X331796Y78457D01*
X331792Y78452D01*
X331792Y64982D01*
X331796Y64978D01*
X332144Y64947D01*
X332145Y64947D01*
X335883Y65295D01*
G37*
G36*
X331759Y64981D02*
X331759Y64981D01*
X331759Y64982D01*
X331760Y64982D01*
X331760Y78452D01*
X331756Y78457D01*
X331756Y78456D01*
X331755Y78457D01*
X331735Y78457D01*
X330681Y78556D01*
X329707Y78856D01*
X328816Y79352D01*
X328007Y80047D01*
X327335Y80887D01*
X326853Y81816D01*
X326568Y82835D01*
X326471Y83940D01*
X326471Y83941D01*
X326472Y83945D01*
X326472Y83949D01*
X326472Y83953D01*
X326473Y83958D01*
X326473Y83962D01*
X326474Y83966D01*
X326474Y83970D01*
X326474Y83975D01*
X326475Y83979D01*
X326475Y83983D01*
X326475Y83987D01*
X326476Y83992D01*
X326476Y83996D01*
X326477Y84000D01*
X326477Y84004D01*
X326477Y84009D01*
X326478Y84013D01*
X326478Y84017D01*
X326480Y84034D01*
X326480Y84038D01*
X326480Y84043D01*
X326481Y84047D01*
X326481Y84051D01*
X326481Y84055D01*
X326482Y84060D01*
X326482Y84064D01*
X326483Y84068D01*
X326483Y84072D01*
X326483Y84077D01*
X326484Y84081D01*
X326484Y84085D01*
X326484Y84089D01*
X326485Y84094D01*
X326485Y84098D01*
X326486Y84102D01*
X326486Y84106D01*
X326486Y84111D01*
X326487Y84115D01*
X326487Y84119D01*
X326487Y84123D01*
X326488Y84128D01*
X326488Y84132D01*
X326489Y84136D01*
X326489Y84140D01*
X326489Y84145D01*
X326490Y84149D01*
X326490Y84153D01*
X326490Y84157D01*
X326491Y84162D01*
X326491Y84166D01*
X326492Y84170D01*
X326492Y84174D01*
X326492Y84179D01*
X326493Y84183D01*
X326493Y84187D01*
X326493Y84191D01*
X326494Y84196D01*
X326494Y84200D01*
X326495Y84204D01*
X326495Y84208D01*
X326495Y84213D01*
X326496Y84217D01*
X326496Y84221D01*
X326496Y84225D01*
X326497Y84230D01*
X326498Y84247D01*
X326499Y84251D01*
X326499Y84255D01*
X326499Y84259D01*
X326500Y84264D01*
X326500Y84268D01*
X326500Y84272D01*
X326501Y84272D01*
X326500Y84272D01*
X326501Y84276D01*
X326501Y84281D01*
X326502Y84285D01*
X326502Y84289D01*
X326502Y84293D01*
X326503Y84298D01*
X326503Y84302D01*
X326503Y84306D01*
X326504Y84306D01*
X326503Y84306D01*
X326504Y84310D01*
X326504Y84315D01*
X326505Y84319D01*
X326505Y84323D01*
X326505Y84327D01*
X326506Y84332D01*
X326506Y84336D01*
X326506Y84340D01*
X326507Y84340D01*
X326506Y84340D01*
X326507Y84344D01*
X326507Y84349D01*
X326508Y84353D01*
X326508Y84357D01*
X326508Y84361D01*
X326509Y84366D01*
X326509Y84370D01*
X326509Y84374D01*
X326510Y84374D01*
X326509Y84374D01*
X326510Y84378D01*
X326510Y84383D01*
X326511Y84387D01*
X326511Y84391D01*
X326511Y84395D01*
X326512Y84400D01*
X326512Y84404D01*
X326512Y84408D01*
X326513Y84408D01*
X326512Y84408D01*
X326513Y84412D01*
X326513Y84417D01*
X326514Y84421D01*
X326514Y84425D01*
X326514Y84429D01*
X326515Y84434D01*
X326515Y84438D01*
X326515Y84442D01*
X326516Y84442D01*
X326515Y84442D01*
X326517Y84459D01*
X326517Y84463D01*
X326518Y84468D01*
X326518Y84472D01*
X326518Y84476D01*
X326519Y84480D01*
X326519Y84485D01*
X326520Y84489D01*
X326520Y84493D01*
X326520Y84497D01*
X326521Y84502D01*
X326521Y84506D01*
X326521Y84510D01*
X326522Y84514D01*
X326522Y84519D01*
X326523Y84523D01*
X326523Y84527D01*
X326523Y84531D01*
X326524Y84536D01*
X326524Y84540D01*
X326524Y84544D01*
X326525Y84548D01*
X326525Y84553D01*
X326526Y84557D01*
X326526Y84561D01*
X326526Y84565D01*
X326527Y84570D01*
X326527Y84574D01*
X326527Y84578D01*
X326528Y84582D01*
X326528Y84587D01*
X326529Y84591D01*
X326529Y84595D01*
X326529Y84599D01*
X326530Y84604D01*
X326530Y84608D01*
X326530Y84612D01*
X326531Y84616D01*
X326531Y84621D01*
X326532Y84625D01*
X326532Y84629D01*
X326532Y84633D01*
X326533Y84638D01*
X326533Y84642D01*
X326533Y84646D01*
X326534Y84650D01*
X326534Y84655D01*
X326536Y84672D01*
X326536Y84676D01*
X326536Y84680D01*
X326537Y84684D01*
X326537Y84689D01*
X326538Y84693D01*
X326538Y84697D01*
X326538Y84701D01*
X326539Y84706D01*
X326539Y84710D01*
X326539Y84714D01*
X326540Y84718D01*
X326540Y84723D01*
X326541Y84727D01*
X326541Y84731D01*
X326541Y84735D01*
X326542Y84740D01*
X326542Y84744D01*
X326542Y84748D01*
X326543Y84752D01*
X326543Y84757D01*
X326544Y84761D01*
X326544Y84765D01*
X326544Y84769D01*
X326545Y84774D01*
X326545Y84778D01*
X326545Y84782D01*
X326546Y84786D01*
X326546Y84791D01*
X326547Y84795D01*
X326547Y84799D01*
X326547Y84803D01*
X326548Y84808D01*
X326548Y84812D01*
X326548Y84816D01*
X326549Y84820D01*
X326549Y84825D01*
X326550Y84829D01*
X326550Y84833D01*
X326550Y84837D01*
X326551Y84842D01*
X326551Y84846D01*
X326551Y84850D01*
X326552Y84854D01*
X326552Y84859D01*
X326553Y84863D01*
X326553Y84867D01*
X326554Y84880D01*
X326554Y84884D01*
X326555Y84888D01*
X326555Y84893D01*
X326556Y84897D01*
X326556Y84901D01*
X326556Y84905D01*
X326557Y84910D01*
X326557Y84914D01*
X326557Y84918D01*
X326558Y84922D01*
X326558Y84927D01*
X326559Y84931D01*
X326559Y84935D01*
X326559Y84939D01*
X326560Y84944D01*
X326560Y84948D01*
X326560Y84952D01*
X326561Y84956D01*
X326561Y84961D01*
X326562Y84965D01*
X326562Y84969D01*
X326562Y84973D01*
X326563Y84978D01*
X326563Y84982D01*
X326563Y84986D01*
X326564Y84990D01*
X326564Y84995D01*
X326565Y84999D01*
X326565Y85003D01*
X326565Y85007D01*
X326566Y85012D01*
X326566Y85016D01*
X326566Y85020D01*
X326567Y85024D01*
X326567Y85029D01*
X326568Y85033D01*
X326568Y85035D01*
X326860Y86044D01*
X327346Y86973D01*
X328024Y87817D01*
X328840Y88522D01*
X329731Y89025D01*
X330695Y89328D01*
X331734Y89428D01*
X331755Y89424D01*
X331755Y89425D01*
X331759Y89427D01*
X331759Y89428D01*
X331760Y89428D01*
X331760Y102933D01*
X331756Y102937D01*
X331755Y102937D01*
X327945Y102589D01*
X327944Y102589D01*
X324406Y101542D01*
X324405Y101541D01*
X324405Y101542D01*
X321156Y99798D01*
X321155Y99798D01*
X318193Y97355D01*
X318192Y97355D01*
X315725Y94423D01*
X315725Y94422D01*
X313964Y91205D01*
X313965Y91204D01*
X313964Y91204D01*
X312910Y87697D01*
X312910Y87696D01*
X312910Y87694D01*
X312909Y87690D01*
X312909Y87686D01*
X312908Y87677D01*
X312908Y87673D01*
X312907Y87669D01*
X312906Y87660D01*
X312906Y87656D01*
X312906Y87652D01*
X312905Y87648D01*
X312905Y87643D01*
X312904Y87639D01*
X312904Y87635D01*
X312904Y87631D01*
X312903Y87626D01*
X312903Y87622D01*
X312902Y87614D01*
X312902Y87609D01*
X312901Y87605D01*
X312901Y87597D01*
X312900Y87597D01*
X312901Y87597D01*
X312900Y87592D01*
X312900Y87588D01*
X312899Y87584D01*
X312899Y87580D01*
X312899Y87575D01*
X312898Y87575D01*
X312899Y87575D01*
X312898Y87571D01*
X312898Y87567D01*
X312897Y87563D01*
X312897Y87558D01*
X312896Y87550D01*
X312896Y87546D01*
X312895Y87541D01*
X312895Y87533D01*
X312894Y87529D01*
X312894Y87524D01*
X312893Y87520D01*
X312893Y87516D01*
X312893Y87512D01*
X312892Y87507D01*
X312892Y87503D01*
X312891Y87499D01*
X312891Y87495D01*
X312890Y87486D01*
X312890Y87482D01*
X312889Y87478D01*
X312889Y87469D01*
X312888Y87465D01*
X312888Y87461D01*
X312887Y87456D01*
X312887Y87452D01*
X312887Y87448D01*
X312886Y87444D01*
X312886Y87439D01*
X312885Y87435D01*
X312885Y87431D01*
X312884Y87422D01*
X312884Y87418D01*
X312883Y87414D01*
X312883Y87405D01*
X312882Y87401D01*
X312882Y87397D01*
X312881Y87393D01*
X312881Y87388D01*
X312881Y87384D01*
X312880Y87380D01*
X312880Y87376D01*
X312879Y87371D01*
X312879Y87367D01*
X312878Y87359D01*
X312878Y87354D01*
X312877Y87350D01*
X312877Y87342D01*
X312876Y87337D01*
X312876Y87333D01*
X312875Y87329D01*
X312875Y87325D01*
X312875Y87320D01*
X312874Y87316D01*
X312874Y87312D01*
X312873Y87308D01*
X312873Y87303D01*
X312872Y87295D01*
X312872Y87291D01*
X312871Y87286D01*
X312871Y87278D01*
X312870Y87274D01*
X312870Y87269D01*
X312869Y87265D01*
X312869Y87261D01*
X312869Y87257D01*
X312868Y87252D01*
X312868Y87248D01*
X312867Y87244D01*
X312867Y87240D01*
X312866Y87231D01*
X312866Y87227D01*
X312865Y87223D01*
X312865Y87214D01*
X312864Y87210D01*
X312864Y87206D01*
X312864Y87201D01*
X312863Y87201D01*
X312864Y87201D01*
X312863Y87197D01*
X312863Y87193D01*
X312862Y87189D01*
X312862Y87184D01*
X312862Y87180D01*
X312861Y87180D01*
X312862Y87180D01*
X312861Y87176D01*
X312860Y87167D01*
X312860Y87163D01*
X312860Y87159D01*
X312859Y87159D01*
X312860Y87159D01*
X312859Y87150D01*
X312858Y87146D01*
X312858Y87142D01*
X312858Y87138D01*
X312857Y87133D01*
X312857Y87129D01*
X312856Y87125D01*
X312856Y87121D01*
X312856Y87116D01*
X312855Y87112D01*
X312854Y87104D01*
X312854Y87099D01*
X312854Y87095D01*
X312853Y87087D01*
X312852Y87082D01*
X312852Y87078D01*
X312852Y87074D01*
X312851Y87070D01*
X312851Y87065D01*
X312850Y87061D01*
X312850Y87057D01*
X312850Y87053D01*
X312849Y87048D01*
X312848Y87040D01*
X312848Y87036D01*
X312848Y87031D01*
X312847Y87027D01*
X312847Y87023D01*
X312846Y87019D01*
X312846Y87014D01*
X312846Y87010D01*
X312845Y87006D01*
X312845Y87002D01*
X312844Y86997D01*
X312844Y86993D01*
X312844Y86989D01*
X312843Y86985D01*
X312842Y86976D01*
X312842Y86972D01*
X312842Y86968D01*
X312841Y86963D01*
X312841Y86959D01*
X312840Y86955D01*
X312840Y86951D01*
X312840Y86946D01*
X312839Y86942D01*
X312839Y86938D01*
X312838Y86934D01*
X312838Y86929D01*
X312838Y86925D01*
X312837Y86921D01*
X312836Y86912D01*
X312836Y86908D01*
X312836Y86904D01*
X312835Y86900D01*
X312835Y86895D01*
X312834Y86891D01*
X312834Y86887D01*
X312834Y86883D01*
X312833Y86878D01*
X312833Y86874D01*
X312832Y86866D01*
X312832Y86861D01*
X312831Y86857D01*
X312830Y86849D01*
X312830Y86844D01*
X312830Y86840D01*
X312829Y86836D01*
X312829Y86832D01*
X312828Y86827D01*
X312828Y86823D01*
X312828Y86819D01*
X312827Y86815D01*
X312827Y86810D01*
X312826Y86802D01*
X312826Y86798D01*
X312825Y86793D01*
X312825Y86785D01*
X312824Y86785D01*
X312825Y86785D01*
X312824Y86781D01*
X312824Y86776D01*
X312823Y86772D01*
X312823Y86768D01*
X312823Y86764D01*
X312822Y86764D01*
X312823Y86764D01*
X312822Y86759D01*
X312822Y86755D01*
X312821Y86751D01*
X312821Y86747D01*
X312820Y86738D01*
X312820Y86734D01*
X312819Y86730D01*
X312819Y86721D01*
X312818Y86717D01*
X312818Y86713D01*
X312817Y86708D01*
X312817Y86704D01*
X312817Y86700D01*
X312816Y86696D01*
X312816Y86691D01*
X312815Y86687D01*
X312815Y86683D01*
X312814Y86674D01*
X312814Y86670D01*
X312813Y86666D01*
X312813Y86657D01*
X312812Y86653D01*
X312812Y86649D01*
X312811Y86645D01*
X312811Y86640D01*
X312811Y86636D01*
X312810Y86632D01*
X312810Y86628D01*
X312809Y86623D01*
X312809Y86619D01*
X312808Y86611D01*
X312808Y86606D01*
X312807Y86602D01*
X312807Y86594D01*
X312806Y86589D01*
X312806Y86585D01*
X312805Y86581D01*
X312805Y86577D01*
X312805Y86572D01*
X312804Y86568D01*
X312804Y86564D01*
X312803Y86560D01*
X312803Y86555D01*
X312802Y86547D01*
X312802Y86543D01*
X312801Y86538D01*
X312801Y86530D01*
X312800Y86526D01*
X312800Y86521D01*
X312799Y86517D01*
X312799Y86513D01*
X312799Y86509D01*
X312798Y86504D01*
X312798Y86500D01*
X312797Y86496D01*
X312797Y86492D01*
X312796Y86483D01*
X312796Y86479D01*
X312795Y86475D01*
X312795Y86466D01*
X312794Y86462D01*
X312794Y86458D01*
X312793Y86453D01*
X312793Y86449D01*
X312793Y86445D01*
X312792Y86441D01*
X312792Y86436D01*
X312791Y86432D01*
X312791Y86428D01*
X312790Y86419D01*
X312790Y86415D01*
X312789Y86411D01*
X312789Y86402D01*
X312788Y86398D01*
X312788Y86394D01*
X312788Y86390D01*
X312787Y86390D01*
X312787Y86385D01*
X312787Y86381D01*
X312786Y86377D01*
X312786Y86373D01*
X312786Y86368D01*
X312785Y86368D01*
X312786Y86368D01*
X312785Y86364D01*
X312784Y86356D01*
X312784Y86351D01*
X312784Y86347D01*
X312783Y86347D01*
X312784Y86347D01*
X312783Y86339D01*
X312782Y86334D01*
X312782Y86330D01*
X312782Y86326D01*
X312781Y86322D01*
X312781Y86317D01*
X312780Y86313D01*
X312780Y86309D01*
X312780Y86305D01*
X312779Y86300D01*
X312778Y86292D01*
X312778Y86288D01*
X312778Y86283D01*
X312777Y86275D01*
X312776Y86271D01*
X312776Y86266D01*
X312776Y86262D01*
X312775Y86258D01*
X312775Y86254D01*
X312774Y86249D01*
X312774Y86245D01*
X312774Y86241D01*
X312773Y86237D01*
X312772Y86228D01*
X312772Y86224D01*
X312772Y86220D01*
X312771Y86211D01*
X312770Y86207D01*
X312770Y86203D01*
X312770Y86198D01*
X312769Y86194D01*
X312769Y86190D01*
X312768Y86186D01*
X312768Y86181D01*
X312768Y86177D01*
X312767Y86173D01*
X312766Y86164D01*
X312766Y86160D01*
X312766Y86156D01*
X312765Y86147D01*
X312764Y86143D01*
X312764Y86139D01*
X312764Y86135D01*
X312763Y86130D01*
X312763Y86126D01*
X312762Y86122D01*
X312762Y86118D01*
X312762Y86113D01*
X312761Y86109D01*
X312760Y86101D01*
X312760Y86096D01*
X312760Y86092D01*
X312759Y86084D01*
X312758Y86079D01*
X312758Y86075D01*
X312758Y86071D01*
X312757Y86067D01*
X312757Y86062D01*
X312756Y86058D01*
X312756Y86054D01*
X312756Y86050D01*
X312755Y86045D01*
X312754Y86037D01*
X312754Y86033D01*
X312754Y86028D01*
X312753Y86020D01*
X312752Y86016D01*
X312752Y86011D01*
X312752Y86007D01*
X312751Y86003D01*
X312751Y85999D01*
X312750Y85994D01*
X312750Y85990D01*
X312750Y85986D01*
X312749Y85982D01*
X312749Y85973D01*
X312748Y85973D01*
X312749Y85973D01*
X312748Y85969D01*
X312748Y85965D01*
X312747Y85956D01*
X312747Y85952D01*
X312746Y85952D01*
X312747Y85952D01*
X312746Y85948D01*
X312746Y85943D01*
X312745Y85939D01*
X312745Y85935D01*
X312745Y85931D01*
X312744Y85931D01*
X312745Y85931D01*
X312744Y85926D01*
X312744Y85922D01*
X312743Y85918D01*
X312743Y85909D01*
X312742Y85905D01*
X312742Y85901D01*
X312741Y85892D01*
X312741Y85888D01*
X312740Y85884D01*
X312740Y85880D01*
X312739Y85875D01*
X312739Y85871D01*
X312739Y85867D01*
X312738Y85863D01*
X312738Y85858D01*
X312737Y85854D01*
X312737Y85846D01*
X312736Y85841D01*
X312736Y85837D01*
X312735Y85829D01*
X312735Y85824D01*
X312734Y85820D01*
X312734Y85816D01*
X312733Y85812D01*
X312733Y85807D01*
X312733Y85803D01*
X312732Y85799D01*
X312732Y85795D01*
X312731Y85790D01*
X312731Y85782D01*
X312730Y85778D01*
X312730Y85773D01*
X312729Y85769D01*
X312729Y85765D01*
X312729Y85761D01*
X312728Y85756D01*
X312728Y85752D01*
X312727Y85748D01*
X312727Y85744D01*
X312727Y85739D01*
X312726Y85735D01*
X312726Y85731D01*
X312725Y85727D01*
X312725Y85718D01*
X312724Y85714D01*
X312724Y85710D01*
X312723Y85705D01*
X312723Y85701D01*
X312723Y85697D01*
X312722Y85693D01*
X312722Y85688D01*
X312721Y85684D01*
X312721Y85680D01*
X312721Y85676D01*
X312720Y85671D01*
X312720Y85667D01*
X312719Y85663D01*
X312719Y85654D01*
X312718Y85650D01*
X312718Y85646D01*
X312717Y85642D01*
X312717Y85637D01*
X312717Y85633D01*
X312716Y85629D01*
X312716Y85625D01*
X312715Y85620D01*
X312715Y85616D01*
X312714Y85608D01*
X312714Y85603D01*
X312713Y85599D01*
X312713Y85591D01*
X312712Y85586D01*
X312712Y85582D01*
X312712Y85578D01*
X312711Y85578D01*
X312711Y85574D01*
X312711Y85569D01*
X312710Y85565D01*
X312710Y85561D01*
X312710Y85557D01*
X312709Y85557D01*
X312710Y85557D01*
X312709Y85552D01*
X312708Y85544D01*
X312708Y85540D01*
X312708Y85535D01*
X312707Y85535D01*
X312708Y85535D01*
X312707Y85527D01*
X312706Y85523D01*
X312706Y85518D01*
X312706Y85514D01*
X312705Y85510D01*
X312705Y85506D01*
X312704Y85501D01*
X312704Y85497D01*
X312704Y85493D01*
X312703Y85489D01*
X312702Y85480D01*
X312702Y85476D01*
X312702Y85472D01*
X312701Y85463D01*
X312700Y85459D01*
X312700Y85455D01*
X312700Y85450D01*
X312699Y85446D01*
X312699Y85442D01*
X312698Y85438D01*
X312698Y85433D01*
X312698Y85429D01*
X312697Y85425D01*
X312696Y85416D01*
X312696Y85412D01*
X312696Y85408D01*
X312695Y85399D01*
X312694Y85395D01*
X312694Y85391D01*
X312694Y85387D01*
X312693Y85382D01*
X312693Y85378D01*
X312692Y85374D01*
X312692Y85370D01*
X312692Y85365D01*
X312691Y85361D01*
X312690Y85353D01*
X312690Y85348D01*
X312690Y85344D01*
X312689Y85336D01*
X312688Y85331D01*
X312688Y85327D01*
X312688Y85323D01*
X312687Y85319D01*
X312687Y85314D01*
X312686Y85310D01*
X312686Y85306D01*
X312686Y85302D01*
X312685Y85297D01*
X312684Y85289D01*
X312684Y85285D01*
X312684Y85280D01*
X312683Y85272D01*
X312682Y85268D01*
X312682Y85263D01*
X312682Y85259D01*
X312681Y85255D01*
X312681Y85251D01*
X312680Y85246D01*
X312680Y85242D01*
X312680Y85238D01*
X312679Y85234D01*
X312678Y85225D01*
X312678Y85221D01*
X312678Y85217D01*
X312677Y85208D01*
X312676Y85204D01*
X312676Y85200D01*
X312676Y85195D01*
X312675Y85191D01*
X312675Y85187D01*
X312674Y85183D01*
X312674Y85178D01*
X312674Y85174D01*
X312673Y85170D01*
X312673Y85161D01*
X312672Y85161D01*
X312673Y85161D01*
X312672Y85157D01*
X312672Y85153D01*
X312671Y85144D01*
X312671Y85140D01*
X312670Y85140D01*
X312671Y85140D01*
X312670Y85136D01*
X312670Y85132D01*
X312669Y85127D01*
X312669Y85123D01*
X312669Y85119D01*
X312668Y85119D01*
X312669Y85119D01*
X312668Y85115D01*
X312668Y85110D01*
X312667Y85106D01*
X312667Y85098D01*
X312666Y85093D01*
X312666Y85089D01*
X312665Y85081D01*
X312665Y85076D01*
X312664Y85072D01*
X312664Y85068D01*
X312663Y85064D01*
X312663Y85059D01*
X312663Y85055D01*
X312662Y85051D01*
X312662Y85047D01*
X312661Y85042D01*
X312661Y85034D01*
X312660Y85030D01*
X312660Y85025D01*
X312659Y85017D01*
X312659Y85013D01*
X312658Y85008D01*
X312658Y85004D01*
X312657Y85000D01*
X312657Y84996D01*
X312657Y84991D01*
X312656Y84987D01*
X312656Y84983D01*
X312655Y84979D01*
X312655Y84970D01*
X312654Y84966D01*
X312654Y84962D01*
X312653Y84953D01*
X312653Y84949D01*
X312652Y84945D01*
X312652Y84940D01*
X312651Y84936D01*
X312651Y84932D01*
X312651Y84928D01*
X312650Y84923D01*
X312650Y84919D01*
X312649Y84915D01*
X312649Y84906D01*
X312648Y84902D01*
X312648Y84898D01*
X312647Y84889D01*
X312647Y84885D01*
X312646Y84881D01*
X312646Y84877D01*
X312645Y84872D01*
X312645Y84868D01*
X312645Y84864D01*
X312644Y84860D01*
X312644Y84855D01*
X312643Y84851D01*
X312643Y84843D01*
X312642Y84838D01*
X312642Y84834D01*
X312641Y84826D01*
X312641Y84821D01*
X312640Y84817D01*
X312640Y84813D01*
X312639Y84809D01*
X312639Y84804D01*
X312639Y84800D01*
X312638Y84796D01*
X312638Y84792D01*
X312637Y84787D01*
X312637Y84779D01*
X312636Y84775D01*
X312636Y84770D01*
X312635Y84762D01*
X312635Y84758D01*
X312634Y84753D01*
X312634Y84749D01*
X312634Y84745D01*
X312633Y84745D01*
X312634Y84745D01*
X312633Y84741D01*
X312633Y84736D01*
X312632Y84732D01*
X312632Y84728D01*
X312632Y84724D01*
X312631Y84724D01*
X312632Y84724D01*
X312631Y84715D01*
X312630Y84711D01*
X312630Y84707D01*
X312629Y84698D01*
X312629Y84694D01*
X312628Y84690D01*
X312628Y84685D01*
X312628Y84681D01*
X312627Y84677D01*
X312627Y84673D01*
X312626Y84668D01*
X312626Y84664D01*
X312626Y84660D01*
X312625Y84651D01*
X312624Y84647D01*
X312624Y84643D01*
X312623Y84634D01*
X312623Y84630D01*
X312622Y84626D01*
X312622Y84622D01*
X312622Y84617D01*
X312621Y84613D01*
X312621Y84609D01*
X312620Y84605D01*
X312620Y84600D01*
X312620Y84596D01*
X312619Y84588D01*
X312618Y84583D01*
X312618Y84579D01*
X312617Y84571D01*
X312617Y84566D01*
X312616Y84562D01*
X312616Y84558D01*
X312616Y84554D01*
X312615Y84549D01*
X312615Y84545D01*
X312614Y84541D01*
X312614Y84537D01*
X312614Y84532D01*
X312613Y84524D01*
X312612Y84520D01*
X312612Y84515D01*
X312612Y84511D01*
X312611Y84507D01*
X312611Y84503D01*
X312610Y84498D01*
X312610Y84494D01*
X312610Y84490D01*
X312609Y84486D01*
X312609Y84481D01*
X312608Y84477D01*
X312608Y84473D01*
X312608Y84469D01*
X312607Y84460D01*
X312606Y84456D01*
X312606Y84452D01*
X312606Y84447D01*
X312605Y84443D01*
X312605Y84439D01*
X312604Y84435D01*
X312604Y84430D01*
X312604Y84426D01*
X312603Y84422D01*
X312603Y84418D01*
X312602Y84413D01*
X312602Y84409D01*
X312602Y84405D01*
X312601Y84396D01*
X312600Y84392D01*
X312600Y84388D01*
X312600Y84384D01*
X312599Y84379D01*
X312599Y84375D01*
X312598Y84371D01*
X312598Y84367D01*
X312598Y84362D01*
X312597Y84358D01*
X312597Y84350D01*
X312596Y84350D01*
X312597Y84350D01*
X312596Y84345D01*
X312596Y84341D01*
X312595Y84333D01*
X312595Y84328D01*
X312594Y84328D01*
X312595Y84328D01*
X312594Y84324D01*
X312594Y84320D01*
X312593Y84316D01*
X312593Y84311D01*
X312593Y84307D01*
X312592Y84307D01*
X312593Y84307D01*
X312592Y84303D01*
X312592Y84299D01*
X312591Y84294D01*
X312591Y84286D01*
X312590Y84282D01*
X312590Y84277D01*
X312589Y84269D01*
X312589Y84265D01*
X312588Y84260D01*
X312588Y84256D01*
X312587Y84252D01*
X312587Y84248D01*
X312587Y84243D01*
X312586Y84239D01*
X312586Y84235D01*
X312585Y84231D01*
X312585Y84222D01*
X312584Y84218D01*
X312584Y84214D01*
X312583Y84205D01*
X312583Y84201D01*
X312582Y84197D01*
X312582Y84192D01*
X312581Y84188D01*
X312581Y84184D01*
X312581Y84180D01*
X312580Y84175D01*
X312580Y84171D01*
X312579Y84167D01*
X312579Y84158D01*
X312578Y84154D01*
X312578Y84150D01*
X312577Y84141D01*
X312577Y84137D01*
X312576Y84133D01*
X312576Y84129D01*
X312575Y84124D01*
X312575Y84120D01*
X312575Y84116D01*
X312574Y84112D01*
X312574Y84107D01*
X312573Y84103D01*
X312573Y84095D01*
X312572Y84090D01*
X312572Y84086D01*
X312571Y84078D01*
X312571Y84073D01*
X312570Y84069D01*
X312570Y84065D01*
X312569Y84061D01*
X312569Y84056D01*
X312569Y84052D01*
X312568Y84048D01*
X312568Y84044D01*
X312567Y84039D01*
X312567Y84031D01*
X312566Y84027D01*
X312566Y84022D01*
X312565Y84014D01*
X312565Y84010D01*
X312564Y84005D01*
X312564Y84001D01*
X312563Y83997D01*
X312563Y83993D01*
X312563Y83988D01*
X312562Y83984D01*
X312562Y83980D01*
X312561Y83976D01*
X312561Y83967D01*
X312560Y83963D01*
X312560Y83959D01*
X312559Y83950D01*
X312559Y83946D01*
X312558Y83942D01*
X312558Y83937D01*
X312558Y83933D01*
X312557Y83933D01*
X312558Y83933D01*
X312557Y83929D01*
X312557Y83925D01*
X312556Y83920D01*
X312556Y83916D01*
X312556Y83912D01*
X312555Y83912D01*
X312556Y83912D01*
X312555Y83906D01*
X312555Y83905D01*
X312910Y80057D01*
X312910Y80056D01*
X313964Y76525D01*
X313965Y76525D01*
X313964Y76524D01*
X315725Y73314D01*
X315726Y73313D01*
X315725Y73313D01*
X318192Y70419D01*
X318193Y70419D01*
X318193Y70418D01*
X321176Y68024D01*
X321177Y68024D01*
X324488Y66315D01*
X328130Y65288D01*
X328131Y65288D01*
X331755Y64978D01*
X331759Y64981D01*
G37*
D10*
X555032Y35020D02*
X555032Y38915D01*
X558927Y36318D02*
X549190Y36318D01*
X549190Y36319D02*
X549103Y36321D01*
X549015Y36327D01*
X548929Y36337D01*
X548842Y36350D01*
X548757Y36368D01*
X548672Y36389D01*
X548588Y36414D01*
X548506Y36443D01*
X548425Y36476D01*
X548345Y36512D01*
X548267Y36551D01*
X548191Y36595D01*
X548117Y36641D01*
X548046Y36691D01*
X547976Y36744D01*
X547909Y36800D01*
X547845Y36859D01*
X547783Y36921D01*
X547724Y36985D01*
X547668Y37052D01*
X547615Y37122D01*
X547565Y37193D01*
X547519Y37267D01*
X547475Y37343D01*
X547436Y37421D01*
X547400Y37501D01*
X547367Y37582D01*
X547338Y37664D01*
X547313Y37748D01*
X547292Y37833D01*
X547274Y37918D01*
X547261Y38005D01*
X547251Y38091D01*
X547245Y38179D01*
X547243Y38266D01*
X547243Y38915D01*
X547243Y43156D02*
X555032Y43156D01*
X558278Y42831D02*
X558927Y42831D01*
X558927Y43480D01*
X558278Y43480D01*
X558278Y42831D01*
X555032Y48179D02*
X547243Y48179D01*
X555032Y48179D02*
X555032Y51425D01*
X555030Y51512D01*
X555024Y51600D01*
X555014Y51686D01*
X555001Y51773D01*
X554983Y51858D01*
X554962Y51943D01*
X554937Y52027D01*
X554908Y52109D01*
X554875Y52190D01*
X554839Y52270D01*
X554800Y52348D01*
X554756Y52424D01*
X554710Y52498D01*
X554660Y52569D01*
X554607Y52639D01*
X554551Y52706D01*
X554492Y52770D01*
X554430Y52832D01*
X554366Y52891D01*
X554299Y52947D01*
X554229Y53000D01*
X554158Y53050D01*
X554084Y53096D01*
X554008Y53140D01*
X553930Y53179D01*
X553850Y53215D01*
X553769Y53248D01*
X553687Y53277D01*
X553603Y53302D01*
X553518Y53323D01*
X553433Y53341D01*
X553346Y53354D01*
X553260Y53364D01*
X553172Y53370D01*
X553085Y53372D01*
X547243Y53372D01*
X547243Y63600D02*
X558927Y63600D01*
X547243Y63600D02*
X547243Y60355D01*
X547245Y60268D01*
X547251Y60180D01*
X547261Y60094D01*
X547274Y60007D01*
X547292Y59922D01*
X547313Y59837D01*
X547338Y59753D01*
X547367Y59671D01*
X547400Y59590D01*
X547436Y59510D01*
X547475Y59432D01*
X547519Y59356D01*
X547565Y59282D01*
X547615Y59211D01*
X547668Y59141D01*
X547724Y59074D01*
X547783Y59010D01*
X547845Y58948D01*
X547909Y58889D01*
X547976Y58833D01*
X548046Y58780D01*
X548117Y58730D01*
X548191Y58684D01*
X548267Y58640D01*
X548345Y58601D01*
X548425Y58565D01*
X548506Y58532D01*
X548588Y58503D01*
X548672Y58478D01*
X548757Y58457D01*
X548842Y58439D01*
X548929Y58426D01*
X549015Y58416D01*
X549103Y58410D01*
X549190Y58408D01*
X549190Y58407D02*
X553085Y58407D01*
X553085Y58408D02*
X553172Y58410D01*
X553260Y58416D01*
X553346Y58426D01*
X553433Y58439D01*
X553518Y58457D01*
X553603Y58478D01*
X553687Y58503D01*
X553769Y58532D01*
X553850Y58565D01*
X553930Y58601D01*
X554008Y58640D01*
X554084Y58684D01*
X554158Y58730D01*
X554229Y58780D01*
X554299Y58833D01*
X554366Y58889D01*
X554430Y58948D01*
X554492Y59010D01*
X554551Y59074D01*
X554607Y59141D01*
X554660Y59211D01*
X554710Y59282D01*
X554756Y59356D01*
X554800Y59432D01*
X554839Y59510D01*
X554875Y59590D01*
X554908Y59671D01*
X554937Y59753D01*
X554962Y59837D01*
X554983Y59922D01*
X555001Y60007D01*
X555014Y60094D01*
X555024Y60180D01*
X555030Y60268D01*
X555032Y60355D01*
X555032Y63600D01*
X555032Y68683D02*
X547243Y68683D01*
X558278Y68358D02*
X558927Y68358D01*
X558927Y69007D01*
X558278Y69007D01*
X558278Y68358D01*
X547243Y75272D02*
X547243Y78518D01*
X547243Y75272D02*
X547245Y75185D01*
X547251Y75097D01*
X547261Y75011D01*
X547274Y74924D01*
X547292Y74839D01*
X547313Y74754D01*
X547338Y74670D01*
X547367Y74588D01*
X547400Y74507D01*
X547436Y74427D01*
X547475Y74349D01*
X547519Y74273D01*
X547565Y74199D01*
X547615Y74128D01*
X547668Y74058D01*
X547724Y73991D01*
X547783Y73927D01*
X547845Y73865D01*
X547909Y73806D01*
X547976Y73750D01*
X548046Y73697D01*
X548117Y73647D01*
X548191Y73601D01*
X548267Y73557D01*
X548345Y73518D01*
X548425Y73482D01*
X548506Y73449D01*
X548588Y73420D01*
X548672Y73395D01*
X548757Y73374D01*
X548842Y73356D01*
X548929Y73343D01*
X549015Y73333D01*
X549103Y73327D01*
X549190Y73325D01*
X552436Y73325D01*
X552436Y73326D02*
X552537Y73328D01*
X552637Y73334D01*
X552737Y73344D01*
X552837Y73357D01*
X552936Y73375D01*
X553035Y73396D01*
X553132Y73421D01*
X553229Y73450D01*
X553324Y73483D01*
X553418Y73519D01*
X553510Y73559D01*
X553601Y73602D01*
X553690Y73649D01*
X553777Y73699D01*
X553863Y73753D01*
X553946Y73810D01*
X554026Y73870D01*
X554105Y73933D01*
X554181Y74000D01*
X554254Y74069D01*
X554324Y74141D01*
X554392Y74215D01*
X554457Y74292D01*
X554518Y74372D01*
X554577Y74454D01*
X554632Y74538D01*
X554684Y74624D01*
X554733Y74712D01*
X554778Y74802D01*
X554820Y74894D01*
X554858Y74987D01*
X554892Y75082D01*
X554923Y75177D01*
X554950Y75274D01*
X554973Y75372D01*
X554993Y75471D01*
X555008Y75571D01*
X555020Y75671D01*
X555028Y75771D01*
X555032Y75872D01*
X555032Y75972D01*
X555028Y76073D01*
X555020Y76173D01*
X555008Y76273D01*
X554993Y76373D01*
X554973Y76472D01*
X554950Y76570D01*
X554923Y76667D01*
X554892Y76762D01*
X554858Y76857D01*
X554820Y76950D01*
X554778Y77042D01*
X554733Y77132D01*
X554684Y77220D01*
X554632Y77306D01*
X554577Y77390D01*
X554518Y77472D01*
X554457Y77552D01*
X554392Y77629D01*
X554324Y77703D01*
X554254Y77775D01*
X554181Y77844D01*
X554105Y77911D01*
X554026Y77974D01*
X553946Y78034D01*
X553863Y78091D01*
X553777Y78145D01*
X553690Y78195D01*
X553601Y78242D01*
X553510Y78285D01*
X553418Y78325D01*
X553324Y78361D01*
X553229Y78394D01*
X553132Y78423D01*
X553035Y78448D01*
X552936Y78469D01*
X552837Y78487D01*
X552737Y78500D01*
X552637Y78510D01*
X552537Y78516D01*
X552436Y78518D01*
X551138Y78518D01*
X551138Y73325D01*
X547892Y82836D02*
X547243Y82836D01*
X547892Y82836D02*
X547892Y83485D01*
X547243Y83485D01*
X547243Y82836D01*
X547243Y89764D02*
X547243Y92360D01*
X547243Y89764D02*
X547245Y89677D01*
X547251Y89589D01*
X547261Y89503D01*
X547274Y89416D01*
X547292Y89331D01*
X547313Y89246D01*
X547338Y89162D01*
X547367Y89080D01*
X547400Y88999D01*
X547436Y88919D01*
X547475Y88841D01*
X547519Y88765D01*
X547565Y88691D01*
X547615Y88620D01*
X547668Y88550D01*
X547724Y88483D01*
X547783Y88419D01*
X547845Y88357D01*
X547909Y88298D01*
X547976Y88242D01*
X548046Y88189D01*
X548117Y88139D01*
X548191Y88093D01*
X548267Y88049D01*
X548345Y88010D01*
X548425Y87974D01*
X548506Y87941D01*
X548588Y87912D01*
X548672Y87887D01*
X548757Y87866D01*
X548842Y87848D01*
X548929Y87835D01*
X549015Y87825D01*
X549103Y87819D01*
X549190Y87817D01*
X549190Y87816D02*
X553085Y87816D01*
X553085Y87817D02*
X553172Y87819D01*
X553260Y87825D01*
X553346Y87835D01*
X553433Y87848D01*
X553518Y87866D01*
X553603Y87887D01*
X553687Y87912D01*
X553769Y87941D01*
X553850Y87974D01*
X553930Y88010D01*
X554008Y88049D01*
X554084Y88093D01*
X554158Y88139D01*
X554229Y88189D01*
X554299Y88242D01*
X554366Y88298D01*
X554430Y88357D01*
X554492Y88419D01*
X554551Y88483D01*
X554607Y88550D01*
X554660Y88620D01*
X554710Y88691D01*
X554756Y88765D01*
X554800Y88841D01*
X554839Y88919D01*
X554875Y88999D01*
X554908Y89080D01*
X554937Y89162D01*
X554962Y89246D01*
X554983Y89331D01*
X555001Y89416D01*
X555014Y89503D01*
X555024Y89589D01*
X555030Y89677D01*
X555032Y89764D01*
X555032Y92360D01*
X552436Y96566D02*
X549839Y96566D01*
X552436Y96567D02*
X552537Y96569D01*
X552637Y96575D01*
X552737Y96585D01*
X552837Y96598D01*
X552936Y96616D01*
X553035Y96637D01*
X553132Y96662D01*
X553229Y96691D01*
X553324Y96724D01*
X553418Y96760D01*
X553510Y96800D01*
X553601Y96843D01*
X553690Y96890D01*
X553777Y96940D01*
X553863Y96994D01*
X553946Y97051D01*
X554026Y97111D01*
X554105Y97174D01*
X554181Y97241D01*
X554254Y97310D01*
X554324Y97382D01*
X554392Y97456D01*
X554457Y97533D01*
X554518Y97613D01*
X554577Y97695D01*
X554632Y97779D01*
X554684Y97865D01*
X554733Y97953D01*
X554778Y98043D01*
X554820Y98135D01*
X554858Y98228D01*
X554892Y98323D01*
X554923Y98418D01*
X554950Y98515D01*
X554973Y98613D01*
X554993Y98712D01*
X555008Y98812D01*
X555020Y98912D01*
X555028Y99012D01*
X555032Y99113D01*
X555032Y99213D01*
X555028Y99314D01*
X555020Y99414D01*
X555008Y99514D01*
X554993Y99614D01*
X554973Y99713D01*
X554950Y99811D01*
X554923Y99908D01*
X554892Y100003D01*
X554858Y100098D01*
X554820Y100191D01*
X554778Y100283D01*
X554733Y100373D01*
X554684Y100461D01*
X554632Y100547D01*
X554577Y100631D01*
X554518Y100713D01*
X554457Y100793D01*
X554392Y100870D01*
X554324Y100944D01*
X554254Y101016D01*
X554181Y101085D01*
X554105Y101152D01*
X554026Y101215D01*
X553946Y101275D01*
X553863Y101332D01*
X553777Y101386D01*
X553690Y101436D01*
X553601Y101483D01*
X553510Y101526D01*
X553418Y101566D01*
X553324Y101602D01*
X553229Y101635D01*
X553132Y101664D01*
X553035Y101689D01*
X552936Y101710D01*
X552837Y101728D01*
X552737Y101741D01*
X552637Y101751D01*
X552537Y101757D01*
X552436Y101759D01*
X549839Y101759D01*
X549738Y101757D01*
X549638Y101751D01*
X549538Y101741D01*
X549438Y101728D01*
X549339Y101710D01*
X549240Y101689D01*
X549143Y101664D01*
X549046Y101635D01*
X548951Y101602D01*
X548857Y101566D01*
X548765Y101526D01*
X548674Y101483D01*
X548585Y101436D01*
X548498Y101386D01*
X548412Y101332D01*
X548329Y101275D01*
X548249Y101215D01*
X548170Y101152D01*
X548094Y101085D01*
X548021Y101016D01*
X547951Y100944D01*
X547883Y100870D01*
X547818Y100793D01*
X547757Y100713D01*
X547698Y100631D01*
X547643Y100547D01*
X547591Y100461D01*
X547542Y100373D01*
X547497Y100283D01*
X547455Y100191D01*
X547417Y100098D01*
X547383Y100003D01*
X547352Y99908D01*
X547325Y99811D01*
X547302Y99713D01*
X547282Y99614D01*
X547267Y99514D01*
X547255Y99414D01*
X547247Y99314D01*
X547243Y99213D01*
X547243Y99113D01*
X547247Y99012D01*
X547255Y98912D01*
X547267Y98812D01*
X547282Y98712D01*
X547302Y98613D01*
X547325Y98515D01*
X547352Y98418D01*
X547383Y98323D01*
X547417Y98228D01*
X547455Y98135D01*
X547497Y98043D01*
X547542Y97953D01*
X547591Y97865D01*
X547643Y97779D01*
X547698Y97695D01*
X547757Y97613D01*
X547818Y97533D01*
X547883Y97456D01*
X547951Y97382D01*
X548021Y97310D01*
X548094Y97241D01*
X548170Y97174D01*
X548249Y97111D01*
X548329Y97051D01*
X548412Y96994D01*
X548498Y96940D01*
X548585Y96890D01*
X548674Y96843D01*
X548765Y96800D01*
X548857Y96760D01*
X548951Y96724D01*
X549046Y96691D01*
X549143Y96662D01*
X549240Y96637D01*
X549339Y96616D01*
X549438Y96598D01*
X549538Y96585D01*
X549638Y96575D01*
X549738Y96569D01*
X549839Y96567D01*
X547243Y107079D02*
X555032Y107079D01*
X555032Y112921D01*
X555030Y113008D01*
X555024Y113096D01*
X555014Y113182D01*
X555001Y113269D01*
X554983Y113354D01*
X554962Y113439D01*
X554937Y113523D01*
X554908Y113605D01*
X554875Y113686D01*
X554839Y113766D01*
X554800Y113844D01*
X554756Y113920D01*
X554710Y113994D01*
X554660Y114065D01*
X554607Y114135D01*
X554551Y114202D01*
X554492Y114266D01*
X554430Y114328D01*
X554366Y114387D01*
X554299Y114443D01*
X554229Y114496D01*
X554158Y114546D01*
X554084Y114592D01*
X554008Y114636D01*
X553930Y114675D01*
X553850Y114711D01*
X553769Y114744D01*
X553687Y114773D01*
X553603Y114798D01*
X553518Y114819D01*
X553433Y114837D01*
X553346Y114850D01*
X553260Y114860D01*
X553172Y114866D01*
X553085Y114868D01*
X547243Y114868D01*
X547243Y110974D02*
X555032Y110974D01*
X545945Y119807D02*
X560225Y125000D01*
X531439Y54554D02*
X532737Y51308D01*
X532736Y51308D02*
X532769Y51233D01*
X532805Y51159D01*
X532844Y51087D01*
X532887Y51017D01*
X532933Y50950D01*
X532983Y50884D01*
X533035Y50822D01*
X533091Y50761D01*
X533149Y50704D01*
X533210Y50649D01*
X533274Y50598D01*
X533340Y50550D01*
X533409Y50505D01*
X533479Y50463D01*
X533552Y50425D01*
X533626Y50390D01*
X533702Y50359D01*
X533779Y50332D01*
X533858Y50309D01*
X533937Y50289D01*
X534018Y50274D01*
X534099Y50262D01*
X534181Y50254D01*
X534262Y50250D01*
X534344Y50251D01*
X534426Y50255D01*
X534508Y50263D01*
X534589Y50275D01*
X534669Y50291D01*
X534749Y50311D01*
X534827Y50335D01*
X534904Y50363D01*
X534980Y50394D01*
X535054Y50429D01*
X535126Y50467D01*
X535197Y50509D01*
X535265Y50555D01*
X535331Y50603D01*
X535394Y50655D01*
X535455Y50710D01*
X535513Y50768D01*
X535569Y50828D01*
X535621Y50891D01*
X535670Y50957D01*
X535716Y51025D01*
X535758Y51095D01*
X535798Y51167D01*
X535833Y51241D01*
X535865Y51316D01*
X535893Y51393D01*
X535917Y51471D01*
X535938Y51551D01*
X535955Y51631D01*
X535967Y51712D01*
X535976Y51793D01*
X535981Y51875D01*
X535982Y51957D01*
X535978Y52134D01*
X535969Y52311D01*
X535955Y52488D01*
X535938Y52665D01*
X535916Y52840D01*
X535891Y53016D01*
X535860Y53190D01*
X535826Y53364D01*
X535788Y53537D01*
X535745Y53709D01*
X535698Y53880D01*
X535648Y54050D01*
X535593Y54219D01*
X535534Y54386D01*
X535471Y54551D01*
X535404Y54716D01*
X535333Y54878D01*
X531439Y54553D02*
X531406Y54628D01*
X531370Y54702D01*
X531331Y54774D01*
X531288Y54844D01*
X531242Y54911D01*
X531192Y54977D01*
X531140Y55039D01*
X531084Y55100D01*
X531026Y55157D01*
X530965Y55212D01*
X530901Y55263D01*
X530835Y55311D01*
X530766Y55356D01*
X530696Y55398D01*
X530623Y55436D01*
X530549Y55471D01*
X530473Y55502D01*
X530396Y55529D01*
X530317Y55552D01*
X530238Y55572D01*
X530157Y55587D01*
X530076Y55599D01*
X529994Y55607D01*
X529913Y55611D01*
X529831Y55610D01*
X529749Y55606D01*
X529667Y55598D01*
X529586Y55586D01*
X529506Y55570D01*
X529426Y55550D01*
X529348Y55526D01*
X529271Y55498D01*
X529195Y55467D01*
X529121Y55432D01*
X529049Y55394D01*
X528978Y55352D01*
X528910Y55306D01*
X528844Y55258D01*
X528781Y55206D01*
X528720Y55151D01*
X528662Y55093D01*
X528606Y55033D01*
X528554Y54970D01*
X528505Y54904D01*
X528459Y54836D01*
X528417Y54766D01*
X528377Y54694D01*
X528342Y54620D01*
X528310Y54545D01*
X528282Y54468D01*
X528258Y54390D01*
X528237Y54310D01*
X528220Y54230D01*
X528208Y54149D01*
X528199Y54068D01*
X528194Y53986D01*
X528193Y53904D01*
X528193Y53905D02*
X528200Y53645D01*
X528213Y53385D01*
X528232Y53125D01*
X528257Y52866D01*
X528289Y52607D01*
X528326Y52350D01*
X528370Y52093D01*
X528419Y51837D01*
X528475Y51583D01*
X528536Y51330D01*
X528604Y51079D01*
X528678Y50829D01*
X528757Y50581D01*
X528842Y50335D01*
X535982Y59273D02*
X535982Y63168D01*
X539877Y60571D02*
X530140Y60571D01*
X530140Y60572D02*
X530053Y60574D01*
X529965Y60580D01*
X529879Y60590D01*
X529792Y60603D01*
X529707Y60621D01*
X529622Y60642D01*
X529538Y60667D01*
X529456Y60696D01*
X529375Y60729D01*
X529295Y60765D01*
X529217Y60804D01*
X529141Y60848D01*
X529067Y60894D01*
X528996Y60944D01*
X528926Y60997D01*
X528859Y61053D01*
X528795Y61112D01*
X528733Y61174D01*
X528674Y61238D01*
X528618Y61305D01*
X528565Y61375D01*
X528515Y61446D01*
X528469Y61520D01*
X528425Y61596D01*
X528386Y61674D01*
X528350Y61754D01*
X528317Y61835D01*
X528288Y61917D01*
X528263Y62001D01*
X528242Y62086D01*
X528224Y62171D01*
X528211Y62258D01*
X528201Y62344D01*
X528195Y62432D01*
X528193Y62519D01*
X528193Y63168D01*
X530789Y67479D02*
X533386Y67479D01*
X533386Y67480D02*
X533487Y67482D01*
X533587Y67488D01*
X533687Y67498D01*
X533787Y67511D01*
X533886Y67529D01*
X533985Y67550D01*
X534082Y67575D01*
X534179Y67604D01*
X534274Y67637D01*
X534368Y67673D01*
X534460Y67713D01*
X534551Y67756D01*
X534640Y67803D01*
X534727Y67853D01*
X534813Y67907D01*
X534896Y67964D01*
X534976Y68024D01*
X535055Y68087D01*
X535131Y68154D01*
X535204Y68223D01*
X535274Y68295D01*
X535342Y68369D01*
X535407Y68446D01*
X535468Y68526D01*
X535527Y68608D01*
X535582Y68692D01*
X535634Y68778D01*
X535683Y68866D01*
X535728Y68956D01*
X535770Y69048D01*
X535808Y69141D01*
X535842Y69236D01*
X535873Y69331D01*
X535900Y69428D01*
X535923Y69526D01*
X535943Y69625D01*
X535958Y69725D01*
X535970Y69825D01*
X535978Y69925D01*
X535982Y70026D01*
X535982Y70126D01*
X535978Y70227D01*
X535970Y70327D01*
X535958Y70427D01*
X535943Y70527D01*
X535923Y70626D01*
X535900Y70724D01*
X535873Y70821D01*
X535842Y70916D01*
X535808Y71011D01*
X535770Y71104D01*
X535728Y71196D01*
X535683Y71286D01*
X535634Y71374D01*
X535582Y71460D01*
X535527Y71544D01*
X535468Y71626D01*
X535407Y71706D01*
X535342Y71783D01*
X535274Y71857D01*
X535204Y71929D01*
X535131Y71998D01*
X535055Y72065D01*
X534976Y72128D01*
X534896Y72188D01*
X534813Y72245D01*
X534727Y72299D01*
X534640Y72349D01*
X534551Y72396D01*
X534460Y72439D01*
X534368Y72479D01*
X534274Y72515D01*
X534179Y72548D01*
X534082Y72577D01*
X533985Y72602D01*
X533886Y72623D01*
X533787Y72641D01*
X533687Y72654D01*
X533587Y72664D01*
X533487Y72670D01*
X533386Y72672D01*
X530789Y72672D01*
X530688Y72670D01*
X530588Y72664D01*
X530488Y72654D01*
X530388Y72641D01*
X530289Y72623D01*
X530190Y72602D01*
X530093Y72577D01*
X529996Y72548D01*
X529901Y72515D01*
X529807Y72479D01*
X529715Y72439D01*
X529624Y72396D01*
X529535Y72349D01*
X529448Y72299D01*
X529362Y72245D01*
X529279Y72188D01*
X529199Y72128D01*
X529120Y72065D01*
X529044Y71998D01*
X528971Y71929D01*
X528901Y71857D01*
X528833Y71783D01*
X528768Y71706D01*
X528707Y71626D01*
X528648Y71544D01*
X528593Y71460D01*
X528541Y71374D01*
X528492Y71286D01*
X528447Y71196D01*
X528405Y71104D01*
X528367Y71011D01*
X528333Y70916D01*
X528302Y70821D01*
X528275Y70724D01*
X528252Y70626D01*
X528232Y70527D01*
X528217Y70427D01*
X528205Y70327D01*
X528197Y70227D01*
X528193Y70126D01*
X528193Y70026D01*
X528197Y69925D01*
X528205Y69825D01*
X528217Y69725D01*
X528232Y69625D01*
X528252Y69526D01*
X528275Y69428D01*
X528302Y69331D01*
X528333Y69236D01*
X528367Y69141D01*
X528405Y69048D01*
X528447Y68956D01*
X528492Y68866D01*
X528541Y68778D01*
X528593Y68692D01*
X528648Y68608D01*
X528707Y68526D01*
X528768Y68446D01*
X528833Y68369D01*
X528901Y68295D01*
X528971Y68223D01*
X529044Y68154D01*
X529120Y68087D01*
X529199Y68024D01*
X529279Y67964D01*
X529362Y67907D01*
X529448Y67853D01*
X529535Y67803D01*
X529624Y67756D01*
X529715Y67713D01*
X529807Y67673D01*
X529901Y67637D01*
X529996Y67604D01*
X530093Y67575D01*
X530190Y67550D01*
X530289Y67529D01*
X530388Y67511D01*
X530488Y67498D01*
X530588Y67488D01*
X530688Y67482D01*
X530789Y67480D01*
X528193Y77833D02*
X535982Y77833D01*
X535982Y81727D01*
X534684Y81727D01*
X528193Y87334D02*
X528193Y90579D01*
X528193Y87334D02*
X528195Y87247D01*
X528201Y87159D01*
X528211Y87073D01*
X528224Y86986D01*
X528242Y86901D01*
X528263Y86816D01*
X528288Y86732D01*
X528317Y86650D01*
X528350Y86569D01*
X528386Y86489D01*
X528425Y86411D01*
X528469Y86335D01*
X528515Y86261D01*
X528565Y86190D01*
X528618Y86120D01*
X528674Y86053D01*
X528733Y85989D01*
X528795Y85927D01*
X528859Y85868D01*
X528926Y85812D01*
X528996Y85759D01*
X529067Y85709D01*
X529141Y85663D01*
X529217Y85619D01*
X529295Y85580D01*
X529375Y85544D01*
X529456Y85511D01*
X529538Y85482D01*
X529622Y85457D01*
X529707Y85436D01*
X529792Y85418D01*
X529879Y85405D01*
X529965Y85395D01*
X530053Y85389D01*
X530140Y85387D01*
X530140Y85386D02*
X533386Y85386D01*
X533386Y85387D02*
X533487Y85389D01*
X533587Y85395D01*
X533687Y85405D01*
X533787Y85418D01*
X533886Y85436D01*
X533985Y85457D01*
X534082Y85482D01*
X534179Y85511D01*
X534274Y85544D01*
X534368Y85580D01*
X534460Y85620D01*
X534551Y85663D01*
X534640Y85710D01*
X534727Y85760D01*
X534813Y85814D01*
X534896Y85871D01*
X534976Y85931D01*
X535055Y85994D01*
X535131Y86061D01*
X535204Y86130D01*
X535274Y86202D01*
X535342Y86276D01*
X535407Y86353D01*
X535468Y86433D01*
X535527Y86515D01*
X535582Y86599D01*
X535634Y86685D01*
X535683Y86773D01*
X535728Y86863D01*
X535770Y86955D01*
X535808Y87048D01*
X535842Y87143D01*
X535873Y87238D01*
X535900Y87335D01*
X535923Y87433D01*
X535943Y87532D01*
X535958Y87632D01*
X535970Y87732D01*
X535978Y87832D01*
X535982Y87933D01*
X535982Y88033D01*
X535978Y88134D01*
X535970Y88234D01*
X535958Y88334D01*
X535943Y88434D01*
X535923Y88533D01*
X535900Y88631D01*
X535873Y88728D01*
X535842Y88823D01*
X535808Y88918D01*
X535770Y89011D01*
X535728Y89103D01*
X535683Y89193D01*
X535634Y89281D01*
X535582Y89367D01*
X535527Y89451D01*
X535468Y89533D01*
X535407Y89613D01*
X535342Y89690D01*
X535274Y89764D01*
X535204Y89836D01*
X535131Y89905D01*
X535055Y89972D01*
X534976Y90035D01*
X534896Y90095D01*
X534813Y90152D01*
X534727Y90206D01*
X534640Y90256D01*
X534551Y90303D01*
X534460Y90346D01*
X534368Y90386D01*
X534274Y90422D01*
X534179Y90455D01*
X534082Y90484D01*
X533985Y90509D01*
X533886Y90530D01*
X533787Y90548D01*
X533687Y90561D01*
X533587Y90571D01*
X533487Y90577D01*
X533386Y90579D01*
X532088Y90579D01*
X532088Y85386D01*
X532737Y96266D02*
X531439Y99512D01*
X532736Y96266D02*
X532769Y96191D01*
X532805Y96117D01*
X532844Y96045D01*
X532887Y95975D01*
X532933Y95908D01*
X532983Y95842D01*
X533035Y95780D01*
X533091Y95719D01*
X533149Y95662D01*
X533210Y95607D01*
X533274Y95556D01*
X533340Y95508D01*
X533409Y95463D01*
X533479Y95421D01*
X533552Y95383D01*
X533626Y95348D01*
X533702Y95317D01*
X533779Y95290D01*
X533858Y95267D01*
X533937Y95247D01*
X534018Y95232D01*
X534099Y95220D01*
X534181Y95212D01*
X534262Y95208D01*
X534344Y95209D01*
X534426Y95213D01*
X534508Y95221D01*
X534589Y95233D01*
X534669Y95249D01*
X534749Y95269D01*
X534827Y95293D01*
X534904Y95321D01*
X534980Y95352D01*
X535054Y95387D01*
X535126Y95425D01*
X535197Y95467D01*
X535265Y95513D01*
X535331Y95561D01*
X535394Y95613D01*
X535455Y95668D01*
X535513Y95726D01*
X535569Y95786D01*
X535621Y95849D01*
X535670Y95915D01*
X535716Y95983D01*
X535758Y96053D01*
X535798Y96125D01*
X535833Y96199D01*
X535865Y96274D01*
X535893Y96351D01*
X535917Y96429D01*
X535938Y96509D01*
X535955Y96589D01*
X535967Y96670D01*
X535976Y96751D01*
X535981Y96833D01*
X535982Y96915D01*
X535978Y97092D01*
X535969Y97269D01*
X535955Y97446D01*
X535938Y97623D01*
X535916Y97798D01*
X535891Y97974D01*
X535860Y98148D01*
X535826Y98322D01*
X535788Y98495D01*
X535745Y98667D01*
X535698Y98838D01*
X535648Y99008D01*
X535593Y99177D01*
X535534Y99344D01*
X535471Y99509D01*
X535404Y99674D01*
X535333Y99836D01*
X531439Y99511D02*
X531406Y99586D01*
X531370Y99660D01*
X531331Y99732D01*
X531288Y99802D01*
X531242Y99869D01*
X531192Y99935D01*
X531140Y99997D01*
X531084Y100058D01*
X531026Y100115D01*
X530965Y100170D01*
X530901Y100221D01*
X530835Y100269D01*
X530766Y100314D01*
X530696Y100356D01*
X530623Y100394D01*
X530549Y100429D01*
X530473Y100460D01*
X530396Y100487D01*
X530317Y100510D01*
X530238Y100530D01*
X530157Y100545D01*
X530076Y100557D01*
X529994Y100565D01*
X529913Y100569D01*
X529831Y100568D01*
X529749Y100564D01*
X529667Y100556D01*
X529586Y100544D01*
X529506Y100528D01*
X529426Y100508D01*
X529348Y100484D01*
X529271Y100456D01*
X529195Y100425D01*
X529121Y100390D01*
X529049Y100352D01*
X528978Y100310D01*
X528910Y100264D01*
X528844Y100216D01*
X528781Y100164D01*
X528720Y100109D01*
X528662Y100051D01*
X528606Y99991D01*
X528554Y99928D01*
X528505Y99862D01*
X528459Y99794D01*
X528417Y99724D01*
X528377Y99652D01*
X528342Y99578D01*
X528310Y99503D01*
X528282Y99426D01*
X528258Y99348D01*
X528237Y99268D01*
X528220Y99188D01*
X528208Y99107D01*
X528199Y99026D01*
X528194Y98944D01*
X528193Y98862D01*
X528193Y98863D02*
X528200Y98603D01*
X528213Y98343D01*
X528232Y98083D01*
X528257Y97824D01*
X528289Y97565D01*
X528326Y97308D01*
X528370Y97051D01*
X528419Y96795D01*
X528475Y96541D01*
X528536Y96288D01*
X528604Y96037D01*
X528678Y95787D01*
X528757Y95539D01*
X528842Y95293D01*
X526895Y104817D02*
X541175Y110010D01*
X516932Y20948D02*
X509143Y20948D01*
X516932Y20948D02*
X516932Y24194D01*
X516930Y24281D01*
X516924Y24369D01*
X516914Y24455D01*
X516901Y24542D01*
X516883Y24627D01*
X516862Y24712D01*
X516837Y24796D01*
X516808Y24878D01*
X516775Y24959D01*
X516739Y25039D01*
X516700Y25117D01*
X516656Y25193D01*
X516610Y25267D01*
X516560Y25338D01*
X516507Y25408D01*
X516451Y25475D01*
X516392Y25539D01*
X516330Y25601D01*
X516266Y25660D01*
X516199Y25716D01*
X516129Y25769D01*
X516058Y25819D01*
X515984Y25865D01*
X515908Y25909D01*
X515830Y25948D01*
X515750Y25984D01*
X515669Y26017D01*
X515587Y26046D01*
X515503Y26071D01*
X515418Y26092D01*
X515333Y26110D01*
X515246Y26123D01*
X515160Y26133D01*
X515072Y26139D01*
X514985Y26141D01*
X509143Y26141D01*
X509143Y33182D02*
X509143Y36428D01*
X509143Y33182D02*
X509145Y33095D01*
X509151Y33007D01*
X509161Y32921D01*
X509174Y32834D01*
X509192Y32749D01*
X509213Y32664D01*
X509238Y32580D01*
X509267Y32498D01*
X509300Y32417D01*
X509336Y32337D01*
X509375Y32259D01*
X509419Y32183D01*
X509465Y32109D01*
X509515Y32038D01*
X509568Y31968D01*
X509624Y31901D01*
X509683Y31837D01*
X509745Y31775D01*
X509809Y31716D01*
X509876Y31660D01*
X509946Y31607D01*
X510017Y31557D01*
X510091Y31511D01*
X510167Y31467D01*
X510245Y31428D01*
X510325Y31392D01*
X510406Y31359D01*
X510488Y31330D01*
X510572Y31305D01*
X510657Y31284D01*
X510742Y31266D01*
X510829Y31253D01*
X510915Y31243D01*
X511003Y31237D01*
X511090Y31235D01*
X514336Y31235D01*
X514437Y31237D01*
X514537Y31243D01*
X514637Y31253D01*
X514737Y31266D01*
X514836Y31284D01*
X514935Y31305D01*
X515032Y31330D01*
X515129Y31359D01*
X515224Y31392D01*
X515318Y31428D01*
X515410Y31468D01*
X515501Y31511D01*
X515590Y31558D01*
X515677Y31608D01*
X515763Y31662D01*
X515846Y31719D01*
X515926Y31779D01*
X516005Y31842D01*
X516081Y31909D01*
X516154Y31978D01*
X516224Y32050D01*
X516292Y32124D01*
X516357Y32201D01*
X516418Y32281D01*
X516477Y32363D01*
X516532Y32447D01*
X516584Y32533D01*
X516633Y32621D01*
X516678Y32711D01*
X516720Y32803D01*
X516758Y32896D01*
X516792Y32991D01*
X516823Y33086D01*
X516850Y33183D01*
X516873Y33281D01*
X516893Y33380D01*
X516908Y33480D01*
X516920Y33580D01*
X516928Y33680D01*
X516932Y33781D01*
X516932Y33881D01*
X516928Y33982D01*
X516920Y34082D01*
X516908Y34182D01*
X516893Y34282D01*
X516873Y34381D01*
X516850Y34479D01*
X516823Y34576D01*
X516792Y34671D01*
X516758Y34766D01*
X516720Y34859D01*
X516678Y34951D01*
X516633Y35041D01*
X516584Y35129D01*
X516532Y35215D01*
X516477Y35299D01*
X516418Y35381D01*
X516357Y35461D01*
X516292Y35538D01*
X516224Y35612D01*
X516154Y35684D01*
X516081Y35753D01*
X516005Y35820D01*
X515926Y35883D01*
X515846Y35943D01*
X515763Y36000D01*
X515677Y36054D01*
X515590Y36104D01*
X515501Y36151D01*
X515410Y36194D01*
X515318Y36234D01*
X515224Y36270D01*
X515129Y36303D01*
X515032Y36332D01*
X514935Y36357D01*
X514836Y36378D01*
X514737Y36396D01*
X514637Y36409D01*
X514537Y36419D01*
X514437Y36425D01*
X514336Y36427D01*
X514336Y36428D02*
X513038Y36428D01*
X513038Y31235D01*
X511739Y41141D02*
X514336Y41141D01*
X514437Y41143D01*
X514537Y41149D01*
X514637Y41159D01*
X514737Y41172D01*
X514836Y41190D01*
X514935Y41211D01*
X515032Y41236D01*
X515129Y41265D01*
X515224Y41298D01*
X515318Y41334D01*
X515410Y41374D01*
X515501Y41417D01*
X515590Y41464D01*
X515677Y41514D01*
X515763Y41568D01*
X515846Y41625D01*
X515926Y41685D01*
X516005Y41748D01*
X516081Y41815D01*
X516154Y41884D01*
X516224Y41956D01*
X516292Y42030D01*
X516357Y42107D01*
X516418Y42187D01*
X516477Y42269D01*
X516532Y42353D01*
X516584Y42439D01*
X516633Y42527D01*
X516678Y42617D01*
X516720Y42709D01*
X516758Y42802D01*
X516792Y42897D01*
X516823Y42992D01*
X516850Y43089D01*
X516873Y43187D01*
X516893Y43286D01*
X516908Y43386D01*
X516920Y43486D01*
X516928Y43586D01*
X516932Y43687D01*
X516932Y43787D01*
X516928Y43888D01*
X516920Y43988D01*
X516908Y44088D01*
X516893Y44188D01*
X516873Y44287D01*
X516850Y44385D01*
X516823Y44482D01*
X516792Y44577D01*
X516758Y44672D01*
X516720Y44765D01*
X516678Y44857D01*
X516633Y44947D01*
X516584Y45035D01*
X516532Y45121D01*
X516477Y45205D01*
X516418Y45287D01*
X516357Y45367D01*
X516292Y45444D01*
X516224Y45518D01*
X516154Y45590D01*
X516081Y45659D01*
X516005Y45726D01*
X515926Y45789D01*
X515846Y45849D01*
X515763Y45906D01*
X515677Y45960D01*
X515590Y46010D01*
X515501Y46057D01*
X515410Y46100D01*
X515318Y46140D01*
X515224Y46176D01*
X515129Y46209D01*
X515032Y46238D01*
X514935Y46263D01*
X514836Y46284D01*
X514737Y46302D01*
X514637Y46315D01*
X514537Y46325D01*
X514437Y46331D01*
X514336Y46333D01*
X514336Y46334D02*
X511739Y46334D01*
X511739Y46333D02*
X511638Y46331D01*
X511538Y46325D01*
X511438Y46315D01*
X511338Y46302D01*
X511239Y46284D01*
X511140Y46263D01*
X511043Y46238D01*
X510946Y46209D01*
X510851Y46176D01*
X510757Y46140D01*
X510665Y46100D01*
X510574Y46057D01*
X510485Y46010D01*
X510398Y45960D01*
X510312Y45906D01*
X510229Y45849D01*
X510149Y45789D01*
X510070Y45726D01*
X509994Y45659D01*
X509921Y45590D01*
X509851Y45518D01*
X509783Y45444D01*
X509718Y45367D01*
X509657Y45287D01*
X509598Y45205D01*
X509543Y45121D01*
X509491Y45035D01*
X509442Y44947D01*
X509397Y44857D01*
X509355Y44765D01*
X509317Y44672D01*
X509283Y44577D01*
X509252Y44482D01*
X509225Y44385D01*
X509202Y44287D01*
X509182Y44188D01*
X509167Y44088D01*
X509155Y43988D01*
X509147Y43888D01*
X509143Y43787D01*
X509143Y43687D01*
X509147Y43586D01*
X509155Y43486D01*
X509167Y43386D01*
X509182Y43286D01*
X509202Y43187D01*
X509225Y43089D01*
X509252Y42992D01*
X509283Y42897D01*
X509317Y42802D01*
X509355Y42709D01*
X509397Y42617D01*
X509442Y42527D01*
X509491Y42439D01*
X509543Y42353D01*
X509598Y42269D01*
X509657Y42187D01*
X509718Y42107D01*
X509783Y42030D01*
X509851Y41956D01*
X509921Y41884D01*
X509994Y41815D01*
X510070Y41748D01*
X510149Y41685D01*
X510229Y41625D01*
X510312Y41568D01*
X510398Y41514D01*
X510485Y41464D01*
X510574Y41417D01*
X510665Y41374D01*
X510757Y41334D01*
X510851Y41298D01*
X510946Y41265D01*
X511043Y41236D01*
X511140Y41211D01*
X511239Y41190D01*
X511338Y41172D01*
X511438Y41159D01*
X511538Y41149D01*
X511638Y41143D01*
X511739Y41141D01*
X509143Y51428D02*
X516932Y51428D01*
X516932Y54674D01*
X516930Y54761D01*
X516924Y54849D01*
X516914Y54935D01*
X516901Y55022D01*
X516883Y55107D01*
X516862Y55192D01*
X516837Y55276D01*
X516808Y55358D01*
X516775Y55439D01*
X516739Y55519D01*
X516700Y55597D01*
X516656Y55673D01*
X516610Y55747D01*
X516560Y55818D01*
X516507Y55888D01*
X516451Y55955D01*
X516392Y56019D01*
X516330Y56081D01*
X516266Y56140D01*
X516199Y56196D01*
X516129Y56249D01*
X516058Y56299D01*
X515984Y56345D01*
X515908Y56389D01*
X515830Y56428D01*
X515750Y56464D01*
X515669Y56497D01*
X515587Y56526D01*
X515503Y56551D01*
X515418Y56572D01*
X515333Y56590D01*
X515246Y56603D01*
X515160Y56613D01*
X515072Y56619D01*
X514985Y56621D01*
X509143Y56621D01*
X513687Y61941D02*
X513687Y69730D01*
X509143Y76630D02*
X509143Y79226D01*
X509143Y76630D02*
X509145Y76543D01*
X509151Y76455D01*
X509161Y76369D01*
X509174Y76282D01*
X509192Y76197D01*
X509213Y76112D01*
X509238Y76028D01*
X509267Y75946D01*
X509300Y75865D01*
X509336Y75785D01*
X509375Y75707D01*
X509419Y75631D01*
X509465Y75557D01*
X509515Y75486D01*
X509568Y75416D01*
X509624Y75349D01*
X509683Y75285D01*
X509745Y75223D01*
X509809Y75164D01*
X509876Y75108D01*
X509946Y75055D01*
X510017Y75005D01*
X510091Y74959D01*
X510167Y74915D01*
X510245Y74876D01*
X510325Y74840D01*
X510406Y74807D01*
X510488Y74778D01*
X510572Y74753D01*
X510657Y74732D01*
X510742Y74714D01*
X510829Y74701D01*
X510915Y74691D01*
X511003Y74685D01*
X511090Y74683D01*
X511090Y74682D02*
X514985Y74682D01*
X514985Y74683D02*
X515072Y74685D01*
X515160Y74691D01*
X515246Y74701D01*
X515333Y74714D01*
X515418Y74732D01*
X515503Y74753D01*
X515587Y74778D01*
X515669Y74807D01*
X515750Y74840D01*
X515830Y74876D01*
X515908Y74915D01*
X515984Y74959D01*
X516058Y75005D01*
X516129Y75055D01*
X516199Y75108D01*
X516266Y75164D01*
X516330Y75223D01*
X516392Y75285D01*
X516451Y75349D01*
X516507Y75416D01*
X516560Y75486D01*
X516610Y75557D01*
X516656Y75631D01*
X516700Y75707D01*
X516739Y75785D01*
X516775Y75865D01*
X516808Y75946D01*
X516837Y76028D01*
X516862Y76112D01*
X516883Y76197D01*
X516901Y76282D01*
X516914Y76369D01*
X516924Y76455D01*
X516930Y76543D01*
X516932Y76630D01*
X516932Y79226D01*
X505248Y83051D02*
X505248Y84349D01*
X516932Y88244D01*
X516932Y83051D02*
X509143Y85647D01*
X509143Y93016D02*
X520827Y93016D01*
X509143Y93016D02*
X509143Y96261D01*
X509145Y96348D01*
X509151Y96436D01*
X509161Y96522D01*
X509174Y96609D01*
X509192Y96694D01*
X509213Y96779D01*
X509238Y96863D01*
X509267Y96945D01*
X509300Y97026D01*
X509336Y97106D01*
X509375Y97184D01*
X509419Y97260D01*
X509465Y97334D01*
X509515Y97405D01*
X509568Y97475D01*
X509624Y97542D01*
X509683Y97606D01*
X509744Y97668D01*
X509809Y97727D01*
X509876Y97783D01*
X509946Y97836D01*
X510017Y97886D01*
X510091Y97932D01*
X510167Y97976D01*
X510245Y98015D01*
X510325Y98051D01*
X510406Y98084D01*
X510488Y98113D01*
X510572Y98138D01*
X510657Y98159D01*
X510742Y98177D01*
X510829Y98190D01*
X510915Y98200D01*
X511003Y98206D01*
X511090Y98208D01*
X511090Y98209D02*
X514985Y98209D01*
X514985Y98208D02*
X515072Y98206D01*
X515160Y98200D01*
X515246Y98190D01*
X515333Y98177D01*
X515418Y98159D01*
X515503Y98138D01*
X515587Y98113D01*
X515669Y98084D01*
X515750Y98051D01*
X515830Y98015D01*
X515908Y97976D01*
X515984Y97932D01*
X516058Y97886D01*
X516129Y97836D01*
X516199Y97783D01*
X516266Y97727D01*
X516330Y97668D01*
X516392Y97606D01*
X516451Y97542D01*
X516507Y97475D01*
X516560Y97405D01*
X516610Y97334D01*
X516656Y97260D01*
X516700Y97184D01*
X516739Y97106D01*
X516775Y97026D01*
X516808Y96945D01*
X516837Y96863D01*
X516862Y96779D01*
X516883Y96694D01*
X516901Y96609D01*
X516914Y96522D01*
X516924Y96436D01*
X516930Y96348D01*
X516932Y96261D01*
X516932Y93016D01*
X514336Y102863D02*
X511739Y102863D01*
X514336Y102863D02*
X514437Y102865D01*
X514537Y102871D01*
X514637Y102881D01*
X514737Y102894D01*
X514836Y102912D01*
X514935Y102933D01*
X515032Y102958D01*
X515129Y102987D01*
X515224Y103020D01*
X515318Y103056D01*
X515410Y103096D01*
X515501Y103139D01*
X515590Y103186D01*
X515677Y103236D01*
X515763Y103290D01*
X515846Y103347D01*
X515926Y103407D01*
X516005Y103470D01*
X516081Y103537D01*
X516154Y103606D01*
X516224Y103678D01*
X516292Y103752D01*
X516357Y103829D01*
X516418Y103909D01*
X516477Y103991D01*
X516532Y104075D01*
X516584Y104161D01*
X516633Y104249D01*
X516678Y104339D01*
X516720Y104431D01*
X516758Y104524D01*
X516792Y104619D01*
X516823Y104714D01*
X516850Y104811D01*
X516873Y104909D01*
X516893Y105008D01*
X516908Y105108D01*
X516920Y105208D01*
X516928Y105308D01*
X516932Y105409D01*
X516932Y105509D01*
X516928Y105610D01*
X516920Y105710D01*
X516908Y105810D01*
X516893Y105910D01*
X516873Y106009D01*
X516850Y106107D01*
X516823Y106204D01*
X516792Y106299D01*
X516758Y106394D01*
X516720Y106487D01*
X516678Y106579D01*
X516633Y106669D01*
X516584Y106757D01*
X516532Y106843D01*
X516477Y106927D01*
X516418Y107009D01*
X516357Y107089D01*
X516292Y107166D01*
X516224Y107240D01*
X516154Y107312D01*
X516081Y107381D01*
X516005Y107448D01*
X515926Y107511D01*
X515846Y107571D01*
X515763Y107628D01*
X515677Y107682D01*
X515590Y107732D01*
X515501Y107779D01*
X515410Y107822D01*
X515318Y107862D01*
X515224Y107898D01*
X515129Y107931D01*
X515032Y107960D01*
X514935Y107985D01*
X514836Y108006D01*
X514737Y108024D01*
X514637Y108037D01*
X514537Y108047D01*
X514437Y108053D01*
X514336Y108055D01*
X514336Y108056D02*
X511739Y108056D01*
X511739Y108055D02*
X511638Y108053D01*
X511538Y108047D01*
X511438Y108037D01*
X511338Y108024D01*
X511239Y108006D01*
X511140Y107985D01*
X511043Y107960D01*
X510946Y107931D01*
X510851Y107898D01*
X510757Y107862D01*
X510665Y107822D01*
X510574Y107779D01*
X510485Y107732D01*
X510398Y107682D01*
X510312Y107628D01*
X510229Y107571D01*
X510149Y107511D01*
X510070Y107448D01*
X509994Y107381D01*
X509921Y107312D01*
X509851Y107240D01*
X509783Y107166D01*
X509718Y107089D01*
X509657Y107009D01*
X509598Y106927D01*
X509543Y106843D01*
X509491Y106757D01*
X509442Y106669D01*
X509397Y106579D01*
X509355Y106487D01*
X509317Y106394D01*
X509283Y106299D01*
X509252Y106204D01*
X509225Y106107D01*
X509202Y106009D01*
X509182Y105910D01*
X509167Y105810D01*
X509155Y105710D01*
X509147Y105610D01*
X509143Y105509D01*
X509143Y105409D01*
X509147Y105308D01*
X509155Y105208D01*
X509167Y105108D01*
X509182Y105008D01*
X509202Y104909D01*
X509225Y104811D01*
X509252Y104714D01*
X509283Y104619D01*
X509317Y104524D01*
X509355Y104431D01*
X509397Y104339D01*
X509442Y104249D01*
X509491Y104161D01*
X509543Y104075D01*
X509598Y103991D01*
X509657Y103909D01*
X509718Y103829D01*
X509783Y103752D01*
X509851Y103678D01*
X509921Y103606D01*
X509994Y103537D01*
X510070Y103470D01*
X510149Y103407D01*
X510229Y103347D01*
X510312Y103290D01*
X510398Y103236D01*
X510485Y103186D01*
X510574Y103139D01*
X510665Y103096D01*
X510757Y103056D01*
X510851Y103020D01*
X510946Y102987D01*
X511043Y102958D01*
X511140Y102933D01*
X511239Y102912D01*
X511338Y102894D01*
X511438Y102881D01*
X511538Y102871D01*
X511638Y102865D01*
X511739Y102863D01*
X509143Y113216D02*
X516932Y113216D01*
X516932Y117111D01*
X515634Y117111D01*
X509143Y122658D02*
X509143Y125904D01*
X509143Y122658D02*
X509145Y122571D01*
X509151Y122483D01*
X509161Y122397D01*
X509174Y122310D01*
X509192Y122225D01*
X509213Y122140D01*
X509238Y122056D01*
X509267Y121974D01*
X509300Y121893D01*
X509336Y121813D01*
X509375Y121735D01*
X509419Y121659D01*
X509465Y121585D01*
X509515Y121514D01*
X509568Y121444D01*
X509624Y121377D01*
X509683Y121313D01*
X509745Y121251D01*
X509809Y121192D01*
X509876Y121136D01*
X509946Y121083D01*
X510017Y121033D01*
X510091Y120987D01*
X510167Y120943D01*
X510245Y120904D01*
X510325Y120868D01*
X510406Y120835D01*
X510488Y120806D01*
X510572Y120781D01*
X510657Y120760D01*
X510742Y120742D01*
X510829Y120729D01*
X510915Y120719D01*
X511003Y120713D01*
X511090Y120711D01*
X514985Y120711D01*
X515072Y120713D01*
X515160Y120719D01*
X515246Y120729D01*
X515333Y120742D01*
X515418Y120760D01*
X515503Y120781D01*
X515587Y120806D01*
X515669Y120835D01*
X515750Y120868D01*
X515830Y120904D01*
X515908Y120943D01*
X515984Y120987D01*
X516058Y121033D01*
X516129Y121083D01*
X516199Y121136D01*
X516266Y121192D01*
X516330Y121251D01*
X516392Y121313D01*
X516451Y121377D01*
X516507Y121444D01*
X516560Y121514D01*
X516610Y121585D01*
X516656Y121659D01*
X516700Y121735D01*
X516739Y121813D01*
X516775Y121893D01*
X516808Y121974D01*
X516837Y122056D01*
X516862Y122140D01*
X516883Y122225D01*
X516901Y122310D01*
X516914Y122397D01*
X516924Y122483D01*
X516930Y122571D01*
X516932Y122658D01*
X516932Y125904D01*
X507196Y125904D01*
X507109Y125902D01*
X507021Y125896D01*
X506935Y125886D01*
X506848Y125873D01*
X506763Y125855D01*
X506678Y125834D01*
X506594Y125809D01*
X506512Y125780D01*
X506431Y125747D01*
X506351Y125711D01*
X506273Y125672D01*
X506197Y125628D01*
X506123Y125582D01*
X506052Y125532D01*
X505982Y125479D01*
X505915Y125423D01*
X505851Y125364D01*
X505789Y125303D01*
X505730Y125238D01*
X505674Y125171D01*
X505621Y125101D01*
X505571Y125030D01*
X505525Y124956D01*
X505481Y124880D01*
X505442Y124802D01*
X505406Y124722D01*
X505373Y124641D01*
X505344Y124559D01*
X505319Y124475D01*
X505298Y124390D01*
X505280Y124305D01*
X505267Y124218D01*
X505257Y124132D01*
X505251Y124044D01*
X505249Y123957D01*
X505248Y123957D02*
X505248Y121360D01*
X513687Y131283D02*
X513687Y139072D01*
X493339Y35123D02*
X494637Y31877D01*
X494636Y31877D02*
X494669Y31802D01*
X494705Y31728D01*
X494744Y31656D01*
X494787Y31586D01*
X494833Y31519D01*
X494883Y31453D01*
X494935Y31391D01*
X494991Y31330D01*
X495049Y31273D01*
X495110Y31218D01*
X495174Y31167D01*
X495240Y31119D01*
X495309Y31074D01*
X495379Y31032D01*
X495452Y30994D01*
X495526Y30959D01*
X495602Y30928D01*
X495679Y30901D01*
X495758Y30878D01*
X495837Y30858D01*
X495918Y30843D01*
X495999Y30831D01*
X496081Y30823D01*
X496162Y30819D01*
X496244Y30820D01*
X496326Y30824D01*
X496408Y30832D01*
X496489Y30844D01*
X496569Y30860D01*
X496649Y30880D01*
X496727Y30904D01*
X496804Y30932D01*
X496880Y30963D01*
X496954Y30998D01*
X497026Y31036D01*
X497097Y31078D01*
X497165Y31124D01*
X497231Y31172D01*
X497294Y31224D01*
X497355Y31279D01*
X497413Y31337D01*
X497469Y31397D01*
X497521Y31460D01*
X497570Y31526D01*
X497616Y31594D01*
X497658Y31664D01*
X497698Y31736D01*
X497733Y31810D01*
X497765Y31885D01*
X497793Y31962D01*
X497817Y32040D01*
X497838Y32120D01*
X497855Y32200D01*
X497867Y32281D01*
X497876Y32362D01*
X497881Y32444D01*
X497882Y32526D01*
X497878Y32703D01*
X497869Y32880D01*
X497855Y33057D01*
X497838Y33234D01*
X497816Y33409D01*
X497791Y33585D01*
X497760Y33759D01*
X497726Y33933D01*
X497688Y34106D01*
X497645Y34278D01*
X497598Y34449D01*
X497548Y34619D01*
X497493Y34788D01*
X497434Y34955D01*
X497371Y35120D01*
X497304Y35285D01*
X497233Y35447D01*
X493339Y35123D02*
X493306Y35198D01*
X493270Y35272D01*
X493231Y35344D01*
X493188Y35414D01*
X493142Y35481D01*
X493092Y35547D01*
X493040Y35609D01*
X492984Y35670D01*
X492926Y35727D01*
X492865Y35782D01*
X492801Y35833D01*
X492735Y35881D01*
X492666Y35926D01*
X492596Y35968D01*
X492523Y36006D01*
X492449Y36041D01*
X492373Y36072D01*
X492296Y36099D01*
X492217Y36122D01*
X492138Y36142D01*
X492057Y36157D01*
X491976Y36169D01*
X491894Y36177D01*
X491813Y36181D01*
X491731Y36180D01*
X491649Y36176D01*
X491567Y36168D01*
X491486Y36156D01*
X491406Y36140D01*
X491326Y36120D01*
X491248Y36096D01*
X491171Y36068D01*
X491095Y36037D01*
X491021Y36002D01*
X490949Y35964D01*
X490878Y35922D01*
X490810Y35876D01*
X490744Y35828D01*
X490681Y35776D01*
X490620Y35721D01*
X490562Y35663D01*
X490506Y35603D01*
X490454Y35540D01*
X490405Y35474D01*
X490359Y35406D01*
X490317Y35336D01*
X490277Y35264D01*
X490242Y35190D01*
X490210Y35115D01*
X490182Y35038D01*
X490158Y34960D01*
X490137Y34880D01*
X490120Y34800D01*
X490108Y34719D01*
X490099Y34638D01*
X490094Y34556D01*
X490093Y34474D01*
X490100Y34214D01*
X490113Y33954D01*
X490132Y33694D01*
X490157Y33435D01*
X490189Y33176D01*
X490226Y32919D01*
X490270Y32662D01*
X490319Y32406D01*
X490375Y32152D01*
X490436Y31899D01*
X490504Y31648D01*
X490578Y31398D01*
X490657Y31150D01*
X490742Y30904D01*
X492040Y41190D02*
X497882Y41190D01*
X492040Y41191D02*
X491953Y41193D01*
X491865Y41199D01*
X491779Y41209D01*
X491692Y41222D01*
X491607Y41240D01*
X491522Y41261D01*
X491438Y41286D01*
X491356Y41315D01*
X491275Y41348D01*
X491195Y41384D01*
X491117Y41423D01*
X491041Y41467D01*
X490967Y41513D01*
X490896Y41563D01*
X490826Y41616D01*
X490759Y41672D01*
X490695Y41731D01*
X490633Y41793D01*
X490574Y41857D01*
X490518Y41924D01*
X490465Y41994D01*
X490415Y42065D01*
X490369Y42139D01*
X490325Y42215D01*
X490286Y42293D01*
X490250Y42373D01*
X490217Y42454D01*
X490188Y42536D01*
X490163Y42620D01*
X490142Y42705D01*
X490124Y42790D01*
X490111Y42877D01*
X490101Y42963D01*
X490095Y43051D01*
X490093Y43138D01*
X490093Y46383D01*
X497882Y46383D01*
X497882Y51917D02*
X486198Y51917D01*
X497882Y51917D02*
X497882Y55163D01*
X497880Y55250D01*
X497874Y55338D01*
X497864Y55424D01*
X497851Y55511D01*
X497833Y55596D01*
X497812Y55681D01*
X497787Y55765D01*
X497758Y55847D01*
X497725Y55928D01*
X497689Y56008D01*
X497650Y56086D01*
X497606Y56162D01*
X497560Y56236D01*
X497510Y56307D01*
X497457Y56377D01*
X497401Y56444D01*
X497342Y56508D01*
X497280Y56570D01*
X497216Y56629D01*
X497149Y56685D01*
X497079Y56738D01*
X497008Y56788D01*
X496934Y56834D01*
X496858Y56878D01*
X496780Y56917D01*
X496700Y56953D01*
X496619Y56986D01*
X496537Y57015D01*
X496453Y57040D01*
X496368Y57061D01*
X496283Y57079D01*
X496196Y57092D01*
X496110Y57102D01*
X496022Y57108D01*
X495935Y57110D01*
X492040Y57110D01*
X491953Y57108D01*
X491865Y57102D01*
X491779Y57092D01*
X491692Y57079D01*
X491607Y57061D01*
X491522Y57040D01*
X491438Y57015D01*
X491356Y56986D01*
X491275Y56953D01*
X491195Y56917D01*
X491117Y56878D01*
X491041Y56834D01*
X490967Y56788D01*
X490896Y56738D01*
X490826Y56685D01*
X490759Y56629D01*
X490695Y56570D01*
X490633Y56508D01*
X490574Y56444D01*
X490518Y56377D01*
X490465Y56307D01*
X490415Y56236D01*
X490369Y56162D01*
X490325Y56086D01*
X490286Y56008D01*
X490250Y55928D01*
X490217Y55847D01*
X490188Y55765D01*
X490163Y55681D01*
X490142Y55596D01*
X490124Y55511D01*
X490111Y55424D01*
X490101Y55338D01*
X490095Y55250D01*
X490093Y55163D01*
X490093Y51917D01*
X490093Y63712D02*
X490093Y66957D01*
X490093Y63712D02*
X490095Y63625D01*
X490101Y63537D01*
X490111Y63451D01*
X490124Y63364D01*
X490142Y63279D01*
X490163Y63194D01*
X490188Y63110D01*
X490217Y63028D01*
X490250Y62947D01*
X490286Y62867D01*
X490325Y62789D01*
X490369Y62713D01*
X490415Y62639D01*
X490465Y62568D01*
X490518Y62498D01*
X490574Y62431D01*
X490633Y62367D01*
X490695Y62305D01*
X490759Y62246D01*
X490826Y62190D01*
X490896Y62137D01*
X490967Y62087D01*
X491041Y62041D01*
X491117Y61997D01*
X491195Y61958D01*
X491275Y61922D01*
X491356Y61889D01*
X491438Y61860D01*
X491522Y61835D01*
X491607Y61814D01*
X491692Y61796D01*
X491779Y61783D01*
X491865Y61773D01*
X491953Y61767D01*
X492040Y61765D01*
X492040Y61764D02*
X495286Y61764D01*
X495286Y61765D02*
X495387Y61767D01*
X495487Y61773D01*
X495587Y61783D01*
X495687Y61796D01*
X495786Y61814D01*
X495885Y61835D01*
X495982Y61860D01*
X496079Y61889D01*
X496174Y61922D01*
X496268Y61958D01*
X496360Y61998D01*
X496451Y62041D01*
X496540Y62088D01*
X496627Y62138D01*
X496713Y62192D01*
X496796Y62249D01*
X496876Y62309D01*
X496955Y62372D01*
X497031Y62439D01*
X497104Y62508D01*
X497174Y62580D01*
X497242Y62654D01*
X497307Y62731D01*
X497368Y62811D01*
X497427Y62893D01*
X497482Y62977D01*
X497534Y63063D01*
X497583Y63151D01*
X497628Y63241D01*
X497670Y63333D01*
X497708Y63426D01*
X497742Y63521D01*
X497773Y63616D01*
X497800Y63713D01*
X497823Y63811D01*
X497843Y63910D01*
X497858Y64010D01*
X497870Y64110D01*
X497878Y64210D01*
X497882Y64311D01*
X497882Y64411D01*
X497878Y64512D01*
X497870Y64612D01*
X497858Y64712D01*
X497843Y64812D01*
X497823Y64911D01*
X497800Y65009D01*
X497773Y65106D01*
X497742Y65201D01*
X497708Y65296D01*
X497670Y65389D01*
X497628Y65481D01*
X497583Y65571D01*
X497534Y65659D01*
X497482Y65745D01*
X497427Y65829D01*
X497368Y65911D01*
X497307Y65991D01*
X497242Y66068D01*
X497174Y66142D01*
X497104Y66214D01*
X497031Y66283D01*
X496955Y66350D01*
X496876Y66413D01*
X496796Y66473D01*
X496713Y66530D01*
X496627Y66584D01*
X496540Y66634D01*
X496451Y66681D01*
X496360Y66724D01*
X496268Y66764D01*
X496174Y66800D01*
X496079Y66833D01*
X495982Y66862D01*
X495885Y66887D01*
X495786Y66908D01*
X495687Y66926D01*
X495587Y66939D01*
X495487Y66949D01*
X495387Y66955D01*
X495286Y66957D01*
X493988Y66957D01*
X493988Y61764D01*
X490093Y72118D02*
X497882Y72118D01*
X497882Y76012D01*
X496584Y76012D01*
X494637Y80645D02*
X493339Y83891D01*
X494636Y80645D02*
X494669Y80570D01*
X494705Y80496D01*
X494744Y80424D01*
X494787Y80354D01*
X494833Y80287D01*
X494883Y80221D01*
X494935Y80159D01*
X494991Y80098D01*
X495049Y80041D01*
X495110Y79986D01*
X495174Y79935D01*
X495240Y79887D01*
X495309Y79842D01*
X495379Y79800D01*
X495452Y79762D01*
X495526Y79727D01*
X495602Y79696D01*
X495679Y79669D01*
X495758Y79646D01*
X495837Y79626D01*
X495918Y79611D01*
X495999Y79599D01*
X496081Y79591D01*
X496162Y79587D01*
X496244Y79588D01*
X496326Y79592D01*
X496408Y79600D01*
X496489Y79612D01*
X496569Y79628D01*
X496649Y79648D01*
X496727Y79672D01*
X496804Y79700D01*
X496880Y79731D01*
X496954Y79766D01*
X497026Y79804D01*
X497097Y79846D01*
X497165Y79892D01*
X497231Y79940D01*
X497294Y79992D01*
X497355Y80047D01*
X497413Y80105D01*
X497469Y80165D01*
X497521Y80228D01*
X497570Y80294D01*
X497616Y80362D01*
X497658Y80432D01*
X497698Y80504D01*
X497733Y80578D01*
X497765Y80653D01*
X497793Y80730D01*
X497817Y80808D01*
X497838Y80888D01*
X497855Y80968D01*
X497867Y81049D01*
X497876Y81130D01*
X497881Y81212D01*
X497882Y81294D01*
X497878Y81471D01*
X497869Y81648D01*
X497855Y81825D01*
X497838Y82002D01*
X497816Y82177D01*
X497791Y82353D01*
X497760Y82527D01*
X497726Y82701D01*
X497688Y82874D01*
X497645Y83046D01*
X497598Y83217D01*
X497548Y83387D01*
X497493Y83556D01*
X497434Y83723D01*
X497371Y83888D01*
X497304Y84053D01*
X497233Y84215D01*
X493339Y83890D02*
X493306Y83965D01*
X493270Y84039D01*
X493231Y84111D01*
X493188Y84181D01*
X493142Y84248D01*
X493092Y84314D01*
X493040Y84376D01*
X492984Y84437D01*
X492926Y84494D01*
X492865Y84549D01*
X492801Y84600D01*
X492735Y84648D01*
X492666Y84693D01*
X492596Y84735D01*
X492523Y84773D01*
X492449Y84808D01*
X492373Y84839D01*
X492296Y84866D01*
X492217Y84889D01*
X492138Y84909D01*
X492057Y84924D01*
X491976Y84936D01*
X491894Y84944D01*
X491813Y84948D01*
X491731Y84947D01*
X491649Y84943D01*
X491567Y84935D01*
X491486Y84923D01*
X491406Y84907D01*
X491326Y84887D01*
X491248Y84863D01*
X491171Y84835D01*
X491095Y84804D01*
X491021Y84769D01*
X490949Y84731D01*
X490878Y84689D01*
X490810Y84643D01*
X490744Y84595D01*
X490681Y84543D01*
X490620Y84488D01*
X490562Y84430D01*
X490506Y84370D01*
X490454Y84307D01*
X490405Y84241D01*
X490359Y84173D01*
X490317Y84103D01*
X490277Y84031D01*
X490242Y83957D01*
X490210Y83882D01*
X490182Y83805D01*
X490158Y83727D01*
X490137Y83647D01*
X490120Y83567D01*
X490108Y83486D01*
X490099Y83405D01*
X490094Y83323D01*
X490093Y83241D01*
X490093Y83242D02*
X490100Y82982D01*
X490113Y82722D01*
X490132Y82462D01*
X490157Y82203D01*
X490189Y81944D01*
X490226Y81687D01*
X490270Y81430D01*
X490319Y81174D01*
X490375Y80920D01*
X490436Y80667D01*
X490504Y80416D01*
X490578Y80166D01*
X490657Y79918D01*
X490742Y79672D01*
X497882Y88610D02*
X497882Y92505D01*
X501777Y89908D02*
X492040Y89908D01*
X492040Y89909D02*
X491953Y89911D01*
X491865Y89917D01*
X491779Y89927D01*
X491692Y89940D01*
X491607Y89958D01*
X491522Y89979D01*
X491438Y90004D01*
X491356Y90033D01*
X491275Y90066D01*
X491195Y90102D01*
X491117Y90141D01*
X491041Y90185D01*
X490967Y90231D01*
X490896Y90281D01*
X490826Y90334D01*
X490759Y90390D01*
X490695Y90449D01*
X490633Y90511D01*
X490574Y90575D01*
X490518Y90642D01*
X490465Y90712D01*
X490415Y90783D01*
X490369Y90857D01*
X490325Y90933D01*
X490286Y91011D01*
X490250Y91091D01*
X490217Y91172D01*
X490188Y91254D01*
X490163Y91338D01*
X490142Y91423D01*
X490124Y91508D01*
X490111Y91595D01*
X490101Y91681D01*
X490095Y91769D01*
X490093Y91856D01*
X490093Y92505D01*
X492689Y96816D02*
X495286Y96816D01*
X495286Y96817D02*
X495387Y96819D01*
X495487Y96825D01*
X495587Y96835D01*
X495687Y96848D01*
X495786Y96866D01*
X495885Y96887D01*
X495982Y96912D01*
X496079Y96941D01*
X496174Y96974D01*
X496268Y97010D01*
X496360Y97050D01*
X496451Y97093D01*
X496540Y97140D01*
X496627Y97190D01*
X496713Y97244D01*
X496796Y97301D01*
X496876Y97361D01*
X496955Y97424D01*
X497031Y97491D01*
X497104Y97560D01*
X497174Y97632D01*
X497242Y97706D01*
X497307Y97783D01*
X497368Y97863D01*
X497427Y97945D01*
X497482Y98029D01*
X497534Y98115D01*
X497583Y98203D01*
X497628Y98293D01*
X497670Y98385D01*
X497708Y98478D01*
X497742Y98573D01*
X497773Y98668D01*
X497800Y98765D01*
X497823Y98863D01*
X497843Y98962D01*
X497858Y99062D01*
X497870Y99162D01*
X497878Y99262D01*
X497882Y99363D01*
X497882Y99463D01*
X497878Y99564D01*
X497870Y99664D01*
X497858Y99764D01*
X497843Y99864D01*
X497823Y99963D01*
X497800Y100061D01*
X497773Y100158D01*
X497742Y100253D01*
X497708Y100348D01*
X497670Y100441D01*
X497628Y100533D01*
X497583Y100623D01*
X497534Y100711D01*
X497482Y100797D01*
X497427Y100881D01*
X497368Y100963D01*
X497307Y101043D01*
X497242Y101120D01*
X497174Y101194D01*
X497104Y101266D01*
X497031Y101335D01*
X496955Y101402D01*
X496876Y101465D01*
X496796Y101525D01*
X496713Y101582D01*
X496627Y101636D01*
X496540Y101686D01*
X496451Y101733D01*
X496360Y101776D01*
X496268Y101816D01*
X496174Y101852D01*
X496079Y101885D01*
X495982Y101914D01*
X495885Y101939D01*
X495786Y101960D01*
X495687Y101978D01*
X495587Y101991D01*
X495487Y102001D01*
X495387Y102007D01*
X495286Y102009D01*
X492689Y102009D01*
X492588Y102007D01*
X492488Y102001D01*
X492388Y101991D01*
X492288Y101978D01*
X492189Y101960D01*
X492090Y101939D01*
X491993Y101914D01*
X491896Y101885D01*
X491801Y101852D01*
X491707Y101816D01*
X491615Y101776D01*
X491524Y101733D01*
X491435Y101686D01*
X491348Y101636D01*
X491262Y101582D01*
X491179Y101525D01*
X491099Y101465D01*
X491020Y101402D01*
X490944Y101335D01*
X490871Y101266D01*
X490801Y101194D01*
X490733Y101120D01*
X490668Y101043D01*
X490607Y100963D01*
X490548Y100881D01*
X490493Y100797D01*
X490441Y100711D01*
X490392Y100623D01*
X490347Y100533D01*
X490305Y100441D01*
X490267Y100348D01*
X490233Y100253D01*
X490202Y100158D01*
X490175Y100061D01*
X490152Y99963D01*
X490132Y99864D01*
X490117Y99764D01*
X490105Y99664D01*
X490097Y99564D01*
X490093Y99463D01*
X490093Y99363D01*
X490097Y99262D01*
X490105Y99162D01*
X490117Y99062D01*
X490132Y98962D01*
X490152Y98863D01*
X490175Y98765D01*
X490202Y98668D01*
X490233Y98573D01*
X490267Y98478D01*
X490305Y98385D01*
X490347Y98293D01*
X490392Y98203D01*
X490441Y98115D01*
X490493Y98029D01*
X490548Y97945D01*
X490607Y97863D01*
X490668Y97783D01*
X490733Y97706D01*
X490801Y97632D01*
X490871Y97560D01*
X490944Y97491D01*
X491020Y97424D01*
X491099Y97361D01*
X491179Y97301D01*
X491262Y97244D01*
X491348Y97190D01*
X491435Y97140D01*
X491524Y97093D01*
X491615Y97050D01*
X491707Y97010D01*
X491801Y96974D01*
X491896Y96941D01*
X491993Y96912D01*
X492090Y96887D01*
X492189Y96866D01*
X492288Y96848D01*
X492388Y96835D01*
X492488Y96825D01*
X492588Y96819D01*
X492689Y96817D01*
X490093Y107170D02*
X497882Y107170D01*
X497882Y111064D01*
X496584Y111064D01*
X490093Y116671D02*
X490093Y119916D01*
X490093Y116671D02*
X490095Y116584D01*
X490101Y116496D01*
X490111Y116410D01*
X490124Y116323D01*
X490142Y116238D01*
X490163Y116153D01*
X490188Y116069D01*
X490217Y115987D01*
X490250Y115906D01*
X490286Y115826D01*
X490325Y115748D01*
X490369Y115672D01*
X490415Y115598D01*
X490465Y115527D01*
X490518Y115457D01*
X490574Y115390D01*
X490633Y115326D01*
X490695Y115264D01*
X490759Y115205D01*
X490826Y115149D01*
X490896Y115096D01*
X490967Y115046D01*
X491041Y115000D01*
X491117Y114956D01*
X491195Y114917D01*
X491275Y114881D01*
X491356Y114848D01*
X491438Y114819D01*
X491522Y114794D01*
X491607Y114773D01*
X491692Y114755D01*
X491779Y114742D01*
X491865Y114732D01*
X491953Y114726D01*
X492040Y114724D01*
X492040Y114723D02*
X495286Y114723D01*
X495286Y114724D02*
X495387Y114726D01*
X495487Y114732D01*
X495587Y114742D01*
X495687Y114755D01*
X495786Y114773D01*
X495885Y114794D01*
X495982Y114819D01*
X496079Y114848D01*
X496174Y114881D01*
X496268Y114917D01*
X496360Y114957D01*
X496451Y115000D01*
X496540Y115047D01*
X496627Y115097D01*
X496713Y115151D01*
X496796Y115208D01*
X496876Y115268D01*
X496955Y115331D01*
X497031Y115398D01*
X497104Y115467D01*
X497174Y115539D01*
X497242Y115613D01*
X497307Y115690D01*
X497368Y115770D01*
X497427Y115852D01*
X497482Y115936D01*
X497534Y116022D01*
X497583Y116110D01*
X497628Y116200D01*
X497670Y116292D01*
X497708Y116385D01*
X497742Y116480D01*
X497773Y116575D01*
X497800Y116672D01*
X497823Y116770D01*
X497843Y116869D01*
X497858Y116969D01*
X497870Y117069D01*
X497878Y117169D01*
X497882Y117270D01*
X497882Y117370D01*
X497878Y117471D01*
X497870Y117571D01*
X497858Y117671D01*
X497843Y117771D01*
X497823Y117870D01*
X497800Y117968D01*
X497773Y118065D01*
X497742Y118160D01*
X497708Y118255D01*
X497670Y118348D01*
X497628Y118440D01*
X497583Y118530D01*
X497534Y118618D01*
X497482Y118704D01*
X497427Y118788D01*
X497368Y118870D01*
X497307Y118950D01*
X497242Y119027D01*
X497174Y119101D01*
X497104Y119173D01*
X497031Y119242D01*
X496955Y119309D01*
X496876Y119372D01*
X496796Y119432D01*
X496713Y119489D01*
X496627Y119543D01*
X496540Y119593D01*
X496451Y119640D01*
X496360Y119683D01*
X496268Y119723D01*
X496174Y119759D01*
X496079Y119792D01*
X495982Y119821D01*
X495885Y119846D01*
X495786Y119867D01*
X495687Y119885D01*
X495587Y119898D01*
X495487Y119908D01*
X495387Y119914D01*
X495286Y119916D01*
X493988Y119916D01*
X493988Y114723D01*
X488795Y124248D02*
X503075Y129441D01*
M02*
