G04 EAGLE Gerber RS-274X export*
G75*
%MOMM*%
%FSLAX34Y34*%
%LPD*%
%INSilkscreen Top*%
%IPPOS*%
%AMOC8*
5,1,8,0,0,1.08239X$1,22.5*%
G01*
%ADD10C,0.101600*%
%ADD11C,0.152400*%
%ADD12C,0.500000*%
%ADD13C,0.120000*%
%ADD14C,0.203200*%
%ADD15C,0.127000*%
%ADD16C,0.300000*%


D10*
X158242Y90791D02*
X158242Y88194D01*
X158240Y88095D01*
X158234Y87995D01*
X158225Y87896D01*
X158212Y87798D01*
X158195Y87700D01*
X158174Y87602D01*
X158149Y87506D01*
X158121Y87411D01*
X158089Y87317D01*
X158054Y87224D01*
X158015Y87132D01*
X157972Y87042D01*
X157927Y86954D01*
X157877Y86867D01*
X157825Y86783D01*
X157769Y86700D01*
X157711Y86620D01*
X157649Y86542D01*
X157584Y86467D01*
X157516Y86394D01*
X157446Y86324D01*
X157373Y86256D01*
X157298Y86191D01*
X157220Y86129D01*
X157140Y86071D01*
X157057Y86015D01*
X156973Y85963D01*
X156886Y85913D01*
X156798Y85868D01*
X156708Y85825D01*
X156616Y85786D01*
X156523Y85751D01*
X156429Y85719D01*
X156334Y85691D01*
X156238Y85666D01*
X156140Y85645D01*
X156042Y85628D01*
X155944Y85615D01*
X155845Y85606D01*
X155745Y85600D01*
X155646Y85598D01*
X149154Y85598D01*
X149055Y85600D01*
X148955Y85606D01*
X148856Y85615D01*
X148758Y85628D01*
X148660Y85646D01*
X148562Y85666D01*
X148466Y85691D01*
X148370Y85719D01*
X148276Y85751D01*
X148183Y85786D01*
X148092Y85825D01*
X148002Y85868D01*
X147913Y85913D01*
X147827Y85963D01*
X147742Y86015D01*
X147660Y86071D01*
X147580Y86130D01*
X147502Y86191D01*
X147426Y86256D01*
X147353Y86324D01*
X147283Y86394D01*
X147215Y86467D01*
X147150Y86543D01*
X147089Y86621D01*
X147030Y86701D01*
X146974Y86783D01*
X146922Y86868D01*
X146873Y86954D01*
X146827Y87043D01*
X146784Y87133D01*
X146745Y87224D01*
X146710Y87317D01*
X146678Y87411D01*
X146650Y87507D01*
X146625Y87603D01*
X146605Y87701D01*
X146587Y87799D01*
X146574Y87897D01*
X146565Y87996D01*
X146559Y88095D01*
X146557Y88195D01*
X146558Y88194D02*
X146558Y90791D01*
X149154Y95156D02*
X146558Y98402D01*
X158242Y98402D01*
X158242Y101647D02*
X158242Y95156D01*
X193049Y23368D02*
X195646Y23368D01*
X193049Y23368D02*
X192950Y23370D01*
X192850Y23376D01*
X192751Y23385D01*
X192653Y23398D01*
X192555Y23415D01*
X192457Y23436D01*
X192361Y23461D01*
X192266Y23489D01*
X192172Y23521D01*
X192079Y23556D01*
X191987Y23595D01*
X191897Y23638D01*
X191809Y23683D01*
X191722Y23733D01*
X191638Y23785D01*
X191555Y23841D01*
X191475Y23899D01*
X191397Y23961D01*
X191322Y24026D01*
X191249Y24094D01*
X191179Y24164D01*
X191111Y24237D01*
X191046Y24312D01*
X190984Y24390D01*
X190926Y24470D01*
X190870Y24553D01*
X190818Y24637D01*
X190768Y24724D01*
X190723Y24812D01*
X190680Y24902D01*
X190641Y24994D01*
X190606Y25087D01*
X190574Y25181D01*
X190546Y25276D01*
X190521Y25372D01*
X190500Y25470D01*
X190483Y25568D01*
X190470Y25666D01*
X190461Y25765D01*
X190455Y25865D01*
X190453Y25964D01*
X190453Y32456D01*
X190455Y32555D01*
X190461Y32655D01*
X190470Y32754D01*
X190483Y32852D01*
X190500Y32950D01*
X190521Y33048D01*
X190546Y33144D01*
X190574Y33239D01*
X190606Y33333D01*
X190641Y33426D01*
X190680Y33518D01*
X190723Y33608D01*
X190768Y33696D01*
X190818Y33783D01*
X190870Y33867D01*
X190926Y33950D01*
X190984Y34030D01*
X191046Y34108D01*
X191111Y34183D01*
X191179Y34256D01*
X191249Y34326D01*
X191322Y34394D01*
X191397Y34459D01*
X191475Y34521D01*
X191555Y34579D01*
X191638Y34635D01*
X191722Y34687D01*
X191809Y34737D01*
X191897Y34782D01*
X191987Y34825D01*
X192079Y34864D01*
X192171Y34899D01*
X192266Y34931D01*
X192361Y34959D01*
X192457Y34984D01*
X192555Y35005D01*
X192653Y35022D01*
X192751Y35035D01*
X192850Y35044D01*
X192950Y35050D01*
X193049Y35052D01*
X195646Y35052D01*
X203581Y35052D02*
X203688Y35050D01*
X203794Y35044D01*
X203900Y35034D01*
X204006Y35021D01*
X204112Y35003D01*
X204216Y34982D01*
X204320Y34957D01*
X204423Y34928D01*
X204524Y34896D01*
X204624Y34859D01*
X204723Y34819D01*
X204821Y34776D01*
X204917Y34729D01*
X205011Y34678D01*
X205103Y34624D01*
X205193Y34567D01*
X205281Y34507D01*
X205366Y34443D01*
X205449Y34376D01*
X205530Y34306D01*
X205608Y34234D01*
X205684Y34158D01*
X205756Y34080D01*
X205826Y33999D01*
X205893Y33916D01*
X205957Y33831D01*
X206017Y33743D01*
X206074Y33653D01*
X206128Y33561D01*
X206179Y33467D01*
X206226Y33371D01*
X206269Y33273D01*
X206309Y33174D01*
X206346Y33074D01*
X206378Y32973D01*
X206407Y32870D01*
X206432Y32766D01*
X206453Y32662D01*
X206471Y32556D01*
X206484Y32450D01*
X206494Y32344D01*
X206500Y32238D01*
X206502Y32131D01*
X203581Y35052D02*
X203460Y35050D01*
X203339Y35044D01*
X203219Y35034D01*
X203098Y35021D01*
X202979Y35003D01*
X202859Y34982D01*
X202741Y34957D01*
X202624Y34928D01*
X202507Y34895D01*
X202392Y34859D01*
X202278Y34818D01*
X202165Y34775D01*
X202053Y34727D01*
X201944Y34676D01*
X201836Y34621D01*
X201729Y34563D01*
X201625Y34502D01*
X201523Y34437D01*
X201423Y34369D01*
X201325Y34298D01*
X201229Y34224D01*
X201136Y34147D01*
X201046Y34066D01*
X200958Y33983D01*
X200873Y33897D01*
X200790Y33808D01*
X200711Y33717D01*
X200634Y33623D01*
X200561Y33527D01*
X200491Y33429D01*
X200424Y33328D01*
X200360Y33225D01*
X200300Y33120D01*
X200243Y33013D01*
X200189Y32905D01*
X200139Y32795D01*
X200093Y32683D01*
X200050Y32570D01*
X200011Y32455D01*
X205529Y29859D02*
X205608Y29936D01*
X205684Y30017D01*
X205757Y30100D01*
X205827Y30185D01*
X205894Y30273D01*
X205958Y30363D01*
X206018Y30455D01*
X206075Y30550D01*
X206129Y30646D01*
X206180Y30744D01*
X206227Y30844D01*
X206271Y30946D01*
X206311Y31049D01*
X206347Y31153D01*
X206379Y31259D01*
X206408Y31365D01*
X206433Y31473D01*
X206455Y31581D01*
X206472Y31691D01*
X206486Y31800D01*
X206495Y31910D01*
X206501Y32021D01*
X206503Y32131D01*
X205528Y29859D02*
X200011Y23368D01*
X206502Y23368D01*
X335289Y123698D02*
X337886Y123698D01*
X335289Y123698D02*
X335190Y123700D01*
X335090Y123706D01*
X334991Y123715D01*
X334893Y123728D01*
X334795Y123745D01*
X334697Y123766D01*
X334601Y123791D01*
X334506Y123819D01*
X334412Y123851D01*
X334319Y123886D01*
X334227Y123925D01*
X334137Y123968D01*
X334049Y124013D01*
X333962Y124063D01*
X333878Y124115D01*
X333795Y124171D01*
X333715Y124229D01*
X333637Y124291D01*
X333562Y124356D01*
X333489Y124424D01*
X333419Y124494D01*
X333351Y124567D01*
X333286Y124642D01*
X333224Y124720D01*
X333166Y124800D01*
X333110Y124883D01*
X333058Y124967D01*
X333008Y125054D01*
X332963Y125142D01*
X332920Y125232D01*
X332881Y125324D01*
X332846Y125417D01*
X332814Y125511D01*
X332786Y125606D01*
X332761Y125702D01*
X332740Y125800D01*
X332723Y125898D01*
X332710Y125996D01*
X332701Y126095D01*
X332695Y126195D01*
X332693Y126294D01*
X332693Y132786D01*
X332695Y132885D01*
X332701Y132985D01*
X332710Y133084D01*
X332723Y133182D01*
X332740Y133280D01*
X332761Y133378D01*
X332786Y133474D01*
X332814Y133569D01*
X332846Y133663D01*
X332881Y133756D01*
X332920Y133848D01*
X332963Y133938D01*
X333008Y134026D01*
X333058Y134113D01*
X333110Y134197D01*
X333166Y134280D01*
X333224Y134360D01*
X333286Y134438D01*
X333351Y134513D01*
X333419Y134586D01*
X333489Y134656D01*
X333562Y134724D01*
X333637Y134789D01*
X333715Y134851D01*
X333795Y134909D01*
X333878Y134965D01*
X333962Y135017D01*
X334049Y135067D01*
X334137Y135112D01*
X334227Y135155D01*
X334319Y135194D01*
X334411Y135229D01*
X334506Y135261D01*
X334601Y135289D01*
X334697Y135314D01*
X334795Y135335D01*
X334893Y135352D01*
X334991Y135365D01*
X335090Y135374D01*
X335190Y135380D01*
X335289Y135382D01*
X337886Y135382D01*
X342251Y123698D02*
X345496Y123698D01*
X345609Y123700D01*
X345722Y123706D01*
X345835Y123716D01*
X345948Y123730D01*
X346060Y123747D01*
X346171Y123769D01*
X346281Y123794D01*
X346391Y123824D01*
X346499Y123857D01*
X346606Y123894D01*
X346712Y123934D01*
X346816Y123979D01*
X346919Y124027D01*
X347020Y124078D01*
X347119Y124133D01*
X347216Y124191D01*
X347311Y124253D01*
X347404Y124318D01*
X347494Y124386D01*
X347582Y124457D01*
X347668Y124532D01*
X347751Y124609D01*
X347831Y124689D01*
X347908Y124772D01*
X347983Y124858D01*
X348054Y124946D01*
X348122Y125036D01*
X348187Y125129D01*
X348249Y125224D01*
X348307Y125321D01*
X348362Y125420D01*
X348413Y125521D01*
X348461Y125624D01*
X348506Y125728D01*
X348546Y125834D01*
X348583Y125941D01*
X348616Y126049D01*
X348646Y126159D01*
X348671Y126269D01*
X348693Y126380D01*
X348710Y126492D01*
X348724Y126605D01*
X348734Y126718D01*
X348740Y126831D01*
X348742Y126944D01*
X348740Y127057D01*
X348734Y127170D01*
X348724Y127283D01*
X348710Y127396D01*
X348693Y127508D01*
X348671Y127619D01*
X348646Y127729D01*
X348616Y127839D01*
X348583Y127947D01*
X348546Y128054D01*
X348506Y128160D01*
X348461Y128264D01*
X348413Y128367D01*
X348362Y128468D01*
X348307Y128567D01*
X348249Y128664D01*
X348187Y128759D01*
X348122Y128852D01*
X348054Y128942D01*
X347983Y129030D01*
X347908Y129116D01*
X347831Y129199D01*
X347751Y129279D01*
X347668Y129356D01*
X347582Y129431D01*
X347494Y129502D01*
X347404Y129570D01*
X347311Y129635D01*
X347216Y129697D01*
X347119Y129755D01*
X347020Y129810D01*
X346919Y129861D01*
X346816Y129909D01*
X346712Y129954D01*
X346606Y129994D01*
X346499Y130031D01*
X346391Y130064D01*
X346281Y130094D01*
X346171Y130119D01*
X346060Y130141D01*
X345948Y130158D01*
X345835Y130172D01*
X345722Y130182D01*
X345609Y130188D01*
X345496Y130190D01*
X346146Y135382D02*
X342251Y135382D01*
X346146Y135382D02*
X346247Y135380D01*
X346347Y135374D01*
X346447Y135364D01*
X346547Y135351D01*
X346646Y135333D01*
X346745Y135312D01*
X346842Y135287D01*
X346939Y135258D01*
X347034Y135225D01*
X347128Y135189D01*
X347220Y135149D01*
X347311Y135106D01*
X347400Y135059D01*
X347487Y135009D01*
X347573Y134955D01*
X347656Y134898D01*
X347736Y134838D01*
X347815Y134775D01*
X347891Y134708D01*
X347964Y134639D01*
X348034Y134567D01*
X348102Y134493D01*
X348167Y134416D01*
X348228Y134336D01*
X348287Y134254D01*
X348342Y134170D01*
X348394Y134084D01*
X348443Y133996D01*
X348488Y133906D01*
X348530Y133814D01*
X348568Y133721D01*
X348602Y133626D01*
X348633Y133531D01*
X348660Y133434D01*
X348683Y133336D01*
X348703Y133237D01*
X348718Y133137D01*
X348730Y133037D01*
X348738Y132937D01*
X348742Y132836D01*
X348742Y132736D01*
X348738Y132635D01*
X348730Y132535D01*
X348718Y132435D01*
X348703Y132335D01*
X348683Y132236D01*
X348660Y132138D01*
X348633Y132041D01*
X348602Y131946D01*
X348568Y131851D01*
X348530Y131758D01*
X348488Y131666D01*
X348443Y131576D01*
X348394Y131488D01*
X348342Y131402D01*
X348287Y131318D01*
X348228Y131236D01*
X348167Y131156D01*
X348102Y131079D01*
X348034Y131005D01*
X347964Y130933D01*
X347891Y130864D01*
X347815Y130797D01*
X347736Y130734D01*
X347656Y130674D01*
X347573Y130617D01*
X347487Y130563D01*
X347400Y130513D01*
X347311Y130466D01*
X347220Y130423D01*
X347128Y130383D01*
X347034Y130347D01*
X346939Y130314D01*
X346842Y130285D01*
X346745Y130260D01*
X346646Y130239D01*
X346547Y130221D01*
X346447Y130208D01*
X346347Y130198D01*
X346247Y130192D01*
X346146Y130190D01*
X346146Y130189D02*
X343549Y130189D01*
X352552Y109286D02*
X352552Y106689D01*
X352550Y106590D01*
X352544Y106490D01*
X352535Y106391D01*
X352522Y106293D01*
X352505Y106195D01*
X352484Y106097D01*
X352459Y106001D01*
X352431Y105906D01*
X352399Y105812D01*
X352364Y105719D01*
X352325Y105627D01*
X352282Y105537D01*
X352237Y105449D01*
X352187Y105362D01*
X352135Y105278D01*
X352079Y105195D01*
X352021Y105115D01*
X351959Y105037D01*
X351894Y104962D01*
X351826Y104889D01*
X351756Y104819D01*
X351683Y104751D01*
X351608Y104686D01*
X351530Y104624D01*
X351450Y104566D01*
X351367Y104510D01*
X351283Y104458D01*
X351196Y104408D01*
X351108Y104363D01*
X351018Y104320D01*
X350926Y104281D01*
X350833Y104246D01*
X350739Y104214D01*
X350644Y104186D01*
X350548Y104161D01*
X350450Y104140D01*
X350352Y104123D01*
X350254Y104110D01*
X350155Y104101D01*
X350055Y104095D01*
X349956Y104093D01*
X343464Y104093D01*
X343464Y104092D02*
X343365Y104094D01*
X343265Y104100D01*
X343166Y104109D01*
X343068Y104122D01*
X342970Y104140D01*
X342872Y104160D01*
X342776Y104185D01*
X342680Y104213D01*
X342586Y104245D01*
X342493Y104280D01*
X342402Y104319D01*
X342312Y104362D01*
X342223Y104407D01*
X342137Y104457D01*
X342052Y104509D01*
X341970Y104565D01*
X341890Y104624D01*
X341812Y104685D01*
X341736Y104750D01*
X341663Y104818D01*
X341593Y104888D01*
X341525Y104961D01*
X341460Y105037D01*
X341399Y105115D01*
X341340Y105195D01*
X341284Y105277D01*
X341232Y105362D01*
X341183Y105448D01*
X341137Y105537D01*
X341094Y105627D01*
X341055Y105718D01*
X341020Y105811D01*
X340988Y105905D01*
X340960Y106001D01*
X340935Y106097D01*
X340915Y106195D01*
X340897Y106293D01*
X340884Y106391D01*
X340875Y106490D01*
X340869Y106589D01*
X340867Y106689D01*
X340868Y106689D02*
X340868Y109286D01*
X340868Y116247D02*
X349956Y113651D01*
X349956Y120142D01*
X347359Y118195D02*
X352552Y118195D01*
X333502Y109286D02*
X333502Y106689D01*
X333500Y106590D01*
X333494Y106490D01*
X333485Y106391D01*
X333472Y106293D01*
X333455Y106195D01*
X333434Y106097D01*
X333409Y106001D01*
X333381Y105906D01*
X333349Y105812D01*
X333314Y105719D01*
X333275Y105627D01*
X333232Y105537D01*
X333187Y105449D01*
X333137Y105362D01*
X333085Y105278D01*
X333029Y105195D01*
X332971Y105115D01*
X332909Y105037D01*
X332844Y104962D01*
X332776Y104889D01*
X332706Y104819D01*
X332633Y104751D01*
X332558Y104686D01*
X332480Y104624D01*
X332400Y104566D01*
X332317Y104510D01*
X332233Y104458D01*
X332146Y104408D01*
X332058Y104363D01*
X331968Y104320D01*
X331876Y104281D01*
X331783Y104246D01*
X331689Y104214D01*
X331594Y104186D01*
X331498Y104161D01*
X331400Y104140D01*
X331302Y104123D01*
X331204Y104110D01*
X331105Y104101D01*
X331005Y104095D01*
X330906Y104093D01*
X324414Y104093D01*
X324414Y104092D02*
X324315Y104094D01*
X324215Y104100D01*
X324116Y104109D01*
X324018Y104122D01*
X323920Y104140D01*
X323822Y104160D01*
X323726Y104185D01*
X323630Y104213D01*
X323536Y104245D01*
X323443Y104280D01*
X323352Y104319D01*
X323262Y104362D01*
X323173Y104407D01*
X323087Y104457D01*
X323002Y104509D01*
X322920Y104565D01*
X322840Y104624D01*
X322762Y104685D01*
X322686Y104750D01*
X322613Y104818D01*
X322543Y104888D01*
X322475Y104961D01*
X322410Y105037D01*
X322349Y105115D01*
X322290Y105195D01*
X322234Y105277D01*
X322182Y105362D01*
X322133Y105448D01*
X322087Y105537D01*
X322044Y105627D01*
X322005Y105718D01*
X321970Y105811D01*
X321938Y105905D01*
X321910Y106001D01*
X321885Y106097D01*
X321865Y106195D01*
X321847Y106293D01*
X321834Y106391D01*
X321825Y106490D01*
X321819Y106589D01*
X321817Y106689D01*
X321818Y106689D02*
X321818Y109286D01*
X333502Y113651D02*
X333502Y117546D01*
X333500Y117645D01*
X333494Y117745D01*
X333485Y117844D01*
X333472Y117942D01*
X333455Y118040D01*
X333434Y118138D01*
X333409Y118234D01*
X333381Y118329D01*
X333349Y118423D01*
X333314Y118516D01*
X333275Y118608D01*
X333232Y118698D01*
X333187Y118786D01*
X333137Y118873D01*
X333085Y118957D01*
X333029Y119040D01*
X332971Y119120D01*
X332909Y119198D01*
X332844Y119273D01*
X332776Y119346D01*
X332706Y119416D01*
X332633Y119484D01*
X332558Y119549D01*
X332480Y119611D01*
X332400Y119669D01*
X332317Y119725D01*
X332233Y119777D01*
X332146Y119827D01*
X332058Y119872D01*
X331968Y119915D01*
X331876Y119954D01*
X331783Y119989D01*
X331689Y120021D01*
X331594Y120049D01*
X331498Y120074D01*
X331400Y120095D01*
X331302Y120112D01*
X331204Y120125D01*
X331105Y120134D01*
X331005Y120140D01*
X330906Y120142D01*
X329607Y120142D01*
X329508Y120140D01*
X329408Y120134D01*
X329309Y120125D01*
X329211Y120112D01*
X329113Y120095D01*
X329015Y120074D01*
X328919Y120049D01*
X328824Y120021D01*
X328730Y119989D01*
X328637Y119954D01*
X328545Y119915D01*
X328455Y119872D01*
X328367Y119827D01*
X328280Y119777D01*
X328196Y119725D01*
X328113Y119669D01*
X328033Y119611D01*
X327955Y119549D01*
X327880Y119484D01*
X327807Y119416D01*
X327737Y119346D01*
X327669Y119273D01*
X327604Y119198D01*
X327542Y119120D01*
X327484Y119040D01*
X327428Y118957D01*
X327376Y118873D01*
X327326Y118786D01*
X327281Y118698D01*
X327238Y118608D01*
X327199Y118516D01*
X327164Y118423D01*
X327132Y118329D01*
X327104Y118234D01*
X327079Y118138D01*
X327058Y118040D01*
X327041Y117942D01*
X327028Y117844D01*
X327019Y117745D01*
X327013Y117645D01*
X327011Y117546D01*
X327011Y113651D01*
X321818Y113651D01*
X321818Y120142D01*
D11*
X344170Y50800D02*
X344170Y43180D01*
X349250Y46990D01*
X344170Y50800D01*
D10*
X340868Y53848D02*
X340868Y65532D01*
X344114Y65532D01*
X344227Y65530D01*
X344340Y65524D01*
X344453Y65514D01*
X344566Y65500D01*
X344678Y65483D01*
X344789Y65461D01*
X344899Y65436D01*
X345009Y65406D01*
X345117Y65373D01*
X345224Y65336D01*
X345330Y65296D01*
X345434Y65251D01*
X345537Y65203D01*
X345638Y65152D01*
X345737Y65097D01*
X345834Y65039D01*
X345929Y64977D01*
X346022Y64912D01*
X346112Y64844D01*
X346200Y64773D01*
X346286Y64698D01*
X346369Y64621D01*
X346449Y64541D01*
X346526Y64458D01*
X346601Y64372D01*
X346672Y64284D01*
X346740Y64194D01*
X346805Y64101D01*
X346867Y64006D01*
X346925Y63909D01*
X346980Y63810D01*
X347031Y63709D01*
X347079Y63606D01*
X347124Y63502D01*
X347164Y63396D01*
X347201Y63289D01*
X347234Y63181D01*
X347264Y63071D01*
X347289Y62961D01*
X347311Y62850D01*
X347328Y62738D01*
X347342Y62625D01*
X347352Y62512D01*
X347358Y62399D01*
X347360Y62286D01*
X347359Y62286D02*
X347359Y57094D01*
X347360Y57094D02*
X347358Y56981D01*
X347352Y56868D01*
X347342Y56755D01*
X347328Y56642D01*
X347311Y56530D01*
X347289Y56419D01*
X347264Y56309D01*
X347234Y56199D01*
X347201Y56091D01*
X347164Y55984D01*
X347124Y55878D01*
X347079Y55774D01*
X347031Y55671D01*
X346980Y55570D01*
X346925Y55471D01*
X346867Y55374D01*
X346805Y55279D01*
X346740Y55186D01*
X346672Y55096D01*
X346601Y55008D01*
X346526Y54922D01*
X346449Y54839D01*
X346369Y54759D01*
X346286Y54682D01*
X346200Y54607D01*
X346112Y54536D01*
X346022Y54468D01*
X345929Y54403D01*
X345834Y54341D01*
X345737Y54283D01*
X345638Y54228D01*
X345537Y54177D01*
X345434Y54129D01*
X345330Y54084D01*
X345224Y54044D01*
X345117Y54007D01*
X345009Y53974D01*
X344899Y53944D01*
X344789Y53919D01*
X344678Y53897D01*
X344566Y53880D01*
X344453Y53866D01*
X344340Y53856D01*
X344227Y53850D01*
X344114Y53848D01*
X340868Y53848D01*
X352679Y62936D02*
X355925Y65532D01*
X355925Y53848D01*
X359170Y53848D02*
X352679Y53848D01*
X172212Y106105D02*
X160528Y106105D01*
X160528Y109350D01*
X160530Y109463D01*
X160536Y109576D01*
X160546Y109689D01*
X160560Y109802D01*
X160577Y109914D01*
X160599Y110025D01*
X160624Y110135D01*
X160654Y110245D01*
X160687Y110353D01*
X160724Y110460D01*
X160764Y110566D01*
X160809Y110670D01*
X160857Y110773D01*
X160908Y110874D01*
X160963Y110973D01*
X161021Y111070D01*
X161083Y111165D01*
X161148Y111258D01*
X161216Y111348D01*
X161287Y111436D01*
X161362Y111522D01*
X161439Y111605D01*
X161519Y111685D01*
X161602Y111762D01*
X161688Y111837D01*
X161776Y111908D01*
X161866Y111976D01*
X161959Y112041D01*
X162054Y112103D01*
X162151Y112161D01*
X162250Y112216D01*
X162351Y112267D01*
X162454Y112315D01*
X162558Y112360D01*
X162664Y112400D01*
X162771Y112437D01*
X162879Y112470D01*
X162989Y112500D01*
X163099Y112525D01*
X163210Y112547D01*
X163322Y112564D01*
X163435Y112578D01*
X163548Y112588D01*
X163661Y112594D01*
X163774Y112596D01*
X163887Y112594D01*
X164000Y112588D01*
X164113Y112578D01*
X164226Y112564D01*
X164338Y112547D01*
X164449Y112525D01*
X164559Y112500D01*
X164669Y112470D01*
X164777Y112437D01*
X164884Y112400D01*
X164990Y112360D01*
X165094Y112315D01*
X165197Y112267D01*
X165298Y112216D01*
X165397Y112161D01*
X165494Y112103D01*
X165589Y112041D01*
X165682Y111976D01*
X165772Y111908D01*
X165860Y111837D01*
X165946Y111762D01*
X166029Y111685D01*
X166109Y111605D01*
X166186Y111522D01*
X166261Y111436D01*
X166332Y111348D01*
X166400Y111258D01*
X166465Y111165D01*
X166527Y111070D01*
X166585Y110973D01*
X166640Y110874D01*
X166691Y110773D01*
X166739Y110670D01*
X166784Y110566D01*
X166824Y110460D01*
X166861Y110353D01*
X166894Y110245D01*
X166924Y110135D01*
X166949Y110025D01*
X166971Y109914D01*
X166988Y109802D01*
X167002Y109689D01*
X167012Y109576D01*
X167018Y109463D01*
X167020Y109350D01*
X167019Y109350D02*
X167019Y106105D01*
X167019Y109999D02*
X172212Y112596D01*
X163124Y117461D02*
X160528Y120706D01*
X172212Y120706D01*
X172212Y117461D02*
X172212Y123952D01*
X314385Y52832D02*
X314385Y41148D01*
X314385Y52832D02*
X317630Y52832D01*
X317743Y52830D01*
X317856Y52824D01*
X317969Y52814D01*
X318082Y52800D01*
X318194Y52783D01*
X318305Y52761D01*
X318415Y52736D01*
X318525Y52706D01*
X318633Y52673D01*
X318740Y52636D01*
X318846Y52596D01*
X318950Y52551D01*
X319053Y52503D01*
X319154Y52452D01*
X319253Y52397D01*
X319350Y52339D01*
X319445Y52277D01*
X319538Y52212D01*
X319628Y52144D01*
X319716Y52073D01*
X319802Y51998D01*
X319885Y51921D01*
X319965Y51841D01*
X320042Y51758D01*
X320117Y51672D01*
X320188Y51584D01*
X320256Y51494D01*
X320321Y51401D01*
X320383Y51306D01*
X320441Y51209D01*
X320496Y51110D01*
X320547Y51009D01*
X320595Y50906D01*
X320640Y50802D01*
X320680Y50696D01*
X320717Y50589D01*
X320750Y50481D01*
X320780Y50371D01*
X320805Y50261D01*
X320827Y50150D01*
X320844Y50038D01*
X320858Y49925D01*
X320868Y49812D01*
X320874Y49699D01*
X320876Y49586D01*
X320874Y49473D01*
X320868Y49360D01*
X320858Y49247D01*
X320844Y49134D01*
X320827Y49022D01*
X320805Y48911D01*
X320780Y48801D01*
X320750Y48691D01*
X320717Y48583D01*
X320680Y48476D01*
X320640Y48370D01*
X320595Y48266D01*
X320547Y48163D01*
X320496Y48062D01*
X320441Y47963D01*
X320383Y47866D01*
X320321Y47771D01*
X320256Y47678D01*
X320188Y47588D01*
X320117Y47500D01*
X320042Y47414D01*
X319965Y47331D01*
X319885Y47251D01*
X319802Y47174D01*
X319716Y47099D01*
X319628Y47028D01*
X319538Y46960D01*
X319445Y46895D01*
X319350Y46833D01*
X319253Y46775D01*
X319154Y46720D01*
X319053Y46669D01*
X318950Y46621D01*
X318846Y46576D01*
X318740Y46536D01*
X318633Y46499D01*
X318525Y46466D01*
X318415Y46436D01*
X318305Y46411D01*
X318194Y46389D01*
X318082Y46372D01*
X317969Y46358D01*
X317856Y46348D01*
X317743Y46342D01*
X317630Y46340D01*
X317630Y46341D02*
X314385Y46341D01*
X318279Y46341D02*
X320876Y41148D01*
X332232Y49911D02*
X332230Y50018D01*
X332224Y50124D01*
X332214Y50230D01*
X332201Y50336D01*
X332183Y50442D01*
X332162Y50546D01*
X332137Y50650D01*
X332108Y50753D01*
X332076Y50854D01*
X332039Y50954D01*
X331999Y51053D01*
X331956Y51151D01*
X331909Y51247D01*
X331858Y51341D01*
X331804Y51433D01*
X331747Y51523D01*
X331687Y51611D01*
X331623Y51696D01*
X331556Y51779D01*
X331486Y51860D01*
X331414Y51938D01*
X331338Y52014D01*
X331260Y52086D01*
X331179Y52156D01*
X331096Y52223D01*
X331011Y52287D01*
X330923Y52347D01*
X330833Y52404D01*
X330741Y52458D01*
X330647Y52509D01*
X330551Y52556D01*
X330453Y52599D01*
X330354Y52639D01*
X330254Y52676D01*
X330153Y52708D01*
X330050Y52737D01*
X329946Y52762D01*
X329842Y52783D01*
X329736Y52801D01*
X329630Y52814D01*
X329524Y52824D01*
X329418Y52830D01*
X329311Y52832D01*
X329190Y52830D01*
X329069Y52824D01*
X328949Y52814D01*
X328828Y52801D01*
X328709Y52783D01*
X328589Y52762D01*
X328471Y52737D01*
X328354Y52708D01*
X328237Y52675D01*
X328122Y52639D01*
X328008Y52598D01*
X327895Y52555D01*
X327783Y52507D01*
X327674Y52456D01*
X327566Y52401D01*
X327459Y52343D01*
X327355Y52282D01*
X327253Y52217D01*
X327153Y52149D01*
X327055Y52078D01*
X326959Y52004D01*
X326866Y51927D01*
X326776Y51846D01*
X326688Y51763D01*
X326603Y51677D01*
X326520Y51588D01*
X326441Y51497D01*
X326364Y51403D01*
X326291Y51307D01*
X326221Y51209D01*
X326154Y51108D01*
X326090Y51005D01*
X326030Y50900D01*
X325973Y50793D01*
X325919Y50685D01*
X325869Y50575D01*
X325823Y50463D01*
X325780Y50350D01*
X325741Y50235D01*
X331259Y47639D02*
X331338Y47716D01*
X331414Y47797D01*
X331487Y47880D01*
X331557Y47965D01*
X331624Y48053D01*
X331688Y48143D01*
X331748Y48235D01*
X331805Y48330D01*
X331859Y48426D01*
X331910Y48524D01*
X331957Y48624D01*
X332001Y48726D01*
X332041Y48829D01*
X332077Y48933D01*
X332109Y49039D01*
X332138Y49145D01*
X332163Y49253D01*
X332185Y49361D01*
X332202Y49471D01*
X332216Y49580D01*
X332225Y49690D01*
X332231Y49801D01*
X332233Y49911D01*
X331258Y47639D02*
X325741Y41148D01*
X332232Y41148D01*
D12*
X202551Y126236D03*
D13*
X209707Y125961D02*
X209707Y123736D01*
X209707Y125961D02*
X211932Y125961D01*
X280707Y125961D02*
X280707Y123736D01*
X280707Y125961D02*
X278482Y125961D01*
X280707Y57186D02*
X280707Y54961D01*
X278482Y54961D01*
X209707Y54961D02*
X209707Y57186D01*
X209707Y54961D02*
X211932Y54961D01*
D10*
X283021Y122832D02*
X291459Y122832D01*
X291572Y122834D01*
X291685Y122840D01*
X291798Y122850D01*
X291911Y122864D01*
X292023Y122881D01*
X292134Y122903D01*
X292244Y122928D01*
X292354Y122958D01*
X292462Y122991D01*
X292569Y123028D01*
X292675Y123068D01*
X292779Y123113D01*
X292882Y123161D01*
X292983Y123212D01*
X293082Y123267D01*
X293179Y123325D01*
X293274Y123387D01*
X293367Y123452D01*
X293457Y123520D01*
X293545Y123591D01*
X293631Y123666D01*
X293714Y123743D01*
X293794Y123823D01*
X293871Y123906D01*
X293946Y123992D01*
X294017Y124080D01*
X294085Y124170D01*
X294150Y124263D01*
X294212Y124358D01*
X294270Y124455D01*
X294325Y124554D01*
X294376Y124655D01*
X294424Y124758D01*
X294469Y124862D01*
X294509Y124968D01*
X294546Y125075D01*
X294579Y125183D01*
X294609Y125293D01*
X294634Y125403D01*
X294656Y125514D01*
X294673Y125626D01*
X294687Y125739D01*
X294697Y125852D01*
X294703Y125965D01*
X294705Y126078D01*
X294703Y126191D01*
X294697Y126304D01*
X294687Y126417D01*
X294673Y126530D01*
X294656Y126642D01*
X294634Y126753D01*
X294609Y126863D01*
X294579Y126973D01*
X294546Y127081D01*
X294509Y127188D01*
X294469Y127294D01*
X294424Y127398D01*
X294376Y127501D01*
X294325Y127602D01*
X294270Y127701D01*
X294212Y127798D01*
X294150Y127893D01*
X294085Y127986D01*
X294017Y128076D01*
X293946Y128164D01*
X293871Y128250D01*
X293794Y128333D01*
X293714Y128413D01*
X293631Y128490D01*
X293545Y128565D01*
X293457Y128636D01*
X293367Y128704D01*
X293274Y128769D01*
X293179Y128831D01*
X293082Y128889D01*
X292983Y128944D01*
X292882Y128995D01*
X292779Y129043D01*
X292675Y129088D01*
X292569Y129128D01*
X292462Y129165D01*
X292354Y129198D01*
X292244Y129228D01*
X292134Y129253D01*
X292023Y129275D01*
X291911Y129292D01*
X291798Y129306D01*
X291685Y129316D01*
X291572Y129322D01*
X291459Y129324D01*
X291459Y129323D02*
X283021Y129323D01*
X285617Y134643D02*
X283021Y137888D01*
X294705Y137888D01*
X294705Y134643D02*
X294705Y141134D01*
D12*
X142271Y49170D03*
D13*
X146711Y58019D02*
X146711Y58821D01*
X186029Y58821D02*
X186029Y58019D01*
X169271Y74579D02*
X163469Y74579D01*
X163469Y42261D02*
X169271Y42261D01*
D10*
X187549Y37705D02*
X193066Y41600D01*
X187549Y45494D01*
X193066Y41600D02*
X199233Y41600D01*
X190145Y49784D02*
X187549Y53030D01*
X199233Y53030D01*
X199233Y56275D02*
X199233Y49784D01*
D13*
X298141Y66550D02*
X298141Y98550D01*
X298141Y66550D02*
X316539Y66550D01*
X316539Y98550D01*
X298141Y98550D01*
X298141Y72900D02*
X316539Y72900D01*
D10*
X305778Y105609D02*
X303182Y105609D01*
X303083Y105611D01*
X302983Y105617D01*
X302884Y105626D01*
X302786Y105639D01*
X302688Y105656D01*
X302590Y105677D01*
X302494Y105702D01*
X302399Y105730D01*
X302305Y105762D01*
X302212Y105797D01*
X302120Y105836D01*
X302030Y105879D01*
X301942Y105924D01*
X301855Y105974D01*
X301771Y106026D01*
X301688Y106082D01*
X301608Y106140D01*
X301530Y106202D01*
X301455Y106267D01*
X301382Y106335D01*
X301312Y106405D01*
X301244Y106478D01*
X301179Y106553D01*
X301117Y106631D01*
X301059Y106711D01*
X301003Y106794D01*
X300951Y106878D01*
X300901Y106965D01*
X300856Y107053D01*
X300813Y107143D01*
X300774Y107235D01*
X300739Y107328D01*
X300707Y107422D01*
X300679Y107517D01*
X300654Y107613D01*
X300633Y107711D01*
X300616Y107809D01*
X300603Y107907D01*
X300594Y108006D01*
X300588Y108106D01*
X300586Y108205D01*
X300585Y108205D02*
X300585Y114697D01*
X300586Y114697D02*
X300588Y114796D01*
X300594Y114896D01*
X300603Y114995D01*
X300616Y115093D01*
X300633Y115191D01*
X300654Y115289D01*
X300679Y115385D01*
X300707Y115480D01*
X300739Y115574D01*
X300774Y115667D01*
X300813Y115759D01*
X300856Y115849D01*
X300901Y115937D01*
X300951Y116024D01*
X301003Y116108D01*
X301059Y116191D01*
X301117Y116271D01*
X301179Y116349D01*
X301244Y116424D01*
X301312Y116497D01*
X301382Y116567D01*
X301455Y116635D01*
X301530Y116700D01*
X301608Y116762D01*
X301688Y116820D01*
X301771Y116876D01*
X301855Y116928D01*
X301942Y116978D01*
X302030Y117023D01*
X302120Y117066D01*
X302212Y117105D01*
X302304Y117140D01*
X302399Y117172D01*
X302494Y117200D01*
X302590Y117225D01*
X302688Y117246D01*
X302786Y117263D01*
X302884Y117276D01*
X302983Y117285D01*
X303083Y117291D01*
X303182Y117293D01*
X305778Y117293D01*
X310144Y112100D02*
X314038Y112100D01*
X314137Y112098D01*
X314237Y112092D01*
X314336Y112083D01*
X314434Y112070D01*
X314532Y112053D01*
X314630Y112032D01*
X314726Y112007D01*
X314821Y111979D01*
X314915Y111947D01*
X315008Y111912D01*
X315100Y111873D01*
X315190Y111830D01*
X315278Y111785D01*
X315365Y111735D01*
X315449Y111683D01*
X315532Y111627D01*
X315612Y111569D01*
X315690Y111507D01*
X315765Y111442D01*
X315838Y111374D01*
X315908Y111304D01*
X315976Y111231D01*
X316041Y111156D01*
X316103Y111078D01*
X316161Y110998D01*
X316217Y110915D01*
X316269Y110831D01*
X316319Y110744D01*
X316364Y110656D01*
X316407Y110566D01*
X316446Y110474D01*
X316481Y110381D01*
X316513Y110287D01*
X316541Y110192D01*
X316566Y110096D01*
X316587Y109998D01*
X316604Y109900D01*
X316617Y109802D01*
X316626Y109703D01*
X316632Y109603D01*
X316634Y109504D01*
X316635Y109504D02*
X316635Y108855D01*
X316633Y108742D01*
X316627Y108629D01*
X316617Y108516D01*
X316603Y108403D01*
X316586Y108291D01*
X316564Y108180D01*
X316539Y108070D01*
X316509Y107960D01*
X316476Y107852D01*
X316439Y107745D01*
X316399Y107639D01*
X316354Y107535D01*
X316306Y107432D01*
X316255Y107331D01*
X316200Y107232D01*
X316142Y107135D01*
X316080Y107040D01*
X316015Y106947D01*
X315947Y106857D01*
X315876Y106769D01*
X315801Y106683D01*
X315724Y106600D01*
X315644Y106520D01*
X315561Y106443D01*
X315475Y106368D01*
X315387Y106297D01*
X315297Y106229D01*
X315204Y106164D01*
X315109Y106102D01*
X315012Y106044D01*
X314913Y105989D01*
X314812Y105938D01*
X314709Y105890D01*
X314605Y105845D01*
X314499Y105805D01*
X314392Y105768D01*
X314284Y105735D01*
X314174Y105705D01*
X314064Y105680D01*
X313953Y105658D01*
X313841Y105641D01*
X313728Y105627D01*
X313615Y105617D01*
X313502Y105611D01*
X313389Y105609D01*
X313276Y105611D01*
X313163Y105617D01*
X313050Y105627D01*
X312937Y105641D01*
X312825Y105658D01*
X312714Y105680D01*
X312604Y105705D01*
X312494Y105735D01*
X312386Y105768D01*
X312279Y105805D01*
X312173Y105845D01*
X312069Y105890D01*
X311966Y105938D01*
X311865Y105989D01*
X311766Y106044D01*
X311669Y106102D01*
X311574Y106164D01*
X311481Y106229D01*
X311391Y106297D01*
X311303Y106368D01*
X311217Y106443D01*
X311134Y106520D01*
X311054Y106600D01*
X310977Y106683D01*
X310902Y106769D01*
X310831Y106857D01*
X310763Y106947D01*
X310698Y107040D01*
X310636Y107135D01*
X310578Y107232D01*
X310523Y107331D01*
X310472Y107432D01*
X310424Y107535D01*
X310379Y107639D01*
X310339Y107745D01*
X310302Y107852D01*
X310269Y107960D01*
X310239Y108070D01*
X310214Y108180D01*
X310192Y108291D01*
X310175Y108403D01*
X310161Y108516D01*
X310151Y108629D01*
X310145Y108742D01*
X310143Y108855D01*
X310144Y108855D02*
X310144Y112100D01*
X310143Y112100D02*
X310145Y112243D01*
X310151Y112386D01*
X310161Y112529D01*
X310175Y112671D01*
X310192Y112813D01*
X310214Y112955D01*
X310239Y113096D01*
X310269Y113236D01*
X310302Y113375D01*
X310339Y113513D01*
X310380Y113650D01*
X310424Y113786D01*
X310473Y113921D01*
X310525Y114054D01*
X310580Y114186D01*
X310640Y114316D01*
X310703Y114445D01*
X310769Y114572D01*
X310839Y114696D01*
X310912Y114819D01*
X310989Y114940D01*
X311069Y115059D01*
X311152Y115175D01*
X311238Y115290D01*
X311327Y115401D01*
X311420Y115511D01*
X311515Y115617D01*
X311614Y115721D01*
X311715Y115822D01*
X311819Y115921D01*
X311925Y116016D01*
X312035Y116109D01*
X312146Y116198D01*
X312261Y116284D01*
X312377Y116367D01*
X312496Y116447D01*
X312617Y116524D01*
X312739Y116597D01*
X312864Y116667D01*
X312991Y116733D01*
X313120Y116796D01*
X313250Y116856D01*
X313382Y116911D01*
X313515Y116963D01*
X313650Y117012D01*
X313786Y117056D01*
X313923Y117097D01*
X314061Y117134D01*
X314200Y117167D01*
X314340Y117197D01*
X314481Y117222D01*
X314623Y117244D01*
X314765Y117261D01*
X314907Y117275D01*
X315050Y117285D01*
X315193Y117291D01*
X315336Y117293D01*
D11*
X363220Y12700D02*
X210820Y12700D01*
X210820Y38100D01*
X363220Y38100D01*
X363220Y12700D01*
D14*
X115570Y111506D02*
X80010Y111506D01*
X115570Y111506D02*
X115570Y45974D01*
X80010Y45974D01*
X80010Y111506D01*
D10*
X59422Y111252D02*
X59422Y102814D01*
X59421Y102814D02*
X59423Y102701D01*
X59429Y102588D01*
X59439Y102475D01*
X59453Y102362D01*
X59470Y102250D01*
X59492Y102139D01*
X59517Y102029D01*
X59547Y101919D01*
X59580Y101811D01*
X59617Y101704D01*
X59657Y101598D01*
X59702Y101494D01*
X59750Y101391D01*
X59801Y101290D01*
X59856Y101191D01*
X59914Y101094D01*
X59976Y100999D01*
X60041Y100906D01*
X60109Y100816D01*
X60180Y100728D01*
X60255Y100642D01*
X60332Y100559D01*
X60412Y100479D01*
X60495Y100402D01*
X60581Y100327D01*
X60669Y100256D01*
X60759Y100188D01*
X60852Y100123D01*
X60947Y100061D01*
X61044Y100003D01*
X61143Y99948D01*
X61244Y99897D01*
X61347Y99849D01*
X61451Y99804D01*
X61557Y99764D01*
X61664Y99727D01*
X61772Y99694D01*
X61882Y99664D01*
X61992Y99639D01*
X62103Y99617D01*
X62215Y99600D01*
X62328Y99586D01*
X62441Y99576D01*
X62554Y99570D01*
X62667Y99568D01*
X62780Y99570D01*
X62893Y99576D01*
X63006Y99586D01*
X63119Y99600D01*
X63231Y99617D01*
X63342Y99639D01*
X63452Y99664D01*
X63562Y99694D01*
X63670Y99727D01*
X63777Y99764D01*
X63883Y99804D01*
X63987Y99849D01*
X64090Y99897D01*
X64191Y99948D01*
X64290Y100003D01*
X64387Y100061D01*
X64482Y100123D01*
X64575Y100188D01*
X64665Y100256D01*
X64753Y100327D01*
X64839Y100402D01*
X64922Y100479D01*
X65002Y100559D01*
X65079Y100642D01*
X65154Y100728D01*
X65225Y100816D01*
X65293Y100906D01*
X65358Y100999D01*
X65420Y101094D01*
X65478Y101191D01*
X65533Y101290D01*
X65584Y101391D01*
X65632Y101494D01*
X65677Y101598D01*
X65717Y101704D01*
X65754Y101811D01*
X65787Y101919D01*
X65817Y102029D01*
X65842Y102139D01*
X65864Y102250D01*
X65881Y102362D01*
X65895Y102475D01*
X65905Y102588D01*
X65911Y102701D01*
X65913Y102814D01*
X65913Y111252D01*
X74803Y111252D02*
X74910Y111250D01*
X75016Y111244D01*
X75122Y111234D01*
X75228Y111221D01*
X75334Y111203D01*
X75438Y111182D01*
X75542Y111157D01*
X75645Y111128D01*
X75746Y111096D01*
X75846Y111059D01*
X75945Y111019D01*
X76043Y110976D01*
X76139Y110929D01*
X76233Y110878D01*
X76325Y110824D01*
X76415Y110767D01*
X76503Y110707D01*
X76588Y110643D01*
X76671Y110576D01*
X76752Y110506D01*
X76830Y110434D01*
X76906Y110358D01*
X76978Y110280D01*
X77048Y110199D01*
X77115Y110116D01*
X77179Y110031D01*
X77239Y109943D01*
X77296Y109853D01*
X77350Y109761D01*
X77401Y109667D01*
X77448Y109571D01*
X77491Y109473D01*
X77531Y109374D01*
X77568Y109274D01*
X77600Y109173D01*
X77629Y109070D01*
X77654Y108966D01*
X77675Y108862D01*
X77693Y108756D01*
X77706Y108650D01*
X77716Y108544D01*
X77722Y108438D01*
X77724Y108331D01*
X74803Y111252D02*
X74682Y111250D01*
X74561Y111244D01*
X74441Y111234D01*
X74320Y111221D01*
X74201Y111203D01*
X74081Y111182D01*
X73963Y111157D01*
X73846Y111128D01*
X73729Y111095D01*
X73614Y111059D01*
X73500Y111018D01*
X73387Y110975D01*
X73275Y110927D01*
X73166Y110876D01*
X73058Y110821D01*
X72951Y110763D01*
X72847Y110702D01*
X72745Y110637D01*
X72645Y110569D01*
X72547Y110498D01*
X72451Y110424D01*
X72358Y110347D01*
X72268Y110266D01*
X72180Y110183D01*
X72095Y110097D01*
X72012Y110008D01*
X71933Y109917D01*
X71856Y109823D01*
X71783Y109727D01*
X71713Y109629D01*
X71646Y109528D01*
X71582Y109425D01*
X71522Y109320D01*
X71465Y109213D01*
X71411Y109105D01*
X71361Y108995D01*
X71315Y108883D01*
X71272Y108770D01*
X71233Y108655D01*
X76751Y106059D02*
X76830Y106136D01*
X76906Y106217D01*
X76979Y106300D01*
X77049Y106385D01*
X77116Y106473D01*
X77180Y106563D01*
X77240Y106655D01*
X77297Y106750D01*
X77351Y106846D01*
X77402Y106944D01*
X77449Y107044D01*
X77493Y107146D01*
X77533Y107249D01*
X77569Y107353D01*
X77601Y107459D01*
X77630Y107565D01*
X77655Y107673D01*
X77677Y107781D01*
X77694Y107891D01*
X77708Y108000D01*
X77717Y108110D01*
X77723Y108221D01*
X77725Y108331D01*
X76750Y106059D02*
X71233Y99568D01*
X77724Y99568D01*
D13*
X88140Y119071D02*
X120140Y119071D01*
X120140Y137469D01*
X88140Y137469D01*
X88140Y119071D01*
X113790Y119071D02*
X113790Y137469D01*
D10*
X133002Y120849D02*
X135598Y120849D01*
X133002Y120849D02*
X132903Y120851D01*
X132803Y120857D01*
X132704Y120866D01*
X132606Y120879D01*
X132508Y120896D01*
X132410Y120917D01*
X132314Y120942D01*
X132219Y120970D01*
X132125Y121002D01*
X132032Y121037D01*
X131940Y121076D01*
X131850Y121119D01*
X131762Y121164D01*
X131675Y121214D01*
X131591Y121266D01*
X131508Y121322D01*
X131428Y121380D01*
X131350Y121442D01*
X131275Y121507D01*
X131202Y121575D01*
X131132Y121645D01*
X131064Y121718D01*
X130999Y121793D01*
X130937Y121871D01*
X130879Y121951D01*
X130823Y122034D01*
X130771Y122118D01*
X130721Y122205D01*
X130676Y122293D01*
X130633Y122383D01*
X130594Y122475D01*
X130559Y122568D01*
X130527Y122662D01*
X130499Y122757D01*
X130474Y122853D01*
X130453Y122951D01*
X130436Y123049D01*
X130423Y123147D01*
X130414Y123246D01*
X130408Y123346D01*
X130406Y123445D01*
X130405Y123445D02*
X130405Y129937D01*
X130406Y129937D02*
X130408Y130036D01*
X130414Y130136D01*
X130423Y130235D01*
X130436Y130333D01*
X130453Y130431D01*
X130474Y130529D01*
X130499Y130625D01*
X130527Y130720D01*
X130559Y130814D01*
X130594Y130907D01*
X130633Y130999D01*
X130676Y131089D01*
X130721Y131177D01*
X130771Y131264D01*
X130823Y131348D01*
X130879Y131431D01*
X130937Y131511D01*
X130999Y131589D01*
X131064Y131664D01*
X131132Y131737D01*
X131202Y131807D01*
X131275Y131875D01*
X131350Y131940D01*
X131428Y132002D01*
X131508Y132060D01*
X131591Y132116D01*
X131675Y132168D01*
X131762Y132218D01*
X131850Y132263D01*
X131940Y132306D01*
X132032Y132345D01*
X132124Y132380D01*
X132219Y132412D01*
X132314Y132440D01*
X132410Y132465D01*
X132508Y132486D01*
X132606Y132503D01*
X132704Y132516D01*
X132803Y132525D01*
X132903Y132531D01*
X133002Y132533D01*
X135598Y132533D01*
X139964Y132533D02*
X139964Y131235D01*
X139964Y132533D02*
X146455Y132533D01*
X143209Y120849D01*
D13*
X121410Y27631D02*
X89410Y27631D01*
X121410Y27631D02*
X121410Y46029D01*
X89410Y46029D01*
X89410Y27631D01*
X115060Y27631D02*
X115060Y46029D01*
D10*
X101308Y13517D02*
X98712Y13517D01*
X98613Y13519D01*
X98513Y13525D01*
X98414Y13534D01*
X98316Y13547D01*
X98218Y13564D01*
X98120Y13585D01*
X98024Y13610D01*
X97929Y13638D01*
X97835Y13670D01*
X97742Y13705D01*
X97650Y13744D01*
X97560Y13787D01*
X97472Y13832D01*
X97385Y13882D01*
X97301Y13934D01*
X97218Y13990D01*
X97138Y14048D01*
X97060Y14110D01*
X96985Y14175D01*
X96912Y14243D01*
X96842Y14313D01*
X96774Y14386D01*
X96709Y14461D01*
X96647Y14539D01*
X96589Y14619D01*
X96533Y14702D01*
X96481Y14786D01*
X96431Y14873D01*
X96386Y14961D01*
X96343Y15051D01*
X96304Y15143D01*
X96269Y15236D01*
X96237Y15330D01*
X96209Y15425D01*
X96184Y15521D01*
X96163Y15619D01*
X96146Y15717D01*
X96133Y15815D01*
X96124Y15914D01*
X96118Y16014D01*
X96116Y16113D01*
X96115Y16113D02*
X96115Y22605D01*
X96116Y22605D02*
X96118Y22704D01*
X96124Y22804D01*
X96133Y22903D01*
X96146Y23001D01*
X96163Y23099D01*
X96184Y23197D01*
X96209Y23293D01*
X96237Y23388D01*
X96269Y23482D01*
X96304Y23575D01*
X96343Y23667D01*
X96386Y23757D01*
X96431Y23845D01*
X96481Y23932D01*
X96533Y24016D01*
X96589Y24099D01*
X96647Y24179D01*
X96709Y24257D01*
X96774Y24332D01*
X96842Y24405D01*
X96912Y24475D01*
X96985Y24543D01*
X97060Y24608D01*
X97138Y24670D01*
X97218Y24728D01*
X97301Y24784D01*
X97385Y24836D01*
X97472Y24886D01*
X97560Y24931D01*
X97650Y24974D01*
X97742Y25013D01*
X97834Y25048D01*
X97929Y25080D01*
X98024Y25108D01*
X98120Y25133D01*
X98218Y25154D01*
X98316Y25171D01*
X98414Y25184D01*
X98513Y25193D01*
X98613Y25199D01*
X98712Y25201D01*
X101308Y25201D01*
X105673Y16763D02*
X105675Y16876D01*
X105681Y16989D01*
X105691Y17102D01*
X105705Y17215D01*
X105722Y17327D01*
X105744Y17438D01*
X105769Y17548D01*
X105799Y17658D01*
X105832Y17766D01*
X105869Y17873D01*
X105909Y17979D01*
X105954Y18083D01*
X106002Y18186D01*
X106053Y18287D01*
X106108Y18386D01*
X106166Y18483D01*
X106228Y18578D01*
X106293Y18671D01*
X106361Y18761D01*
X106432Y18849D01*
X106507Y18935D01*
X106584Y19018D01*
X106664Y19098D01*
X106747Y19175D01*
X106833Y19250D01*
X106921Y19321D01*
X107011Y19389D01*
X107104Y19454D01*
X107199Y19516D01*
X107296Y19574D01*
X107395Y19629D01*
X107496Y19680D01*
X107599Y19728D01*
X107703Y19773D01*
X107809Y19813D01*
X107916Y19850D01*
X108024Y19883D01*
X108134Y19913D01*
X108244Y19938D01*
X108355Y19960D01*
X108467Y19977D01*
X108580Y19991D01*
X108693Y20001D01*
X108806Y20007D01*
X108919Y20009D01*
X109032Y20007D01*
X109145Y20001D01*
X109258Y19991D01*
X109371Y19977D01*
X109483Y19960D01*
X109594Y19938D01*
X109704Y19913D01*
X109814Y19883D01*
X109922Y19850D01*
X110029Y19813D01*
X110135Y19773D01*
X110239Y19728D01*
X110342Y19680D01*
X110443Y19629D01*
X110542Y19574D01*
X110639Y19516D01*
X110734Y19454D01*
X110827Y19389D01*
X110917Y19321D01*
X111005Y19250D01*
X111091Y19175D01*
X111174Y19098D01*
X111254Y19018D01*
X111331Y18935D01*
X111406Y18849D01*
X111477Y18761D01*
X111545Y18671D01*
X111610Y18578D01*
X111672Y18483D01*
X111730Y18386D01*
X111785Y18287D01*
X111836Y18186D01*
X111884Y18083D01*
X111929Y17979D01*
X111969Y17873D01*
X112006Y17766D01*
X112039Y17658D01*
X112069Y17548D01*
X112094Y17438D01*
X112116Y17327D01*
X112133Y17215D01*
X112147Y17102D01*
X112157Y16989D01*
X112163Y16876D01*
X112165Y16763D01*
X112163Y16650D01*
X112157Y16537D01*
X112147Y16424D01*
X112133Y16311D01*
X112116Y16199D01*
X112094Y16088D01*
X112069Y15978D01*
X112039Y15868D01*
X112006Y15760D01*
X111969Y15653D01*
X111929Y15547D01*
X111884Y15443D01*
X111836Y15340D01*
X111785Y15239D01*
X111730Y15140D01*
X111672Y15043D01*
X111610Y14948D01*
X111545Y14855D01*
X111477Y14765D01*
X111406Y14677D01*
X111331Y14591D01*
X111254Y14508D01*
X111174Y14428D01*
X111091Y14351D01*
X111005Y14276D01*
X110917Y14205D01*
X110827Y14137D01*
X110734Y14072D01*
X110639Y14010D01*
X110542Y13952D01*
X110443Y13897D01*
X110342Y13846D01*
X110239Y13798D01*
X110135Y13753D01*
X110029Y13713D01*
X109922Y13676D01*
X109814Y13643D01*
X109704Y13613D01*
X109594Y13588D01*
X109483Y13566D01*
X109371Y13549D01*
X109258Y13535D01*
X109145Y13525D01*
X109032Y13519D01*
X108919Y13517D01*
X108806Y13519D01*
X108693Y13525D01*
X108580Y13535D01*
X108467Y13549D01*
X108355Y13566D01*
X108244Y13588D01*
X108134Y13613D01*
X108024Y13643D01*
X107916Y13676D01*
X107809Y13713D01*
X107703Y13753D01*
X107599Y13798D01*
X107496Y13846D01*
X107395Y13897D01*
X107296Y13952D01*
X107199Y14010D01*
X107104Y14072D01*
X107011Y14137D01*
X106921Y14205D01*
X106833Y14276D01*
X106747Y14351D01*
X106664Y14428D01*
X106584Y14508D01*
X106507Y14591D01*
X106432Y14677D01*
X106361Y14765D01*
X106293Y14855D01*
X106228Y14948D01*
X106166Y15043D01*
X106108Y15140D01*
X106053Y15239D01*
X106002Y15340D01*
X105954Y15443D01*
X105909Y15547D01*
X105869Y15653D01*
X105832Y15760D01*
X105799Y15868D01*
X105769Y15978D01*
X105744Y16088D01*
X105722Y16199D01*
X105705Y16311D01*
X105691Y16424D01*
X105681Y16537D01*
X105675Y16650D01*
X105673Y16763D01*
X106323Y22605D02*
X106325Y22706D01*
X106331Y22806D01*
X106341Y22906D01*
X106354Y23006D01*
X106372Y23105D01*
X106393Y23204D01*
X106418Y23301D01*
X106447Y23398D01*
X106480Y23493D01*
X106516Y23587D01*
X106556Y23679D01*
X106599Y23770D01*
X106646Y23859D01*
X106696Y23946D01*
X106750Y24032D01*
X106807Y24115D01*
X106867Y24195D01*
X106930Y24274D01*
X106997Y24350D01*
X107066Y24423D01*
X107138Y24493D01*
X107212Y24561D01*
X107289Y24626D01*
X107369Y24687D01*
X107451Y24746D01*
X107535Y24801D01*
X107621Y24853D01*
X107709Y24902D01*
X107799Y24947D01*
X107891Y24989D01*
X107984Y25027D01*
X108079Y25061D01*
X108174Y25092D01*
X108271Y25119D01*
X108369Y25142D01*
X108468Y25162D01*
X108568Y25177D01*
X108668Y25189D01*
X108768Y25197D01*
X108869Y25201D01*
X108969Y25201D01*
X109070Y25197D01*
X109170Y25189D01*
X109270Y25177D01*
X109370Y25162D01*
X109469Y25142D01*
X109567Y25119D01*
X109664Y25092D01*
X109759Y25061D01*
X109854Y25027D01*
X109947Y24989D01*
X110039Y24947D01*
X110129Y24902D01*
X110217Y24853D01*
X110303Y24801D01*
X110387Y24746D01*
X110469Y24687D01*
X110549Y24626D01*
X110626Y24561D01*
X110700Y24493D01*
X110772Y24423D01*
X110841Y24350D01*
X110908Y24274D01*
X110971Y24195D01*
X111031Y24115D01*
X111088Y24032D01*
X111142Y23946D01*
X111192Y23859D01*
X111239Y23770D01*
X111282Y23679D01*
X111322Y23587D01*
X111358Y23493D01*
X111391Y23398D01*
X111420Y23301D01*
X111445Y23204D01*
X111466Y23105D01*
X111484Y23006D01*
X111497Y22906D01*
X111507Y22806D01*
X111513Y22706D01*
X111515Y22605D01*
X111513Y22504D01*
X111507Y22404D01*
X111497Y22304D01*
X111484Y22204D01*
X111466Y22105D01*
X111445Y22006D01*
X111420Y21909D01*
X111391Y21812D01*
X111358Y21717D01*
X111322Y21623D01*
X111282Y21531D01*
X111239Y21440D01*
X111192Y21351D01*
X111142Y21264D01*
X111088Y21178D01*
X111031Y21095D01*
X110971Y21015D01*
X110908Y20936D01*
X110841Y20860D01*
X110772Y20787D01*
X110700Y20717D01*
X110626Y20649D01*
X110549Y20584D01*
X110469Y20523D01*
X110387Y20464D01*
X110303Y20409D01*
X110217Y20357D01*
X110129Y20308D01*
X110039Y20263D01*
X109947Y20221D01*
X109854Y20183D01*
X109759Y20149D01*
X109664Y20118D01*
X109567Y20091D01*
X109469Y20068D01*
X109370Y20048D01*
X109270Y20033D01*
X109170Y20021D01*
X109070Y20013D01*
X108969Y20009D01*
X108869Y20009D01*
X108768Y20013D01*
X108668Y20021D01*
X108568Y20033D01*
X108468Y20048D01*
X108369Y20068D01*
X108271Y20091D01*
X108174Y20118D01*
X108079Y20149D01*
X107984Y20183D01*
X107891Y20221D01*
X107799Y20263D01*
X107709Y20308D01*
X107621Y20357D01*
X107535Y20409D01*
X107451Y20464D01*
X107369Y20523D01*
X107289Y20584D01*
X107212Y20649D01*
X107138Y20717D01*
X107066Y20787D01*
X106997Y20860D01*
X106930Y20936D01*
X106867Y21015D01*
X106807Y21095D01*
X106750Y21178D01*
X106696Y21264D01*
X106646Y21351D01*
X106599Y21440D01*
X106556Y21531D01*
X106516Y21623D01*
X106480Y21717D01*
X106447Y21812D01*
X106418Y21909D01*
X106393Y22006D01*
X106372Y22105D01*
X106354Y22204D01*
X106341Y22304D01*
X106331Y22404D01*
X106325Y22504D01*
X106323Y22605D01*
D12*
X424400Y70701D03*
D13*
X416820Y70061D02*
X385820Y70061D01*
X385820Y102659D02*
X416820Y102659D01*
D10*
X420109Y107515D02*
X420109Y115953D01*
X420109Y107515D02*
X420111Y107402D01*
X420117Y107289D01*
X420127Y107176D01*
X420141Y107063D01*
X420158Y106951D01*
X420180Y106840D01*
X420205Y106730D01*
X420235Y106620D01*
X420268Y106512D01*
X420305Y106405D01*
X420345Y106299D01*
X420390Y106195D01*
X420438Y106092D01*
X420489Y105991D01*
X420544Y105892D01*
X420602Y105795D01*
X420664Y105700D01*
X420729Y105607D01*
X420797Y105517D01*
X420868Y105429D01*
X420943Y105343D01*
X421020Y105260D01*
X421100Y105180D01*
X421183Y105103D01*
X421269Y105028D01*
X421357Y104957D01*
X421447Y104889D01*
X421540Y104824D01*
X421635Y104762D01*
X421732Y104704D01*
X421831Y104649D01*
X421932Y104598D01*
X422035Y104550D01*
X422139Y104505D01*
X422245Y104465D01*
X422352Y104428D01*
X422460Y104395D01*
X422570Y104365D01*
X422680Y104340D01*
X422791Y104318D01*
X422903Y104301D01*
X423016Y104287D01*
X423129Y104277D01*
X423242Y104271D01*
X423355Y104269D01*
X423468Y104271D01*
X423581Y104277D01*
X423694Y104287D01*
X423807Y104301D01*
X423919Y104318D01*
X424030Y104340D01*
X424140Y104365D01*
X424250Y104395D01*
X424358Y104428D01*
X424465Y104465D01*
X424571Y104505D01*
X424675Y104550D01*
X424778Y104598D01*
X424879Y104649D01*
X424978Y104704D01*
X425075Y104762D01*
X425170Y104824D01*
X425263Y104889D01*
X425353Y104957D01*
X425441Y105028D01*
X425527Y105103D01*
X425610Y105180D01*
X425690Y105260D01*
X425767Y105343D01*
X425842Y105429D01*
X425913Y105517D01*
X425981Y105607D01*
X426046Y105700D01*
X426108Y105795D01*
X426166Y105892D01*
X426221Y105991D01*
X426272Y106092D01*
X426320Y106195D01*
X426365Y106299D01*
X426405Y106405D01*
X426442Y106512D01*
X426475Y106620D01*
X426505Y106730D01*
X426530Y106840D01*
X426552Y106951D01*
X426569Y107063D01*
X426583Y107176D01*
X426593Y107289D01*
X426599Y107402D01*
X426601Y107515D01*
X426600Y107515D02*
X426600Y115953D01*
X431920Y104269D02*
X435165Y104269D01*
X435278Y104271D01*
X435391Y104277D01*
X435504Y104287D01*
X435617Y104301D01*
X435729Y104318D01*
X435840Y104340D01*
X435950Y104365D01*
X436060Y104395D01*
X436168Y104428D01*
X436275Y104465D01*
X436381Y104505D01*
X436485Y104550D01*
X436588Y104598D01*
X436689Y104649D01*
X436788Y104704D01*
X436885Y104762D01*
X436980Y104824D01*
X437073Y104889D01*
X437163Y104957D01*
X437251Y105028D01*
X437337Y105103D01*
X437420Y105180D01*
X437500Y105260D01*
X437577Y105343D01*
X437652Y105429D01*
X437723Y105517D01*
X437791Y105607D01*
X437856Y105700D01*
X437918Y105795D01*
X437976Y105892D01*
X438031Y105991D01*
X438082Y106092D01*
X438130Y106195D01*
X438175Y106299D01*
X438215Y106405D01*
X438252Y106512D01*
X438285Y106620D01*
X438315Y106730D01*
X438340Y106840D01*
X438362Y106951D01*
X438379Y107063D01*
X438393Y107176D01*
X438403Y107289D01*
X438409Y107402D01*
X438411Y107515D01*
X438409Y107628D01*
X438403Y107741D01*
X438393Y107854D01*
X438379Y107967D01*
X438362Y108079D01*
X438340Y108190D01*
X438315Y108300D01*
X438285Y108410D01*
X438252Y108518D01*
X438215Y108625D01*
X438175Y108731D01*
X438130Y108835D01*
X438082Y108938D01*
X438031Y109039D01*
X437976Y109138D01*
X437918Y109235D01*
X437856Y109330D01*
X437791Y109423D01*
X437723Y109513D01*
X437652Y109601D01*
X437577Y109687D01*
X437500Y109770D01*
X437420Y109850D01*
X437337Y109927D01*
X437251Y110002D01*
X437163Y110073D01*
X437073Y110141D01*
X436980Y110206D01*
X436885Y110268D01*
X436788Y110326D01*
X436689Y110381D01*
X436588Y110432D01*
X436485Y110480D01*
X436381Y110525D01*
X436275Y110565D01*
X436168Y110602D01*
X436060Y110635D01*
X435950Y110665D01*
X435840Y110690D01*
X435729Y110712D01*
X435617Y110729D01*
X435504Y110743D01*
X435391Y110753D01*
X435278Y110759D01*
X435165Y110761D01*
X435815Y115953D02*
X431920Y115953D01*
X435815Y115953D02*
X435916Y115951D01*
X436016Y115945D01*
X436116Y115935D01*
X436216Y115922D01*
X436315Y115904D01*
X436414Y115883D01*
X436511Y115858D01*
X436608Y115829D01*
X436703Y115796D01*
X436797Y115760D01*
X436889Y115720D01*
X436980Y115677D01*
X437069Y115630D01*
X437156Y115580D01*
X437242Y115526D01*
X437325Y115469D01*
X437405Y115409D01*
X437484Y115346D01*
X437560Y115279D01*
X437633Y115210D01*
X437703Y115138D01*
X437771Y115064D01*
X437836Y114987D01*
X437897Y114907D01*
X437956Y114825D01*
X438011Y114741D01*
X438063Y114655D01*
X438112Y114567D01*
X438157Y114477D01*
X438199Y114385D01*
X438237Y114292D01*
X438271Y114197D01*
X438302Y114102D01*
X438329Y114005D01*
X438352Y113907D01*
X438372Y113808D01*
X438387Y113708D01*
X438399Y113608D01*
X438407Y113508D01*
X438411Y113407D01*
X438411Y113307D01*
X438407Y113206D01*
X438399Y113106D01*
X438387Y113006D01*
X438372Y112906D01*
X438352Y112807D01*
X438329Y112709D01*
X438302Y112612D01*
X438271Y112517D01*
X438237Y112422D01*
X438199Y112329D01*
X438157Y112237D01*
X438112Y112147D01*
X438063Y112059D01*
X438011Y111973D01*
X437956Y111889D01*
X437897Y111807D01*
X437836Y111727D01*
X437771Y111650D01*
X437703Y111576D01*
X437633Y111504D01*
X437560Y111435D01*
X437484Y111368D01*
X437405Y111305D01*
X437325Y111245D01*
X437242Y111188D01*
X437156Y111134D01*
X437069Y111084D01*
X436980Y111037D01*
X436889Y110994D01*
X436797Y110954D01*
X436703Y110918D01*
X436608Y110885D01*
X436511Y110856D01*
X436414Y110831D01*
X436315Y110810D01*
X436216Y110792D01*
X436116Y110779D01*
X436016Y110769D01*
X435916Y110763D01*
X435815Y110761D01*
X435815Y110760D02*
X433218Y110760D01*
D15*
X441720Y79629D02*
X441735Y80819D01*
X441778Y82009D01*
X441851Y83197D01*
X441954Y84383D01*
X442085Y85566D01*
X442245Y86745D01*
X442434Y87921D01*
X442652Y89091D01*
X442898Y90255D01*
X443173Y91414D01*
X443477Y92565D01*
X443808Y93708D01*
X444168Y94843D01*
X444555Y95968D01*
X444970Y97084D01*
X445412Y98189D01*
X445881Y99283D01*
X446377Y100365D01*
X446899Y101435D01*
X447447Y102492D01*
X448021Y103535D01*
X448620Y104563D01*
X449245Y105576D01*
X449894Y106574D01*
X450567Y107556D01*
X451264Y108520D01*
X451985Y109468D01*
X452729Y110397D01*
X453495Y111308D01*
X454284Y112200D01*
X455094Y113072D01*
X455925Y113924D01*
X456777Y114755D01*
X457649Y115565D01*
X458541Y116354D01*
X459452Y117120D01*
X460381Y117864D01*
X461329Y118585D01*
X462293Y119282D01*
X463275Y119955D01*
X464273Y120604D01*
X465286Y121229D01*
X466314Y121828D01*
X467357Y122402D01*
X468414Y122950D01*
X469484Y123472D01*
X470566Y123968D01*
X471660Y124437D01*
X472765Y124879D01*
X473881Y125294D01*
X475006Y125681D01*
X476141Y126041D01*
X477284Y126372D01*
X478435Y126676D01*
X479594Y126951D01*
X480758Y127197D01*
X481928Y127415D01*
X483104Y127604D01*
X484283Y127764D01*
X485466Y127895D01*
X486652Y127998D01*
X487840Y128071D01*
X489030Y128114D01*
X490220Y128129D01*
X491410Y128114D01*
X492600Y128071D01*
X493788Y127998D01*
X494974Y127895D01*
X496157Y127764D01*
X497336Y127604D01*
X498512Y127415D01*
X499682Y127197D01*
X500846Y126951D01*
X502005Y126676D01*
X503156Y126372D01*
X504299Y126041D01*
X505434Y125681D01*
X506559Y125294D01*
X507675Y124879D01*
X508780Y124437D01*
X509874Y123968D01*
X510956Y123472D01*
X512026Y122950D01*
X513083Y122402D01*
X514126Y121828D01*
X515154Y121229D01*
X516167Y120604D01*
X517165Y119955D01*
X518147Y119282D01*
X519111Y118585D01*
X520059Y117864D01*
X520988Y117120D01*
X521899Y116354D01*
X522791Y115565D01*
X523663Y114755D01*
X524515Y113924D01*
X525346Y113072D01*
X526156Y112200D01*
X526945Y111308D01*
X527711Y110397D01*
X528455Y109468D01*
X529176Y108520D01*
X529873Y107556D01*
X530546Y106574D01*
X531195Y105576D01*
X531820Y104563D01*
X532419Y103535D01*
X532993Y102492D01*
X533541Y101435D01*
X534063Y100365D01*
X534559Y99283D01*
X535028Y98189D01*
X535470Y97084D01*
X535885Y95968D01*
X536272Y94843D01*
X536632Y93708D01*
X536963Y92565D01*
X537267Y91414D01*
X537542Y90255D01*
X537788Y89091D01*
X538006Y87921D01*
X538195Y86745D01*
X538355Y85566D01*
X538486Y84383D01*
X538589Y83197D01*
X538662Y82009D01*
X538705Y80819D01*
X538720Y79629D01*
X538705Y78439D01*
X538662Y77249D01*
X538589Y76061D01*
X538486Y74875D01*
X538355Y73692D01*
X538195Y72513D01*
X538006Y71337D01*
X537788Y70167D01*
X537542Y69003D01*
X537267Y67844D01*
X536963Y66693D01*
X536632Y65550D01*
X536272Y64415D01*
X535885Y63290D01*
X535470Y62174D01*
X535028Y61069D01*
X534559Y59975D01*
X534063Y58893D01*
X533541Y57823D01*
X532993Y56766D01*
X532419Y55723D01*
X531820Y54695D01*
X531195Y53682D01*
X530546Y52684D01*
X529873Y51702D01*
X529176Y50738D01*
X528455Y49790D01*
X527711Y48861D01*
X526945Y47950D01*
X526156Y47058D01*
X525346Y46186D01*
X524515Y45334D01*
X523663Y44503D01*
X522791Y43693D01*
X521899Y42904D01*
X520988Y42138D01*
X520059Y41394D01*
X519111Y40673D01*
X518147Y39976D01*
X517165Y39303D01*
X516167Y38654D01*
X515154Y38029D01*
X514126Y37430D01*
X513083Y36856D01*
X512026Y36308D01*
X510956Y35786D01*
X509874Y35290D01*
X508780Y34821D01*
X507675Y34379D01*
X506559Y33964D01*
X505434Y33577D01*
X504299Y33217D01*
X503156Y32886D01*
X502005Y32582D01*
X500846Y32307D01*
X499682Y32061D01*
X498512Y31843D01*
X497336Y31654D01*
X496157Y31494D01*
X494974Y31363D01*
X493788Y31260D01*
X492600Y31187D01*
X491410Y31144D01*
X490220Y31129D01*
X489030Y31144D01*
X487840Y31187D01*
X486652Y31260D01*
X485466Y31363D01*
X484283Y31494D01*
X483104Y31654D01*
X481928Y31843D01*
X480758Y32061D01*
X479594Y32307D01*
X478435Y32582D01*
X477284Y32886D01*
X476141Y33217D01*
X475006Y33577D01*
X473881Y33964D01*
X472765Y34379D01*
X471660Y34821D01*
X470566Y35290D01*
X469484Y35786D01*
X468414Y36308D01*
X467357Y36856D01*
X466314Y37430D01*
X465286Y38029D01*
X464273Y38654D01*
X463275Y39303D01*
X462293Y39976D01*
X461329Y40673D01*
X460381Y41394D01*
X459452Y42138D01*
X458541Y42904D01*
X457649Y43693D01*
X456777Y44503D01*
X455925Y45334D01*
X455094Y46186D01*
X454284Y47058D01*
X453495Y47950D01*
X452729Y48861D01*
X451985Y49790D01*
X451264Y50738D01*
X450567Y51702D01*
X449894Y52684D01*
X449245Y53682D01*
X448620Y54695D01*
X448021Y55723D01*
X447447Y56766D01*
X446899Y57823D01*
X446377Y58893D01*
X445881Y59975D01*
X445412Y61069D01*
X444970Y62174D01*
X444555Y63290D01*
X444168Y64415D01*
X443808Y65550D01*
X443477Y66693D01*
X443173Y67844D01*
X442898Y69003D01*
X442652Y70167D01*
X442434Y71337D01*
X442245Y72513D01*
X442085Y73692D01*
X441954Y74875D01*
X441851Y76061D01*
X441778Y77249D01*
X441735Y78439D01*
X441720Y79629D01*
D16*
X434790Y97039D02*
X434792Y97102D01*
X434798Y97164D01*
X434808Y97226D01*
X434821Y97288D01*
X434839Y97348D01*
X434860Y97407D01*
X434885Y97465D01*
X434914Y97521D01*
X434946Y97575D01*
X434981Y97627D01*
X435019Y97676D01*
X435061Y97724D01*
X435105Y97768D01*
X435153Y97810D01*
X435202Y97848D01*
X435254Y97883D01*
X435308Y97915D01*
X435364Y97944D01*
X435422Y97969D01*
X435481Y97990D01*
X435541Y98008D01*
X435603Y98021D01*
X435665Y98031D01*
X435727Y98037D01*
X435790Y98039D01*
X435853Y98037D01*
X435915Y98031D01*
X435977Y98021D01*
X436039Y98008D01*
X436099Y97990D01*
X436158Y97969D01*
X436216Y97944D01*
X436272Y97915D01*
X436326Y97883D01*
X436378Y97848D01*
X436427Y97810D01*
X436475Y97768D01*
X436519Y97724D01*
X436561Y97676D01*
X436599Y97627D01*
X436634Y97575D01*
X436666Y97521D01*
X436695Y97465D01*
X436720Y97407D01*
X436741Y97348D01*
X436759Y97288D01*
X436772Y97226D01*
X436782Y97164D01*
X436788Y97102D01*
X436790Y97039D01*
X436788Y96976D01*
X436782Y96914D01*
X436772Y96852D01*
X436759Y96790D01*
X436741Y96730D01*
X436720Y96671D01*
X436695Y96613D01*
X436666Y96557D01*
X436634Y96503D01*
X436599Y96451D01*
X436561Y96402D01*
X436519Y96354D01*
X436475Y96310D01*
X436427Y96268D01*
X436378Y96230D01*
X436326Y96195D01*
X436272Y96163D01*
X436216Y96134D01*
X436158Y96109D01*
X436099Y96088D01*
X436039Y96070D01*
X435977Y96057D01*
X435915Y96047D01*
X435853Y96041D01*
X435790Y96039D01*
X435727Y96041D01*
X435665Y96047D01*
X435603Y96057D01*
X435541Y96070D01*
X435481Y96088D01*
X435422Y96109D01*
X435364Y96134D01*
X435308Y96163D01*
X435254Y96195D01*
X435202Y96230D01*
X435153Y96268D01*
X435105Y96310D01*
X435061Y96354D01*
X435019Y96402D01*
X434981Y96451D01*
X434946Y96503D01*
X434914Y96557D01*
X434885Y96613D01*
X434860Y96671D01*
X434839Y96730D01*
X434821Y96790D01*
X434808Y96852D01*
X434798Y96914D01*
X434792Y96976D01*
X434790Y97039D01*
D10*
X458696Y27033D02*
X458696Y15345D01*
X462592Y20539D02*
X458696Y27033D01*
X462592Y20539D02*
X466489Y27033D01*
X466489Y15345D01*
X472883Y15345D02*
X472883Y27033D01*
X471584Y15345D02*
X474182Y15345D01*
X474182Y27033D02*
X471584Y27033D01*
X481348Y15345D02*
X483945Y15345D01*
X481348Y15345D02*
X481249Y15347D01*
X481149Y15353D01*
X481050Y15362D01*
X480952Y15375D01*
X480854Y15393D01*
X480756Y15413D01*
X480660Y15438D01*
X480564Y15466D01*
X480470Y15498D01*
X480377Y15533D01*
X480286Y15572D01*
X480196Y15615D01*
X480107Y15661D01*
X480021Y15710D01*
X479936Y15762D01*
X479854Y15818D01*
X479774Y15877D01*
X479696Y15938D01*
X479620Y16003D01*
X479547Y16071D01*
X479477Y16141D01*
X479409Y16214D01*
X479344Y16290D01*
X479283Y16368D01*
X479224Y16448D01*
X479168Y16530D01*
X479116Y16615D01*
X479067Y16701D01*
X479021Y16790D01*
X478978Y16880D01*
X478939Y16971D01*
X478904Y17064D01*
X478872Y17158D01*
X478844Y17254D01*
X478819Y17350D01*
X478799Y17448D01*
X478781Y17546D01*
X478768Y17644D01*
X478759Y17743D01*
X478753Y17843D01*
X478751Y17942D01*
X478750Y17942D02*
X478750Y24436D01*
X478751Y24436D02*
X478753Y24535D01*
X478759Y24635D01*
X478768Y24734D01*
X478781Y24832D01*
X478799Y24930D01*
X478819Y25028D01*
X478844Y25124D01*
X478872Y25220D01*
X478904Y25314D01*
X478939Y25407D01*
X478978Y25498D01*
X479021Y25588D01*
X479066Y25677D01*
X479116Y25763D01*
X479168Y25848D01*
X479224Y25930D01*
X479283Y26010D01*
X479344Y26088D01*
X479409Y26164D01*
X479477Y26237D01*
X479547Y26307D01*
X479620Y26375D01*
X479696Y26440D01*
X479774Y26501D01*
X479854Y26560D01*
X479936Y26616D01*
X480021Y26668D01*
X480107Y26717D01*
X480196Y26763D01*
X480286Y26806D01*
X480377Y26845D01*
X480470Y26880D01*
X480564Y26912D01*
X480660Y26940D01*
X480756Y26965D01*
X480854Y26985D01*
X480952Y27003D01*
X481050Y27016D01*
X481149Y27025D01*
X481248Y27031D01*
X481348Y27033D01*
X483945Y27033D01*
X488312Y24436D02*
X491559Y27033D01*
X491559Y15345D01*
X494805Y15345D02*
X488312Y15345D01*
X435102Y75494D02*
X435102Y78091D01*
X435102Y75494D02*
X435100Y75395D01*
X435094Y75295D01*
X435085Y75196D01*
X435072Y75098D01*
X435055Y75000D01*
X435034Y74902D01*
X435009Y74806D01*
X434981Y74711D01*
X434949Y74617D01*
X434914Y74524D01*
X434875Y74432D01*
X434832Y74342D01*
X434787Y74254D01*
X434737Y74167D01*
X434685Y74083D01*
X434629Y74000D01*
X434571Y73920D01*
X434509Y73842D01*
X434444Y73767D01*
X434376Y73694D01*
X434306Y73624D01*
X434233Y73556D01*
X434158Y73491D01*
X434080Y73429D01*
X434000Y73371D01*
X433917Y73315D01*
X433833Y73263D01*
X433746Y73213D01*
X433658Y73168D01*
X433568Y73125D01*
X433476Y73086D01*
X433383Y73051D01*
X433289Y73019D01*
X433194Y72991D01*
X433098Y72966D01*
X433000Y72945D01*
X432902Y72928D01*
X432804Y72915D01*
X432705Y72906D01*
X432605Y72900D01*
X432506Y72898D01*
X426014Y72898D01*
X425915Y72900D01*
X425815Y72906D01*
X425716Y72915D01*
X425618Y72928D01*
X425520Y72946D01*
X425422Y72966D01*
X425326Y72991D01*
X425230Y73019D01*
X425136Y73051D01*
X425043Y73086D01*
X424952Y73125D01*
X424862Y73168D01*
X424773Y73213D01*
X424687Y73263D01*
X424602Y73315D01*
X424520Y73371D01*
X424440Y73430D01*
X424362Y73491D01*
X424286Y73556D01*
X424213Y73624D01*
X424143Y73694D01*
X424075Y73767D01*
X424010Y73843D01*
X423949Y73921D01*
X423890Y74001D01*
X423834Y74083D01*
X423782Y74168D01*
X423733Y74254D01*
X423687Y74343D01*
X423644Y74433D01*
X423605Y74524D01*
X423570Y74617D01*
X423538Y74711D01*
X423510Y74807D01*
X423485Y74903D01*
X423465Y75001D01*
X423447Y75099D01*
X423434Y75197D01*
X423425Y75296D01*
X423419Y75395D01*
X423417Y75495D01*
X423418Y75494D02*
X423418Y78091D01*
X429909Y85053D02*
X429909Y88947D01*
X429909Y85053D02*
X429907Y84954D01*
X429901Y84854D01*
X429892Y84755D01*
X429879Y84657D01*
X429862Y84559D01*
X429841Y84461D01*
X429816Y84365D01*
X429788Y84270D01*
X429756Y84176D01*
X429721Y84083D01*
X429682Y83991D01*
X429639Y83901D01*
X429594Y83813D01*
X429544Y83726D01*
X429492Y83642D01*
X429436Y83559D01*
X429378Y83479D01*
X429316Y83401D01*
X429251Y83326D01*
X429183Y83253D01*
X429113Y83183D01*
X429040Y83115D01*
X428965Y83050D01*
X428887Y82988D01*
X428807Y82930D01*
X428724Y82874D01*
X428640Y82822D01*
X428553Y82772D01*
X428465Y82727D01*
X428375Y82684D01*
X428283Y82645D01*
X428190Y82610D01*
X428096Y82578D01*
X428001Y82550D01*
X427905Y82525D01*
X427807Y82504D01*
X427709Y82487D01*
X427611Y82474D01*
X427512Y82465D01*
X427412Y82459D01*
X427313Y82457D01*
X427313Y82456D02*
X426664Y82456D01*
X426551Y82458D01*
X426438Y82464D01*
X426325Y82474D01*
X426212Y82488D01*
X426100Y82505D01*
X425989Y82527D01*
X425879Y82552D01*
X425769Y82582D01*
X425661Y82615D01*
X425554Y82652D01*
X425448Y82692D01*
X425344Y82737D01*
X425241Y82785D01*
X425140Y82836D01*
X425041Y82891D01*
X424944Y82949D01*
X424849Y83011D01*
X424756Y83076D01*
X424666Y83144D01*
X424578Y83215D01*
X424492Y83290D01*
X424409Y83367D01*
X424329Y83447D01*
X424252Y83530D01*
X424177Y83616D01*
X424106Y83704D01*
X424038Y83794D01*
X423973Y83887D01*
X423911Y83982D01*
X423853Y84079D01*
X423798Y84178D01*
X423747Y84279D01*
X423699Y84382D01*
X423654Y84486D01*
X423614Y84592D01*
X423577Y84699D01*
X423544Y84807D01*
X423514Y84917D01*
X423489Y85027D01*
X423467Y85138D01*
X423450Y85250D01*
X423436Y85363D01*
X423426Y85476D01*
X423420Y85589D01*
X423418Y85702D01*
X423420Y85815D01*
X423426Y85928D01*
X423436Y86041D01*
X423450Y86154D01*
X423467Y86266D01*
X423489Y86377D01*
X423514Y86487D01*
X423544Y86597D01*
X423577Y86705D01*
X423614Y86812D01*
X423654Y86918D01*
X423699Y87022D01*
X423747Y87125D01*
X423798Y87226D01*
X423853Y87325D01*
X423911Y87422D01*
X423973Y87517D01*
X424038Y87610D01*
X424106Y87700D01*
X424177Y87788D01*
X424252Y87874D01*
X424329Y87957D01*
X424409Y88037D01*
X424492Y88114D01*
X424578Y88189D01*
X424666Y88260D01*
X424756Y88328D01*
X424849Y88393D01*
X424944Y88455D01*
X425041Y88513D01*
X425140Y88568D01*
X425241Y88619D01*
X425344Y88667D01*
X425448Y88712D01*
X425554Y88752D01*
X425661Y88789D01*
X425769Y88822D01*
X425879Y88852D01*
X425989Y88877D01*
X426100Y88899D01*
X426212Y88916D01*
X426325Y88930D01*
X426438Y88940D01*
X426551Y88946D01*
X426664Y88948D01*
X426664Y88947D02*
X429909Y88947D01*
X430052Y88945D01*
X430195Y88939D01*
X430338Y88929D01*
X430480Y88915D01*
X430622Y88898D01*
X430764Y88876D01*
X430905Y88851D01*
X431045Y88821D01*
X431184Y88788D01*
X431322Y88751D01*
X431459Y88710D01*
X431595Y88666D01*
X431730Y88617D01*
X431863Y88565D01*
X431995Y88510D01*
X432125Y88450D01*
X432254Y88387D01*
X432381Y88321D01*
X432506Y88251D01*
X432628Y88178D01*
X432749Y88101D01*
X432868Y88021D01*
X432984Y87938D01*
X433099Y87852D01*
X433210Y87763D01*
X433320Y87670D01*
X433426Y87575D01*
X433530Y87476D01*
X433631Y87375D01*
X433730Y87271D01*
X433825Y87165D01*
X433918Y87055D01*
X434007Y86944D01*
X434093Y86829D01*
X434176Y86713D01*
X434256Y86594D01*
X434333Y86473D01*
X434406Y86351D01*
X434476Y86226D01*
X434542Y86099D01*
X434605Y85970D01*
X434665Y85840D01*
X434720Y85708D01*
X434772Y85575D01*
X434821Y85440D01*
X434865Y85304D01*
X434906Y85167D01*
X434943Y85029D01*
X434976Y84890D01*
X435006Y84750D01*
X435031Y84609D01*
X435053Y84467D01*
X435070Y84325D01*
X435084Y84183D01*
X435094Y84040D01*
X435100Y83897D01*
X435102Y83754D01*
X425516Y9398D02*
X422919Y9398D01*
X422820Y9400D01*
X422720Y9406D01*
X422621Y9415D01*
X422523Y9428D01*
X422425Y9445D01*
X422327Y9466D01*
X422231Y9491D01*
X422136Y9519D01*
X422042Y9551D01*
X421949Y9586D01*
X421857Y9625D01*
X421767Y9668D01*
X421679Y9713D01*
X421592Y9763D01*
X421508Y9815D01*
X421425Y9871D01*
X421345Y9929D01*
X421267Y9991D01*
X421192Y10056D01*
X421119Y10124D01*
X421049Y10194D01*
X420981Y10267D01*
X420916Y10342D01*
X420854Y10420D01*
X420796Y10500D01*
X420740Y10583D01*
X420688Y10667D01*
X420638Y10754D01*
X420593Y10842D01*
X420550Y10932D01*
X420511Y11024D01*
X420476Y11117D01*
X420444Y11211D01*
X420416Y11306D01*
X420391Y11402D01*
X420370Y11500D01*
X420353Y11598D01*
X420340Y11696D01*
X420331Y11795D01*
X420325Y11895D01*
X420323Y11994D01*
X420323Y18486D01*
X420325Y18585D01*
X420331Y18685D01*
X420340Y18784D01*
X420353Y18882D01*
X420370Y18980D01*
X420391Y19078D01*
X420416Y19174D01*
X420444Y19269D01*
X420476Y19363D01*
X420511Y19456D01*
X420550Y19548D01*
X420593Y19638D01*
X420638Y19726D01*
X420688Y19813D01*
X420740Y19897D01*
X420796Y19980D01*
X420854Y20060D01*
X420916Y20138D01*
X420981Y20213D01*
X421049Y20286D01*
X421119Y20356D01*
X421192Y20424D01*
X421267Y20489D01*
X421345Y20551D01*
X421425Y20609D01*
X421508Y20665D01*
X421592Y20717D01*
X421679Y20767D01*
X421767Y20812D01*
X421857Y20855D01*
X421949Y20894D01*
X422041Y20929D01*
X422136Y20961D01*
X422231Y20989D01*
X422327Y21014D01*
X422425Y21035D01*
X422523Y21052D01*
X422621Y21065D01*
X422720Y21074D01*
X422820Y21080D01*
X422919Y21082D01*
X425516Y21082D01*
X429881Y18486D02*
X433126Y21082D01*
X433126Y9398D01*
X429881Y9398D02*
X436372Y9398D01*
X441311Y15240D02*
X441314Y15470D01*
X441322Y15700D01*
X441336Y15929D01*
X441355Y16158D01*
X441380Y16387D01*
X441410Y16614D01*
X441445Y16842D01*
X441486Y17068D01*
X441532Y17293D01*
X441584Y17517D01*
X441641Y17739D01*
X441703Y17961D01*
X441771Y18180D01*
X441844Y18398D01*
X441922Y18615D01*
X442005Y18829D01*
X442093Y19041D01*
X442186Y19251D01*
X442285Y19459D01*
X442284Y19459D02*
X442317Y19549D01*
X442353Y19638D01*
X442393Y19726D01*
X442437Y19811D01*
X442484Y19895D01*
X442534Y19977D01*
X442588Y20057D01*
X442644Y20134D01*
X442704Y20210D01*
X442767Y20283D01*
X442832Y20353D01*
X442901Y20421D01*
X442972Y20485D01*
X443045Y20547D01*
X443121Y20606D01*
X443199Y20662D01*
X443280Y20715D01*
X443362Y20764D01*
X443446Y20810D01*
X443533Y20853D01*
X443620Y20892D01*
X443710Y20928D01*
X443800Y20960D01*
X443892Y20988D01*
X443985Y21013D01*
X444079Y21034D01*
X444173Y21051D01*
X444268Y21065D01*
X444364Y21074D01*
X444460Y21080D01*
X444556Y21082D01*
X444652Y21080D01*
X444748Y21074D01*
X444844Y21065D01*
X444939Y21051D01*
X445033Y21034D01*
X445127Y21013D01*
X445220Y20988D01*
X445312Y20960D01*
X445402Y20928D01*
X445492Y20892D01*
X445579Y20853D01*
X445666Y20810D01*
X445750Y20764D01*
X445832Y20715D01*
X445913Y20662D01*
X445991Y20606D01*
X446067Y20547D01*
X446140Y20485D01*
X446211Y20421D01*
X446280Y20353D01*
X446345Y20283D01*
X446408Y20210D01*
X446468Y20134D01*
X446524Y20057D01*
X446578Y19977D01*
X446628Y19895D01*
X446675Y19811D01*
X446719Y19726D01*
X446759Y19638D01*
X446795Y19549D01*
X446828Y19459D01*
X446829Y19459D02*
X446928Y19252D01*
X447021Y19042D01*
X447109Y18829D01*
X447192Y18615D01*
X447270Y18399D01*
X447343Y18181D01*
X447411Y17961D01*
X447473Y17740D01*
X447530Y17517D01*
X447582Y17293D01*
X447628Y17068D01*
X447669Y16842D01*
X447704Y16615D01*
X447734Y16387D01*
X447759Y16158D01*
X447778Y15929D01*
X447792Y15700D01*
X447800Y15470D01*
X447803Y15240D01*
X441311Y15240D02*
X441314Y15010D01*
X441322Y14780D01*
X441336Y14551D01*
X441355Y14322D01*
X441380Y14093D01*
X441410Y13865D01*
X441445Y13638D01*
X441486Y13412D01*
X441532Y13187D01*
X441584Y12963D01*
X441641Y12740D01*
X441703Y12519D01*
X441771Y12299D01*
X441844Y12081D01*
X441922Y11865D01*
X442005Y11651D01*
X442093Y11439D01*
X442186Y11228D01*
X442285Y11021D01*
X442284Y11021D02*
X442317Y10931D01*
X442353Y10842D01*
X442394Y10754D01*
X442437Y10669D01*
X442484Y10585D01*
X442534Y10503D01*
X442588Y10423D01*
X442644Y10346D01*
X442704Y10270D01*
X442767Y10197D01*
X442832Y10127D01*
X442901Y10059D01*
X442972Y9995D01*
X443045Y9933D01*
X443121Y9874D01*
X443199Y9818D01*
X443280Y9765D01*
X443362Y9716D01*
X443446Y9670D01*
X443533Y9627D01*
X443620Y9588D01*
X443710Y9552D01*
X443800Y9520D01*
X443892Y9492D01*
X443985Y9467D01*
X444079Y9446D01*
X444173Y9429D01*
X444268Y9415D01*
X444364Y9406D01*
X444460Y9400D01*
X444556Y9398D01*
X446828Y11021D02*
X446927Y11228D01*
X447020Y11439D01*
X447108Y11651D01*
X447191Y11865D01*
X447269Y12081D01*
X447342Y12299D01*
X447410Y12519D01*
X447472Y12740D01*
X447529Y12963D01*
X447581Y13187D01*
X447627Y13412D01*
X447668Y13638D01*
X447703Y13865D01*
X447733Y14093D01*
X447758Y14322D01*
X447777Y14551D01*
X447791Y14780D01*
X447799Y15010D01*
X447802Y15240D01*
X446828Y11021D02*
X446795Y10931D01*
X446759Y10842D01*
X446719Y10754D01*
X446675Y10669D01*
X446628Y10585D01*
X446578Y10503D01*
X446524Y10423D01*
X446468Y10346D01*
X446408Y10270D01*
X446345Y10197D01*
X446280Y10127D01*
X446211Y10059D01*
X446140Y9995D01*
X446067Y9933D01*
X445991Y9874D01*
X445913Y9818D01*
X445832Y9765D01*
X445750Y9716D01*
X445666Y9670D01*
X445579Y9627D01*
X445492Y9588D01*
X445402Y9552D01*
X445312Y9520D01*
X445220Y9492D01*
X445127Y9467D01*
X445033Y9446D01*
X444939Y9429D01*
X444844Y9415D01*
X444748Y9406D01*
X444652Y9400D01*
X444556Y9398D01*
X441960Y11994D02*
X447153Y18486D01*
X389241Y122428D02*
X386644Y122428D01*
X386545Y122430D01*
X386445Y122436D01*
X386346Y122445D01*
X386248Y122458D01*
X386150Y122475D01*
X386052Y122496D01*
X385956Y122521D01*
X385861Y122549D01*
X385767Y122581D01*
X385674Y122616D01*
X385582Y122655D01*
X385492Y122698D01*
X385404Y122743D01*
X385317Y122793D01*
X385233Y122845D01*
X385150Y122901D01*
X385070Y122959D01*
X384992Y123021D01*
X384917Y123086D01*
X384844Y123154D01*
X384774Y123224D01*
X384706Y123297D01*
X384641Y123372D01*
X384579Y123450D01*
X384521Y123530D01*
X384465Y123613D01*
X384413Y123697D01*
X384363Y123784D01*
X384318Y123872D01*
X384275Y123962D01*
X384236Y124054D01*
X384201Y124147D01*
X384169Y124241D01*
X384141Y124336D01*
X384116Y124432D01*
X384095Y124530D01*
X384078Y124628D01*
X384065Y124726D01*
X384056Y124825D01*
X384050Y124925D01*
X384048Y125024D01*
X384048Y131516D01*
X384050Y131615D01*
X384056Y131715D01*
X384065Y131814D01*
X384078Y131912D01*
X384095Y132010D01*
X384116Y132108D01*
X384141Y132204D01*
X384169Y132299D01*
X384201Y132393D01*
X384236Y132486D01*
X384275Y132578D01*
X384318Y132668D01*
X384363Y132756D01*
X384413Y132843D01*
X384465Y132927D01*
X384521Y133010D01*
X384579Y133090D01*
X384641Y133168D01*
X384706Y133243D01*
X384774Y133316D01*
X384844Y133386D01*
X384917Y133454D01*
X384992Y133519D01*
X385070Y133581D01*
X385150Y133639D01*
X385233Y133695D01*
X385317Y133747D01*
X385404Y133797D01*
X385492Y133842D01*
X385582Y133885D01*
X385674Y133924D01*
X385766Y133959D01*
X385861Y133991D01*
X385956Y134019D01*
X386052Y134044D01*
X386150Y134065D01*
X386248Y134082D01*
X386346Y134095D01*
X386445Y134104D01*
X386545Y134110D01*
X386644Y134112D01*
X389241Y134112D01*
X393606Y131516D02*
X396852Y134112D01*
X396852Y122428D01*
X400097Y122428D02*
X393606Y122428D01*
X405036Y131516D02*
X408282Y134112D01*
X408282Y122428D01*
X411527Y122428D02*
X405036Y122428D01*
X353568Y126238D02*
X353568Y137922D01*
X356814Y137922D01*
X356927Y137920D01*
X357040Y137914D01*
X357153Y137904D01*
X357266Y137890D01*
X357378Y137873D01*
X357489Y137851D01*
X357599Y137826D01*
X357709Y137796D01*
X357817Y137763D01*
X357924Y137726D01*
X358030Y137686D01*
X358134Y137641D01*
X358237Y137593D01*
X358338Y137542D01*
X358437Y137487D01*
X358534Y137429D01*
X358629Y137367D01*
X358722Y137302D01*
X358812Y137234D01*
X358900Y137163D01*
X358986Y137088D01*
X359069Y137011D01*
X359149Y136931D01*
X359226Y136848D01*
X359301Y136762D01*
X359372Y136674D01*
X359440Y136584D01*
X359505Y136491D01*
X359567Y136396D01*
X359625Y136299D01*
X359680Y136200D01*
X359731Y136099D01*
X359779Y135996D01*
X359824Y135892D01*
X359864Y135786D01*
X359901Y135679D01*
X359934Y135571D01*
X359964Y135461D01*
X359989Y135351D01*
X360011Y135240D01*
X360028Y135128D01*
X360042Y135015D01*
X360052Y134902D01*
X360058Y134789D01*
X360060Y134676D01*
X360058Y134563D01*
X360052Y134450D01*
X360042Y134337D01*
X360028Y134224D01*
X360011Y134112D01*
X359989Y134001D01*
X359964Y133891D01*
X359934Y133781D01*
X359901Y133673D01*
X359864Y133566D01*
X359824Y133460D01*
X359779Y133356D01*
X359731Y133253D01*
X359680Y133152D01*
X359625Y133053D01*
X359567Y132956D01*
X359505Y132861D01*
X359440Y132768D01*
X359372Y132678D01*
X359301Y132590D01*
X359226Y132504D01*
X359149Y132421D01*
X359069Y132341D01*
X358986Y132264D01*
X358900Y132189D01*
X358812Y132118D01*
X358722Y132050D01*
X358629Y131985D01*
X358534Y131923D01*
X358437Y131865D01*
X358338Y131810D01*
X358237Y131759D01*
X358134Y131711D01*
X358030Y131666D01*
X357924Y131626D01*
X357817Y131589D01*
X357709Y131556D01*
X357599Y131526D01*
X357489Y131501D01*
X357378Y131479D01*
X357266Y131462D01*
X357153Y131448D01*
X357040Y131438D01*
X356927Y131432D01*
X356814Y131430D01*
X356814Y131431D02*
X353568Y131431D01*
X357463Y131431D02*
X360059Y126238D01*
X364924Y126238D02*
X368170Y126238D01*
X368283Y126240D01*
X368396Y126246D01*
X368509Y126256D01*
X368622Y126270D01*
X368734Y126287D01*
X368845Y126309D01*
X368955Y126334D01*
X369065Y126364D01*
X369173Y126397D01*
X369280Y126434D01*
X369386Y126474D01*
X369490Y126519D01*
X369593Y126567D01*
X369694Y126618D01*
X369793Y126673D01*
X369890Y126731D01*
X369985Y126793D01*
X370078Y126858D01*
X370168Y126926D01*
X370256Y126997D01*
X370342Y127072D01*
X370425Y127149D01*
X370505Y127229D01*
X370582Y127312D01*
X370657Y127398D01*
X370728Y127486D01*
X370796Y127576D01*
X370861Y127669D01*
X370923Y127764D01*
X370981Y127861D01*
X371036Y127960D01*
X371087Y128061D01*
X371135Y128164D01*
X371180Y128268D01*
X371220Y128374D01*
X371257Y128481D01*
X371290Y128589D01*
X371320Y128699D01*
X371345Y128809D01*
X371367Y128920D01*
X371384Y129032D01*
X371398Y129145D01*
X371408Y129258D01*
X371414Y129371D01*
X371416Y129484D01*
X371414Y129597D01*
X371408Y129710D01*
X371398Y129823D01*
X371384Y129936D01*
X371367Y130048D01*
X371345Y130159D01*
X371320Y130269D01*
X371290Y130379D01*
X371257Y130487D01*
X371220Y130594D01*
X371180Y130700D01*
X371135Y130804D01*
X371087Y130907D01*
X371036Y131008D01*
X370981Y131107D01*
X370923Y131204D01*
X370861Y131299D01*
X370796Y131392D01*
X370728Y131482D01*
X370657Y131570D01*
X370582Y131656D01*
X370505Y131739D01*
X370425Y131819D01*
X370342Y131896D01*
X370256Y131971D01*
X370168Y132042D01*
X370078Y132110D01*
X369985Y132175D01*
X369890Y132237D01*
X369793Y132295D01*
X369694Y132350D01*
X369593Y132401D01*
X369490Y132449D01*
X369386Y132494D01*
X369280Y132534D01*
X369173Y132571D01*
X369065Y132604D01*
X368955Y132634D01*
X368845Y132659D01*
X368734Y132681D01*
X368622Y132698D01*
X368509Y132712D01*
X368396Y132722D01*
X368283Y132728D01*
X368170Y132730D01*
X368819Y137922D02*
X364924Y137922D01*
X368819Y137922D02*
X368920Y137920D01*
X369020Y137914D01*
X369120Y137904D01*
X369220Y137891D01*
X369319Y137873D01*
X369418Y137852D01*
X369515Y137827D01*
X369612Y137798D01*
X369707Y137765D01*
X369801Y137729D01*
X369893Y137689D01*
X369984Y137646D01*
X370073Y137599D01*
X370160Y137549D01*
X370246Y137495D01*
X370329Y137438D01*
X370409Y137378D01*
X370488Y137315D01*
X370564Y137248D01*
X370637Y137179D01*
X370707Y137107D01*
X370775Y137033D01*
X370840Y136956D01*
X370901Y136876D01*
X370960Y136794D01*
X371015Y136710D01*
X371067Y136624D01*
X371116Y136536D01*
X371161Y136446D01*
X371203Y136354D01*
X371241Y136261D01*
X371275Y136166D01*
X371306Y136071D01*
X371333Y135974D01*
X371356Y135876D01*
X371376Y135777D01*
X371391Y135677D01*
X371403Y135577D01*
X371411Y135477D01*
X371415Y135376D01*
X371415Y135276D01*
X371411Y135175D01*
X371403Y135075D01*
X371391Y134975D01*
X371376Y134875D01*
X371356Y134776D01*
X371333Y134678D01*
X371306Y134581D01*
X371275Y134486D01*
X371241Y134391D01*
X371203Y134298D01*
X371161Y134206D01*
X371116Y134116D01*
X371067Y134028D01*
X371015Y133942D01*
X370960Y133858D01*
X370901Y133776D01*
X370840Y133696D01*
X370775Y133619D01*
X370707Y133545D01*
X370637Y133473D01*
X370564Y133404D01*
X370488Y133337D01*
X370409Y133274D01*
X370329Y133214D01*
X370246Y133157D01*
X370160Y133103D01*
X370073Y133053D01*
X369984Y133006D01*
X369893Y132963D01*
X369801Y132923D01*
X369707Y132887D01*
X369612Y132854D01*
X369515Y132825D01*
X369418Y132800D01*
X369319Y132779D01*
X369220Y132761D01*
X369120Y132748D01*
X369020Y132738D01*
X368920Y132732D01*
X368819Y132730D01*
X368819Y132729D02*
X366223Y132729D01*
X389128Y51562D02*
X389128Y39878D01*
X389128Y51562D02*
X392374Y51562D01*
X392487Y51560D01*
X392600Y51554D01*
X392713Y51544D01*
X392826Y51530D01*
X392938Y51513D01*
X393049Y51491D01*
X393159Y51466D01*
X393269Y51436D01*
X393377Y51403D01*
X393484Y51366D01*
X393590Y51326D01*
X393694Y51281D01*
X393797Y51233D01*
X393898Y51182D01*
X393997Y51127D01*
X394094Y51069D01*
X394189Y51007D01*
X394282Y50942D01*
X394372Y50874D01*
X394460Y50803D01*
X394546Y50728D01*
X394629Y50651D01*
X394709Y50571D01*
X394786Y50488D01*
X394861Y50402D01*
X394932Y50314D01*
X395000Y50224D01*
X395065Y50131D01*
X395127Y50036D01*
X395185Y49939D01*
X395240Y49840D01*
X395291Y49739D01*
X395339Y49636D01*
X395384Y49532D01*
X395424Y49426D01*
X395461Y49319D01*
X395494Y49211D01*
X395524Y49101D01*
X395549Y48991D01*
X395571Y48880D01*
X395588Y48768D01*
X395602Y48655D01*
X395612Y48542D01*
X395618Y48429D01*
X395620Y48316D01*
X395618Y48203D01*
X395612Y48090D01*
X395602Y47977D01*
X395588Y47864D01*
X395571Y47752D01*
X395549Y47641D01*
X395524Y47531D01*
X395494Y47421D01*
X395461Y47313D01*
X395424Y47206D01*
X395384Y47100D01*
X395339Y46996D01*
X395291Y46893D01*
X395240Y46792D01*
X395185Y46693D01*
X395127Y46596D01*
X395065Y46501D01*
X395000Y46408D01*
X394932Y46318D01*
X394861Y46230D01*
X394786Y46144D01*
X394709Y46061D01*
X394629Y45981D01*
X394546Y45904D01*
X394460Y45829D01*
X394372Y45758D01*
X394282Y45690D01*
X394189Y45625D01*
X394094Y45563D01*
X393997Y45505D01*
X393898Y45450D01*
X393797Y45399D01*
X393694Y45351D01*
X393590Y45306D01*
X393484Y45266D01*
X393377Y45229D01*
X393269Y45196D01*
X393159Y45166D01*
X393049Y45141D01*
X392938Y45119D01*
X392826Y45102D01*
X392713Y45088D01*
X392600Y45078D01*
X392487Y45072D01*
X392374Y45070D01*
X392374Y45071D02*
X389128Y45071D01*
X393023Y45071D02*
X395619Y39878D01*
X400484Y42474D02*
X403081Y51562D01*
X400484Y42474D02*
X406975Y42474D01*
X405028Y45071D02*
X405028Y39878D01*
X390585Y22352D02*
X390585Y10668D01*
X390585Y22352D02*
X393830Y22352D01*
X393943Y22350D01*
X394056Y22344D01*
X394169Y22334D01*
X394282Y22320D01*
X394394Y22303D01*
X394505Y22281D01*
X394615Y22256D01*
X394725Y22226D01*
X394833Y22193D01*
X394940Y22156D01*
X395046Y22116D01*
X395150Y22071D01*
X395253Y22023D01*
X395354Y21972D01*
X395453Y21917D01*
X395550Y21859D01*
X395645Y21797D01*
X395738Y21732D01*
X395828Y21664D01*
X395916Y21593D01*
X396002Y21518D01*
X396085Y21441D01*
X396165Y21361D01*
X396242Y21278D01*
X396317Y21192D01*
X396388Y21104D01*
X396456Y21014D01*
X396521Y20921D01*
X396583Y20826D01*
X396641Y20729D01*
X396696Y20630D01*
X396747Y20529D01*
X396795Y20426D01*
X396840Y20322D01*
X396880Y20216D01*
X396917Y20109D01*
X396950Y20001D01*
X396980Y19891D01*
X397005Y19781D01*
X397027Y19670D01*
X397044Y19558D01*
X397058Y19445D01*
X397068Y19332D01*
X397074Y19219D01*
X397076Y19106D01*
X397074Y18993D01*
X397068Y18880D01*
X397058Y18767D01*
X397044Y18654D01*
X397027Y18542D01*
X397005Y18431D01*
X396980Y18321D01*
X396950Y18211D01*
X396917Y18103D01*
X396880Y17996D01*
X396840Y17890D01*
X396795Y17786D01*
X396747Y17683D01*
X396696Y17582D01*
X396641Y17483D01*
X396583Y17386D01*
X396521Y17291D01*
X396456Y17198D01*
X396388Y17108D01*
X396317Y17020D01*
X396242Y16934D01*
X396165Y16851D01*
X396085Y16771D01*
X396002Y16694D01*
X395916Y16619D01*
X395828Y16548D01*
X395738Y16480D01*
X395645Y16415D01*
X395550Y16353D01*
X395453Y16295D01*
X395354Y16240D01*
X395253Y16189D01*
X395150Y16141D01*
X395046Y16096D01*
X394940Y16056D01*
X394833Y16019D01*
X394725Y15986D01*
X394615Y15956D01*
X394505Y15931D01*
X394394Y15909D01*
X394282Y15892D01*
X394169Y15878D01*
X394056Y15868D01*
X393943Y15862D01*
X393830Y15860D01*
X393830Y15861D02*
X390585Y15861D01*
X394479Y15861D02*
X397076Y10668D01*
X401941Y10668D02*
X405836Y10668D01*
X405935Y10670D01*
X406035Y10676D01*
X406134Y10685D01*
X406232Y10698D01*
X406330Y10715D01*
X406428Y10736D01*
X406524Y10761D01*
X406619Y10789D01*
X406713Y10821D01*
X406806Y10856D01*
X406898Y10895D01*
X406988Y10938D01*
X407076Y10983D01*
X407163Y11033D01*
X407247Y11085D01*
X407330Y11141D01*
X407410Y11199D01*
X407488Y11261D01*
X407563Y11326D01*
X407636Y11394D01*
X407706Y11464D01*
X407774Y11537D01*
X407839Y11612D01*
X407901Y11690D01*
X407959Y11770D01*
X408015Y11853D01*
X408067Y11937D01*
X408117Y12024D01*
X408162Y12112D01*
X408205Y12202D01*
X408244Y12294D01*
X408279Y12387D01*
X408311Y12481D01*
X408339Y12576D01*
X408364Y12672D01*
X408385Y12770D01*
X408402Y12868D01*
X408415Y12966D01*
X408424Y13065D01*
X408430Y13165D01*
X408432Y13264D01*
X408432Y14563D01*
X408430Y14662D01*
X408424Y14762D01*
X408415Y14861D01*
X408402Y14959D01*
X408385Y15057D01*
X408364Y15155D01*
X408339Y15251D01*
X408311Y15346D01*
X408279Y15440D01*
X408244Y15533D01*
X408205Y15625D01*
X408162Y15715D01*
X408117Y15803D01*
X408067Y15890D01*
X408015Y15974D01*
X407959Y16057D01*
X407901Y16137D01*
X407839Y16215D01*
X407774Y16290D01*
X407706Y16363D01*
X407636Y16433D01*
X407563Y16501D01*
X407488Y16566D01*
X407410Y16628D01*
X407330Y16686D01*
X407247Y16742D01*
X407163Y16794D01*
X407076Y16844D01*
X406988Y16889D01*
X406898Y16932D01*
X406806Y16971D01*
X406713Y17006D01*
X406619Y17038D01*
X406524Y17066D01*
X406428Y17091D01*
X406330Y17112D01*
X406232Y17129D01*
X406134Y17142D01*
X406035Y17151D01*
X405935Y17157D01*
X405836Y17159D01*
X401941Y17159D01*
X401941Y22352D01*
X408432Y22352D01*
X380492Y22154D02*
X380492Y24751D01*
X380492Y22154D02*
X380490Y22055D01*
X380484Y21955D01*
X380475Y21856D01*
X380462Y21758D01*
X380445Y21660D01*
X380424Y21562D01*
X380399Y21466D01*
X380371Y21371D01*
X380339Y21277D01*
X380304Y21184D01*
X380265Y21092D01*
X380222Y21002D01*
X380177Y20914D01*
X380127Y20827D01*
X380075Y20743D01*
X380019Y20660D01*
X379961Y20580D01*
X379899Y20502D01*
X379834Y20427D01*
X379766Y20354D01*
X379696Y20284D01*
X379623Y20216D01*
X379548Y20151D01*
X379470Y20089D01*
X379390Y20031D01*
X379307Y19975D01*
X379223Y19923D01*
X379136Y19873D01*
X379048Y19828D01*
X378958Y19785D01*
X378866Y19746D01*
X378773Y19711D01*
X378679Y19679D01*
X378584Y19651D01*
X378488Y19626D01*
X378390Y19605D01*
X378292Y19588D01*
X378194Y19575D01*
X378095Y19566D01*
X377995Y19560D01*
X377896Y19558D01*
X371404Y19558D01*
X371305Y19560D01*
X371205Y19566D01*
X371106Y19575D01*
X371008Y19588D01*
X370910Y19606D01*
X370812Y19626D01*
X370716Y19651D01*
X370620Y19679D01*
X370526Y19711D01*
X370433Y19746D01*
X370342Y19785D01*
X370252Y19828D01*
X370163Y19873D01*
X370077Y19923D01*
X369992Y19975D01*
X369910Y20031D01*
X369830Y20090D01*
X369752Y20151D01*
X369676Y20216D01*
X369603Y20284D01*
X369533Y20354D01*
X369465Y20427D01*
X369400Y20503D01*
X369339Y20581D01*
X369280Y20661D01*
X369224Y20743D01*
X369172Y20828D01*
X369123Y20914D01*
X369077Y21003D01*
X369034Y21093D01*
X368995Y21184D01*
X368960Y21277D01*
X368928Y21371D01*
X368900Y21467D01*
X368875Y21563D01*
X368855Y21661D01*
X368837Y21759D01*
X368824Y21857D01*
X368815Y21956D01*
X368809Y22055D01*
X368807Y22155D01*
X368808Y22154D02*
X368808Y24751D01*
X371404Y29116D02*
X368808Y32362D01*
X380492Y32362D01*
X380492Y35607D02*
X380492Y29116D01*
X368808Y44116D02*
X368810Y44223D01*
X368816Y44329D01*
X368826Y44435D01*
X368839Y44541D01*
X368857Y44647D01*
X368878Y44751D01*
X368903Y44855D01*
X368932Y44958D01*
X368964Y45059D01*
X369001Y45159D01*
X369041Y45258D01*
X369084Y45356D01*
X369131Y45452D01*
X369182Y45546D01*
X369236Y45638D01*
X369293Y45728D01*
X369353Y45816D01*
X369417Y45901D01*
X369484Y45984D01*
X369554Y46065D01*
X369626Y46143D01*
X369702Y46219D01*
X369780Y46291D01*
X369861Y46361D01*
X369944Y46428D01*
X370029Y46492D01*
X370117Y46552D01*
X370207Y46609D01*
X370299Y46663D01*
X370393Y46714D01*
X370489Y46761D01*
X370587Y46804D01*
X370686Y46844D01*
X370786Y46881D01*
X370887Y46913D01*
X370990Y46942D01*
X371094Y46967D01*
X371198Y46988D01*
X371304Y47006D01*
X371410Y47019D01*
X371516Y47029D01*
X371622Y47035D01*
X371729Y47037D01*
X368808Y44116D02*
X368810Y43995D01*
X368816Y43874D01*
X368826Y43754D01*
X368839Y43633D01*
X368857Y43514D01*
X368878Y43394D01*
X368903Y43276D01*
X368932Y43159D01*
X368965Y43042D01*
X369001Y42927D01*
X369042Y42813D01*
X369085Y42700D01*
X369133Y42588D01*
X369184Y42479D01*
X369239Y42371D01*
X369297Y42264D01*
X369358Y42160D01*
X369423Y42058D01*
X369491Y41958D01*
X369562Y41860D01*
X369636Y41764D01*
X369713Y41671D01*
X369794Y41581D01*
X369877Y41493D01*
X369963Y41408D01*
X370052Y41325D01*
X370143Y41246D01*
X370237Y41169D01*
X370333Y41096D01*
X370431Y41026D01*
X370532Y40959D01*
X370635Y40895D01*
X370740Y40835D01*
X370847Y40777D01*
X370955Y40724D01*
X371065Y40674D01*
X371177Y40628D01*
X371290Y40585D01*
X371405Y40546D01*
X374001Y46063D02*
X373923Y46142D01*
X373843Y46218D01*
X373760Y46291D01*
X373674Y46361D01*
X373587Y46428D01*
X373496Y46492D01*
X373404Y46552D01*
X373310Y46610D01*
X373213Y46664D01*
X373115Y46714D01*
X373015Y46761D01*
X372914Y46805D01*
X372811Y46845D01*
X372706Y46881D01*
X372601Y46913D01*
X372494Y46942D01*
X372387Y46967D01*
X372278Y46989D01*
X372169Y47006D01*
X372060Y47020D01*
X371950Y47029D01*
X371839Y47035D01*
X371729Y47037D01*
X374001Y46064D02*
X380492Y40546D01*
X380492Y47037D01*
D15*
X-12180Y52229D02*
X-12180Y107029D01*
X520Y107029D01*
X52820Y107029D01*
X52820Y52229D01*
X520Y52229D01*
X-12180Y52229D01*
X520Y52229D02*
X520Y107029D01*
D10*
X3685Y50830D02*
X3685Y41742D01*
X3683Y41643D01*
X3677Y41543D01*
X3668Y41444D01*
X3655Y41346D01*
X3638Y41248D01*
X3617Y41150D01*
X3592Y41054D01*
X3564Y40959D01*
X3532Y40865D01*
X3497Y40772D01*
X3458Y40680D01*
X3415Y40590D01*
X3370Y40502D01*
X3320Y40415D01*
X3268Y40331D01*
X3212Y40248D01*
X3154Y40168D01*
X3092Y40090D01*
X3027Y40015D01*
X2959Y39942D01*
X2889Y39872D01*
X2816Y39804D01*
X2741Y39739D01*
X2663Y39677D01*
X2583Y39619D01*
X2500Y39563D01*
X2416Y39511D01*
X2329Y39461D01*
X2241Y39416D01*
X2151Y39373D01*
X2059Y39334D01*
X1966Y39299D01*
X1872Y39267D01*
X1777Y39239D01*
X1681Y39214D01*
X1583Y39193D01*
X1485Y39176D01*
X1387Y39163D01*
X1288Y39154D01*
X1188Y39148D01*
X1089Y39146D01*
X-210Y39146D01*
X8959Y48234D02*
X12204Y50830D01*
X12204Y39146D01*
X8959Y39146D02*
X15450Y39146D01*
D15*
X611620Y39529D02*
X611620Y119729D01*
X611620Y39529D02*
X546620Y39529D01*
X546620Y119729D01*
X611620Y119729D01*
X598920Y119729D02*
X598920Y39529D01*
D10*
X549785Y38130D02*
X549785Y29042D01*
X549783Y28943D01*
X549777Y28843D01*
X549768Y28744D01*
X549755Y28646D01*
X549738Y28548D01*
X549717Y28450D01*
X549692Y28354D01*
X549664Y28259D01*
X549632Y28165D01*
X549597Y28072D01*
X549558Y27980D01*
X549515Y27890D01*
X549470Y27802D01*
X549420Y27715D01*
X549368Y27631D01*
X549312Y27548D01*
X549254Y27468D01*
X549192Y27390D01*
X549127Y27315D01*
X549059Y27242D01*
X548989Y27172D01*
X548916Y27104D01*
X548841Y27039D01*
X548763Y26977D01*
X548683Y26919D01*
X548600Y26863D01*
X548516Y26811D01*
X548429Y26761D01*
X548341Y26716D01*
X548251Y26673D01*
X548159Y26634D01*
X548066Y26599D01*
X547972Y26567D01*
X547877Y26539D01*
X547781Y26514D01*
X547683Y26493D01*
X547585Y26476D01*
X547487Y26463D01*
X547388Y26454D01*
X547288Y26448D01*
X547189Y26446D01*
X545890Y26446D01*
X558629Y38130D02*
X558736Y38128D01*
X558842Y38122D01*
X558948Y38112D01*
X559054Y38099D01*
X559160Y38081D01*
X559264Y38060D01*
X559368Y38035D01*
X559471Y38006D01*
X559572Y37974D01*
X559672Y37937D01*
X559771Y37897D01*
X559869Y37854D01*
X559965Y37807D01*
X560059Y37756D01*
X560151Y37702D01*
X560241Y37645D01*
X560329Y37585D01*
X560414Y37521D01*
X560497Y37454D01*
X560578Y37384D01*
X560656Y37312D01*
X560732Y37236D01*
X560804Y37158D01*
X560874Y37077D01*
X560941Y36994D01*
X561005Y36909D01*
X561065Y36821D01*
X561122Y36731D01*
X561176Y36639D01*
X561227Y36545D01*
X561274Y36449D01*
X561317Y36351D01*
X561357Y36252D01*
X561394Y36152D01*
X561426Y36051D01*
X561455Y35948D01*
X561480Y35844D01*
X561501Y35740D01*
X561519Y35634D01*
X561532Y35528D01*
X561542Y35422D01*
X561548Y35316D01*
X561550Y35209D01*
X558629Y38130D02*
X558508Y38128D01*
X558387Y38122D01*
X558267Y38112D01*
X558146Y38099D01*
X558027Y38081D01*
X557907Y38060D01*
X557789Y38035D01*
X557672Y38006D01*
X557555Y37973D01*
X557440Y37937D01*
X557326Y37896D01*
X557213Y37853D01*
X557101Y37805D01*
X556992Y37754D01*
X556884Y37699D01*
X556777Y37641D01*
X556673Y37580D01*
X556571Y37515D01*
X556471Y37447D01*
X556373Y37376D01*
X556277Y37302D01*
X556184Y37225D01*
X556094Y37144D01*
X556006Y37061D01*
X555921Y36975D01*
X555838Y36886D01*
X555759Y36795D01*
X555682Y36701D01*
X555609Y36605D01*
X555539Y36507D01*
X555472Y36406D01*
X555408Y36303D01*
X555348Y36198D01*
X555291Y36091D01*
X555237Y35983D01*
X555187Y35873D01*
X555141Y35761D01*
X555098Y35648D01*
X555059Y35533D01*
X560576Y32937D02*
X560655Y33014D01*
X560731Y33095D01*
X560804Y33178D01*
X560874Y33263D01*
X560941Y33351D01*
X561005Y33441D01*
X561065Y33533D01*
X561122Y33628D01*
X561176Y33724D01*
X561227Y33822D01*
X561274Y33922D01*
X561318Y34024D01*
X561358Y34127D01*
X561394Y34231D01*
X561426Y34337D01*
X561455Y34443D01*
X561480Y34551D01*
X561502Y34659D01*
X561519Y34769D01*
X561533Y34878D01*
X561542Y34988D01*
X561548Y35099D01*
X561550Y35209D01*
X560576Y32937D02*
X555059Y26446D01*
X561550Y26446D01*
M02*
