G04 EAGLE Gerber RS-274X export*
G75*
%MOMM*%
%FSLAX34Y34*%
%LPD*%
%INSoldermask Bottom*%
%IPPOS*%
%AMOC8*
5,1,8,0,0,1.08239X$1,22.5*%
G01*
%ADD10C,1.853200*%
%ADD11R,1.853200X1.853200*%
%ADD12C,1.581200*%
%ADD13R,1.581200X1.581200*%
%ADD14R,2.153200X2.153200*%
%ADD15C,2.153200*%
%ADD16C,0.959600*%


D10*
X325120Y25400D03*
X299720Y25400D03*
D11*
X350520Y25400D03*
D10*
X274320Y25400D03*
X248920Y25400D03*
X223520Y25400D03*
D12*
X470220Y66929D03*
D13*
X470220Y92329D03*
D14*
X20320Y66929D03*
D15*
X20320Y92329D03*
D14*
X579120Y105029D03*
D15*
X579120Y79629D03*
X579120Y54229D03*
D16*
X153670Y81280D03*
X190500Y29210D03*
X217170Y86360D03*
X217170Y102870D03*
X273050Y95250D03*
X364490Y45720D03*
X93980Y57150D03*
X76200Y128270D03*
X138430Y40640D03*
X397510Y92710D03*
X405130Y86360D03*
X397510Y80010D03*
X369570Y86360D03*
X425620Y104310D03*
X449580Y86360D03*
X374650Y26670D03*
X443230Y44450D03*
X334010Y129540D03*
X430530Y74930D03*
X455930Y101600D03*
X471221Y116891D03*
X241300Y118110D03*
X167640Y128270D03*
X288290Y13970D03*
X273050Y110490D03*
X431241Y97079D03*
X322580Y105410D03*
X355600Y105410D03*
X321310Y57150D03*
X335665Y62615D03*
X205740Y134620D03*
X360482Y88900D03*
X248920Y101600D03*
X381146Y67904D03*
X380152Y109028D03*
M02*
